<svg width="51" height="30" viewBox="0 0 51 30" fill="none" xmlns="http://www.w3.org/2000/svg">
<path d="M1 1.92488V27.6429" stroke="#00494E" stroke-width="0.0618038"/>
<path d="M41.0504 27.624L42.4479 1.94396" stroke="#00D1FF" stroke-width="0.0618038"/>
<path d="M1.49451 2.24211L2.47448 27.9414" stroke="#004B50" stroke-width="0.0618038"/>
<path d="M1.98877 2.55946L3.9473 28.2028" stroke="#004C52" stroke-width="0.0618038"/>
<path d="M2.48328 2.87669L5.41751 28.4268" stroke="#004E54" stroke-width="0.0618038"/>
<path d="M2.97778 3.19405L6.88347 28.6137" stroke="#005056" stroke-width="0.0618038"/>
<path d="M3.47241 3.51126L8.34387 28.7637" stroke="#005159" stroke-width="0.0618038"/>
<path d="M3.96655 3.82861L9.79671 28.8771" stroke="#00535B" stroke-width="0.0618038"/>
<path d="M4.4613 4.14583L11.2417 28.9539" stroke="#00555D" stroke-width="0.0618038"/>
<path d="M4.95569 4.46306L12.6765 28.9948" stroke="#00565F" stroke-width="0.0618038"/>
<path d="M5.44995 4.78029L14.0999 29" stroke="#005861" stroke-width="0.0618038"/>
<path d="M5.94458 5.09764L15.5111 28.9702" stroke="#005A63" stroke-width="0.0618038"/>
<path d="M6.43896 5.41487L16.9082 28.9055" stroke="#005B66" stroke-width="0.0618038"/>
<path d="M6.93335 5.7321L18.2901 28.8068" stroke="#005D68" stroke-width="0.0618038"/>
<path d="M7.42786 6.04945L19.6556 28.6746" stroke="#005F6A" stroke-width="0.0618038"/>
<path d="M7.92224 6.36679L21.0032 28.5096" stroke="#00606C" stroke-width="0.0618038"/>
<path d="M8.41663 6.68402L22.3319 28.3123" stroke="#00626E" stroke-width="0.0618038"/>
<path d="M8.91113 7.00125L23.6404 28.0836" stroke="#006471" stroke-width="0.0618038"/>
<path d="M9.40552 7.31847L24.9274 27.8242" stroke="#006573" stroke-width="0.0618038"/>
<path d="M9.90015 7.63583L26.1921 27.5352" stroke="#006775" stroke-width="0.0618038"/>
<path d="M10.3944 7.95305L27.4328 27.2172" stroke="#006977" stroke-width="0.0618038"/>
<path d="M10.8888 8.27028L28.6489 26.8712" stroke="#006B79" stroke-width="0.0618038"/>
<path d="M11.3835 8.58763L29.8395 26.4983" stroke="#006C7C" stroke-width="0.0618038"/>
<path d="M11.8778 8.90486L31.0029 26.0993" stroke="#006E7E" stroke-width="0.0618038"/>
<path d="M12.3724 9.2222L32.1388 25.6754" stroke="#007080" stroke-width="0.0618038"/>
<path d="M12.8668 9.53943L33.2458 25.2274" stroke="#007182" stroke-width="0.0618038"/>
<path d="M13.3612 9.85666L34.3231 24.7568" stroke="#007384" stroke-width="0.0618038"/>
<path d="M13.8557 10.174L35.3702 24.2645" stroke="#007587" stroke-width="0.0618038"/>
<path d="M14.3501 10.4912L36.3859 23.7517" stroke="#007689" stroke-width="0.0618038"/>
<path d="M14.8446 10.8085L37.3697 23.2197" stroke="#00788B" stroke-width="0.0618038"/>
<path d="M15.339 11.1258L38.3206 22.6697" stroke="#007A8D" stroke-width="0.0618038"/>
<path d="M15.8334 11.4431L39.2382 22.1028" stroke="#007B8F" stroke-width="0.0618038"/>
<path d="M16.3279 11.7603L40.1219 21.5205" stroke="#007D91" stroke-width="0.0618038"/>
<path d="M16.8225 12.0776L40.9711 20.9241" stroke="#007F94" stroke-width="0.0618038"/>
<path d="M17.3167 12.395L41.7848 20.3148" stroke="#008096" stroke-width="0.0618038"/>
<path d="M17.8114 12.7122L42.5636 19.694" stroke="#008298" stroke-width="0.0618038"/>
<path d="M18.3058 13.0294L43.306 19.0629" stroke="#00849A" stroke-width="0.0618038"/>
<path d="M18.8 13.3467L44.012 18.4232" stroke="#00859C" stroke-width="0.0618038"/>
<path d="M19.2947 13.664L44.6818 17.7761" stroke="#00879F" stroke-width="0.0618038"/>
<path d="M19.7891 13.9812L45.3144 17.123" stroke="#0089A1" stroke-width="0.0618038"/>
<path d="M20.2834 14.2985L45.91 16.4653" stroke="#008AA3" stroke-width="0.0618038"/>
<path d="M20.778 14.6158L46.4685 15.8046" stroke="#008CA5" stroke-width="0.0618038"/>
<path d="M21.2725 14.933L46.9896 15.142" stroke="#008EA7" stroke-width="0.0618038"/>
<path d="M21.7667 15.2504L47.4732 14.4793" stroke="#0090AA" stroke-width="0.0618038"/>
<path d="M22.2612 15.5676L47.9196 13.8175" stroke="#0091AC" stroke-width="0.0618038"/>
<path d="M22.7557 15.8848L48.3288 13.1583" stroke="#0093AE" stroke-width="0.0618038"/>
<path d="M23.2504 16.2022L48.701 12.5032" stroke="#0095B0" stroke-width="0.0618038"/>
<path d="M23.7445 16.5194L49.0357 11.8533" stroke="#0096B2" stroke-width="0.0618038"/>
<path d="M24.239 16.8366L49.334 11.2102" stroke="#0098B5" stroke-width="0.0618038"/>
<path d="M24.7336 17.1539L49.596 10.5753" stroke="#009AB7" stroke-width="0.0618038"/>
<path d="M25.2279 17.4712L49.8216 9.95006" stroke="#009BB9" stroke-width="0.0618038"/>
<path d="M25.7225 17.7885L50.0117 9.33562" stroke="#009DBB" stroke-width="0.0618038"/>
<path d="M26.2169 18.1058L50.1664 8.73356" stroke="#009FBD" stroke-width="0.0618038"/>
<path d="M26.7113 18.423L50.2862 8.14503" stroke="#00A0BF" stroke-width="0.0618038"/>
<path d="M27.2058 18.7404L50.372 7.57153" stroke="#00A2C2" stroke-width="0.0618038"/>
<path d="M27.7002 19.0576L50.424 7.01413" stroke="#00A4C4" stroke-width="0.0618038"/>
<path d="M28.1947 19.3748L50.4431 6.47422" stroke="#00A5C6" stroke-width="0.0618038"/>
<path d="M28.6891 19.6922L50.4297 5.95316" stroke="#00A7C8" stroke-width="0.0618038"/>
<path d="M29.1835 20.0094L50.3848 5.45195" stroke="#00A9CA" stroke-width="0.0618038"/>
<path d="M29.678 20.3266L50.3092 4.97187" stroke="#00AACD" stroke-width="0.0618038"/>
<path d="M30.1726 20.644L50.2037 4.51424" stroke="#00ACCF" stroke-width="0.0618038"/>
<path d="M30.6667 20.9612L50.0687 4.07989" stroke="#00AED1" stroke-width="0.0618038"/>
<path d="M31.1615 21.2786L49.9061 3.6702" stroke="#00AFD3" stroke-width="0.0618038"/>
<path d="M31.6559 21.5958L49.7159 3.28596" stroke="#00B1D5" stroke-width="0.0618038"/>
<path d="M32.15 21.913L49.4993 2.92831" stroke="#00B3D8" stroke-width="0.0618038"/>
<path d="M32.6448 22.2304L49.258 2.59835" stroke="#00B5DA" stroke-width="0.0618038"/>
<path d="M33.1393 22.5476L48.9924 2.2968" stroke="#00B6DC" stroke-width="0.0618038"/>
<path d="M33.6337 22.8648L48.7036 2.02466" stroke="#00B8DE" stroke-width="0.0618038"/>
<path d="M34.1281 23.1821L48.3929 1.78279" stroke="#00BAE0" stroke-width="0.0618038"/>
<path d="M34.6226 23.4994L48.0617 1.57212" stroke="#00BBE3" stroke-width="0.0618038"/>
<path d="M35.1169 23.8166L47.7108 1.39318" stroke="#00BDE5" stroke-width="0.0618038"/>
<path d="M35.6113 24.134L47.3416 1.24692" stroke="#00BFE7" stroke-width="0.0618038"/>
<path d="M36.1058 24.4512L46.9554 1.1338" stroke="#00C0E9" stroke-width="0.0618038"/>
<path d="M36.6005 24.7686L46.5537 1.05466" stroke="#00C2EB" stroke-width="0.0618038"/>
<path d="M37.0946 25.0858L46.137 1.00985" stroke="#00C4ED" stroke-width="0.0618038"/>
<path d="M37.5891 25.403L45.7075 0.999993" stroke="#00C5F0" stroke-width="0.0618038"/>
<path d="M38.0837 25.7202L45.2664 1.0256" stroke="#00C7F2" stroke-width="0.0618038"/>
<path d="M38.5779 26.0376L44.8143 1.08719" stroke="#00C9F4" stroke-width="0.0618038"/>
<path d="M39.0726 26.3548L44.3538 1.1849" stroke="#00CAF6" stroke-width="0.0618038"/>
<path d="M39.5671 26.672L43.8854 1.31916" stroke="#00CCF8" stroke-width="0.0618038"/>
<path d="M40.0614 26.9894L43.4105 1.49038" stroke="#00CEFB" stroke-width="0.0618038"/>
<path d="M40.5559 27.3067L42.9309 1.69863" stroke="#00CFFD" stroke-width="0.0618038"/>
</svg>
