<svg width="22" height="22" viewBox="0 0 22 22" fill="none" xmlns="http://www.w3.org/2000/svg">
<path d="M0 7.9619C0 5.17498 0 3.78151 0.542372 2.71705C1.01946 1.78072 1.78072 1.01946 2.71705 0.542372C3.78151 0 5.17498 0 7.96191 0H14.0381C16.825 0 18.2185 0 19.283 0.542372C20.2193 1.01946 20.9805 1.78072 21.4576 2.71705C22 3.78151 22 5.17498 22 7.96191V14.0381C22 16.825 22 18.2185 21.4576 19.283C20.9805 20.2193 20.2193 20.9805 19.283 21.4576C18.2185 22 16.825 22 14.0381 22H7.9619C5.17498 22 3.78151 22 2.71705 21.4576C1.78072 20.9805 1.01946 20.2193 0.542372 19.283C0 18.2185 0 16.825 0 14.0381V7.9619Z" fill="#470137"/>
<path d="M11.508 6.46942L8.76292 11.1164L11.6998 16.051C11.7609 16.1629 11.6998 16.1876 11.6113 16.1876H9.51563C9.36801 16.1876 9.26471 16.1822 9.20567 16.0813C9.00873 15.6877 8.81196 15.2967 8.61535 14.9082C8.41841 14.5198 8.20934 14.1237 7.98814 13.7199C7.76676 13.3164 7.54784 12.9078 7.33139 12.4938C7.13444 12.8976 6.91551 13.3012 6.70413 13.7048C6.49247 14.1085 6.2834 14.5096 6.07692 14.9082C5.87031 15.3069 5.65878 15.703 5.44233 16.0964C5.4029 16.1872 5.33392 16.1966 5.23568 16.1966H3.21382C3.13438 16.1966 3.12479 16.1369 3.16955 16.0661L6.01789 11.2678L3.24331 6.45427C3.19291 6.3856 3.23629 6.3124 3.31712 6.31804H5.39802C5.48812 6.31295 5.56775 6.34696 5.6194 6.42402C5.79651 6.82772 5.99328 7.23137 6.20972 7.63495C6.42604 8.03868 6.64496 8.43728 6.86647 8.83075C7.08785 9.22431 7.30678 9.62291 7.49373 10.0266C7.6904 9.61289 7.88964 9.20925 8.09144 8.81563C8.29299 8.42207 8.4996 8.02598 8.71126 7.62738C8.92275 7.22886 9.12691 6.83278 9.32375 6.43915C9.3499 6.3528 9.41241 6.30905 9.50086 6.31804H11.4342C11.508 6.31804 11.5385 6.4188 11.508 6.46942Z" fill="#FF61F6"/>
<path d="M15.7435 16.3841C14.442 16.4044 13.0787 15.8686 12.3934 14.6812C12.0588 14.1112 11.8915 13.3973 11.8916 12.5394C11.886 11.8447 12.0591 11.1607 12.3934 10.5565C13.2558 9.01476 14.9933 8.43712 16.6437 8.58869V5.60675C16.6437 5.53626 16.6733 5.50079 16.7323 5.50079H18.5918C18.6427 5.49334 18.6877 5.53947 18.6804 5.5916V14.5374C18.6804 14.9065 18.717 15.2743 18.7395 15.6424C18.7431 15.7053 18.7067 15.7675 18.6509 15.7938C17.7321 16.1868 16.738 16.3796 15.7435 16.3841ZM16.6437 14.5071V10.3748C15.2958 10.0003 13.9871 11.027 13.9872 12.4486C13.9552 13.9182 15.2221 14.9336 16.6437 14.5071Z" fill="#FF61F6"/>
</svg>
