<svg width="22" height="22" viewBox="0 0 22 22" fill="none" xmlns="http://www.w3.org/2000/svg">
<path d="M0 7.9619C0 5.17498 0 3.78151 0.542372 2.71705C1.01946 1.78072 1.78072 1.01946 2.71705 0.542372C3.78151 0 5.17498 0 7.96191 0H14.0381C16.825 0 18.2185 0 19.283 0.542372C20.2193 1.01946 20.9805 1.78072 21.4576 2.71705C22 3.78151 22 5.17498 22 7.96191V14.0381C22 16.825 22 18.2185 21.4576 19.283C20.9805 20.2193 20.2193 20.9805 19.283 21.4576C18.2185 22 16.825 22 14.0381 22H7.9619C5.17498 22 3.78151 22 2.71705 21.4576C1.78072 20.9805 1.01946 20.2193 0.542372 19.283C0 18.2185 0 16.825 0 14.0381V7.9619Z" fill="#000B1D"/>
<path d="M12.7851 10.6548L13.8395 10.6859L13.8512 16.2365C13.8512 16.3262 13.8909 16.3711 13.9709 16.3711H15.6746C15.7347 16.3711 15.772 16.3561 15.787 16.3262C15.8013 16.2984 15.809 16.2677 15.8093 16.2365L15.7976 10.6859H17.26C17.3498 10.686 17.3947 10.6511 17.3947 10.5812V9.26515C17.3969 9.23362 17.389 9.20221 17.3722 9.17546C17.3572 9.15552 17.3196 9.14556 17.26 9.14556H15.7976V8.54766C15.7893 8.32179 15.8223 8.09629 15.895 7.88227C15.9476 7.73204 16.0542 7.60674 16.1942 7.53084C16.3837 7.45863 16.5852 7.42311 16.7879 7.42617H17.0123C17.0921 7.42617 17.2555 7.4313 17.3254 7.44116C17.4053 7.46116 17.4453 7.43623 17.4453 7.36638V5.88604C17.4461 5.8532 17.4363 5.82097 17.4174 5.79408C17.3986 5.76718 17.3716 5.74702 17.3404 5.73656C17.1993 5.6945 17.0543 5.66693 16.9076 5.65428C16.7635 5.63861 16.6185 5.63113 16.4735 5.63188C15.9561 5.60663 15.4436 5.74246 15.0068 6.02061C14.6411 6.27582 14.3473 6.62085 14.1538 7.02244C14.0405 7.26232 13.9599 7.51631 13.9142 7.7776C13.8623 8.22191 13.8374 8.66895 13.8395 9.11626V9.14556L12.7851 9.13402C12.7709 9.13199 12.7563 9.1333 12.7427 9.13784C12.7291 9.14239 12.7167 9.15004 12.7065 9.16019C12.6963 9.17034 12.6887 9.18272 12.6841 9.19634C12.6795 9.20997 12.6782 9.22447 12.6802 9.23869V10.5501C12.6802 10.6099 12.7152 10.6449 12.7851 10.6548Z" fill="white"/>
<path fill-rule="evenodd" clip-rule="evenodd" d="M4.55469 6.64113V16.1958C4.55468 16.2756 4.58965 16.3154 4.65957 16.3154H6.41111C6.4294 16.318 6.44805 16.3163 6.46558 16.3105C6.4831 16.3047 6.49903 16.2948 6.5121 16.2818C6.52516 16.2687 6.53501 16.2528 6.54086 16.2353C6.54671 16.2178 6.5484 16.1991 6.5458 16.1809V13.2352C6.72533 13.2352 6.86003 13.2377 6.9499 13.2427C7.03944 13.2477 7.19402 13.2502 7.41365 13.2502C8.12755 13.2595 8.8373 13.1404 9.50902 12.8987C10.1117 12.6843 10.6341 12.2902 11.0055 11.7698C11.3938 11.1867 11.5876 10.4959 11.5594 9.7961C11.5607 9.38571 11.4899 8.97828 11.35 8.59241C11.202 8.19597 10.9696 7.83634 10.669 7.5383C10.3143 7.19447 9.88732 6.93395 9.41916 6.77572C8.80186 6.57105 8.1537 6.4749 7.50352 6.49157C7.22424 6.49163 6.94239 6.49413 6.65798 6.49906C6.37358 6.50413 6.10418 6.50913 5.84979 6.51406C5.5952 6.51906 5.35819 6.52403 5.13876 6.52896C4.91913 6.53409 4.80393 6.53646 4.64455 6.53646C4.58471 6.53646 4.55469 6.57147 4.55469 6.64113ZM6.54581 11.4259V8.33073C6.61535 8.32093 6.74255 8.31346 6.92742 8.30833C7.11203 8.30333 7.32402 8.30083 7.5634 8.30083C7.93649 8.28905 8.30812 8.35264 8.65602 8.4878C8.92243 8.59375 9.14971 8.77908 9.30699 9.0186C9.45663 9.26632 9.53197 9.55174 9.52406 9.84096C9.54478 10.1846 9.44125 10.5242 9.23233 10.7979C9.03041 11.0321 8.76537 11.2034 8.46876 11.2914C8.12185 11.3958 7.76092 11.4462 7.39866 11.4409H6.90489C6.79507 11.4409 6.67538 11.4359 6.54581 11.4259Z" fill="white"/>
</svg>
