<svg width="41" height="27" viewBox="0 0 41 27" fill="none" xmlns="http://www.w3.org/2000/svg">
<rect x="0.16875" y="0.16875" width="40.1625" height="26.6625" rx="2.53125" fill="white"/>
<path fill-rule="evenodd" clip-rule="evenodd" d="M7.74142 9.44995L4.05005 17.6188H8.46914L9.01698 16.3164H10.2692L10.8171 17.6188H15.6812V16.6248L16.1147 17.6188H18.6308L19.0642 16.6037V17.6188H29.1804L30.4105 16.3502L31.5623 17.6188L36.7581 17.6293L33.0551 13.5572L36.7581 9.44995H31.6429L30.4454 10.6951L29.3299 9.44995H18.3248L17.3798 11.5584L16.4127 9.44995H12.0028V10.4102L11.5122 9.44995H7.74142ZM22.8479 10.6099H28.657L30.4338 12.5292L32.2678 10.6099H34.0446L31.345 13.5561L34.0446 16.4682H32.1872L30.4105 14.5267L28.5671 16.4682H22.8479V10.6099ZM24.2824 12.8937V11.8226H27.9072L29.4888 13.5339L27.8371 15.2545H24.2824V14.0863H27.4516V12.8937H24.2824ZM8.59649 10.6099H10.7506L13.1991 16.1493V10.6099H15.5588L17.4499 14.5816L19.1929 10.6099H21.5408V16.4717H20.1121L20.1005 11.8785L18.0176 16.4717H16.7396L14.6451 11.8785V16.4717H11.7061L11.1489 15.1575H8.1386L7.58256 16.4705H6.00784L8.59649 10.6099ZM8.6526 13.9427L9.64438 11.6017L10.635 13.9427H8.6526Z" fill="#1F72CD"/>
<rect x="0.16875" y="0.16875" width="40.1625" height="26.6625" rx="2.53125" stroke="#CCCCCC" stroke-width="0.3375"/>
</svg>
