<svg width="41" height="28" viewBox="0 0 41 28" fill="none" xmlns="http://www.w3.org/2000/svg">
<rect x="0.170833" y="0.170833" width="40.6583" height="26.9917" rx="2.5625" fill="white"/>
<path fill-rule="evenodd" clip-rule="evenodd" d="M9.96848 10.0642C10.5049 10.1095 11.0413 9.79274 11.3765 9.39117C11.7062 8.97828 11.9241 8.424 11.8682 7.8584C11.3933 7.88102 10.8066 8.17513 10.4713 8.58802C10.164 8.94434 9.90143 9.52125 9.96848 10.0642ZM16.3494 17.3491V8.53146H19.618C21.3054 8.53146 22.4844 9.7079 22.4844 11.4273C22.4844 13.1467 21.2831 14.3345 19.5733 14.3345H17.7015V17.3491H16.3494ZM11.8626 10.1717C11.39 10.1441 10.9588 10.3155 10.6106 10.454C10.3864 10.5431 10.1966 10.6185 10.0523 10.6185C9.89021 10.6185 9.69258 10.539 9.47069 10.4498C9.17994 10.3329 8.84753 10.1992 8.49894 10.2056C7.69994 10.2169 6.95681 10.6751 6.54892 11.4047C5.7108 12.8639 6.33101 15.0245 7.14119 16.2122C7.5379 16.8005 8.01283 17.4452 8.63863 17.4226C8.91394 17.4121 9.11198 17.327 9.31694 17.239C9.5529 17.1377 9.79802 17.0324 10.1808 17.0324C10.5502 17.0324 10.7846 17.1349 11.0097 17.2333C11.2236 17.3269 11.4291 17.4168 11.7341 17.4113C12.3822 17.4 12.7901 16.8231 13.1868 16.2349C13.6149 15.6036 13.8031 14.9874 13.8316 14.8939C13.8332 14.8886 13.8344 14.8849 13.835 14.8831C13.8343 14.8824 13.829 14.88 13.8196 14.8756C13.6765 14.8093 12.5827 14.3024 12.5722 12.9431C12.5617 11.8022 13.4398 11.2241 13.578 11.1331C13.5864 11.1276 13.5921 11.1238 13.5947 11.1219C13.0359 10.2848 12.1643 10.1943 11.8626 10.1717ZM24.9541 17.417C25.8034 17.417 26.5912 16.9815 26.9488 16.2914H26.9767V17.3491H28.2283V12.9601C28.2283 11.6875 27.2226 10.8674 25.6749 10.8674C24.2389 10.8674 23.1773 11.6988 23.1382 12.8413H24.3562C24.4568 12.2983 24.9541 11.942 25.6358 11.942C26.4627 11.942 26.9265 12.3323 26.9265 13.0506V13.537L25.239 13.6388C23.669 13.7349 22.8197 14.3854 22.8197 15.5166C22.8197 16.6591 23.6969 17.417 24.9541 17.417ZM25.3172 16.3706C24.5964 16.3706 24.1382 16.02 24.1382 15.4826C24.1382 14.9284 24.5796 14.606 25.4233 14.5551L26.9264 14.4589V14.9566C26.9264 15.7824 26.2335 16.3706 25.3172 16.3706ZM32.3798 17.6941C31.8378 19.2382 31.2176 19.7472 29.8989 19.7472C29.7984 19.7472 29.4631 19.7359 29.3849 19.7133V18.6556C29.4687 18.6669 29.6754 18.6783 29.7816 18.6783C30.3795 18.6783 30.7147 18.4237 30.9214 17.762L31.0444 17.3717L28.7535 10.9522H30.1671L31.7596 16.1614H31.7875L33.3799 10.9522H34.7544L32.3798 17.6941ZM17.7014 9.68527H19.2603C20.4337 9.68527 21.1041 10.3187 21.1041 11.433C21.1041 12.5472 20.4337 13.1863 19.2547 13.1863H17.7014V9.68527Z" fill="black"/>
<rect x="0.170833" y="0.170833" width="40.6583" height="26.9917" rx="2.5625" stroke="#CCCCCC" stroke-width="0.341667"/>
</svg>
