<svg width="41" height="28" viewBox="0 0 41 28" fill="none" xmlns="http://www.w3.org/2000/svg">
<rect x="0.170833" y="0.170833" width="40.6583" height="26.9917" rx="2.5625" fill="white"/>
<path d="M20.4295 13.1688C21.1066 13.3483 22.5801 13.739 22.8369 12.7147C23.099 11.6666 21.6674 11.3501 20.9665 11.1952C20.887 11.1776 20.817 11.1621 20.7599 11.1479L20.2648 13.126C20.312 13.1376 20.3674 13.1523 20.4295 13.1688Z" fill="#F7931A"/>
<path d="M19.6622 16.3536C20.4733 16.5672 22.2471 17.0345 22.5294 15.9058C22.8182 14.7517 21.0983 14.3673 20.2591 14.1797C20.1655 14.1588 20.0827 14.1403 20.015 14.1235L19.469 16.3036C19.5244 16.3173 19.5895 16.3344 19.6622 16.3536Z" fill="#F7931A"/>
<path fill-rule="evenodd" clip-rule="evenodd" d="M29.6636 13.8071C29.6636 18.7909 25.6237 22.831 20.6402 22.831C15.6566 22.831 11.6167 18.7909 11.6167 13.8071C11.6167 8.82335 15.6566 4.7832 20.6402 4.7832C25.6237 4.7832 29.6636 8.82335 29.6636 13.8071ZM22.808 10.4544C24.0632 10.8855 24.9814 11.5309 24.8013 12.7321C24.6704 13.6117 24.1811 14.0371 23.5308 14.1861C24.4229 14.6487 24.7269 15.5268 24.4444 16.5885C23.908 18.1163 22.633 18.245 20.9371 17.9256L20.5253 19.5681L19.5313 19.3209L19.9374 17.7005C19.6797 17.6368 19.4163 17.5685 19.145 17.4957L18.7371 19.124L17.7442 18.8769L18.1554 17.2311L16.1531 16.7278L16.647 15.5938C16.647 15.5938 17.38 15.7873 17.3698 15.7732C17.6513 15.8426 17.7765 15.6598 17.8258 15.5385L18.9416 11.0807C18.9541 10.8702 18.881 10.6051 18.4783 10.5046C18.4936 10.4939 17.7561 10.3258 17.7561 10.3258L18.0206 9.26789L20.0258 9.7627L20.4336 8.13553L21.4271 8.38265L21.0278 9.97766C21.2951 10.038 21.5636 10.0995 21.8247 10.1644L22.2212 8.57956L23.2153 8.82668L22.808 10.4544Z" fill="#F7931A"/>
<rect x="0.170833" y="0.170833" width="40.6583" height="26.9917" rx="2.5625" stroke="#CCCCCC" stroke-width="0.341667"/>
</svg>
