<svg width="64" height="32" viewBox="0 0 64 32" fill="none" xmlns="http://www.w3.org/2000/svg">
<path d="M1 31C1.18308 30.6546 12.7471 10.1743 15.4789 10.1743C18.2107 10.1743 19.4564 12.7989 22.0708 13.4979C24.6852 14.1969 26.5921 14.7809 31.4217 13.0305C34.0409 12.0812 34.1052 10.5043 35.6505 10.1471C37.1959 9.78995 41.0837 11.0272 46.1855 11.0272C51.2873 11.0272 62.6128 8.00949 63.9305 4.49617" stroke="#001AFF" stroke-width="0.0786631"/>
<path d="M1.90479 16.4883C2.14189 16.2861 13.0919 23.1472 16.6296 23.1472C20.1674 23.1472 21.7807 24.6838 25.1664 25.0931C28.5521 25.5023 31.0217 25.8442 37.2762 24.8194C40.6682 24.2636 40.7515 23.3404 42.7528 23.1313C44.754 22.9222 47.5136 24.9888 50.9556 25.5023C53.0695 25.8176 54.1775 25.4531 57.0192 25.5023C59.8609 25.5515 35.9385 1.0907 40.4106 0.456085" stroke="#00F0FF" stroke-width="0.0786631"/>
<path d="M1.02209 30.646C1.11719 30.4725 4.24941 25.5604 7.51166 20.5231C10.7739 15.4858 14.3 10.5281 15.7152 10.5381C18.4629 10.548 19.7385 13.117 22.4417 13.7739C25.075 14.4423 26.9375 14.9896 31.6981 13.2767C34.3022 12.3455 34.4323 10.8575 36.0239 10.5216C37.5831 10.1808 41.4031 11.3789 46.4498 11.3801C51.4965 11.3813 61.9622 7.84065 63.3569 4.39754" stroke="#001FFF" stroke-width="0.0786631"/>
<path d="M1.04431 30.2921C1.14295 30.1179 4.47062 25.5002 7.73976 20.5888C11.0089 15.6774 14.4872 10.882 15.9516 10.902C18.7153 10.9219 20.0207 13.4352 22.8127 14.0501C25.465 14.6879 27.2829 15.1984 31.9746 13.5231C34.5637 12.61 34.7594 11.2108 36.3973 10.8961C37.9704 10.5717 41.7226 11.7308 46.7142 11.7332C51.7057 11.7356 61.3118 7.67194 62.7834 4.29904" stroke="#0024FF" stroke-width="0.0786631"/>
<path d="M1.06616 29.938C1.16835 29.7632 4.69146 25.4397 7.96749 20.6543C11.2435 15.8688 14.674 11.2358 16.1877 11.2658C18.9673 11.2957 20.3026 13.7533 23.1833 14.3261C25.8546 14.9333 27.6281 15.407 32.2507 13.7694C34.8247 12.8743 35.0863 11.564 36.7704 11.2705C38.3573 10.9626 42.0418 12.0826 46.9782 12.0862C51.9146 12.0898 60.661 7.5031 62.2095 4.20041" stroke="#0029FF" stroke-width="0.0786631"/>
<path d="M1.08826 29.5841C1.194 29.4086 4.91255 25.3794 8.19547 20.7199C11.4784 16.0604 14.8611 11.5898 16.424 11.6297C19.2196 11.6696 20.5847 14.0715 23.5542 14.6023C26.2445 15.1789 27.9735 15.6159 32.5271 14.0158C35.0861 13.1387 35.4133 11.9174 37.1437 11.6451C38.7445 11.3535 42.3612 12.4345 47.2425 12.4393C52.1238 12.4441 60.0104 7.3344 61.6359 4.10193" stroke="#002EFF" stroke-width="0.0786631"/>
<path d="M1.11035 29.2303C1.21964 29.054 5.13364 25.3192 8.42345 20.7856C11.7132 16.252 15.0481 11.9437 16.6603 11.9936C19.4718 12.0435 20.8668 14.3898 23.9251 14.8785C26.6343 15.4245 28.3188 15.8247 32.8035 14.2623C35.3474 13.4032 35.7404 12.2707 37.517 12.0197C39.1317 11.7445 42.6806 12.7864 47.5067 12.7924C52.3329 12.7984 59.3598 7.16571 61.0622 4.00345" stroke="#0034FF" stroke-width="0.0786631"/>
<path d="M1.13245 28.8762C1.24529 28.6992 5.35473 25.2587 8.65142 20.8511C11.9481 16.4434 15.2351 12.2975 16.8966 12.3574C19.7241 12.4173 21.1489 14.7078 24.296 15.1546C27.0242 15.6699 28.6642 16.0334 33.0799 14.5085C35.6087 13.6675 36.0675 12.6239 37.8904 12.3941C39.5189 12.1353 42.9999 13.1382 47.771 13.1454C52.542 13.1526 58.7093 6.99686 60.4886 3.90482" stroke="#0039FF" stroke-width="0.0786631"/>
<path d="M1.15466 28.5223C1.27106 28.3446 5.57594 25.1985 8.87952 20.9168C12.1831 16.635 15.4223 12.6515 17.133 12.7213C19.9765 12.7912 21.4312 15.0261 24.667 15.4308C27.4142 15.9155 29.0097 16.2422 33.3564 14.7549C35.8702 13.932 36.3946 12.9772 38.2638 12.7687C39.9062 12.5263 43.3195 13.4901 48.0354 13.4985C52.7513 13.5069 58.0588 6.82817 59.9151 3.80634" stroke="#003EFF" stroke-width="0.0786631"/>
<path d="M1.17639 28.1684C1.29634 27.99 5.79667 25.1382 9.10713 20.9824C12.4176 16.8266 15.609 13.0054 17.369 13.0852C20.2284 13.1651 21.7129 15.3443 25.0375 15.7069C27.8036 16.1611 29.3547 16.451 33.6325 15.0014C36.1311 14.1965 36.7213 13.3305 38.6367 13.1432C40.293 12.9173 43.6385 13.842 48.2993 13.8516C52.9601 13.8612 57.4079 6.65946 59.3411 3.70784" stroke="#0043FF" stroke-width="0.0786631"/>
<path d="M1.19849 27.8144C1.32198 27.6352 6.01776 25.0778 9.33511 21.0479C12.6525 17.0181 15.796 13.3592 17.6053 13.449C20.4806 13.5389 21.995 15.6624 25.4084 15.983C28.1935 16.4066 29.7001 16.6597 33.9088 15.2476C36.3924 14.4608 37.0484 13.6837 39.0101 13.5177C40.6802 13.3081 43.9579 14.1937 48.5635 14.2045C53.1692 14.2153 56.7573 6.49063 58.7675 3.60922" stroke="#0049FF" stroke-width="0.0786631"/>
<path d="M1.2207 27.4605C1.34775 27.2806 6.23897 25.0175 9.56321 21.1136C12.8875 17.2096 15.9832 13.7132 17.8417 13.813C20.733 13.9128 22.2772 15.9806 25.7794 16.2592C28.5835 16.6521 30.0456 16.8685 34.1854 15.4941C36.6539 14.7253 37.3756 14.0371 39.3835 13.8923C41.0675 13.6991 44.2774 14.5457 48.8279 14.5577C53.3785 14.5697 56.1069 6.32194 58.194 3.51074" stroke="#004EFF" stroke-width="0.0786631"/>
<path d="M1.2428 27.1066C1.37339 26.926 6.46006 24.9572 9.79119 21.1792C13.1223 17.4012 16.1702 14.0671 18.078 14.1769C20.9853 14.2867 22.5593 16.2989 26.1503 16.5354C28.9733 16.8977 30.391 17.0774 34.4618 15.7405C36.9152 14.9897 37.7026 14.3904 39.7568 14.2668C41.4547 14.0901 44.5968 14.8976 49.0922 14.9108C53.5876 14.924 55.4563 6.15323 57.6203 3.41225" stroke="#0053FF" stroke-width="0.0786631"/>
<path d="M1.26489 26.7526C1.39904 26.5712 6.68115 24.8968 10.0192 21.2447C13.3572 17.5927 16.3573 14.4209 18.3143 14.5407C21.2375 14.6604 22.8414 16.6169 26.5212 16.8114C29.3632 17.1432 30.7364 17.286 34.7382 15.9867C37.1765 15.2541 38.0297 14.7436 40.1302 14.6412C41.8419 14.4809 44.9161 15.2493 49.3564 15.2637C53.7967 15.2781 54.8058 5.98439 57.0467 3.31361" stroke="#0058FF" stroke-width="0.0786631"/>
<path d="M1.28674 26.3987C1.42444 26.2166 6.90199 24.8365 10.2469 21.3104C13.5918 17.7843 16.5441 14.7748 18.5504 14.9046C21.4895 15.0343 23.1233 16.9352 26.8919 17.0876C29.7528 17.3887 31.0815 17.4949 35.0143 16.2332C37.4376 15.5185 38.3565 15.0969 40.5032 15.0158C42.2288 14.8719 45.2353 15.6012 49.6205 15.6168C54.0056 15.6324 54.1549 5.81569 56.4728 3.21513" stroke="#005DFF" stroke-width="0.0786631"/>
<path d="M1.30884 26.0448C1.45008 25.862 7.12308 24.7762 10.4749 21.376C13.8267 17.9758 16.7311 15.1288 18.7867 15.2685C21.7418 15.4082 23.4054 17.2534 27.2628 17.3638C30.1427 17.6343 31.4269 17.7037 35.2907 16.4796C37.6989 15.783 38.6836 15.4503 40.8766 15.3904C42.616 15.2628 45.5547 15.9531 49.8847 15.9699C54.2148 15.9867 53.5044 5.64699 55.8992 3.11664" stroke="#0063FF" stroke-width="0.0786631"/>
<path d="M1.33105 25.6908C1.47585 25.5073 7.34429 24.7158 10.703 21.4415C14.0617 18.1673 16.9183 15.4826 19.0231 15.6323C21.9942 15.782 23.6876 17.5715 27.6338 17.6398C30.5327 17.8798 31.7724 17.9123 35.5672 16.7258C37.9604 16.0473 39.0108 15.8034 41.25 15.7648C43.0033 15.6536 45.8742 16.3049 50.1491 16.3229C54.424 16.3409 52.8539 5.47814 55.3257 3.01801" stroke="#0068FF" stroke-width="0.0786631"/>
<path d="M1.35315 25.3369C1.50149 25.1527 7.56538 24.6555 10.931 21.5072C14.2965 18.3589 17.1053 15.8365 19.2595 15.9962C22.2464 16.1559 23.9698 17.8897 28.0047 17.916C30.9225 18.1253 32.1178 18.1212 35.8436 16.9722C38.2217 16.3118 39.3378 16.1568 41.6233 16.1394C43.3905 16.0446 46.1936 16.6568 50.4134 16.676C54.6332 16.6952 52.2034 5.30945 54.7521 2.91953" stroke="#006DFF" stroke-width="0.0786631"/>
<path d="M1.37524 24.983C1.52714 24.7981 7.78647 24.5952 11.1589 21.5728C14.5314 18.5505 17.2924 16.1905 19.4958 16.3601C22.4987 16.5298 24.2519 18.208 28.3756 18.1922C31.3124 18.3709 32.4631 18.33 36.12 17.2187C38.483 16.5763 39.6649 16.5101 41.9967 16.5139C43.7777 16.4356 46.513 17.0087 50.6776 17.0291C54.8423 17.0495 51.5528 5.14076 54.1784 2.82104" stroke="#0072FF" stroke-width="0.0786631"/>
<path d="M1.39709 24.629C1.55254 24.4433 8.00732 24.5348 11.3867 21.6384C14.766 18.7419 17.4792 16.5443 19.7318 16.7239C22.7507 16.9036 24.5337 18.526 28.7462 18.4683C31.702 18.6164 32.8083 18.5387 36.3962 17.4649C38.7441 16.8406 39.9917 16.8633 42.3697 16.8884C44.1647 16.8264 46.8321 17.3605 50.9416 17.3821C55.0512 17.4037 50.902 4.97191 53.6046 2.72241" stroke="#0078FF" stroke-width="0.0786631"/>
<path d="M1.41919 24.2751C1.57819 24.0887 8.22841 24.4745 11.6146 21.704C15.0009 18.9335 17.6662 16.8982 19.9681 17.0879C23.003 17.2775 24.8158 18.8443 29.1171 18.7444C32.0918 18.862 33.1537 18.7475 36.6726 17.7114C39.0054 17.1051 40.3188 17.2167 42.7431 17.2629C44.5518 17.2174 47.1515 17.7124 51.2059 17.7352C55.2603 17.758 50.2514 4.80322 53.0309 2.62393" stroke="#007DFF" stroke-width="0.0786631"/>
<path d="M1.44128 23.921C1.60383 23.7339 8.4495 24.4141 11.8426 21.7695C15.2357 19.1249 17.8533 17.252 20.2044 17.4516C23.2552 17.6512 25.0979 19.1623 29.488 19.0205C32.4817 19.1074 33.499 18.9562 36.949 17.9576C39.2668 17.3694 40.6458 17.5698 43.1164 17.6373C44.939 17.6082 47.4709 18.0641 51.4702 18.0881C55.4695 18.1121 49.6009 4.63436 52.4573 2.52528" stroke="#0082FF" stroke-width="0.0786631"/>
<path d="M1.46338 23.5671C1.62948 23.3793 8.67058 24.3538 12.0706 21.8352C15.4706 19.3165 18.0403 17.6059 20.4407 17.8156C23.5075 18.0252 25.38 19.4806 29.8589 19.2967C32.8716 19.353 33.8444 19.165 37.2254 18.204C39.5281 17.6338 40.9729 17.9232 43.4897 18.0119C45.3262 17.9992 47.7903 18.416 51.7344 18.4412C55.6786 18.4664 48.9503 4.46566 51.8837 2.4268" stroke="#0087FF" stroke-width="0.0786631"/>
<path d="M1.48547 23.2131C1.65512 23.0246 8.89167 24.2934 12.2986 21.9007C15.7055 19.5079 18.2274 17.9597 20.6771 18.1793C23.7597 18.3989 25.6621 19.7987 30.2298 19.5727C33.2614 19.5984 34.1898 19.3737 37.5017 18.4503C39.7894 17.8982 41.2999 18.2763 43.863 18.3863C45.7134 18.39 48.1096 18.7678 51.9987 18.7942C55.8877 18.8206 48.2997 4.29682 51.31 2.32817" stroke="#008CFF" stroke-width="0.0786631"/>
<path d="M1.50732 22.8594C1.68052 22.6701 9.11252 24.2333 12.5263 21.9665C15.9401 19.6997 18.4142 18.3138 20.9131 18.5434C24.0117 18.773 25.944 20.1171 30.6004 19.8491C33.651 19.8441 34.5349 19.5826 37.7779 18.6969C40.0505 18.1628 41.6268 18.6298 44.2361 18.7611C46.1004 18.7812 48.4288 19.1198 52.2627 19.1474C56.0966 19.175 47.6489 4.12828 50.7362 2.22984" stroke="#0092FF" stroke-width="0.0786631"/>
<path d="M1.52942 22.5053C1.70617 22.3153 9.33361 24.1728 12.7543 22.032C16.175 19.8911 18.6012 18.6676 21.1494 18.9072C24.264 19.1467 26.2261 20.4351 30.9713 20.1251C34.0409 20.0896 34.8803 19.7913 38.0543 18.9431C40.3118 18.4271 41.9538 18.983 44.6094 19.1355C46.4875 19.172 48.7482 19.4716 52.527 19.5004C56.3058 19.5292 46.9984 3.95943 50.1625 2.13121" stroke="#0097FF" stroke-width="0.0786631"/>
<path d="M1.55164 22.1513C1.73193 21.9606 9.55482 24.1124 12.9824 22.0975C16.4099 20.0825 18.7884 19.0214 21.3859 19.271C24.5164 19.5205 26.5083 20.7532 31.3423 20.4011C34.4309 20.335 35.2258 20 38.3308 19.1894C40.5732 18.6914 42.281 19.3362 44.9829 19.5099C46.8748 19.5628 49.0677 19.8233 52.7914 19.8533C56.515 19.8833 46.3479 3.79057 49.589 2.03256" stroke="#009CFF" stroke-width="0.0786631"/>
<path d="M1.57373 21.7975C1.75758 21.6061 9.77591 24.0523 13.2104 22.1633C16.6448 20.2743 18.9754 19.3755 21.6222 19.635C24.7686 19.8946 26.7904 21.0716 31.7132 20.6775C34.8207 20.5807 35.5712 20.209 38.6072 19.436C40.8346 18.956 42.6081 19.6897 45.3562 19.8846C47.262 19.9539 49.3871 20.1754 53.0556 20.2066C56.7242 20.2378 45.6973 3.62203 49.0154 1.93423" stroke="#00A1FF" stroke-width="0.0786631"/>
<path d="M1.59583 21.4435C1.78322 21.2514 9.997 23.9919 13.4383 22.2288C16.8797 20.4657 19.1625 19.7293 21.8585 19.9988C25.0209 20.2683 27.0726 21.3897 32.0841 20.9535C35.2106 20.8262 35.9166 20.4176 38.8836 19.6822C41.0959 19.2204 42.9351 20.0429 45.7295 20.259C47.6492 20.3447 49.7065 20.5272 53.3199 20.5596C56.9333 20.592 45.0468 3.45319 48.4418 1.8356" stroke="#00A7FF" stroke-width="0.0786631"/>
<path d="M1.61768 21.0895C1.80862 20.8966 10.2178 23.9314 13.6661 22.2943C17.1143 20.6572 19.3493 20.0831 22.0945 20.3626C25.2729 20.6421 27.3544 21.7078 32.4547 21.2295C35.6002 21.0716 36.2617 20.6263 39.1598 19.9285C41.357 19.4847 43.262 20.3961 46.1026 20.6335C48.0362 20.7356 50.0256 20.8789 53.5839 20.9125C57.1422 20.9461 44.396 3.28434 47.8679 1.73697" stroke="#00ACFF" stroke-width="0.0786631"/>
<path d="M1.63977 20.7357C1.83427 20.5421 10.4389 23.8713 13.894 22.3601C17.3492 20.8489 19.5363 20.4372 22.3308 20.7267C25.5252 21.0161 27.6365 22.0262 32.8256 21.5059C35.99 21.3174 36.6071 20.8353 39.4361 20.1751C41.6183 19.7493 43.589 20.7496 46.4759 21.0082C48.4234 21.1267 50.345 21.231 53.8482 21.2658C57.3513 21.3006 43.7454 3.1158 47.2942 1.63864" stroke="#00B1FF" stroke-width="0.0786631"/>
<path d="M1.66199 20.3817C1.86004 20.1874 10.6601 23.8109 14.1221 22.4256C17.5841 21.0403 19.7235 20.791 22.5673 21.0904C25.7775 21.3899 27.9187 22.3442 33.1966 21.7819C36.38 21.5628 36.9526 21.044 39.7127 20.4213C41.8797 20.0136 43.9162 21.1027 46.8493 21.3826C48.8107 21.5175 50.6645 21.5827 54.1125 21.6187C57.5606 21.6547 43.095 2.94694 46.7207 1.53999" stroke="#00B6FF" stroke-width="0.0786631"/>
<path d="M1.68408 20.0276C1.88568 19.8326 10.8812 23.7504 14.3501 22.4911C17.819 21.2318 19.9105 21.1448 22.8036 21.4542C26.0298 21.7636 28.2009 22.6623 33.5675 22.058C36.7699 21.8082 37.298 21.2526 39.9891 20.6676C42.1411 20.2779 44.2433 21.4559 47.2227 21.757C49.1978 21.9083 50.9839 21.9345 54.3768 21.9717C57.7697 22.0089 42.4444 2.7781 46.1471 1.44136" stroke="#00BBFF" stroke-width="0.0786631"/>
<path d="M1.70618 19.6738C1.91133 19.478 11.1023 23.6902 14.5781 22.5568C18.0539 21.4234 20.0976 21.4988 23.0399 21.8182C26.2821 22.1376 28.483 22.9806 33.9384 22.3341C37.1597 22.0538 37.6433 21.4615 40.2655 20.914C42.4024 20.5424 44.5703 21.8093 47.596 22.1316C49.585 22.2993 51.3033 22.2864 54.6411 22.3248C57.9789 22.3632 41.7938 2.6094 45.5735 1.34288" stroke="#00C1FF" stroke-width="0.0786631"/>
<path d="M1.72803 19.3199C1.93673 19.1234 11.3232 23.6299 14.8058 22.6224C18.2885 21.615 20.2844 21.8527 23.276 22.1821C26.5341 22.5115 28.7648 23.2988 34.3091 22.6103C37.5494 22.2994 37.9885 21.6703 40.5416 21.1604C42.6635 20.8069 44.8971 22.1626 47.9691 22.5062C49.972 22.6903 51.6224 22.6383 54.9051 22.6779C58.1878 22.7175 41.143 2.44071 44.9996 1.2444" stroke="#00C6FF" stroke-width="0.0786631"/>
<path d="M1.75012 18.9658C1.96237 18.7687 11.5443 23.5695 15.0338 22.6879C18.5234 21.8064 20.4714 22.2065 23.5123 22.5459C26.7863 22.8852 29.0469 23.6169 34.68 22.8864C37.9392 22.5448 38.3338 21.879 40.818 21.4067C42.9248 21.0712 45.2242 22.5158 48.3424 22.8806C50.3592 23.0811 51.9418 22.99 55.1693 23.0308C58.3969 23.0716 40.4924 2.27187 44.426 1.14577" stroke="#00CBFF" stroke-width="0.0786631"/>
<path d="M1.77222 18.6119C1.98802 18.414 11.7653 23.5092 15.2618 22.7536C18.7582 21.998 20.6584 22.5605 23.7486 22.9098C27.0386 23.2591 29.329 23.9351 35.0508 23.1626C38.3291 22.7904 38.6792 22.0878 41.0944 21.6531C43.1861 21.3357 45.5513 22.8691 48.7157 23.2552C50.7464 23.4721 52.2612 23.342 55.4336 23.384C58.606 23.426 39.8419 2.10317 43.8523 1.04729" stroke="#00D0FF" stroke-width="0.0786631"/>
<path d="M1.79431 18.258C2.01366 18.0594 11.9864 23.4489 15.4898 22.8192C18.9931 22.1896 20.8455 22.9144 23.9849 23.2737C27.2909 23.633 29.6111 24.2533 35.4217 23.4388C38.7189 23.036 39.0246 22.2966 41.3708 21.8995C43.4474 21.6001 45.8783 23.2224 49.089 23.6297C51.1336 23.863 52.5806 23.6939 55.6979 23.7371C58.8152 23.7803 39.1913 1.93446 43.2787 0.948792" stroke="#00D6FF" stroke-width="0.0786631"/>
<path d="M1.81641 17.904C2.03931 17.7047 12.2075 23.3885 15.7177 22.8847C19.228 22.381 21.0325 23.2682 24.2212 23.6375C27.5431 24.0068 29.8933 24.5714 35.7926 23.7148C39.1088 23.2814 39.37 22.5053 41.6472 22.1458C43.7088 21.8645 46.2054 23.5756 49.4624 24.0042C51.5207 24.2539 52.8999 24.0456 55.9621 24.09C59.0243 24.1344 38.5408 1.76562 42.7051 0.850159" stroke="#00DBFF" stroke-width="0.0786631"/>
<path d="M1.83838 17.5501C2.06483 17.3501 12.4285 23.3282 15.9456 22.9504C19.4627 22.5726 21.2195 23.6221 24.4574 24.0014C27.7952 24.3807 30.1752 24.8897 36.1634 23.991C39.4985 23.527 39.7152 22.7141 41.9235 22.3922C43.97 22.1289 46.5323 23.929 49.8356 24.3787C51.9078 24.6449 53.2192 24.3975 56.2263 24.4431C59.2333 24.4887 37.8901 1.59693 42.1313 0.751678" stroke="#00E0FF" stroke-width="0.0786631"/>
<path d="M1.86047 17.1962C2.09047 16.9955 12.6496 23.2679 16.1736 23.0161C19.6976 22.7642 21.4065 23.9761 24.6937 24.3654C28.0475 24.7546 30.4573 25.2079 36.5343 24.2672C39.8884 23.7726 40.0606 22.9229 42.1999 22.6386C44.2313 22.3934 46.8594 24.2823 50.2089 24.7533C52.295 25.0358 53.5386 24.7494 56.4905 24.7962C59.4425 24.843 37.2395 1.42823 41.5577 0.653198" stroke="#00E5FF" stroke-width="0.0786631"/>
<path d="M1.88257 16.8422C2.11612 16.6407 12.8707 23.2075 16.4015 23.0816C19.9324 22.9556 21.5935 24.3299 24.93 24.7291C28.2998 25.1284 30.7395 25.526 36.9052 24.5432C40.2782 24.018 40.406 23.1316 42.4763 22.8849C44.4926 22.6577 47.1864 24.6355 50.5822 25.1277C52.6822 25.4267 53.858 25.1012 56.7548 25.1492C59.6516 25.1972 36.5889 1.25939 40.9841 0.554565" stroke="#00EAFF" stroke-width="0.0786631"/>
</svg>
