<svg width="41" height="27" viewBox="0 0 41 27" fill="none" xmlns="http://www.w3.org/2000/svg">
<rect x="0.29375" y="0.16875" width="40.1625" height="26.6625" rx="2.53125" fill="white"/>
<path d="M22.0893 22.2635C26.8394 22.2864 31.175 18.354 31.175 13.5702C31.175 8.33929 26.8394 4.72315 22.0893 4.7251H18.0011C13.1944 4.72315 9.23755 8.34026 9.23755 13.5702C9.23755 18.3549 13.1944 22.2864 18.0011 22.2635H22.0893Z" fill="#0079BE"/>
<path d="M18.0207 5.44997C13.6279 5.45144 10.0689 9.04415 10.0674 13.4784C10.0689 17.9122 13.6279 21.5049 18.0207 21.5064C22.4139 21.5049 25.9744 17.9122 25.9749 13.4784C25.9744 9.04415 22.4144 5.45144 18.0207 5.44997ZM12.9797 13.4784C12.9787 12.4532 13.2871 11.4515 13.8645 10.6043C14.4419 9.75712 15.2614 9.10381 16.216 8.72979V18.2265C15.2614 17.8528 14.4417 17.1996 13.8643 16.3525C13.2869 15.5053 12.9786 14.5036 12.9797 13.4784ZM19.8248 18.2285V8.7293C20.7801 9.10279 21.6004 9.75604 22.1782 10.6035C22.756 11.451 23.0645 12.4532 23.0632 13.4789C23.0643 14.5046 22.7557 15.5067 22.1779 16.3541C21.6002 17.2015 20.78 17.8548 19.8248 18.2285Z" fill="white"/>
<rect x="0.29375" y="0.16875" width="40.1625" height="26.6625" rx="2.53125" stroke="#CCCCCC" stroke-width="0.3375"/>
</svg>
