<svg width="22" height="22" viewBox="0 0 22 22" fill="none" xmlns="http://www.w3.org/2000/svg">
<circle cx="11.0001" cy="11.0001" r="10.56" fill="#EA4C89"/>
<path fill-rule="evenodd" clip-rule="evenodd" d="M11 0C4.92734 0 0 4.92734 0 11C0 17.0727 4.92734 22 11 22C17.0607 22 22 17.0727 22 11C22 4.92734 17.0607 0 11 0ZM18.2657 5.07055C19.5781 6.66924 20.3655 8.70939 20.3893 10.9165C20.0791 10.8569 16.9772 10.2246 13.8514 10.6183C13.7798 10.4632 13.7201 10.2961 13.6486 10.1291C13.4577 9.67576 13.2429 9.21046 13.0282 8.76903C16.488 7.36123 18.0629 5.33303 18.2657 5.07055ZM11 1.62254C13.3861 1.62254 15.5694 2.51733 17.2277 3.98479C17.0607 4.22341 15.641 6.12038 12.3004 7.37308C10.7614 4.54553 9.05529 2.231 8.79283 1.87308C9.49672 1.70605 10.2364 1.62254 11 1.62254ZM7.00328 2.50538C7.25381 2.83943 8.9241 5.16591 10.487 7.93379C6.09655 9.10298 2.21911 9.07914 1.80153 9.07914C2.40998 6.16807 4.37854 3.74616 7.00328 2.50538ZM1.59872 11.012C1.59872 10.9166 1.59872 10.8212 1.59872 10.7257C2.00436 10.7376 6.56185 10.7973 11.2506 9.38949C11.525 9.91443 11.7755 10.4513 12.0141 10.9882C11.8948 11.024 11.7636 11.0598 11.6443 11.0955C6.80046 12.6585 4.22345 16.9296 4.00871 17.2875C2.51737 15.6292 1.59872 13.422 1.59872 11.012ZM11.0001 20.4013C8.82876 20.4013 6.82441 19.6616 5.23763 18.4209C5.40468 18.0749 7.31358 14.4002 12.6107 12.551C12.6346 12.5391 12.6465 12.5391 12.6704 12.5271C13.9947 15.9512 14.5316 18.8265 14.6747 19.6497C13.5413 20.1389 12.3006 20.4013 11.0001 20.4013ZM16.2375 18.7907C16.1421 18.2181 15.641 15.474 14.4122 12.0977C17.359 11.6324 19.936 12.3959 20.2581 12.5033C19.8525 15.1161 18.3492 17.371 16.2375 18.7907Z" fill="#C32361"/>
</svg>
