<svg xmlns="http://www.w3.org/2000/svg" width="100" height="52" viewBox="0 0 100 52">
  <g id="Group_10955" data-name="Group 10955" transform="translate(552 490.561)">
    <g id="Group_5786" data-name="Group 5786" transform="translate(-552 -491.56)">
      <g id="Group_5785" data-name="Group 5785" transform="translate(0 39)">
        <path id="Path_57085" data-name="Path 57085" d="M0,667.41H5.909V668.5H1.3v3.47H5.206v1.094H1.3v4.6H0Z" transform="translate(0 -666.535)" fill="#505759"/>
        <path id="Path_57086" data-name="Path 57086" d="M109.39,713.876c0-1.575,1.423-2.362,4.658-2.7,0-.921-.312-1.812-1.563-1.812a4.268,4.268,0,0,0-2.266.773l-.5-.847a5.836,5.836,0,0,1,2.985-.936c1.86,0,2.642,1.173,2.642,2.971v4.426h-1.063l-.11-.862h-.046a4.162,4.162,0,0,1-2.517,1.04A2.022,2.022,0,0,1,109.39,713.876Zm4.658.1v-2.005c-2.532.3-3.408.891-3.408,1.812,0,.817.594,1.159,1.344,1.159A3.146,3.146,0,0,0,114.048,713.98Z" transform="translate(-102.791 -705.005)" fill="#505759"/>
        <path id="Path_57087" data-name="Path 57087" d="M247.8,708.528h1.063l.109,1.039h.047a3.391,3.391,0,0,1,2.36-1.217,1.989,1.989,0,0,1,2.1,1.38,3.639,3.639,0,0,1,2.5-1.38c1.563,0,2.313.979,2.313,2.818v4.569h-1.282v-4.406c0-1.35-.453-1.928-1.407-1.928a2.821,2.821,0,0,0-1.907,1.112v5.222h-1.281v-4.406c0-1.35-.454-1.928-1.423-1.928a2.886,2.886,0,0,0-1.907,1.112v5.222H247.8Z" transform="translate(-232.852 -705.005)" fill="#505759"/>
        <path id="Path_57088" data-name="Path 57088" d="M458.8,658.908a.893.893,0,0,1,1.782,0,.893.893,0,0,1-1.782,0Zm.234,2.392h1.281v7.6h-1.281Z" transform="translate(-431.094 -657.767)" fill="#505759"/>
        <path id="Path_57089" data-name="Path 57089" d="M526.44,662.5v-9.6h1.282v9.692c0,.407.172.563.359.563a1.073,1.073,0,0,0,.281-.031l.172.969a1.723,1.723,0,0,1-.735.125C526.831,664.217,526.44,663.607,526.44,662.5Z" transform="translate(-494.649 -652.9)" fill="#505759"/>
        <path id="Path_57090" data-name="Path 57090" d="M574.718,722.168l.25-1.016a2.232,2.232,0,0,0,.579.109c.86,0,1.407-.688,1.719-1.626l.172-.563-3.048-7.613h1.329l1.547,4.205c.234.656.5,1.438.735,2.141h.063c.218-.688.438-1.47.641-2.141l1.36-4.205h1.25l-2.861,8.222c-.531,1.5-1.313,2.642-2.845,2.642A2.519,2.519,0,0,1,574.718,722.168Z" transform="translate(-539.702 -708.324)" fill="#505759"/>
        <path id="Path_57091" data-name="Path 57091" d="M697.5,668.5H694.41V667.41h7.5V668.5h-3.1v9.16H697.5Z" transform="translate(-652.473 -666.535)" fill="#505759"/>
        <path id="Path_57092" data-name="Path 57092" d="M835.42,708.528h1.063l.109,1.305h.048a2.6,2.6,0,0,1,2.157-1.483,1.976,1.976,0,0,1,.813.148l-.25,1.068a2.241,2.241,0,0,0-.735-.119c-.641,0-1.407.445-1.923,1.661v4.629h-1.281v-7.21Z" transform="translate(-784.969 -705.005)" fill="#505759"/>
        <path id="Path_57093" data-name="Path 57093" d="M913.44,712.153a3.551,3.551,0,0,1,3.407-3.8c1.938,0,3.033,1.322,3.033,3.387a4.4,4.4,0,0,1-.048.7h-5.127a2.457,2.457,0,0,0,2.532,2.511,3.555,3.555,0,0,0,1.891-.565l.454.8a4.686,4.686,0,0,1-2.5.743A3.533,3.533,0,0,1,913.44,712.153Zm5.314-.594c0-1.456-.688-2.243-1.877-2.243a2.286,2.286,0,0,0-2.189,2.243Z" transform="translate(-858.277 -705.005)" fill="#505759"/>
        <path id="Path_57094" data-name="Path 57094" d="M1041.99,712.153a3.552,3.552,0,0,1,3.408-3.8c1.939,0,3.032,1.322,3.032,3.387a4.483,4.483,0,0,1-.046.7h-5.127a2.456,2.456,0,0,0,2.532,2.511,3.562,3.562,0,0,0,1.892-.565l.453.8a4.687,4.687,0,0,1-2.5.743A3.533,3.533,0,0,1,1041.99,712.153Zm5.315-.594c0-1.456-.688-2.243-1.875-2.243a2.286,2.286,0,0,0-2.189,2.243Z" transform="translate(-979.063 -705.005)" fill="#505759"/>
        <path id="Path_57095" data-name="Path 57095" d="M1194.14,668.45h2.876c3.111,0,5.112,1.547,5.112,5.049s-2,5.143-4.987,5.143h-3Zm2.735,8.332c1.735,0,2.892-.845,2.892-3.283s-1.157-3.189-2.892-3.189h-.438v6.471Z" transform="translate(-1122.023 -667.512)" fill="#505759"/>
        <path id="Path_57096" data-name="Path 57096" d="M1353.55,668.45h2.36l2.658,5.065,1,2.251h.063c-.094-1.079-.281-2.517-.281-3.72v-3.6h2.188v10.192h-2.36l-2.658-5.081-1-2.22h-.063c.094,1.126.281,2.485.281,3.689v3.611h-2.188Z" transform="translate(-1271.795 -667.512)" fill="#505759"/>
        <path id="Path_57097" data-name="Path 57097" d="M1507.589,668.45h2.766l3.189,10.192h-2.439l-.626-2.423h-3.11l-.626,2.423H1504.4Zm.25,5.971h2.173l-.235-.938c-.281-1.016-.562-2.22-.828-3.283h-.063c-.25,1.079-.516,2.267-.8,3.283Z" transform="translate(-1413.545 -667.512)" fill="#505759"/>
      </g>
      <path id="Path_57098" data-name="Path 57098" d="M175.53,12.764a16.162,16.162,0,0,1-6.391.928c.261-3.383-.992-7.547-9.365-6.107l-1,1s8.12-1.753,8.4,4.618a5.153,5.153,0,0,1-.866-.466,24.537,24.537,0,0,0-4.493-2.475h0a9.7,9.7,0,0,0-5.28-.949c-2.053.134-2.974,1.538-4.195,4.422-.911-.58-1.872-1.229-2.884-1.954a5.018,5.018,0,0,0-3.747-1.53c-2.584.21-4.423,1.509-7.472,6.375a21.778,21.778,0,0,0-3.262-4.532A9.529,9.529,0,0,0,130.5,8.979c-3.127-.819-4.152.516-11.488,6.348C114.548,10.51,106.127,5.215,85.53,0l4.577,8.144S100.26,7.066,111.69,14.15a23.3,23.3,0,0,1,4.387,3.478c-.61.472-1.251.965-1.931,1.481C102.258,28.147,96.1,27.75,96.1,27.75c-4.271,4.313-7.834,3.544-7.834,3.544,9.1,5.672,22.748-4.083,30.361-10.541,3.627,5.281,4.157,10,12.142,9.817l1.624-.481a6.131,6.131,0,0,0,.868-.256l.266-.079s-.022,0-.067,0c2.3-.956,3.884-3.217,5.328-5.968a8.9,8.9,0,0,0,6.4,3.4l2.221-.3.119.035a6.434,6.434,0,0,0,1.261-.219l.506-.068s-.073-.006-.2-.022c3.416-1.162,4.583-5.218,5.461-9.067,4.038,1.965,8.454,3.306,11.248,1.758,0,.005,0,.013-.007.018a14.585,14.585,0,0,0,2.449-1.766,13.823,13.823,0,0,0,.611-2.028,9.52,9.52,0,0,0,4.474-.873ZM121.4,18.329c1.113-1,1.947-1.793,2.423-2.224,2.889-2.62,4.433-4.384,5.986-4.882a6.08,6.08,0,0,1,2.135,1.871,74.633,74.633,0,0,1,4.292,6.919c-.362.64-.738,1.316-1.134,2.04-2,3.66-4.158,5.317-6.029,5.988a16.492,16.492,0,0,1-1.68-1.307C124.672,24.332,123.554,21.471,121.4,18.329Zm28.22,2c-1.476,3.366-3.1,4.722-4.419,5.209a9.013,9.013,0,0,1-4.955-4.705,68.817,68.817,0,0,1,3.13-6.135,6.168,6.168,0,0,1,2.506-2.415c1.072.775,3.126,2.2,5.578,3.616C150.947,17.177,150.356,18.649,149.617,20.33Zm5.435-4.988c.151-.656.305-1.286.475-1.872A4.342,4.342,0,0,1,158,10.492l.138.045c3.424,1.261,5.86,3.729,8.9,4.653a17.327,17.327,0,0,1-.707,2.719C164.5,18.544,161.055,18.624,155.052,15.342Z" transform="translate(-80.53 1)" fill="#fa4616"/>
    </g>
  </g>
</svg>
