<?xml version="1.0" encoding="utf-8"?>
<!-- Svg Vector Icons : http://www.onlinewebfonts.com/icon -->
<!DOCTYPE svg PUBLIC "-//W3C//DTD SVG 1.1//EN" "http://www.w3.org/Graphics/SVG/1.1/DTD/svg11.dtd">
<svg version="1.1" xmlns="http://www.w3.org/2000/svg" xmlns:xlink="http://www.w3.org/1999/xlink" x="0px" y="0px" viewBox="0 0 1000 1000" enable-background="new 0 0 1000 1000" xml:space="preserve">
<metadata> Svg Vector Icons : http://www.onlinewebfonts.com/icon </metadata>
<g><g transform="translate(0.000000,511.000000) scale(0.100000,-0.100000)"><path d="M5726.5,4998.2c-472.1-118.5-758.1-747.9-606.9-1336.4c47-188,122.6-331,241.1-463.9c47-53.1,85.8-102.2,85.8-108.3c0-14.3-288.1-159.4-602.8-300.4c-280-124.6-384.2-208.4-476.1-380.1c-112.4-216.6-192.1-553.8-149.2-635.5c32.7-63.3,167.6-104.2,510.9-157.3c754-118.5,1504-120.6,2239.6-8.2c327,49,472,85.8,525.2,134.9c36.8,32.7,40.9,53.1,28.6,171.7c-14.3,159.4-85.8,386.2-165.5,523.1c-100.1,171.7-183.9,233-523.1,382.1c-247.3,110.4-480.2,222.7-543.6,267.7c-4.1,2.1,34.7,47,83.8,102.2c181.9,196.2,282,482.3,284,797c0,537.4-324.9,989-735.6,1021.7C5857.2,5012.5,5769.4,5008.4,5726.5,4998.2z"/><path d="M1876.6,4356.6c-259.5-83.8-480.2-349.4-566-680.5c-18.4-71.5-32.7-208.4-32.7-322.9c0-322.9,94-590.6,277.9-786.7c69.5-73.6,83.8-102.2,65.4-118.5c-36.8-28.6-312.6-163.5-598.7-292.2c-173.7-77.6-269.7-134.9-331-194.1c-147.1-149.2-290.2-512.9-292.2-747.9c0-126.7,98.1-167.5,594.7-241.1c656-98.1,1452.9-98.1,2123.2,0c465.9,67.4,582.4,104.2,604.9,194.1c20.4,83.8-51.1,378-134.9,553.8c-118.5,245.2-190,304.5-555.8,467.9c-255.4,112.4-502.7,232.9-545.6,267.7c-4.1,4.1,34.7,53.1,87.9,112.4c304.5,339.2,367.8,950.2,141,1373.2c-75.6,141-257.5,320.8-384.2,380.1C2205.6,4381.1,1999.2,4397.4,1876.6,4356.6z"/><path d="M5456.7,1070.7c-163.5-447.5-353.5-772.4-582.4-997.2c-132.8-132.8-355.6-286.1-412.8-286.1c-85.8,0-316.7,190-690.7,572.2l-398.5,406.7l-132.8-28.6c-73.6-14.3-181.9-32.7-241.1-40.9l-106.3-14.3l128.7-155.3c423-512.9,774.5-1062.6,995.2-1551c89.9-202.3,273.8-700.9,257.5-700.9c-2.1,0-77.7,20.4-167.6,42.9c-224.8,61.3-649.8,63.3-935.9,2c-110.3-22.5-204.3-47-208.4-51.1c-4.1-4.1,0-57.2,12.3-118.5c10.2-61.3,24.5-161.4,30.6-224.8l12.3-116.5l120.6-12.2c175.7-20.4,396.4-85.8,590.6-177.8c717.3-335.1,1068.7-1036,1040.1-2066l-10.2-343.3h574.2h574.2l6.1,476.1c8.2,545.6-6.1,656-149.2,1240.4c-126.7,504.7-138.9,600.8-126.7,886.9c12.3,296.3,61.3,484.3,188,721.3c118.5,222.7,228.9,363.7,484.3,615.1c237,233,353.5,322.9,549.7,423l136.9,69.5v165.5c0,89.9,6.1,202.3,14.3,249.3l14.3,85.8l-53.1-36.8C6721.6-55.3,6347.7-239.2,6092.2-325c-185.9-63.3-523.1-132.8-639.6-132.8c-61.3,0-61.3,38.8,4.1,357.6c57.2,280,179.8,662.1,345.4,1072.8l110.3,275.9l-73.6,14.3c-42.9,8.2-126.7,14.3-190,14.3l-114.5,2L5456.7,1070.7z"/><path d="M7921.1,807.1c-300.4-59.3-539.5-322.9-635.5-705c-100.1-388.3-4.1-833.7,237-1091.2c49.1-53.1,89.9-102.2,89.9-108.3c0-22.5-247.3-147.1-551.7-282c-233-102.2-316.7-151.2-390.3-224.8c-151.2-149.2-280-465.9-290.2-715.2c-4.1-89.9,2-110.4,47-143c61.3-47,320.8-102.2,715.2-155.3c347.4-44.9,1363-51.1,1696.1-10.2c373.9,47,676.4,104.2,772.4,147.1l91.9,40.9l-12.3,149.2c-22.5,257.5-136.9,535.4-284,686.6c-36.8,38.8-153.3,110.3-261.6,161.4c-106.3,49.1-306.5,145.1-445.5,210.5l-251.3,122.6l94,104.2c104.2,116.5,216.6,337.2,257.5,506.8c34.7,151.2,30.7,451.6-8.2,606.9C8669.1,580.2,8293,882.7,7921.1,807.1z"/><path d="M1833.7-1111.8c-284.1-57.2-535.4-337.2-631.4-700.9c-44.9-171.7-42.9-478.2,2-647.8c47-171.6,141-347.4,253.4-472l89.9-100.1l-251.4-120.6c-139-65.4-341.3-161.4-447.5-210.5C728.1-3420.9,626-3484.2,579-3533.3c-145.1-151.2-282-506.8-282-733.6c0-94,2-98.1,89.9-136.9c120.6-53.1,600.8-132.8,982.9-163.5c747.9-59.3,2014.9,45,2196.7,183.9c45,32.7,51.1,53.1,47,143c-10.2,247.3-141,566-292.2,717.3c-75.6,75.6-163.5,122.6-470,261.6c-208.4,92-400.5,186-429.1,206.4l-49,38.8l98.1,104.2c292.2,314.7,361.7,888.9,159.4,1318C2463-1240.5,2146.3-1050.5,1833.7-1111.8z"/></g></g>
</svg>