<svg width="41" height="28" viewBox="0 0 41 28" fill="none" xmlns="http://www.w3.org/2000/svg">
<rect x="0.170833" y="0.170833" width="40.6583" height="26.9917" rx="2.5625" fill="white"/>
<path fill-rule="evenodd" clip-rule="evenodd" d="M19.3077 17.0475V13.6001H21.087C21.8161 13.6001 22.4315 13.3558 22.9331 12.874L23.0536 12.7518C23.9699 11.7542 23.9097 10.2002 22.9331 9.27726C22.4449 8.78865 21.776 8.52399 21.087 8.53756H18.2308V17.0475H19.3077ZM19.3078 12.555V9.58262H21.1141C21.5022 9.58262 21.8701 9.73192 22.1444 10.0034C22.7265 10.5734 22.7398 11.5235 22.1779 12.1139C21.9036 12.4057 21.5156 12.5686 21.1141 12.555H19.3078Z" fill="#3C4043"/>
<path fill-rule="evenodd" clip-rule="evenodd" d="M28.077 11.6796C27.6155 11.2521 26.9867 11.0349 26.1907 11.0349C25.1673 11.0349 24.3981 11.4149 23.8897 12.1682L24.8395 12.7722C25.1874 12.2564 25.6623 11.9986 26.2643 11.9986C26.6456 11.9986 27.0135 12.1411 27.3011 12.3989C27.582 12.6432 27.7426 12.9961 27.7426 13.3694V13.6205C27.3279 13.3897 26.8061 13.2676 26.164 13.2676C25.4148 13.2676 24.8128 13.444 24.3646 13.8037C23.9165 14.1634 23.689 14.6384 23.689 15.2424C23.6757 15.7921 23.9098 16.3146 24.3245 16.6675C24.7459 17.0475 25.281 17.2375 25.9098 17.2375C26.6523 17.2375 27.2409 16.905 27.6891 16.24H27.7359V17.0475H28.766V13.4576C28.766 12.7043 28.5386 12.1071 28.077 11.6796ZM25.1541 15.9753C24.9334 15.8124 24.7995 15.5478 24.7995 15.2627C24.7995 14.9438 24.9467 14.6791 25.2344 14.4687C25.5288 14.2584 25.8967 14.1498 26.3316 14.1498C26.9337 14.143 27.402 14.2787 27.7365 14.5502C27.7365 15.0116 27.5559 15.412 27.2013 15.7513C26.8802 16.0771 26.4453 16.2603 25.9904 16.2603C25.6893 16.2671 25.395 16.1653 25.1541 15.9753Z" fill="#3C4043"/>
<path d="M31.0804 19.6059L34.6791 11.2249H33.5085L31.843 15.4053H31.8229L30.1172 11.2249H28.9466L31.3078 16.6743L29.97 19.6059H31.0804Z" fill="#3C4043"/>
<path d="M15.5897 12.8536C15.5897 12.5211 15.563 12.1886 15.5095 11.8628H10.9676V13.7426H13.5697C13.4626 14.3466 13.1148 14.8895 12.6064 15.2288V16.4503H14.1583C15.068 15.602 15.5897 14.3466 15.5897 12.8536Z" fill="#4285F4"/>
<path d="M10.9678 17.6311C12.2655 17.6311 13.3623 17.1968 14.1583 16.4503L12.6064 15.2288C12.1717 15.5274 11.6167 15.697 10.9678 15.697C9.71029 15.697 8.64673 14.8352 8.26546 13.6815H6.66678V14.9438C7.48284 16.5928 9.14841 17.6311 10.9678 17.6311Z" fill="#34A853"/>
<path d="M8.26546 13.6815C8.06476 13.0776 8.06494 12.4193 8.26564 11.8085V10.5531H6.66671C5.97763 11.9307 5.97763 13.5594 6.66671 14.937L8.26546 13.6815Z" fill="#FBBC04"/>
<path d="M10.9678 9.79302C11.6568 9.77945 12.319 10.0441 12.814 10.5259L14.1919 9.12797C13.3157 8.30004 12.1652 7.84537 10.9678 7.85894C9.14841 7.85894 7.48277 8.90404 6.66671 10.5531L8.26546 11.8153C8.64673 10.6549 9.71029 9.79302 10.9678 9.79302Z" fill="#EA4335"/>
<rect x="0.170833" y="0.170833" width="40.6583" height="26.9917" rx="2.5625" stroke="#CCCCCC" stroke-width="0.341667"/>
</svg>
