<svg version="1.2" xmlns="http://www.w3.org/2000/svg" viewBox="0 0 1480 1569" width="1480" height="1569">
	<title>Grindr_Logo_Black-svg</title>
	<style>
		.s0 { fill: #231f20 } 
	</style>
	<g id="Layer_2">
		<g id="Layer_1-2">
			<path id="Layer" fill-rule="evenodd" class="s0" d="m1468.5 102q3 3.6 5.2 7.8 2.3 4.2 3.7 8.7 1.4 4.5 1.9 9.2c0 43.2 0 75.7 0 114.7 0 39-2.8 80.4-2.8 127.4-3.1 80.1-9.4 160-18.7 239.7-9.3 79.6-21.6 158.8-37 237.5-15.5 78.7-33.9 156.7-55.3 233.9-21.5 77.3-45.9 153.7-73.2 229q-1.1 3-2.5 5.8-1.5 2.9-3.2 5.5-1.8 2.6-3.9 5-2.1 2.3-4.5 4.4c-150.4 130.7-380.6 237.9-537.6 237.9-156.9 0-389.1-107.7-538.5-237.9q-2.4-2.1-4.5-4.4-2.1-2.4-3.9-5-1.8-2.6-3.2-5.5-1.5-2.8-2.5-5.8c-27.4-75.3-51.9-151.7-73.4-228.9-21.5-77.3-40.1-155.3-55.6-234-15.5-78.6-27.9-157.9-37.3-237.5-9.4-79.7-15.7-159.6-18.9-239.7-2.8-47-2.8-93.1-2.8-127.9 0-34.8 0-71 0-114.7q0.6-4.6 2-9.1 1.4-4.4 3.7-8.5 2.2-4.1 5.2-7.7 2.9-3.7 6.5-6.7 11.2-11.3 22.7-22.2 11.6-10.9 23.5-21.5 11.8-10.6 24-20.8 12.2-10.2 24.7-20.1 4.2-3.2 9-5.4 4.8-2.3 10-3.5 5.2-1.2 10.4-1.3 5.3-0.2 10.6 0.8 72.9 12.4 146.2 22.1 73.3 9.6 146.9 16.5 73.6 6.9 147.4 11 73.9 4.1 147.8 5.4 73.8-1 147.5-4.7 73.7-3.8 147.2-10.3 73.5-6.6 146.7-15.8 73.2-9.3 146-21.4 5.2-0.9 10.5-0.8 5.3 0.2 10.5 1.4 5.1 1.2 9.9 3.4 4.8 2.3 9.1 5.4 12.3 9.6 24.4 19.4 12 9.9 23.8 20.1 11.7 10.3 23.2 20.8 11.4 10.6 22.5 21.5 3.7 3.1 6.6 6.8zm-837.9 873.2c59.7-119.4-25.3-185.6-137.2-213.4-79.4-18.3-250.9-63-286.2 47-37.1 122.3 51.7 209.7 158.4 252 106.7 42.3 201.6 29.1 260.3-75.2l2.9-4.7c5.1-9.4 4.2-8.5 1.8-5.7zm467.2-233.6c-88.4 8-263.7 30.1-267 149 0-1.4 0-1.4 0 3.3 0 16.9 0 10.8 0 4.2 3.8 100.6 93.1 198.4 194.1 188.1 110-11.8 221.4-70.1 248.6-181.5 32.4-134.4-59.2-174.4-175.7-163.1z"/>
		</g>
	</g>
</svg>