<svg width="54" height="45" viewBox="0 0 54 45" fill="none" xmlns="http://www.w3.org/2000/svg">
<path d="M1 0V44.9489" stroke="#FFB800" stroke-width="0.0650914"/>
<path d="M46.3068 30.9576L53.0731 34.7155" stroke="#00FF75" stroke-width="0.0650914"/>
<path d="M1.74268 0.507507L1.8536 44.7812" stroke="#FBB902" stroke-width="0.0650914"/>
<path d="M2.48547 1.01501L2.70732 44.6134" stroke="#F7BA04" stroke-width="0.0650914"/>
<path d="M3.22815 1.52252L3.56092 44.4457" stroke="#F2BB06" stroke-width="0.0650914"/>
<path d="M3.97107 2.03003L4.41477 44.2779" stroke="#EEBC08" stroke-width="0.0650914"/>
<path d="M4.71375 2.53741L5.26837 44.11" stroke="#EABD0A" stroke-width="0.0650914"/>
<path d="M5.45654 3.04506L6.12209 43.9424" stroke="#E6BF0C" stroke-width="0.0650914"/>
<path d="M6.19922 3.55244L6.97569 43.7745" stroke="#E2C00D" stroke-width="0.0650914"/>
<path d="M6.94189 4.06007L7.82929 43.6069" stroke="#DEC10F" stroke-width="0.0650914"/>
<path d="M7.68457 4.56747L8.68289 43.439" stroke="#D9C211" stroke-width="0.0650914"/>
<path d="M8.42725 5.07509L9.53649 43.2714" stroke="#D5C313" stroke-width="0.0650914"/>
<path d="M9.17004 5.58247L10.3902 43.1035" stroke="#D1C415" stroke-width="0.0650914"/>
<path d="M9.91272 6.09012L11.2438 42.9358" stroke="#CDC617" stroke-width="0.0650914"/>
<path d="M10.6554 6.59752L12.0974 42.7679" stroke="#C9C719" stroke-width="0.0650914"/>
<path d="M11.3983 7.10501L12.9513 42.6001" stroke="#C4C81B" stroke-width="0.0650914"/>
<path d="M12.141 7.61253L13.8049 42.4324" stroke="#C0C91D" stroke-width="0.0650914"/>
<path d="M12.8838 8.12004L14.6586 42.2646" stroke="#BCCA1F" stroke-width="0.0650914"/>
<path d="M13.6265 8.62755L15.5122 42.0969" stroke="#B8CB21" stroke-width="0.0650914"/>
<path d="M14.3691 9.13493L16.3658 41.929" stroke="#B4CD23" stroke-width="0.0650914"/>
<path d="M15.1119 9.64244L17.2195 41.7613" stroke="#B0CE25" stroke-width="0.0650914"/>
<path d="M15.8546 10.1499L18.0731 41.5935" stroke="#ABCF26" stroke-width="0.0650914"/>
<path d="M16.5973 10.6575L18.9267 41.4258" stroke="#A7D028" stroke-width="0.0650914"/>
<path d="M17.34 11.165L19.7803 41.258" stroke="#A3D12A" stroke-width="0.0650914"/>
<path d="M18.0826 11.6725L20.6339 41.0903" stroke="#9FD32C" stroke-width="0.0650914"/>
<path d="M18.8257 12.18L21.4879 40.9225" stroke="#9BD42E" stroke-width="0.0650914"/>
<path d="M19.5684 12.6875L22.3415 40.7548" stroke="#96D530" stroke-width="0.0650914"/>
<path d="M20.311 13.195L23.1951 40.587" stroke="#92D632" stroke-width="0.0650914"/>
<path d="M21.0537 13.7025L24.0487 40.4193" stroke="#8ED734" stroke-width="0.0650914"/>
<path d="M21.7964 14.21L24.9023 40.2515" stroke="#8AD836" stroke-width="0.0650914"/>
<path d="M22.5392 14.7175L25.756 40.0838" stroke="#86DA38" stroke-width="0.0650914"/>
<path d="M23.2819 15.2251L26.6096 39.916" stroke="#82DB3A" stroke-width="0.0650914"/>
<path d="M24.0245 15.7326L27.4632 39.7483" stroke="#7DDC3C" stroke-width="0.0650914"/>
<path d="M24.7672 16.2401L28.3168 39.5805" stroke="#79DD3E" stroke-width="0.0650914"/>
<path d="M25.5103 16.7476L29.1707 39.4128" stroke="#75DE3F" stroke-width="0.0650914"/>
<path d="M26.2529 17.2551L30.0243 39.245" stroke="#71DF41" stroke-width="0.0650914"/>
<path d="M26.9956 17.7626L30.8779 39.0772" stroke="#6DE143" stroke-width="0.0650914"/>
<path d="M27.7384 18.2701L31.7317 38.9095" stroke="#69E245" stroke-width="0.0650914"/>
<path d="M28.4811 18.7776L32.5853 38.7418" stroke="#64E347" stroke-width="0.0650914"/>
<path d="M29.2238 19.2851L33.4389 38.574" stroke="#60E449" stroke-width="0.0650914"/>
<path d="M29.9664 19.7926L34.2925 38.4062" stroke="#5CE54B" stroke-width="0.0650914"/>
<path d="M30.7091 20.3002L35.1461 38.2385" stroke="#58E64D" stroke-width="0.0650914"/>
<path d="M31.4521 20.8077L36 38.0707" stroke="#54E84F" stroke-width="0.0650914"/>
<path d="M32.1946 21.3152L36.8534 37.903" stroke="#4FE951" stroke-width="0.0650914"/>
<path d="M32.9375 21.8226L37.7072 37.7351" stroke="#4BEA53" stroke-width="0.0650914"/>
<path d="M33.6802 22.3301L38.5608 37.5674" stroke="#47EB55" stroke-width="0.0650914"/>
<path d="M34.4229 22.8377L39.4144 37.3997" stroke="#43EC57" stroke-width="0.0650914"/>
<path d="M35.1656 23.3451L40.2682 37.2319" stroke="#3FED58" stroke-width="0.0650914"/>
<path d="M35.9083 23.8526L41.1218 37.0641" stroke="#3BEF5A" stroke-width="0.0650914"/>
<path d="M36.651 24.3601L41.9754 36.8964" stroke="#36F05C" stroke-width="0.0650914"/>
<path d="M37.3938 24.8676L42.8291 36.7286" stroke="#32F15E" stroke-width="0.0650914"/>
<path d="M38.1365 25.375L43.6827 36.5607" stroke="#2EF260" stroke-width="0.0650914"/>
<path d="M38.8795 25.8826L44.5366 36.3931" stroke="#2AF362" stroke-width="0.0650914"/>
<path d="M39.6222 26.3902L45.3902 36.2254" stroke="#26F464" stroke-width="0.0650914"/>
<path d="M40.365 26.8975L46.244 36.0575" stroke="#21F666" stroke-width="0.0650914"/>
<path d="M41.1077 27.4052L47.0976 35.8899" stroke="#1DF768" stroke-width="0.0650914"/>
<path d="M41.8503 27.9126L47.9512 35.722" stroke="#19F86A" stroke-width="0.0650914"/>
<path d="M42.593 28.4201L48.8048 35.5542" stroke="#15F96C" stroke-width="0.0650914"/>
<path d="M43.3357 28.9276L49.6584 35.3865" stroke="#11FA6E" stroke-width="0.0650914"/>
<path d="M44.0785 29.4351L50.5121 35.2187" stroke="#0DFB70" stroke-width="0.0650914"/>
<path d="M44.8212 29.9426L51.3657 35.051" stroke="#08FD71" stroke-width="0.0650914"/>
<path d="M45.5641 30.4501L52.2195 34.8832" stroke="#04FE73" stroke-width="0.0650914"/>
</svg>
