<svg width="18" height="20" viewBox="0 0 18 20" fill="none" xmlns="http://www.w3.org/2000/svg">
<path fill-rule="evenodd" clip-rule="evenodd" d="M15 6C16.6569 6 18 4.65685 18 3C18 1.34315 16.6569 0 15 0C13.3431 0 12 1.34315 12 3C12 3.19197 12.018 3.37973 12.0525 3.56168L4.93932 7.71103C4.41636 7.26751 3.73942 7 3 7C1.34315 7 0 8.34315 0 10C0 11.6569 1.34315 13 3 13C3.70652 13 4.35599 12.7558 4.86861 12.3471L12.006 16.808C12.002 16.8715 12 16.9355 12 17C12 18.6569 13.3431 20 15 20C16.6569 20 18 18.6569 18 17C18 15.3431 16.6569 14 15 14C14.1353 14 13.3561 14.3658 12.8086 14.9511L5.92908 10.6514C5.97551 10.4417 6 10.2237 6 10C6 9.80803 5.98197 9.62027 5.94751 9.43832L13.0607 5.28897C13.5836 5.73249 14.2606 6 15 6Z" fill="#828282"/>
</svg>
