<svg width="45" height="26" viewBox="0 0 45 26" fill="none" xmlns="http://www.w3.org/2000/svg">
<path d="M1 1.80435V24.171" stroke="#00494E" stroke-width="0.0537501"/>
<path d="M35.8313 24.1545L37.0467 1.82095" stroke="#00D1FF" stroke-width="0.0537501"/>
<path d="M1.43002 2.08026L2.2823 24.4307" stroke="#004B50" stroke-width="0.0537501"/>
<path d="M1.85995 2.35623L3.56326 24.6579" stroke="#004C52" stroke-width="0.0537501"/>
<path d="M2.28999 2.63211L4.84186 24.8527" stroke="#004E54" stroke-width="0.0537501"/>
<path d="M2.72002 2.90811L6.11674 25.0153" stroke="#005056" stroke-width="0.0537501"/>
<path d="M3.15019 3.18399L7.38684 25.1457" stroke="#005159" stroke-width="0.0537501"/>
<path d="M3.57997 3.45999L8.65039 25.2443" stroke="#00535B" stroke-width="0.0537501"/>
<path d="M4.01024 3.7359L9.90706 25.3112" stroke="#00555D" stroke-width="0.0537501"/>
<path d="M4.44026 4.01178L11.1549 25.3467" stroke="#00565F" stroke-width="0.0537501"/>
<path d="M4.87004 4.28769L12.3928 25.3513" stroke="#005861" stroke-width="0.0537501"/>
<path d="M5.30022 4.56363L13.6201 25.3253" stroke="#005A63" stroke-width="0.0537501"/>
<path d="M5.73024 4.83954L14.8352 25.2691" stroke="#005B66" stroke-width="0.0537501"/>
<path d="M6.16019 5.11545L16.037 25.1832" stroke="#005D68" stroke-width="0.0537501"/>
<path d="M6.59019 5.39142L17.2245 25.0683" stroke="#005F6A" stroke-width="0.0537501"/>
<path d="M7.02023 5.66742L18.3966 24.9247" stroke="#00606C" stroke-width="0.0537501"/>
<path d="M7.45018 5.9433L19.5521 24.7531" stroke="#00626E" stroke-width="0.0537501"/>
<path d="M7.88019 6.21921L20.6901 24.5543" stroke="#006471" stroke-width="0.0537501"/>
<path d="M8.31021 6.49509L21.8094 24.3287" stroke="#006573" stroke-width="0.0537501"/>
<path d="M8.7404 6.77109L22.9094 24.0774" stroke="#006775" stroke-width="0.0537501"/>
<path d="M9.17018 7.047L23.9883 23.8008" stroke="#006977" stroke-width="0.0537501"/>
<path d="M9.6002 7.32288L25.046 23.4999" stroke="#006B79" stroke-width="0.0537501"/>
<path d="M10.0305 7.59885L26.0814 23.1755" stroke="#006C7C" stroke-width="0.0537501"/>
<path d="M10.4603 7.87473L27.0931 22.8285" stroke="#006E7E" stroke-width="0.0537501"/>
<path d="M10.8904 8.15073L28.081 22.4598" stroke="#007080" stroke-width="0.0537501"/>
<path d="M11.3205 8.42664L29.0438 22.0703" stroke="#007182" stroke-width="0.0537501"/>
<path d="M11.7504 8.70251L29.9807 21.6609" stroke="#007384" stroke-width="0.0537501"/>
<path d="M12.1804 8.97852L30.8913 21.2329" stroke="#007587" stroke-width="0.0537501"/>
<path d="M12.6104 9.25439L31.7747 20.7869" stroke="#007689" stroke-width="0.0537501"/>
<path d="M13.0405 9.5303L32.6302 20.3242" stroke="#00788B" stroke-width="0.0537501"/>
<path d="M13.4704 9.8063L33.4572 19.8459" stroke="#007A8D" stroke-width="0.0537501"/>
<path d="M13.9004 10.0822L34.2553 19.3529" stroke="#007B8F" stroke-width="0.0537501"/>
<path d="M14.3304 10.3581L35.0238 18.8464" stroke="#007D91" stroke-width="0.0537501"/>
<path d="M14.7606 10.6341L35.7624 18.3277" stroke="#007F94" stroke-width="0.0537501"/>
<path d="M15.1904 10.9101L36.4701 17.7979" stroke="#008096" stroke-width="0.0537501"/>
<path d="M15.6207 11.186L37.1473 17.2579" stroke="#008298" stroke-width="0.0537501"/>
<path d="M16.0506 11.4618L37.793 16.7091" stroke="#00849A" stroke-width="0.0537501"/>
<path d="M16.4805 11.7377L38.4071 16.1527" stroke="#00859C" stroke-width="0.0537501"/>
<path d="M16.9107 12.0137L38.9895 15.59" stroke="#00879F" stroke-width="0.0537501"/>
<path d="M17.3406 12.2896L39.5397 15.022" stroke="#0089A1" stroke-width="0.0537501"/>
<path d="M17.7706 12.5655L40.0577 14.45" stroke="#008AA3" stroke-width="0.0537501"/>
<path d="M18.2007 12.8415L40.5434 13.8754" stroke="#008CA5" stroke-width="0.0537501"/>
<path d="M18.6307 13.1174L40.9966 13.2992" stroke="#008EA7" stroke-width="0.0537501"/>
<path d="M19.0606 13.3934L41.4172 12.7228" stroke="#0090AA" stroke-width="0.0537501"/>
<path d="M19.4906 13.6693L41.8054 12.1473" stroke="#0091AC" stroke-width="0.0537501"/>
<path d="M19.9207 13.9452L42.1613 11.5739" stroke="#0093AE" stroke-width="0.0537501"/>
<path d="M20.3508 14.2211L42.4849 11.0042" stroke="#0095B0" stroke-width="0.0537501"/>
<path d="M20.7806 14.497L42.7761 10.439" stroke="#0096B2" stroke-width="0.0537501"/>
<path d="M21.2106 14.7729L43.0355 9.87969" stroke="#0098B5" stroke-width="0.0537501"/>
<path d="M21.6408 15.0488L43.2633 9.32753" stroke="#009AB7" stroke-width="0.0537501"/>
<path d="M22.0707 15.3248L43.4595 8.78376" stroke="#009BB9" stroke-width="0.0537501"/>
<path d="M22.5009 15.6007L43.6249 8.24938" stroke="#009DBB" stroke-width="0.0537501"/>
<path d="M22.9309 15.8767L43.7595 7.72579" stroke="#009FBD" stroke-width="0.0537501"/>
<path d="M23.3608 16.1526L43.8637 7.21393" stroke="#00A0BF" stroke-width="0.0537501"/>
<path d="M23.7909 16.4286L43.9382 6.71516" stroke="#00A2C2" stroke-width="0.0537501"/>
<path d="M24.2209 16.7045L43.9835 6.23042" stroke="#00A4C4" stroke-width="0.0537501"/>
<path d="M24.6509 16.9804L44.0001 5.76086" stroke="#00A5C6" stroke-width="0.0537501"/>
<path d="M25.0808 17.2564L43.9884 5.30771" stroke="#00A7C8" stroke-width="0.0537501"/>
<path d="M25.5109 17.5323L43.9494 4.8718" stroke="#00A9CA" stroke-width="0.0537501"/>
<path d="M25.9409 17.8081L43.8836 4.45428" stroke="#00AACD" stroke-width="0.0537501"/>
<path d="M26.3711 18.0841L43.7919 4.05628" stroke="#00ACCF" stroke-width="0.0537501"/>
<path d="M26.8009 18.36L43.6745 3.67853" stroke="#00AED1" stroke-width="0.0537501"/>
<path d="M27.2311 18.636L43.5331 3.32223" stroke="#00AFD3" stroke-width="0.0537501"/>
<path d="M27.6611 18.9119L43.3677 2.98805" stroke="#00B1D5" stroke-width="0.0537501"/>
<path d="M28.0909 19.1878L43.1793 2.67703" stroke="#00B3D8" stroke-width="0.0537501"/>
<path d="M28.5211 19.4638L42.9694 2.39008" stroke="#00B5DA" stroke-width="0.0537501"/>
<path d="M28.9511 19.7397L42.7384 2.12781" stroke="#00B6DC" stroke-width="0.0537501"/>
<path d="M29.3811 20.0156L42.4872 1.89115" stroke="#00B8DE" stroke-width="0.0537501"/>
<path d="M29.8111 20.2915L42.2171 1.68079" stroke="#00BAE0" stroke-width="0.0537501"/>
<path d="M30.2411 20.5674L41.9289 1.49755" stroke="#00BBE3" stroke-width="0.0537501"/>
<path d="M30.6711 20.8433L41.6238 1.34191" stroke="#00BDE5" stroke-width="0.0537501"/>
<path d="M31.1011 21.1193L41.3027 1.21473" stroke="#00BFE7" stroke-width="0.0537501"/>
<path d="M31.5311 21.3952L40.9669 1.11636" stroke="#00C0E9" stroke-width="0.0537501"/>
<path d="M31.9613 21.6712L40.6175 1.04751" stroke="#00C2EB" stroke-width="0.0537501"/>
<path d="M32.3911 21.9471L40.2551 1.00853" stroke="#00C4ED" stroke-width="0.0537501"/>
<path d="M32.8211 22.223L39.8816 0.999986" stroke="#00C5F0" stroke-width="0.0537501"/>
<path d="M33.2513 22.4989L39.498 1.02227" stroke="#00C7F2" stroke-width="0.0537501"/>
<path d="M33.6811 22.7749L39.1048 1.07581" stroke="#00C9F4" stroke-width="0.0537501"/>
<path d="M34.1113 23.0508L38.7043 1.16078" stroke="#00CAF6" stroke-width="0.0537501"/>
<path d="M34.5413 23.3267L38.2969 1.27757" stroke="#00CCF8" stroke-width="0.0537501"/>
<path d="M34.9713 23.6026L37.8839 1.42645" stroke="#00CEFB" stroke-width="0.0537501"/>
<path d="M35.4013 23.8786L37.4668 1.60757" stroke="#00CFFD" stroke-width="0.0537501"/>
</svg>
