<svg width="20" height="20" viewBox="0 0 20 20" fill="none" xmlns="http://www.w3.org/2000/svg">
<path d="M18.5183 0.00149131H1.47582C0.670359 -0.00759854 0.00983024 0.637609 0 1.44308V18.5566C0.00949368 19.3625 0.669969 20.0083 1.47582 19.9999H18.5183C19.3258 20.0099 19.9888 19.3641 20 18.5566V1.44185C19.9885 0.634783 19.3254 -0.0103876 18.5183 0.000126709" fill="#0A66C2"/>
<path d="M14.0776 17.0413H17.041L17.0422 11.8059C17.0422 9.23575 16.4884 7.26013 13.4849 7.26013C12.3367 7.21751 11.2581 7.80989 10.6781 8.80173H10.6382V7.49751H7.7934V17.041H10.7568V12.3199C10.7568 11.0749 10.9929 9.86919 12.5363 9.86919C14.0579 9.86919 14.0776 11.2938 14.0776 12.4005V17.0413Z" fill="white"/>
<path d="M2.72974 4.47357C2.72991 5.42334 3.49997 6.19315 4.44973 6.19298C4.90582 6.1929 5.34319 6.01164 5.66564 5.68907C5.98808 5.3665 6.16918 4.92905 6.1691 4.47295C6.16893 3.52318 5.39887 2.75337 4.44911 2.75354C3.49936 2.75371 2.72957 3.52379 2.72974 4.47357Z" fill="white"/>
<path d="M2.96495 17.0413H5.93142V7.49751H2.96495V17.0413Z" fill="white"/>
</svg>
