<svg width="127" height="135" viewBox="0 0 127 135" fill="none" xmlns="http://www.w3.org/2000/svg">
<mask id="mask0_259_550" style="mask-type:alpha" maskUnits="userSpaceOnUse" x="0" y="0" width="127" height="135">
<path d="M42.1456 0.257004C43.2908 5.52028 45.3402 8.1787 45.9097 13.9297C46.4792 19.6806 44.5562 19.1839 45.3838 24.8779C46.2114 30.5718 48.3621 30.3647 49.2208 36.8294C49.9994 42.6909 47.8442 37.928 48.4747 46.8539C49.1053 55.7798 52.3666 56.896 52.8549 63.5476C53.281 69.3516 51.4938 68.7214 52.4452 77.553C53.3965 86.3846 54.855 82.3101 55.7379 88.3844C56.6208 94.4588 54.6452 94.511 55.5538 100.147C56.4624 105.784 57.3022 106.007 58.2884 110.78C59.2745 115.553 58.6872 120.143 59.4554 126.376" stroke="#CCFF00" stroke-width="0.157629"/>
<path d="M44.1811 1.79354C45.1056 7.08373 47.0503 9.8158 47.3755 15.5683C47.7008 21.3209 45.7903 20.7475 46.3772 26.4538C46.9642 32.1601 49.1337 32.0416 49.7189 38.517C50.2494 44.3882 48.2887 39.5553 48.539 48.4733C48.7893 57.3913 52.0177 58.6364 52.2227 65.2829C52.4016 71.0824 50.6332 70.3816 51.2098 79.2188C51.7865 88.0559 53.4266 84.0563 54.0528 90.1438C54.6789 96.2313 52.6921 96.2027 53.3629 101.855C54.0336 107.507 54.8677 107.764 55.6535 112.559C56.4393 117.354 55.6523 121.904 56.1564 128.144" stroke="#CDFD00" stroke-width="0.157629"/>
<path d="M46.219 3.32878C46.9226 8.63667 48.7601 11.4383 48.8419 17.1821C48.9237 22.9259 47.0288 22.2761 47.3755 27.9846C47.7223 33.6931 49.9069 33.6643 50.2191 40.1389C50.5022 46.0093 48.7381 41.1143 48.6099 50.0082C48.4817 58.9022 51.6721 60.2754 51.5951 66.9048C51.528 72.6894 49.7811 71.9185 49.9842 80.7453C50.1873 89.5722 52.0053 85.6555 52.3752 91.7454C52.7451 97.8353 50.7503 97.7249 51.1836 103.383C51.6168 109.041 52.4439 109.331 53.0292 114.14C53.6145 118.949 52.6301 123.449 52.8708 129.686" stroke="#CEFC00" stroke-width="0.157629"/>
<path d="M48.2608 4.86314C48.7436 10.1795 50.4713 13.0465 50.3111 18.7713C50.1509 24.4961 48.2745 23.7701 48.3819 29.4707C48.4893 35.1714 50.6853 35.2334 50.7256 41.6957C50.7622 47.555 49.1966 42.6058 48.6923 51.4597C48.188 60.3137 51.3354 61.814 50.9782 68.4143C50.6665 74.1735 48.9441 73.3331 48.7755 82.1339C48.6069 90.9348 50.5987 87.1089 50.7133 93.1904C50.8279 99.2718 48.8283 99.079 49.0248 104.733C49.2212 110.387 50.0399 110.71 50.4249 115.525C50.8099 120.34 49.631 124.781 49.6096 131.004" stroke="#D0FA00" stroke-width="0.157629"/>
<path d="M50.3056 6.3966C50.5682 11.7124 52.1839 14.6405 51.7833 20.3361C51.3827 26.0316 49.528 25.2299 49.3973 30.9127C49.2666 36.5954 51.4703 36.7492 51.2403 43.1878C51.0318 49.0256 49.6661 44.0303 48.7889 52.8284C47.9117 61.6264 51.0108 63.2527 50.3757 69.8122C49.8216 75.5357 48.1263 74.6264 47.5886 83.3857C47.0509 92.1449 49.2121 88.4175 49.0727 94.4799C48.9332 100.542 46.9325 100.266 46.8932 105.907C46.8539 111.547 47.6628 111.903 47.8481 116.715C48.0334 121.527 46.6632 125.901 46.3812 132.098" stroke="#D1F800" stroke-width="0.157629"/>
<path d="M52.3542 7.92929C52.3974 13.2353 53.8991 16.2202 53.2603 21.8766C52.6216 27.5329 50.7916 26.656 50.4245 32.3109C50.0573 37.9659 52.2648 38.2122 51.7666 44.6158C51.3149 50.422 50.1501 45.3885 48.9038 54.115C47.6575 62.8416 50.7034 64.5924 49.7932 71.0993C48.999 76.777 47.3337 75.7997 46.43 84.5019C45.5263 93.2041 47.8522 89.5826 47.4605 95.6153C47.0689 101.648 45.0704 101.289 44.7969 106.905C44.5234 112.521 45.3212 112.911 45.3077 117.711C45.2942 122.512 43.7361 126.811 43.1956 132.973" stroke="#D2F600" stroke-width="0.157629"/>
<path d="M54.4056 9.4612C54.2307 14.7485 55.6164 17.7858 54.742 23.3929C53.8676 29.0001 52.0655 28.0486 51.464 33.666C50.8626 39.2834 53.0699 39.6228 52.306 45.9803C51.6133 51.7447 50.6504 46.6811 49.0394 55.3207C47.4284 63.9603 50.4161 65.8341 49.2341 72.277C48.2027 77.8988 46.57 76.8543 45.3042 85.4842C44.0384 94.1142 46.5238 90.6058 45.8822 96.5984C45.2406 102.591 43.2478 102.148 42.742 107.731C42.2362 113.314 43.0216 113.735 42.8105 118.517C42.5994 123.299 40.8574 127.515 40.061 133.629" stroke="#D3F500" stroke-width="0.157629"/>
<path d="M56.4601 10.9928C56.0687 16.2524 57.3366 19.3376 56.2296 24.8858C55.1226 30.434 53.3513 29.4088 52.5181 34.9789C51.6848 40.549 53.888 40.9819 52.8613 47.2824C51.9305 52.995 51.1699 47.9094 49.1993 56.4469C47.2288 64.9843 50.1532 66.9793 48.7031 73.3468C47.4378 78.9028 45.8405 77.7922 44.2171 86.3349C42.5936 94.8775 45.2331 91.4893 44.3442 97.4315C43.4552 103.374 41.4718 102.847 40.736 108.387C40.0002 113.927 40.7719 114.38 40.3648 119.135C39.9577 123.889 38.036 128.014 36.9866 134.071" stroke="#D5F300" stroke-width="0.157629"/>
<path d="M58.5182 12.524C57.9123 17.7471 59.0608 20.8757 57.7246 26.3553C56.3884 31.835 54.651 30.7369 53.5888 36.2502C52.5266 41.7636 54.7217 42.2902 53.4358 48.5228C52.2698 54.1739 51.7117 49.0743 49.3873 57.4947C47.0629 65.915 49.9191 68.0292 48.2052 74.3102C46.7097 79.7909 45.1505 78.6152 43.1745 87.0558C41.1985 95.4964 43.9863 92.235 42.8532 98.1167C41.72 103.998 39.7494 103.388 38.7863 108.875C37.8232 114.362 38.5799 114.848 37.9787 119.567C37.3775 124.286 35.2807 128.312 33.9817 134.301" stroke="#D6F100" stroke-width="0.157629"/>
<path d="M60.5795 14.0549C59.7615 19.2327 60.7892 22.4001 59.2276 27.8018C57.6659 33.2035 55.9654 32.0336 54.6776 37.4808C53.3898 42.9279 55.5728 43.5483 54.0314 49.7025C52.6339 55.2823 52.2781 50.1768 49.6062 58.4655C46.9343 66.7542 49.7175 68.9852 47.7444 75.169C46.0228 80.5647 44.5044 79.3253 42.1814 87.6493C39.8585 95.9734 42.7888 92.8453 41.4149 98.6563C40.0411 104.467 38.0868 103.773 36.8995 109.199C35.7122 114.624 36.4526 115.141 35.6595 119.817C34.8664 124.492 32.5994 128.413 31.0547 134.324" stroke="#D7EF00" stroke-width="0.157629"/>
<path d="M62.6442 15.5858C61.6168 20.7099 62.5224 23.9115 60.7396 29.2259C58.9567 34.5404 57.296 33.2998 55.7862 38.6716C54.2764 44.0434 56.4434 44.7576 54.6509 50.8228C53.0256 56.322 52.8718 51.2185 49.8593 59.3612C46.8468 67.504 49.5521 69.8495 47.3251 75.9253C45.3818 81.2267 43.9068 79.925 41.2432 88.1183C38.5797 96.3116 41.6461 93.3229 40.0354 99.0536C38.4248 104.784 36.4904 104.006 35.0824 109.361C33.6744 114.716 34.3971 115.263 33.4148 119.888C32.4324 124.513 30.0003 128.321 28.2142 134.143" stroke="#D8EE00" stroke-width="0.157629"/>
<path d="M64.7123 17.1169C63.4786 22.1787 64.261 25.4098 62.2615 30.628C60.2619 35.8462 58.6441 34.5364 56.9164 39.8238C55.1887 45.1112 57.3354 45.9188 55.2966 51.8849C53.4479 57.2942 53.4952 52.2006 50.1497 60.1835C46.8041 68.1663 49.4268 70.6238 46.9513 76.5811C44.7913 81.7793 43.3622 80.4166 40.365 88.4653C37.3677 96.5139 40.5636 93.6707 38.7205 99.3113C36.8773 104.952 34.9665 104.091 33.3417 109.366C31.7168 114.641 32.4205 115.219 31.2517 119.785C30.0829 124.351 27.4913 128.039 25.4684 133.763" stroke="#DAEC00" stroke-width="0.157629"/>
<path d="M66.7839 18.648C65.3472 23.6393 66.0057 26.8953 63.7943 32.0085C61.583 37.1216 60.011 35.7438 58.0697 40.9381C56.1285 46.1323 58.2511 47.033 55.971 52.8899C53.9036 58.2004 54.1509 53.1245 50.4804 60.934C46.8099 68.7434 49.3454 71.31 46.6275 77.1388C44.2559 82.2248 42.8753 80.8027 39.5517 88.6932C36.2282 96.5838 39.5468 93.8915 37.4759 99.4327C35.4049 104.974 33.5212 104.031 31.6837 109.217C29.8462 114.404 30.5297 115.011 29.1776 119.511C27.8256 124.011 25.0801 127.572 22.8256 133.189" stroke="#DBEA00" stroke-width="0.157629"/>
<path d="M68.8588 20.1798C67.223 25.0925 67.7566 28.3687 65.3388 33.3682C62.921 38.3678 61.3976 36.9236 59.2476 42.0161C57.0975 47.1086 59.1919 48.1016 56.6761 53.8398C54.395 59.0425 54.841 53.9923 50.8542 61.6151C46.8674 69.2379 49.311 71.9106 46.3571 77.6011C43.7796 82.5664 42.4499 81.0866 38.808 88.8058C35.1661 96.525 38.6005 93.9889 36.3068 99.4216C34.0132 104.854 32.1601 103.83 30.1145 108.919C28.0688 114.008 28.7309 114.644 27.199 119.071C25.6672 123.498 22.774 126.925 20.2932 132.425" stroke="#DCE800" stroke-width="0.157629"/>
<path d="M70.9372 21.7117C69.1062 26.5379 69.5145 29.8295 66.8958 34.7071C64.2772 39.5848 62.8052 38.0758 60.4515 43.0583C58.0978 48.0407 60.1599 49.1253 57.4144 54.7352C54.925 59.8217 55.5679 54.8048 51.274 62.2282C46.9801 69.6517 49.3274 72.4273 46.1442 77.9699C43.3667 82.8063 42.0905 81.2706 38.1387 88.8057C34.187 96.3408 37.7297 93.9658 35.2188 99.2811C32.7079 104.596 30.8891 103.491 28.6402 108.475C26.3913 113.459 27.0307 114.123 25.3228 118.469C23.6149 122.815 20.5804 126.104 17.8792 131.478" stroke="#DDE700" stroke-width="0.157629"/>
<path d="M73.019 23.2446C70.9971 27.9766 71.2797 31.2788 68.4661 36.0266C65.6526 40.7743 64.2348 39.2024 61.6829 44.0666C59.131 48.9309 61.1568 50.1062 58.1878 55.5787C55.4958 60.5405 56.3337 55.5646 51.7424 62.7764C47.151 69.9881 49.3976 72.8633 45.9925 78.2489C43.0212 82.9483 41.8007 81.3585 37.5482 88.6971C33.2956 96.0358 36.9393 93.8266 34.2169 99.0158C31.4945 104.205 29.7134 103.02 27.2665 107.89C24.8196 112.761 25.4352 113.452 23.5553 117.711C21.6754 121.97 18.506 125.113 15.5906 130.353" stroke="#DFE500" stroke-width="0.157629"/>
<path d="M75.1041 24.7782C72.8961 29.4086 73.0527 32.7167 70.0506 37.3268C67.0484 41.9369 65.6875 40.3039 62.9432 45.0422C60.1988 49.7804 62.1843 51.0452 58.9985 56.3714C56.11 61.2007 57.1406 56.2732 52.262 63.2615C47.3834 70.2497 49.5251 73.2208 45.9054 78.4407C42.747 82.9953 41.5846 81.3535 37.0407 88.4837C32.4968 95.6139 36.2337 93.5748 33.306 98.6295C30.3783 103.684 28.6385 102.421 25.9991 107.17C23.3597 111.919 23.9502 112.637 21.9026 116.802C19.855 120.966 16.5577 123.959 13.4346 129.055" stroke="#E0E300" stroke-width="0.157629"/>
<path d="M77.1927 26.3128C74.8035 30.8342 74.8342 34.1435 71.65 38.6085C68.4657 43.0735 67.1644 41.3814 64.2336 45.9861C61.3028 50.5907 63.2441 51.9437 59.8486 57.1152C56.7698 61.8042 57.9906 56.9325 52.8354 63.6859C47.6801 70.4393 49.7128 73.5026 45.8866 78.5481C42.5479 82.9506 41.4458 81.2588 36.6205 88.1691C31.7952 95.0794 35.6176 93.2142 32.491 98.1265C29.3645 103.039 27.6693 101.698 24.8433 106.319C22.0173 110.939 22.5816 111.682 20.3709 115.746C18.1602 119.81 14.742 122.648 11.418 127.592" stroke="#E1E100" stroke-width="0.157629"/>
<path d="M79.2845 27.8486C76.7193 32.2541 76.6243 35.5598 73.2649 39.8725C69.9055 44.1853 68.6663 42.4364 65.5554 46.9001C62.4446 51.3639 64.3377 52.8035 60.7397 57.8121C57.4775 62.3533 58.8856 57.5448 53.4648 64.0525C48.044 70.5601 49.9636 73.7116 45.9391 78.5747C42.4274 82.8181 41.3877 81.0784 36.2915 87.7578C31.1952 94.4373 35.095 92.7495 31.7764 97.5115C28.4577 102.273 26.8106 100.858 23.8041 105.342C20.7977 109.826 21.3347 110.594 18.9657 114.551C16.5967 118.507 13.0648 121.185 9.54714 125.97" stroke="#E2E000" stroke-width="0.157629"/>
<path d="M81.3797 29.3857C78.644 33.6684 78.4235 36.9658 74.8961 41.1195C71.3686 45.2733 70.1941 43.4696 66.9098 47.7856C63.6255 52.1015 65.4666 53.6261 61.6739 58.4639C58.2351 62.8502 59.8274 58.112 54.1526 64.3635C48.4778 70.6151 50.2805 73.8508 46.0661 78.5237C42.3888 82.6011 41.4137 80.8159 36.0574 87.2539C30.701 93.6919 34.6701 92.1848 31.1664 96.7891C27.6627 101.393 26.0671 99.9037 22.8866 104.245C19.706 108.586 20.2146 109.378 17.6925 113.221C15.1703 117.064 11.5321 119.577 7.8283 124.195" stroke="#E4DE00" stroke-width="0.157629"/>
<path d="M83.4782 30.9241C80.5778 35.0775 80.2323 38.3618 76.5442 42.35C72.8562 46.3382 71.7487 44.4823 68.2979 48.6437C64.8471 52.8051 66.6323 54.4129 62.6529 59.0724C59.0447 63.2971 60.8179 58.6361 54.9009 64.6217C48.984 70.6073 50.6661 73.9229 46.2708 78.3983C42.4356 82.3034 41.5271 80.475 35.9219 86.6616C30.3167 92.8481 34.3467 91.5245 30.6653 95.9639C26.984 100.403 25.4431 98.8418 22.0952 103.033C18.7473 107.225 19.2265 108.039 16.5564 111.763C13.8864 115.487 10.1495 117.831 6.26737 122.275" stroke="#E5DC00" stroke-width="0.157629"/>
<path d="M85.5798 32.4641C82.5207 36.4819 82.051 39.7486 78.2099 43.5651C74.3689 47.3817 73.3308 45.4759 69.7206 49.4764C66.1105 53.477 67.8361 55.1659 63.6781 59.64C59.9082 63.6965 61.8584 59.1196 55.7117 64.83C49.5649 70.5404 51.1229 73.9315 46.5557 78.2025C42.5706 81.9292 41.7306 80.06 35.8882 85.9856C30.0457 91.9112 34.1283 90.7735 30.2769 95.0413C26.4256 99.3091 24.9427 97.6776 21.4344 101.713C17.9261 105.748 18.3747 106.584 15.5623 110.184C12.7499 113.783 8.92223 115.953 4.86975 120.216" stroke="#E6DA00" stroke-width="0.157629"/>
<path d="M87.6847 34.0059C84.4731 37.8822 83.8799 41.1265 79.8938 44.7656C75.9077 48.4047 74.9412 46.4516 71.1791 50.2852C67.417 54.1189 69.0794 55.8868 64.7514 60.1687C60.8273 64.051 62.9508 59.5647 56.5869 64.9913C50.2229 70.4178 51.6533 73.8797 46.9238 77.9397C42.7969 81.4824 42.0272 79.5751 35.9595 85.2307C29.8919 90.8863 34.0185 89.9365 30.005 94.0263C25.9915 98.1161 24.5699 96.4168 20.9083 100.29C17.2467 104.163 17.6639 105.019 14.7149 108.489C11.7659 111.958 7.85525 113.952 3.64076 118.028" stroke="#E7D900" stroke-width="0.157629"/>
<path d="M89.7926 35.5496C86.435 39.2786 85.7194 42.496 81.5963 45.9522C77.4732 49.4083 76.5806 47.4106 72.6741 51.0717C68.7676 54.7328 70.3631 56.5773 65.8739 60.6606C61.8037 64.3629 64.0963 59.9738 57.5282 65.1083C50.96 70.2428 52.2596 73.7709 47.3772 77.6139C43.117 80.9671 42.4193 79.0242 36.1388 84.4015C29.8582 89.7787 34.0203 89.0185 29.8529 92.9242C25.6854 96.8299 24.328 95.0651 20.5206 98.7702C16.7131 102.475 17.098 103.351 14.0183 106.685C10.9386 110.019 6.9531 111.833 2.58516 115.716" stroke="#E9D700" stroke-width="0.157629"/>
<path d="M91.9041 37.0951C88.4072 40.6714 87.5704 43.8573 83.3186 47.1255C79.0668 50.3938 78.25 48.3542 74.207 51.8374C70.164 55.3205 71.6892 57.2391 67.0478 61.1179C62.8395 64.6348 65.2969 60.3492 58.5378 65.1841C51.7786 70.019 52.9444 73.6083 47.9191 77.2286C43.5342 80.3875 42.9102 78.4117 36.4294 83.5027C29.9486 88.5937 34.1375 88.0244 29.8244 91.7403C25.5113 95.4562 24.2211 93.6282 20.2755 97.16C16.3298 100.692 16.6815 101.586 13.4772 104.78C10.273 107.974 6.22075 109.605 1.70814 113.289" stroke="#EAD500" stroke-width="0.157629"/>
<path d="M94.0175 38.6429C90.3881 42.0615 89.4315 45.2113 85.0595 48.2869C80.6875 51.3625 79.9485 49.2839 75.777 52.5841C71.6055 55.8844 73.0569 57.8744 68.2725 61.5431C63.9346 64.8695 66.5522 60.6935 59.6156 65.2218C52.679 69.7502 53.7081 73.3956 48.5499 76.7881C44.049 79.7482 43.5002 77.7423 36.8321 82.5397C30.1639 87.3371 34.371 86.9596 29.9208 90.4803C25.4706 94.0011 24.2507 92.1126 20.1746 95.4659C16.0985 98.8193 16.4161 99.7299 13.0936 102.779C9.77118 105.829 5.66046 107.276 1.01215 110.755" stroke="#EBD300" stroke-width="0.157629"/>
<path d="M96.1341 40.193C92.3794 43.449 91.3045 46.5584 86.8209 49.437C82.3374 52.3156 81.6781 50.2009 77.3863 53.3136C73.0945 56.4264 74.4687 58.4849 69.5508 61.9384C65.0918 65.0697 67.8646 61.0091 60.7644 65.2246C53.6642 69.4401 54.5538 73.1365 49.273 76.2963C44.6651 79.0534 44.193 77.0202 37.3507 81.5173C30.5084 86.0144 34.7249 85.8292 30.1464 89.1499C25.5679 92.4705 24.4209 90.5242 20.2224 93.6944C16.024 96.8646 16.3066 97.7907 12.8724 100.691C9.43818 103.592 5.27736 104.852 0.502527 108.122" stroke="#ECD200" stroke-width="0.157629"/>
<path d="M98.2537 41.7454C94.3807 44.8342 93.1892 47.8988 88.603 50.5765C84.0167 53.2542 83.4388 51.1065 79.035 54.0274C74.6313 56.9483 75.9252 59.0725 70.8834 62.306C66.312 65.2379 69.235 61.2984 61.9851 65.1953C54.7352 69.0922 55.483 72.8343 50.09 75.7571C45.3841 78.3075 44.9901 76.25 37.987 80.4406C30.9839 84.6313 35.2012 84.6385 30.5032 87.7545C25.8053 90.8705 24.7341 88.8691 20.4214 91.8519C16.1086 94.8346 16.3556 95.7749 12.8163 98.5224C9.27693 101.27 5.07441 102.342 0.182388 105.398" stroke="#EED000" stroke-width="0.157629"/>
<path d="M100.376 43.3004C96.3922 46.218 95.0859 49.2333 90.4058 51.7066C85.7257 54.1799 85.2308 52.0024 80.7237 54.7275C76.2165 57.4527 77.427 59.6393 72.2709 62.6486C67.596 65.3771 70.6641 61.5642 63.2787 65.1374C55.8934 68.7106 56.497 72.4929 51.0022 75.175C46.2076 77.5153 45.8928 75.4364 38.7426 79.3151C31.5924 83.1937 35.8017 83.393 30.9934 86.3002C26.1852 89.2075 25.1923 87.1539 20.7736 89.9452C16.3549 92.7365 16.5656 93.6896 12.9279 96.2804C9.29013 98.8713 5.05438 99.7536 0.0546612 102.592" stroke="#EFCE00" stroke-width="0.157629"/>
<path d="M102.501 44.8581C98.4143 47.6006 96.9953 50.5625 92.2305 52.8282C87.4656 55.0939 87.0552 52.8897 82.4533 55.4156C77.8514 57.9416 78.9754 60.1874 73.7151 62.9685C68.9456 65.4902 72.1533 61.8091 64.6468 65.054C57.1403 68.299 57.5977 72.1161 52.0119 74.554C47.1379 76.6813 46.9034 74.5841 39.6199 78.1458C32.3364 81.7075 36.529 82.0982 31.6196 84.7929C26.7103 87.4876 25.7982 85.385 21.282 87.9812C16.7658 90.5774 16.9395 91.5419 13.2103 93.9727C9.48105 96.4035 5.22056 97.0953 0.122769 99.7125" stroke="#F0CC00" stroke-width="0.157629"/>
<path d="M104.629 46.4186C100.446 48.9824 98.9163 51.8868 94.0759 53.9421C89.2355 55.9975 88.9109 53.7699 84.223 56.0934C79.535 58.417 80.5699 60.7185 75.2153 63.2681C70.3603 65.5798 73.7019 62.0356 66.0888 64.9485C58.4757 67.8614 58.785 71.7076 53.1189 73.8985C48.1749 75.8102 48.0218 73.6977 40.6189 76.9382C33.216 80.1786 37.3833 80.7596 32.3822 83.2384C27.3811 85.7172 26.5522 83.5687 21.9471 85.9666C17.3419 88.3644 17.4781 89.3389 13.6643 91.6065C9.85057 93.8742 5.57386 94.375 0.387734 96.7676" stroke="#F1CB00" stroke-width="0.157629"/>
<path d="M106.758 47.982C102.488 50.364 100.85 53.2067 95.9431 55.0494C91.0363 56.8921 90.7989 54.6444 86.0337 56.7628C81.2686 58.8812 82.2115 61.2349 76.7728 63.55C71.8416 65.6489 75.3113 62.2463 67.6062 64.8239C59.901 67.4015 60.0605 71.2711 54.3251 73.2126C49.3206 74.9066 49.2497 72.7821 41.7415 75.6975C34.2333 78.6129 38.3668 79.3828 33.2833 81.6427C28.1998 83.9027 27.4564 81.7116 22.771 83.9082C18.0856 86.1048 18.1836 87.0878 14.2924 89.1895C10.4013 91.2912 6.11686 91.6009 0.852232 93.7661" stroke="#F3C900" stroke-width="0.157629"/>
<path d="M108.89 49.5482C104.539 51.7456 102.795 54.5226 97.8315 56.1507C92.8675 57.7788 92.7184 55.5144 87.885 57.4253C83.0516 59.3362 83.9 61.7385 78.3874 63.8163C73.3892 65.7003 76.9811 62.4438 69.1986 64.6836C61.4162 66.9233 61.4244 70.8105 55.6306 72.5005C50.575 73.9751 50.5871 71.8417 42.9878 74.429C35.3885 77.0163 39.4796 77.9733 34.3233 80.0118C29.167 82.0503 28.5112 79.8202 23.7543 81.813C18.9973 83.8058 19.0567 84.7959 15.0954 86.7291C11.134 88.6624 6.85034 88.7811 1.51712 90.7166" stroke="#F4C700" stroke-width="0.157629"/>
<path d="M111.024 51.1177C106.601 53.1279 104.754 55.8354 99.7425 57.2473C94.7309 58.6593 94.671 56.3817 89.7784 58.0831C84.8857 59.7844 85.6372 62.2314 80.061 64.07C75.0051 65.7371 78.713 62.6309 70.8679 64.5309C63.0229 66.4309 62.8787 70.3297 57.0374 71.7668C51.9404 73.0208 52.0361 70.8817 44.36 73.1384C36.6839 75.3951 40.7242 76.5368 35.5047 78.3518C30.2852 80.1669 29.7189 77.901 24.8993 79.688C20.0796 81.475 20.1 82.4705 16.0757 84.2331C12.0514 85.9957 7.77692 85.9242 2.3851 87.628" stroke="#F5C600" stroke-width="0.157629"/>
<path d="M113.161 52.6903C108.674 54.5111 106.726 57.1453 101.676 58.3399C96.6263 59.5346 96.6566 57.2473 91.7137 58.7376C86.7708 60.2278 87.4231 62.7156 81.7936 64.3133C76.6894 65.7619 80.5071 62.8101 72.6142 64.3691C64.7213 65.928 64.4237 69.8325 58.5459 71.0157C53.4171 72.0481 53.5968 69.9067 45.8582 71.8308C38.1196 73.755 42.1009 75.079 36.8278 76.6688C31.5547 78.2586 31.0798 75.9607 26.2063 77.54C21.3328 79.1194 21.3139 80.1189 17.2339 81.7089C13.1539 83.299 8.89709 83.0382 3.45667 84.5089" stroke="#F6C400" stroke-width="0.157629"/>
<path d="M115.298 54.2666C110.756 55.8961 108.711 58.4533 103.632 59.43C98.5526 60.4066 98.6737 58.1132 93.6897 59.3911C88.7056 60.6691 89.2566 63.1936 83.5842 64.5492C78.4411 65.7782 82.3622 62.9845 74.4362 64.2017C66.5102 65.4189 66.0585 69.323 60.1551 70.2518C55.004 71.0623 55.2682 68.9218 47.4815 70.5122C39.6947 72.1026 43.6087 73.6058 38.2918 74.9691C32.9748 76.3324 32.593 74.0061 27.6745 75.3765C22.756 76.7468 22.6974 77.7487 18.5692 79.1647C14.4409 80.5807 10.21 80.132 4.73107 81.3684" stroke="#F8C200" stroke-width="0.157629"/>
<path d="M117.438 55.846C112.848 57.2829 110.708 59.7595 105.609 60.5179C100.511 61.2762 100.723 58.9803 95.707 60.045C90.6909 61.1098 91.1386 63.667 85.4337 64.7796C80.2611 65.7884 84.279 63.1563 76.3347 64.0318C68.3903 64.9072 67.7839 68.8049 61.866 69.4792C56.7022 70.0676 57.0511 67.9313 49.2305 69.1873C41.4099 70.4433 45.2488 72.1224 39.8976 73.2583C34.5464 74.3942 34.2592 72.0434 29.3047 73.2038C24.3502 74.3641 24.2517 75.3669 20.0825 76.6075C15.9134 77.8482 11.7167 77.2133 6.20924 78.2148" stroke="#F9C000" stroke-width="0.157629"/>
<path d="M119.579 57.429C114.949 58.672 112.718 61.0646 107.609 61.6047C102.5 62.1448 102.805 59.85 97.7654 60.7012C92.7263 61.5523 93.069 64.1379 87.3419 65.0072C82.1492 65.7954 86.2574 63.3282 78.3093 63.8625C70.3613 64.3968 69.6 68.2819 63.6784 68.7022C58.5114 69.0689 58.9452 66.9403 51.1051 67.8618C43.2649 68.7834 47.0207 70.6347 41.645 71.5427C36.2692 72.4507 36.0781 70.0792 31.0965 71.029C26.1149 71.9788 25.9763 72.9808 21.7737 74.0451C17.5711 75.1095 13.4168 74.2906 7.89078 75.057" stroke="#FABF00" stroke-width="0.157629"/>
<path d="M121.722 59.0156C117.06 60.0639 114.741 62.3692 109.631 62.6915C104.521 63.0138 104.918 60.7239 99.8645 61.3614C94.8115 61.9988 95.0476 64.6085 89.3087 65.2346C84.1052 65.8023 88.2969 63.5029 80.3597 63.6973C72.4226 63.8917 71.5064 67.758 65.592 67.9251C60.4313 68.071 60.9499 65.9533 53.1045 66.541C45.259 67.1287 48.924 69.1482 43.5334 69.8283C38.1428 70.5084 38.049 68.1201 33.0492 68.859C28.0494 69.598 27.8706 70.5977 23.642 71.4851C19.4133 72.3725 15.3093 71.372 9.77488 71.9035" stroke="#FBBD00" stroke-width="0.157629"/>
<path d="M123.866 60.6057C119.181 61.4589 116.777 63.6736 111.675 63.779C106.574 63.8844 107.062 61.603 102.004 62.0271C96.9463 62.4513 97.0744 65.0806 91.3339 65.4641C86.129 65.8118 90.3974 63.6828 82.4856 63.5392C74.5738 63.3955 73.5029 67.2369 67.6065 67.1522C62.4616 67.0783 63.0648 64.975 55.2283 65.23C47.3917 65.485 50.9585 67.6684 45.5626 68.1209C40.1668 68.5734 40.1713 66.1724 35.1622 66.7006C30.1531 67.2288 29.9341 68.2246 25.6868 68.9348C21.4395 69.645 17.3938 68.4656 11.8608 68.7628" stroke="#FDBB00" stroke-width="0.157629"/>
<path d="M126.012 62.1996C121.311 62.8576 118.826 64.9787 113.741 64.8684C108.657 64.7582 109.238 62.489 104.184 62.7005C99.1302 62.9121 99.1491 65.5565 93.4172 65.6983C88.2202 65.8269 92.5583 63.8708 84.6863 63.3916C76.8142 62.9124 75.589 66.7226 69.7213 66.3879C64.6014 66.0958 65.289 64.0103 57.4754 63.9344C49.6617 63.8585 53.123 66.201 47.7315 66.4266C42.34 66.6523 42.4437 64.2426 37.4342 64.5607C32.4246 64.8788 32.1653 65.8689 27.9068 66.4018C23.6483 66.9348 19.6687 65.5798 14.147 65.6438" stroke="#FEB900" stroke-width="0.157629"/>
</mask>
<g mask="url(#mask0_259_550)">
<rect x="-11.5068" y="-7.7238" width="174.18" height="170.712" fill="#190202"/>
</g>
</svg>
