<svg width="120" height="33" viewBox="0 0 120 33" fill="none" xmlns="http://www.w3.org/2000/svg">
<path d="M39.0533 27V11.0361H34.1071V7.50312H47.9773V11.0361H43.1097V27H39.0533ZM48.1393 27V12.711H51.8031V16.1393L51.5414 15.6421C51.8555 14.4383 52.3701 13.627 53.0855 13.2082C53.8182 12.7721 54.6819 12.554 55.6763 12.554H56.5138V15.9561H55.2838C54.3242 15.9561 53.5478 16.2527 52.9546 16.8459C52.3614 17.4217 52.0648 18.2417 52.0648 19.3059V27H48.1393ZM63.3636 27.314C62.2122 27.314 61.2264 27.0698 60.4064 26.5813C59.6038 26.0753 58.9932 25.3774 58.5745 24.4877C58.1558 23.5979 57.9464 22.5598 57.9464 21.3734V12.711H61.8719V21.0593C61.8719 21.6002 61.9766 22.08 62.186 22.4987C62.4128 22.9 62.7268 23.214 63.1281 23.4408C63.5294 23.6676 63.983 23.7811 64.489 23.7811C65.0124 23.7811 65.466 23.6676 65.8498 23.4408C66.2511 23.214 66.5564 22.9 66.7658 22.4987C66.9926 22.08 67.106 21.6002 67.106 21.0593V12.711H71.0315V27H67.3677V24.1736L67.5771 24.8017C67.2456 25.6566 66.7047 26.2934 65.9545 26.7121C65.2217 27.1134 64.3581 27.314 63.3636 27.314ZM79.5011 27.314C77.9309 27.314 76.5613 26.9477 75.3924 26.2149C74.2409 25.4647 73.4558 24.4615 73.0371 23.2053L75.9158 21.8444C76.2822 22.6121 76.7794 23.214 77.4075 23.6502C78.0356 24.0864 78.7335 24.3045 79.5011 24.3045C80.0594 24.3045 80.4869 24.1911 80.7835 23.9642C81.0801 23.7374 81.2284 23.4234 81.2284 23.0221C81.2284 22.8128 81.176 22.6383 81.0713 22.4987C80.9667 22.3417 80.8096 22.2021 80.6003 22.08C80.3909 21.9579 80.1292 21.8532 79.8152 21.7659L77.3813 21.0855C76.2124 20.754 75.3139 20.2219 74.6858 19.4891C74.0577 18.7389 73.7436 17.8578 73.7436 16.8459C73.7436 15.9561 73.9705 15.1797 74.4241 14.5168C74.8777 13.8538 75.5145 13.3391 76.3345 12.9727C77.1545 12.5889 78.0966 12.397 79.1609 12.397C80.5567 12.397 81.7779 12.7285 82.8247 13.3914C83.889 14.037 84.6392 14.9529 85.0754 16.1393L82.1705 17.5002C81.9611 16.907 81.5773 16.4359 81.019 16.087C80.4781 15.7206 79.8588 15.5374 79.1609 15.5374C78.6549 15.5374 78.2537 15.6421 77.9571 15.8515C77.6779 16.0608 77.5383 16.3487 77.5383 16.7151C77.5383 16.907 77.5907 17.0815 77.6954 17.2385C77.8 17.3955 77.9658 17.5351 78.1926 17.6572C78.4369 17.7793 78.7335 17.8927 79.0824 17.9974L81.3592 18.6778C82.5456 19.0268 83.4528 19.5589 84.0809 20.2742C84.709 20.9721 85.023 21.8357 85.023 22.8651C85.023 23.7549 84.7875 24.5313 84.3165 25.1942C83.8628 25.8572 83.226 26.3806 82.406 26.7645C81.586 27.1309 80.6177 27.314 79.5011 27.314ZM94.252 27.157C92.5247 27.157 91.1813 26.6947 90.2217 25.77C89.2796 24.8279 88.8085 23.5193 88.8085 21.8444V16.1132H86.4009V12.711H86.5317C87.2645 12.711 87.8228 12.5278 88.2066 12.1614C88.6079 11.7951 88.8085 11.2455 88.8085 10.5127V9.4659H92.7341V12.711H96.0839V16.1132H92.7341V21.5827C92.7341 22.0713 92.8213 22.4813 92.9958 22.8128C93.1703 23.1268 93.4407 23.3623 93.8071 23.5193C94.1735 23.6764 94.6271 23.7549 95.1679 23.7549C95.2901 23.7549 95.4296 23.7462 95.5867 23.7287C95.7437 23.7113 95.9094 23.6938 96.0839 23.6764V27C95.8222 27.0349 95.5256 27.0698 95.1941 27.1047C94.8626 27.1396 94.5486 27.157 94.252 27.157ZM98.3842 27V7.18908H102.31V27H98.3842ZM112.065 27.314C110.547 27.314 109.23 26.9826 108.113 26.3196C106.997 25.6391 106.133 24.7319 105.523 23.5979C104.912 22.4638 104.607 21.2076 104.607 19.8293C104.607 18.3987 104.921 17.1251 105.549 16.0085C106.194 14.8919 107.058 14.0108 108.14 13.3653C109.221 12.7197 110.443 12.397 111.803 12.397C112.937 12.397 113.941 12.5802 114.813 12.9465C115.685 13.2955 116.418 13.7927 117.011 14.4383C117.622 15.0838 118.084 15.834 118.398 16.6889C118.712 17.5263 118.869 18.4423 118.869 19.4368C118.869 19.7159 118.852 19.9951 118.817 20.2742C118.8 20.5359 118.756 20.7627 118.686 20.9547H107.983V18.0759H116.462L114.604 19.4368C114.778 18.6866 114.769 18.0236 114.578 17.4478C114.386 16.8546 114.045 16.3923 113.557 16.0608C113.086 15.7119 112.501 15.5374 111.803 15.5374C111.123 15.5374 110.539 15.7032 110.05 16.0346C109.562 16.3661 109.195 16.8546 108.951 17.5002C108.707 18.1457 108.611 18.9308 108.663 19.8555C108.593 20.6581 108.689 21.3647 108.951 21.9753C109.213 22.5859 109.614 23.0657 110.155 23.4147C110.696 23.7462 111.35 23.9119 112.117 23.9119C112.815 23.9119 113.409 23.7723 113.897 23.4932C114.403 23.214 114.796 22.8302 115.075 22.3417L118.215 23.8334C117.936 24.5313 117.491 25.1419 116.88 25.6653C116.287 26.1887 115.581 26.5987 114.761 26.8953C113.941 27.1745 113.042 27.314 112.065 27.314Z" fill="#190202"/>
<mask id="mask0_5_1239" style="mask-type:alpha" maskUnits="userSpaceOnUse" x="0" y="2" width="25" height="27">
<path d="M8.08861 2.73615C8.3084 3.74629 8.70172 4.25649 8.81102 5.36022C8.92032 6.46395 8.55127 6.36862 8.7101 7.46141C8.86892 8.5542 9.28169 8.51445 9.4465 9.75516C9.59593 10.8801 9.1823 9.96601 9.30332 11.6791C9.42433 13.3921 10.0502 13.6064 10.144 14.8829C10.2257 15.9968 9.88273 15.8759 10.0653 17.5709C10.2479 19.2658 10.5278 18.4839 10.6973 19.6497C10.8667 20.8154 10.4876 20.8255 10.6619 21.9072C10.8363 22.9889 10.9975 23.0318 11.1868 23.9478C11.376 24.8638 11.2633 25.7449 11.4107 26.9411" stroke="#CCFF00" stroke-width="0.0302522"/>
<path d="M8.47934 3.03107C8.65678 4.04637 9.03001 4.57071 9.09243 5.67475C9.15485 6.77878 8.78818 6.66874 8.90083 7.7639C9.01348 8.85906 9.42986 8.8363 9.54216 10.0791C9.64398 11.2059 9.26769 10.2783 9.31572 11.9899C9.36376 13.7014 9.98336 13.9404 10.0227 15.216C10.057 16.3291 9.71764 16.1946 9.82831 17.8906C9.93898 19.5866 10.2537 18.819 10.3739 19.9873C10.4941 21.1557 10.1128 21.1502 10.2415 22.2349C10.3703 23.3197 10.5303 23.369 10.6811 24.2893C10.832 25.2096 10.6809 26.0827 10.7777 27.2804" stroke="#CDFD00" stroke-width="0.0302522"/>
<path d="M8.87041 3.32565C9.00545 4.34435 9.35809 4.88204 9.3738 5.98439C9.3895 7.08674 9.02582 6.96203 9.09237 8.05761C9.15892 9.15319 9.5782 9.14767 9.63811 10.3903C9.69244 11.5169 9.35388 10.5775 9.32927 12.2844C9.30467 13.9914 9.91697 14.2549 9.9022 15.5272C9.88931 16.6374 9.55406 16.4894 9.59303 18.1835C9.63201 19.8776 9.98092 19.1259 10.0519 20.2947C10.1229 21.4634 9.74005 21.4422 9.82321 22.5281C9.90636 23.6141 10.0651 23.6697 10.1774 24.5927C10.2898 25.5157 10.1008 26.3792 10.147 27.5763" stroke="#CEFC00" stroke-width="0.0302522"/>
<path d="M9.26232 3.62022C9.35498 4.64054 9.68657 5.19078 9.65582 6.28948C9.62506 7.38819 9.26495 7.24886 9.28556 8.34293C9.30617 9.437 9.72764 9.44891 9.73538 10.6892C9.74239 11.8137 9.44192 10.8638 9.34514 12.5631C9.24836 14.2623 9.85239 14.5503 9.78384 15.817C9.72402 16.9223 9.39346 16.761 9.3611 18.4501C9.32874 20.1392 9.71102 19.4049 9.73301 20.5721C9.75499 21.7392 9.37124 21.7022 9.40895 22.7873C9.44665 23.8725 9.60376 23.9345 9.67766 24.8585C9.75155 25.7826 9.5253 26.6349 9.52118 27.8292" stroke="#D0FA00" stroke-width="0.0302522"/>
<path d="M9.65471 3.91454C9.7051 4.93475 10.0152 5.49672 9.93832 6.58982C9.86144 7.68292 9.50548 7.52905 9.48039 8.61969C9.45531 9.71033 9.87823 9.73985 9.8341 10.9756C9.79409 12.0959 9.53197 11.1372 9.36362 12.8258C9.19527 14.5143 9.79006 14.8264 9.66817 16.0853C9.56181 17.1838 9.23646 17.0093 9.13326 18.6904C9.03006 20.3714 9.44484 19.6561 9.41808 20.8196C9.39132 21.9831 9.00734 21.9301 8.9998 23.0126C8.99226 24.095 9.14751 24.1634 9.18307 25.0869C9.21863 26.0104 8.95565 26.8499 8.90153 28.0394" stroke="#D1F800" stroke-width="0.0302522"/>
<path d="M10.0478 4.2086C10.0561 5.22694 10.3443 5.79981 10.2217 6.88538C10.0991 7.97095 9.74793 7.80265 9.67748 8.88795C9.60702 9.97326 10.0307 10.0205 9.93505 11.2495C9.84836 12.3638 9.62482 11.3978 9.38563 13.0726C9.14644 14.7474 9.73101 15.0835 9.55632 16.3323C9.4039 17.4219 9.08429 17.2344 8.91086 18.9045C8.73742 20.5746 9.1838 19.8796 9.10863 21.0374C9.03347 22.1952 8.64991 22.1263 8.59742 23.2041C8.54493 24.282 8.69806 24.3567 8.69546 25.2781C8.69287 26.1995 8.39384 27.0246 8.29011 28.2071" stroke="#D2F600" stroke-width="0.0302522"/>
<path d="M10.4416 4.50267C10.408 5.5174 10.674 6.10032 10.5062 7.17646C10.3383 8.25259 9.99247 8.06998 9.87704 9.14807C9.76161 10.2262 10.1852 10.2913 10.0386 11.5115C9.90569 12.6178 9.72089 11.646 9.41171 13.3041C9.10253 14.9622 9.67592 15.3218 9.44906 16.5583C9.25111 17.6373 8.93778 17.4368 8.69485 19.0931C8.45191 20.7493 8.9289 20.076 8.80576 21.2261C8.68262 22.3762 8.30017 22.2912 8.2031 23.3627C8.10602 24.4341 8.25677 24.5151 8.21625 25.4328C8.17574 26.3504 7.84141 27.1596 7.68856 28.3331" stroke="#D3F500" stroke-width="0.0302522"/>
<path d="M10.8359 4.79663C10.7608 5.80606 11.0041 6.39817 10.7916 7.463C10.5792 8.52782 10.2392 8.33105 10.0793 9.40007C9.91938 10.4691 10.3422 10.5522 10.1452 11.7614C9.96653 12.8577 9.82056 11.8817 9.44237 13.5202C9.06418 15.1587 9.62543 15.5416 9.34713 16.7637C9.10429 17.83 8.79775 17.6168 8.48617 19.2564C8.1746 20.8959 8.68117 20.2456 8.51056 21.386C8.33996 22.5265 7.95929 22.4254 7.81807 23.4886C7.67685 24.5518 7.82497 24.6388 7.74684 25.5513C7.6687 26.4638 7.29989 27.2555 7.09849 28.4179" stroke="#D5F300" stroke-width="0.0302522"/>
<path d="M11.2309 5.09047C11.1146 6.09289 11.335 6.69333 11.0786 7.745C10.8222 8.79666 10.4887 8.58592 10.2848 9.64404C10.081 10.7022 10.5023 10.8032 10.2555 11.9994C10.0317 13.084 9.92459 12.1052 9.47849 13.7213C9.03239 15.3373 9.58056 15.7431 9.25162 16.9485C8.9646 18.0004 8.66537 17.7748 8.28613 19.3947C7.90689 21.0146 8.44193 20.3887 8.22446 21.5175C8.00698 22.6463 7.62877 22.5291 7.44394 23.5822C7.2591 24.6354 7.40432 24.7285 7.28894 25.6342C7.17356 26.5399 6.77114 27.3127 6.52184 28.4621" stroke="#D6F100" stroke-width="0.0302522"/>
<path d="M11.6266 5.38434C11.4696 6.37807 11.6668 6.98597 11.3671 8.02266C11.0674 9.05936 10.741 8.83483 10.4939 9.88025C10.2467 10.9257 10.6657 11.0447 10.3699 12.2259C10.1016 13.2967 10.0334 12.3169 9.52057 13.9077C9.00778 15.4984 9.54193 15.9266 9.16326 17.1134C8.83284 18.149 8.54142 17.9111 8.09561 19.5087C7.6498 21.1062 8.21217 20.5059 7.9485 21.6211C7.68483 22.7364 7.30976 22.6031 7.08189 23.6444C6.85403 24.6857 6.99612 24.7848 6.84391 25.6822C6.69171 26.5796 6.25661 27.3321 5.96016 28.4665" stroke="#D7EF00" stroke-width="0.0302522"/>
<path d="M12.0228 5.67818C11.8256 6.6616 11.9994 7.27605 11.6572 8.29601C11.3151 9.31596 10.9964 9.07788 10.7066 10.1088C10.4168 11.1398 10.8327 11.2769 10.4887 12.4409C10.1768 13.4963 10.1473 12.5168 9.5691 14.0796C8.99094 15.6424 9.51015 16.0925 9.08272 17.2586C8.70977 18.276 8.42668 18.0262 7.9155 19.5987C7.40432 21.1711 7.99281 20.5976 7.68369 21.6974C7.37457 22.7972 7.00333 22.6479 6.73311 23.6756C6.46289 24.7033 6.60159 24.8084 6.41305 25.696C6.22451 26.5836 5.75774 27.3143 5.41495 28.4318" stroke="#D8EE00" stroke-width="0.0302522"/>
<path d="M12.4196 5.97187C12.1829 6.94334 12.333 7.56346 11.9493 8.56495C11.5655 9.56643 11.255 9.31503 10.9235 10.3298C10.5919 11.3446 11.0039 11.4996 10.6126 12.6446C10.2578 13.6827 10.2669 12.7052 9.62478 14.2373C8.9827 15.7693 9.48605 16.241 9.01095 17.3843C8.5964 18.3819 8.32213 18.1204 7.74689 19.6651C7.17166 21.2098 7.78502 20.6641 7.43128 21.7467C7.07754 22.8293 6.71082 22.664 6.39897 23.6764C6.08713 24.6888 6.22219 24.7996 5.99787 25.676C5.77355 26.5523 5.27616 27.2601 4.88793 28.3587" stroke="#DAEC00" stroke-width="0.0302522"/>
<path d="M12.8172 6.26578C12.5414 7.22372 12.6678 7.84861 12.2434 8.82994C11.819 9.81126 11.5173 9.54682 11.1447 10.5437C10.7722 11.5406 11.1795 11.7135 10.7419 12.8375C10.3452 13.8567 10.3926 12.8826 9.68818 14.3813C8.98374 15.8801 9.47034 16.3727 8.94872 17.4914C8.49357 18.4675 8.2286 18.1946 7.59074 19.7089C6.95288 21.2233 7.58979 20.7066 7.19234 21.7701C6.79488 22.8335 6.43336 22.6525 6.0807 23.6479C5.72804 24.6433 5.85922 24.7598 5.59973 25.6234C5.34024 26.4871 4.81333 27.1705 4.38064 28.2485" stroke="#DBEA00" stroke-width="0.0302522"/>
<path d="M13.2155 6.55982C12.9015 7.50268 13.0039 8.13144 12.5399 9.09096C12.0759 10.0505 11.7835 9.7733 11.3709 10.7507C10.9582 11.728 11.3602 11.9186 10.8773 13.0199C10.4395 14.0184 10.5251 13.0491 9.75999 14.5121C8.99484 15.9751 9.46382 16.488 8.8969 17.5802C8.40222 18.5331 8.14704 18.2491 7.44808 19.7306C6.74912 21.2121 7.40824 20.7253 6.96804 21.768C6.52784 22.8106 6.17221 22.614 5.7796 23.5907C5.387 24.5674 5.51407 24.6895 5.22007 25.5391C4.92607 26.3887 4.37082 27.0466 3.8947 28.1021" stroke="#DCE800" stroke-width="0.0302522"/>
<path d="M13.6144 6.85379C13.263 7.78005 13.3413 8.41176 12.8388 9.34789C12.3362 10.284 12.0537 9.99441 11.602 10.9506C11.1503 11.9069 11.546 12.115 11.0191 13.1917C10.5413 14.1679 10.6647 13.205 9.84062 14.6298C9.01653 16.0545 9.46702 16.5872 8.85611 17.6509C8.32305 18.5791 8.07811 18.2844 7.31969 19.7305C6.56126 21.1767 7.24119 20.7209 6.75929 21.741C6.2774 22.7611 5.92833 22.5489 5.49672 23.5054C5.06511 24.462 5.18783 24.5894 4.86004 25.4235C4.53226 26.2577 3.94987 26.8888 3.43145 27.9202" stroke="#DDE700" stroke-width="0.0302522"/>
<path d="M14.0139 7.148C13.6258 8.05619 13.6801 8.68995 13.1401 9.60114C12.6001 10.5123 12.328 10.2106 11.8383 11.1442C11.3485 12.0777 11.7373 12.3033 11.1675 13.3536C10.6508 14.3059 10.8116 13.3509 9.93046 14.735C9.04928 16.1191 9.48045 16.6709 8.82693 17.7045C8.25669 18.6064 8.02245 18.3013 7.20629 19.7097C6.39013 21.1182 7.08943 20.6942 6.56695 21.6901C6.04447 22.686 5.70264 22.4586 5.23303 23.3933C4.76342 24.328 4.88156 24.4607 4.52076 25.2781C4.15997 26.0954 3.55171 26.6988 2.99217 27.7043" stroke="#DFE500" stroke-width="0.0302522"/>
<path d="M14.4141 7.44232C13.9904 8.33099 14.0204 8.96588 13.4443 9.85066C12.8681 10.7354 12.6069 10.422 12.0802 11.3314C11.5535 12.2407 11.9346 12.4835 11.3231 13.5057C10.7688 14.4326 10.9666 13.4869 10.0303 14.8281C9.09394 16.1692 9.50498 16.7395 8.8103 17.7413C8.20414 18.6154 7.98104 18.3003 7.10897 19.6687C6.2369 21.0372 6.9541 20.6458 6.39221 21.6159C5.83032 22.586 5.49641 22.3435 4.98986 23.255C4.48331 24.1665 4.59663 24.3043 4.20366 25.1035C3.81068 25.9028 3.17787 26.4772 2.57846 27.4552" stroke="#E0E300" stroke-width="0.0302522"/>
<path d="M14.8149 7.73682C14.3564 8.60458 14.3623 9.2397 13.7511 10.0966C13.14 10.9536 12.8903 10.6288 12.3278 11.5125C11.7653 12.3963 12.1379 12.6559 11.4862 13.6484C10.8953 14.5484 11.1296 13.6134 10.1402 14.9095C9.15084 16.2056 9.54095 16.7935 8.80662 17.7619C8.16586 18.6068 7.95434 18.2821 7.02827 19.6083C6.1022 20.9346 6.83579 20.5766 6.23573 21.5194C5.63568 22.4621 5.31034 22.2049 4.76797 23.0916C4.22561 23.9784 4.33391 24.121 3.90963 24.901C3.48535 25.6809 2.82932 26.2255 2.19137 27.1744" stroke="#E1E100" stroke-width="0.0302522"/>
<path d="M15.2163 8.0316C14.724 8.8771 14.7058 9.51153 14.061 10.3392C13.4163 11.167 13.1785 10.8313 12.5814 11.688C11.9844 12.5447 12.3477 12.821 11.6572 13.7822C11.0311 14.6538 11.3014 13.7309 10.261 14.9799C9.22063 16.2288 9.58904 16.8337 8.81664 17.767C8.14267 18.5814 7.94314 18.2475 6.96507 19.5294C5.98699 20.8114 6.73545 20.4874 6.09852 21.4014C5.4616 22.3153 5.14549 22.0436 4.56849 22.9042C3.99148 23.7648 4.09454 23.9122 3.63989 24.6716C3.18523 25.4309 2.50738 25.9447 1.83227 26.8631" stroke="#E2E000" stroke-width="0.0302522"/>
<path d="M15.6184 8.32657C15.0934 9.1485 15.051 9.78134 14.374 10.5785C13.6971 11.3757 13.4716 11.0296 12.8413 11.8579C12.211 12.6862 12.5643 12.9788 11.8364 13.9073C11.1765 14.7491 11.4821 13.8397 10.3929 15.0395C9.30382 16.2393 9.6498 16.8603 8.84098 17.7572C8.13523 18.5397 7.94809 18.1971 6.92009 19.4327C5.8921 20.6683 6.65384 20.379 5.98141 21.2627C5.30898 22.1463 5.00275 21.8604 4.39234 22.6936C3.78193 23.5268 3.87953 23.6787 3.39548 24.4163C2.91142 25.154 2.21318 25.6361 1.50234 26.5224" stroke="#E4DE00" stroke-width="0.0302522"/>
<path d="M16.0212 8.62187C15.4645 9.41899 15.3982 10.0493 14.6904 10.8147C13.9826 11.5802 13.7701 11.224 13.1078 12.0226C12.4455 12.8213 12.7881 13.1299 12.0244 14.0241C11.3319 14.8349 11.6722 13.9404 10.5366 15.0891C9.40104 16.2379 9.72387 16.8742 8.88032 17.7332C8.14426 18.4826 7.96989 18.1317 6.89414 19.3191C5.81839 20.5064 6.59183 20.2524 5.8853 21.1044C5.17878 21.9564 4.88306 21.6567 4.24052 22.4611C3.59799 23.2655 3.68995 23.4218 3.17751 24.1366C2.66507 24.8513 1.94789 25.301 1.20282 26.1539" stroke="#E5DC00" stroke-width="0.0302522"/>
<path d="M16.4245 8.91748C15.8374 9.68858 15.7472 10.3155 15.0101 11.048C14.2729 11.7805 14.0736 11.4147 13.3808 12.1825C12.6879 12.9503 13.0191 13.2744 12.2211 14.1331C11.4976 14.9116 11.8719 14.0332 10.6922 15.1292C9.51248 16.2251 9.81148 16.8759 8.93496 17.6956C8.17013 18.4108 8.0089 18.0521 6.88762 19.1894C5.76634 20.3266 6.54986 20.1083 5.81071 20.9273C5.07156 21.7464 4.78697 21.4333 4.11365 22.2078C3.44032 22.9822 3.52643 23.1427 2.98667 23.8335C2.44692 24.5243 1.7123 24.9408 0.934541 25.759" stroke="#E6DA00" stroke-width="0.0302522"/>
<path d="M16.8285 9.21335C16.2121 9.95728 16.0983 10.5799 15.3333 11.2784C14.5683 11.9768 14.3828 11.6019 13.6607 12.3377C12.9387 13.0734 13.2578 13.4127 12.4271 14.2345C11.674 14.9796 12.0816 14.1186 10.8602 15.1601C9.63882 16.2015 9.91335 16.866 9.00565 17.6452C8.21361 18.3251 8.06588 17.959 6.90138 19.0444C5.73687 20.1299 6.52885 19.9476 5.75858 20.7325C4.98831 21.5174 4.71546 21.1913 4.01273 21.9346C3.30999 22.6779 3.39007 22.8423 2.82409 23.5081C2.25812 24.174 1.50758 24.5566 0.698732 25.3389" stroke="#E7D900" stroke-width="0.0302522"/>
<path d="M17.2331 9.50958C16.5887 10.2252 16.4514 10.8427 15.6601 11.506C14.8688 12.1694 14.6975 11.786 13.9477 12.4886C13.198 13.1912 13.5042 13.5452 12.6427 14.3289C11.8615 15.0395 12.3015 14.1971 11.0409 15.1825C9.78035 16.1679 10.0298 16.845 9.09274 17.5826C8.27512 18.2261 8.14122 17.8533 6.93585 18.8853C5.73049 19.9173 6.52928 19.7714 5.72945 20.521C4.92963 21.2705 4.66911 20.9318 3.93839 21.6429C3.20766 22.354 3.28153 22.5221 2.69048 23.162C2.09942 23.8018 1.33451 24.15 0.496212 24.8951" stroke="#E9D700" stroke-width="0.0302522"/>
<path d="M17.6383 9.80613C16.9672 10.4925 16.8066 11.1039 15.9906 11.7312C15.1746 12.3584 15.0178 11.967 14.2419 12.6355C13.466 13.304 13.7587 13.6722 12.8679 14.4166C12.0602 15.0916 12.5319 14.2691 11.2346 15.197C9.93742 16.1249 10.1612 16.8138 9.1967 17.5086C8.35514 18.1148 8.23538 17.7357 6.99158 18.7127C5.74778 19.6898 6.55171 19.5805 5.72394 20.2937C4.89617 21.0068 4.64856 20.656 3.89131 21.3338C3.13406 22.0117 3.20154 22.1832 2.58658 22.7962C1.97163 23.4092 1.19391 23.7223 0.327847 24.4293" stroke="#EAD500" stroke-width="0.0302522"/>
<path d="M18.044 10.1032C17.3474 10.7593 17.1638 11.3638 16.3248 11.9541C15.4857 12.5444 15.3439 12.1454 14.5433 12.7788C13.7427 13.4122 14.0212 13.7941 13.103 14.4982C12.2705 15.1366 12.7728 14.3352 11.4415 15.2043C10.1103 16.0734 10.3078 16.773 9.3178 17.4241C8.45399 17.9922 8.34867 17.6072 7.06891 18.5279C5.78915 19.4486 6.59657 19.3762 5.74249 20.0519C4.88841 20.7276 4.65427 20.3652 3.87199 21.0087C3.08971 21.6523 3.15065 21.8271 2.513 22.4123C1.87536 22.9975 1.08642 23.2753 0.194316 23.943" stroke="#EBD300" stroke-width="0.0302522"/>
<path d="M18.4501 10.4008C17.7294 11.0257 17.5231 11.6224 16.6627 12.1749C15.8022 12.7274 15.6756 12.3215 14.8519 12.9189C14.0283 13.5163 14.292 13.9114 13.3482 14.5742C12.4924 15.1751 13.0245 14.3958 11.6619 15.2049C10.2992 16.0139 10.4699 16.7233 9.45642 17.3298C8.57207 17.8589 8.48146 17.4687 7.16828 18.3318C5.8551 19.1949 6.66433 19.1593 5.78562 19.7966C4.90691 20.4339 4.68679 20.0604 3.88101 20.6688C3.07524 21.2773 3.12948 21.455 2.47038 22.0117C1.81129 22.5683 1.01274 22.8102 0.0963476 23.4378" stroke="#ECD200" stroke-width="0.0302522"/>
<path d="M18.8569 10.6987C18.1136 11.2915 17.8849 11.8796 17.0047 12.3935C16.1245 12.9074 16.0136 12.4953 15.1684 13.0558C14.3233 13.6164 14.5716 14.0241 13.604 14.6447C12.7266 15.2074 13.2876 14.4513 11.8962 15.1992C10.5048 15.9471 10.6483 16.6653 9.61327 17.2262C8.71013 17.7157 8.63449 17.3208 7.29046 18.1251C5.94642 18.9294 6.7558 18.9307 5.85417 19.5288C4.95255 20.1268 4.74695 19.7427 3.91925 20.3151C3.09154 20.8876 3.13895 21.068 2.45968 21.5953C1.7804 22.1227 0.973847 22.3284 0.0349658 22.915" stroke="#EED000" stroke-width="0.0302522"/>
<path d="M19.2643 10.9971C18.4997 11.557 18.249 12.1357 17.3508 12.6104C16.4526 13.0851 16.3576 12.6672 15.4926 13.1902C14.6276 13.7132 14.8599 14.1328 13.8703 14.7104C12.9731 15.234 13.5619 14.5023 12.1445 15.188C10.7271 15.8738 10.843 16.5997 9.78842 17.1145C8.86825 17.5636 8.80782 17.1646 7.43555 17.909C6.06328 18.6534 6.87112 18.6917 5.94832 19.2496C5.02552 19.8076 4.83496 19.4135 3.98692 19.9492C3.13889 20.4849 3.17932 20.6678 2.48116 21.165C1.783 21.6623 0.970075 21.8316 0.010524 22.3764" stroke="#EFCE00" stroke-width="0.0302522"/>
<path d="M19.6721 11.2961C18.8877 11.8224 18.6154 12.3908 17.7009 12.8257C16.7865 13.2605 16.7077 12.8375 15.8245 13.3223C14.9413 13.807 15.157 14.2381 14.1474 14.7718C13.2321 15.2558 13.8477 14.5493 12.407 15.1721C10.9664 15.7948 11.0542 16.5274 9.98215 16.9953C9.04673 17.4036 9.00173 17.0011 7.60387 17.6847C6.20601 18.3682 7.01065 18.4432 6.06844 18.9604C5.12624 19.4775 4.95119 19.074 4.08444 19.5723C3.21769 20.0705 3.25103 20.2556 2.53531 20.7222C1.81959 21.1887 1.00191 21.3215 0.0235377 21.8238" stroke="#F0CC00" stroke-width="0.0302522"/>
<path d="M20.0805 11.5956C19.2777 12.0876 18.9842 12.645 18.0552 13.0395C17.1262 13.434 17.0639 13.0064 16.1642 13.4524C15.2645 13.8983 15.4631 14.34 14.4354 14.8293C13.5037 15.273 14.145 14.5928 12.6839 15.1518C11.2228 15.7109 11.2821 16.4491 10.1947 16.8695C9.24583 17.2364 9.21643 16.831 7.79567 17.4529C6.3749 18.0748 7.17469 18.1863 6.21487 18.6621C5.25505 19.1378 5.09597 18.7255 4.21215 19.1856C3.32832 19.6458 3.35445 19.8329 2.62251 20.2681C1.89058 20.7033 1.06979 20.7994 0.0744616 21.2586" stroke="#F1CB00" stroke-width="0.0302522"/>
<path d="M20.4892 11.8956C19.6695 12.3527 19.3552 12.8983 18.4135 13.252C17.4717 13.6056 17.4262 13.1742 16.5117 13.5808C15.5971 13.9874 15.7781 14.4391 14.7343 14.8834C13.7879 15.2862 14.4538 14.6332 12.975 15.1279C11.4962 15.6226 11.5269 16.3653 10.4261 16.7379C9.46564 17.063 9.45203 16.6552 8.01105 17.2148C6.57008 17.7743 7.36337 17.9221 6.38775 18.3558C5.41212 18.7895 5.26944 18.369 4.37021 18.7906C3.47098 19.2121 3.4898 19.4008 2.74301 19.8042C1.99621 20.2075 1.17394 20.267 0.163549 20.6825" stroke="#F3C900" stroke-width="0.0302522"/>
<path d="M20.8983 12.1962C20.0633 12.6179 19.7286 13.1509 18.776 13.4634C17.8233 13.7758 17.7947 13.3413 16.867 13.708C15.9394 14.0747 16.1022 14.5358 15.0442 14.9346C14.085 15.2962 14.7743 14.6712 13.2807 15.101C11.7871 15.5309 11.7887 16.2769 10.6767 16.6012C9.70646 16.8843 9.70877 16.4748 8.25031 16.9714C6.79185 17.4679 7.57702 17.6516 6.58742 18.0428C5.59782 18.4341 5.47195 18.006 4.55899 18.3885C3.64603 18.771 3.65744 18.961 2.89717 19.332C2.1369 19.703 1.31478 19.7258 0.29122 20.0973" stroke="#F4C700" stroke-width="0.0302522"/>
<path d="M21.3078 12.4974C20.459 12.8832 20.1045 13.4028 19.1427 13.6738C18.1808 13.9448 18.1693 13.5077 17.2303 13.8342C16.2913 14.1607 16.4356 14.6304 15.3654 14.9832C14.395 15.3032 15.1067 14.707 13.601 15.0717C12.0954 15.4363 12.0677 16.1846 10.9467 16.4604C9.96844 16.7011 9.9868 16.2905 8.5136 16.7236C7.0404 17.1567 7.81582 17.3759 6.81409 17.7242C5.81236 18.0726 5.70367 17.6377 4.77868 17.9806C3.85368 18.3236 3.85761 18.5147 3.08525 18.8529C2.3129 19.1912 1.49255 19.1775 0.457743 19.5045" stroke="#F5C600" stroke-width="0.0302522"/>
<path d="M21.7178 12.7992C20.8567 13.1487 20.483 13.6542 19.5138 13.8835C18.5445 14.1128 18.5504 13.6738 17.6017 13.9598C16.6531 14.2458 16.7783 14.7233 15.6978 15.0299C14.7182 15.3079 15.4509 14.7414 13.9361 15.0406C12.4213 15.3398 12.3642 16.0892 11.2361 16.3162C10.2518 16.5144 10.2863 16.1034 8.80108 16.4727C7.31589 16.842 8.07997 17.0961 7.06796 17.4012C6.05594 17.7063 5.9648 17.2653 5.02947 17.5684C4.09414 17.8715 4.09051 18.0633 3.30748 18.3685C2.52444 18.6737 1.70747 18.6236 0.66334 18.9059" stroke="#F6C400" stroke-width="0.0302522"/>
<path d="M22.1282 13.1017C21.2564 13.4145 20.8639 13.9053 19.8891 14.0927C18.9143 14.2801 18.9376 13.84 17.981 14.0852C17.0245 14.3305 17.1302 14.815 16.0416 15.0752C15.0545 15.3111 15.807 14.7749 14.2859 15.0085C12.7647 15.2421 12.678 15.9914 11.545 16.1696C10.5564 16.3252 10.6071 15.9144 9.1127 16.2196C7.61826 16.5248 8.36945 16.8133 7.34901 17.075C6.32857 17.3366 6.25529 16.8902 5.31133 17.1532C4.36737 17.4162 4.35613 17.6085 3.56383 17.8802C2.77153 18.152 1.95954 18.0659 0.90801 18.3031" stroke="#F8C200" stroke-width="0.0302522"/>
<path d="M22.5388 13.4049C21.6578 13.6807 21.2471 14.156 20.2686 14.3015C19.29 14.4471 19.3308 14.0064 18.3681 14.2108C17.4054 14.4151 17.4914 14.9059 16.3965 15.1194C15.4037 15.313 16.1749 14.8079 14.6502 14.9759C13.1255 15.1439 13.0091 15.892 11.8733 16.0214C10.8823 16.1343 10.9493 15.7243 9.44833 15.9654C7.94739 16.2064 8.68414 16.5287 7.65713 16.7467C6.63012 16.9647 6.57501 16.5135 5.62414 16.7362C4.67327 16.9589 4.65436 17.1514 3.85422 17.3895C3.05407 17.6276 2.24864 17.5057 1.19164 17.6979" stroke="#F9C000" stroke-width="0.0302522"/>
<path d="M22.9498 13.7087C22.0612 13.9473 21.633 14.4065 20.6525 14.5101C19.6719 14.6138 19.7304 14.1734 18.7632 14.3367C17.7961 14.5001 17.8619 14.9963 16.7628 15.1631C15.7662 15.3144 16.5546 14.8409 15.0292 14.9435C13.5038 15.046 13.3577 15.7916 12.2212 15.8723C11.2296 15.9427 11.3128 15.5341 9.80815 15.711C8.30346 15.8879 9.02427 16.2432 7.99255 16.4174C6.96084 16.5917 6.92416 16.1366 5.96808 16.3188C5.01201 16.5011 4.98541 16.6934 4.17884 16.8977C3.37227 17.102 2.57497 16.9448 1.51442 17.0919" stroke="#FABF00" stroke-width="0.0302522"/>
<path d="M23.3611 14.0132C22.4664 14.2144 22.0213 14.6568 21.0406 14.7187C20.0599 14.7805 20.136 14.341 19.1662 14.4634C18.1964 14.5857 18.2417 15.0866 17.1403 15.2068C16.1416 15.3157 16.9461 14.8744 15.4228 14.9117C13.8995 14.949 13.7237 15.691 12.5886 15.7231C11.5981 15.7511 11.6977 15.3447 10.192 15.4575C8.68625 15.5703 9.38965 15.9579 8.35508 16.0884C7.32051 16.2189 7.3025 15.7605 6.34293 15.9024C5.38336 16.0442 5.34905 16.236 4.53749 16.4063C3.72592 16.5767 2.93828 16.3846 1.8761 16.4866" stroke="#FBBD00" stroke-width="0.0302522"/>
<path d="M23.7726 14.3184C22.8734 14.4822 22.412 14.9072 21.4329 14.9274C20.4537 14.9477 20.5475 14.5098 19.5768 14.5912C18.6061 14.6726 18.6307 15.1772 17.5289 15.2508C16.53 15.3176 17.3492 14.909 15.8308 14.8814C14.3123 14.8538 14.1068 15.5911 12.9751 15.5748C11.9877 15.5606 12.1035 15.157 10.5995 15.2059C9.09549 15.2549 9.78003 15.6739 8.74446 15.7607C7.70888 15.8476 7.70975 15.3868 6.7484 15.4882C5.78705 15.5895 5.74501 15.7806 4.92987 15.9169C4.11472 16.0532 3.33827 15.8269 2.27637 15.8839" stroke="#FDBB00" stroke-width="0.0302522"/>
<path d="M24.1842 14.6242C23.2821 14.7505 22.8051 15.1576 21.8293 15.1364C20.8535 15.1153 20.965 14.6798 19.9951 14.7204C19.0251 14.761 19.0288 15.2685 17.9287 15.2957C16.9313 15.3204 17.7638 14.945 16.253 14.853C14.7422 14.761 14.5071 15.4923 13.381 15.4281C12.3983 15.372 12.5303 14.9718 11.0307 14.9572C9.53109 14.9426 10.1954 15.3922 9.16064 15.4355C8.1259 15.4788 8.14581 15.0163 7.18437 15.0774C6.22293 15.1384 6.17318 15.3284 5.35588 15.4307C4.53858 15.533 3.7748 15.273 2.71508 15.2852" stroke="#FEB900" stroke-width="0.0302522"/>
</mask>
<g mask="url(#mask0_5_1239)">
<rect x="-2.20837" y="1.20453" width="33.4287" height="32.7632" fill="#190202"/>
</g>
</svg>
