<svg width="42" height="27" viewBox="0 0 42 27" fill="none" xmlns="http://www.w3.org/2000/svg">
<rect x="0.91875" y="0.16875" width="40.1625" height="26.6625" rx="2.53125" fill="white"/>
<path d="M34.5 13.4061C34.5 18.0181 30.7687 21.7494 26.1567 21.7494C24.2099 21.7494 22.4253 21.0773 21.0116 19.9649C22.9584 18.4353 24.1867 16.0713 24.1867 13.4061C24.1867 10.7409 22.9352 8.37691 21.0116 6.8473C22.4253 5.73485 24.2099 5.06274 26.1567 5.06274C30.7687 5.06274 34.5 8.81725 34.5 13.4061Z" fill="#0099DF"/>
<path d="M21.0116 6.8473C21.0116 6.8473 21.0116 6.84729 21.0116 6.8473C22.9352 8.37691 24.1867 10.7409 24.1867 13.4061C24.1867 16.0713 22.9584 18.4353 21.0116 19.9649L20.9883 19.9649C19.0648 18.4584 17.8133 16.0713 17.8133 13.4061C17.8133 10.7409 19.0648 8.37696 20.9884 6.84734C20.9884 6.84733 20.9884 6.84736 20.9884 6.84734L21.0116 6.8473Z" fill="#6C6BBD"/>
<path d="M17.8133 13.4061C17.8133 10.7409 19.0648 8.37696 20.9884 6.84734C19.5747 5.7349 17.7901 5.06278 15.8433 5.06278C11.2313 5.06278 7.5 8.79411 7.5 13.4061C7.5 18.0181 11.2313 21.7495 15.8433 21.7495C17.7901 21.7495 19.5746 21.0773 20.9883 19.9649C19.0648 18.4584 17.8133 16.0713 17.8133 13.4061Z" fill="#EB001B"/>
<rect x="0.91875" y="0.16875" width="40.1625" height="26.6625" rx="2.53125" stroke="#CCCCCC" stroke-width="0.3375"/>
</svg>
