<svg width="14" height="13" viewBox="0 0 14 13" fill="none" xmlns="http://www.w3.org/2000/svg">
<mask id="mask0_342_647" style="mask-type:alpha" maskUnits="userSpaceOnUse" x="0" y="0" width="14" height="13">
<path d="M13.7572 4.30383C13.2198 4.42076 12.9484 4.63001 12.3612 4.68816C11.774 4.7463 11.8247 4.54996 11.2434 4.63446C10.662 4.71896 10.6831 4.93855 10.0231 5.02623C9.4246 5.10573 9.9109 4.88567 8.99955 4.95006C8.0882 5.01444 7.97423 5.34742 7.29508 5.39728C6.70248 5.44079 6.76683 5.25831 5.8651 5.35545C4.96338 5.45258 5.37939 5.6015 4.75918 5.69164C4.13898 5.78178 4.13365 5.58008 3.55816 5.67285C2.98267 5.76561 2.95988 5.85136 2.47255 5.95205C1.98522 6.05274 1.51651 5.99278 0.880131 6.0712" stroke="#CCFF00" stroke-width="0.0160943"/>
<path d="M13.5989 4.51086C13.0588 4.60526 12.7798 4.80381 12.1925 4.83702C11.6051 4.87023 11.6637 4.67516 11.081 4.73509C10.4984 4.79502 10.5105 5.01653 9.84935 5.07628C9.24989 5.13045 9.74334 4.93026 8.83279 4.95582C7.92224 4.98137 7.79511 5.311 7.11649 5.33193C6.52434 5.3502 6.5959 5.16964 5.6936 5.22851C4.79131 5.28739 5.19967 5.45485 4.57812 5.51878C3.95657 5.58271 3.9595 5.37985 3.38239 5.44834C2.80529 5.51683 2.77907 5.60199 2.28947 5.68223C1.79987 5.76246 1.33537 5.6821 0.698189 5.73357" stroke="#CDFD00" stroke-width="0.0160943"/>
<path d="M13.4427 4.71819C12.9007 4.79004 12.6147 4.97764 12.0282 4.986C11.4418 4.99435 11.5081 4.80087 10.9253 4.83628C10.3424 4.87168 10.3453 5.09474 9.68427 5.12662C9.08489 5.15552 9.58468 4.9754 8.67659 4.96231C7.76849 4.94922 7.62828 5.27497 6.95141 5.26711C6.36079 5.26025 6.4395 5.0819 5.53825 5.10263C4.63701 5.12337 5.03691 5.30899 4.41512 5.34676C3.79333 5.38453 3.8046 5.18085 3.22689 5.22509C2.64919 5.26932 2.61957 5.35377 2.12855 5.41353C1.63753 5.47329 1.17813 5.37278 0.541281 5.39736" stroke="#CEFC00" stroke-width="0.0160943"/>
<path d="M13.2865 4.9278C12.7437 4.9771 12.451 5.15351 11.8665 5.13714C11.282 5.12078 11.3561 4.9292 10.7741 4.94016C10.192 4.95113 10.1857 5.17535 9.52585 5.17947C8.92761 5.1832 9.43293 5.02335 8.52892 4.97186C7.62491 4.92037 7.47172 5.24172 6.79782 5.20525C6.20979 5.17343 6.2956 4.99757 5.39701 4.98035C4.49842 4.96314 4.88905 5.16651 4.26812 5.17821C3.64719 5.18991 3.66687 4.98575 3.08959 5.00581C2.5123 5.02587 2.47929 5.10945 1.9877 5.14876C1.49612 5.18808 1.04268 5.06771 0.407296 5.06552" stroke="#D0FA00" stroke-width="0.0160943"/>
<path d="M13.1303 5.13578C12.5875 5.16259 12.2885 5.32756 11.707 5.28666C11.1255 5.24576 11.2073 5.05639 10.6271 5.04304C10.0469 5.02969 10.0312 5.25469 9.37379 5.23121C8.77774 5.20993 9.28777 5.07048 8.38947 4.98092C7.49117 4.89135 7.32512 5.20778 6.65538 5.14294C6.071 5.08636 6.16384 4.91327 5.2695 4.85837C4.37516 4.80346 4.75573 5.02413 4.13675 5.00989C3.51777 4.99565 3.54593 4.79137 2.97006 4.78736C2.3942 4.78335 2.35782 4.86594 1.86652 4.88486C1.37521 4.90378 0.928599 4.76388 0.295801 4.73509" stroke="#D1F800" stroke-width="0.0160943"/>
<path d="M12.9726 5.34603C12.4308 5.35044 12.1261 5.50377 11.5486 5.43855C10.971 5.37333 11.0606 5.18648 10.4832 5.149C9.90579 5.11152 9.88064 5.3369 9.22681 5.28603C8.63399 5.23991 9.14792 5.12099 8.25692 4.99374C7.36592 4.86649 7.18715 5.17748 6.52279 5.08455C5.94308 5.00346 6.04287 4.83342 5.15435 4.74116C4.26583 4.64889 4.6356 4.88636 4.01964 4.84637C3.40368 4.80639 3.44036 4.60233 2.86693 4.57441C2.29349 4.54648 2.25376 4.62795 1.76359 4.62657C1.27341 4.62519 0.834454 4.4661 0.205352 4.41092" stroke="#D2F600" stroke-width="0.0160943"/>
<path d="M12.8165 5.55467C12.2766 5.53681 11.9665 5.67829 11.394 5.58902C10.8215 5.49974 10.9186 5.31573 10.3451 5.25433C9.77155 5.19292 9.7369 5.41828 9.08777 5.34029C8.49922 5.26957 9.01622 5.17125 8.1341 5.00677C7.25197 4.84228 7.06065 5.14733 6.40282 5.02664C5.82882 4.92133 5.93546 4.75464 5.05433 4.6254C4.17319 4.49616 4.5314 4.74992 3.91954 4.6844C3.30768 4.61889 3.35291 4.41543 2.78288 4.36378C2.21286 4.31214 2.16982 4.39234 1.6816 4.37078C1.19338 4.34923 0.762913 4.17137 0.138604 4.09005" stroke="#D3F500" stroke-width="0.0160943"/>
<path d="M12.6606 5.7656C12.1236 5.72564 11.8086 5.85509 11.2421 5.74207C10.6756 5.62904 10.7803 5.44818 10.2116 5.36311C9.64286 5.27803 9.59866 5.50298 8.95536 5.39815C8.37209 5.30311 8.89134 5.22545 8.01965 5.02425C7.14796 4.82306 6.94427 5.12165 6.29413 4.97359C5.72684 4.8444 5.84023 4.68132 4.96801 4.51556C4.09578 4.3498 4.44173 4.61929 3.83502 4.52853C3.2283 4.43777 3.2821 4.23525 2.71647 4.16012C2.15084 4.085 2.10451 4.16379 1.61909 4.12223C1.13366 4.08066 0.712466 3.88445 0.0940313 3.77731" stroke="#D5F300" stroke-width="0.0160943"/>
<path d="M12.5048 5.97492C11.9715 5.91306 11.6521 6.03032 11.0926 5.89389C10.5331 5.75746 10.6452 5.58007 10.0823 5.47161C9.51938 5.36316 9.46562 5.58729 8.82925 5.45599C8.25226 5.33694 8.77294 5.27996 7.9132 5.04263C7.05346 4.8053 6.8376 5.09693 6.19629 4.92194C5.63671 4.76924 5.75674 4.61005 4.89493 4.40829C4.03313 4.20653 4.36612 4.49118 3.7656 4.37548C3.16507 4.25979 3.22743 4.05858 2.66715 3.96024C2.10688 3.86191 2.05732 3.93917 1.5755 3.87779C1.09368 3.8164 0.682543 3.60231 0.0710467 3.46969" stroke="#D6F100" stroke-width="0.0160943"/>
<path d="M12.3488 6.18457C11.8201 6.10106 11.4967 6.20599 10.9452 6.04654C10.3937 5.8871 10.5131 5.71347 9.95695 5.58198C9.40078 5.45049 9.33743 5.67338 8.70908 5.516C8.13936 5.37331 8.66065 5.33698 7.81435 5.06418C6.96806 4.79137 6.74026 5.07554 6.10889 4.87408C5.55797 4.6983 5.68452 4.54327 4.83461 4.30609C3.98471 4.06892 4.30409 4.3681 3.71077 4.22783C3.11745 4.08755 3.18836 3.88802 2.63439 3.76679C2.08042 3.64557 2.02767 3.72116 1.55026 3.64019C1.07285 3.55921 0.67253 3.32774 0.0690181 3.17003" stroke="#D7EF00" stroke-width="0.0160943"/>
<path d="M12.1913 6.39653C11.6681 6.29164 11.3412 6.3841 10.7986 6.20207C10.256 6.02003 10.3827 5.85048 9.83418 5.69632C9.2857 5.54217 9.21279 5.76342 8.59352 5.5804C8.03203 5.41446 8.55311 5.39875 7.72172 5.09117C6.89033 4.78359 6.65084 5.0598 6.03049 4.83242C5.4892 4.634 5.62211 4.4834 4.78556 4.21145C3.949 3.9395 4.25415 4.25258 3.66903 4.08813C3.08392 3.92367 3.16335 3.72617 2.61662 3.58242C2.06988 3.43866 2.014 3.51244 1.54179 3.41214C1.06958 3.31184 0.680812 3.06351 0.0863095 2.88115" stroke="#D8EE00" stroke-width="0.0160943"/>
<path d="M12.0353 6.60689C11.5184 6.48092 11.1885 6.56082 10.6557 6.35666C10.1229 6.1525 10.2567 5.98732 9.71683 5.81091C9.17697 5.63451 9.09451 5.8537 8.48537 5.64552C7.93306 5.45677 8.45313 5.4616 7.63806 5.12001C6.82299 4.77843 6.57207 5.04621 5.96382 4.79346C5.43307 4.57291 5.57221 4.427 4.75042 4.12097C3.92863 3.81495 4.21893 4.14125 3.64301 3.95306C3.06709 3.76488 3.15498 3.56978 2.6164 3.40387C2.07782 3.23797 2.01885 3.30983 1.55262 3.19049C1.0864 3.07115 0.709885 2.80653 0.125395 2.6" stroke="#DAEC00" stroke-width="0.0160943"/>
<path d="M11.8795 6.81954C11.3698 6.67286 11.0374 6.74008 10.5153 6.5143C9.99325 6.28852 10.1339 6.12801 9.60358 5.92981C9.07323 5.7316 8.98128 5.94832 8.38327 5.71552C7.84106 5.50443 8.35931 5.52968 7.56195 5.15492C6.76459 4.78015 6.50254 5.03903 5.9074 4.76152C5.3881 4.51938 5.5333 4.37842 4.72766 4.03907C3.92202 3.69973 4.19691 4.03857 3.63114 3.82712C3.06536 3.61568 3.16167 3.42335 2.63212 3.23573C2.10258 3.04811 2.0406 3.1179 1.58112 2.97985C1.12165 2.8418 0.758063 2.56149 0.184564 2.33129" stroke="#DBEA00" stroke-width="0.0160943"/>
<path d="M11.7236 7.03059C11.222 6.86357 10.8875 6.91805 10.377 6.67119C9.86656 6.42433 10.014 6.26878 9.49406 6.04926C8.9741 5.82974 8.87271 6.04358 8.28683 5.78671C7.75562 5.55381 8.27126 5.59934 7.49296 5.19228C6.71465 4.78522 6.44176 5.03472 5.86075 4.73311C5.35377 4.46994 5.50487 4.33418 4.71672 3.96234C3.92857 3.59049 4.18751 3.94114 3.63282 3.70696C3.07812 3.47277 3.18276 3.28357 2.66313 3.0747C2.1435 2.86584 2.07857 2.93344 1.62659 2.77703C1.17461 2.62062 0.824607 2.32523 0.263051 2.07193" stroke="#DCE800" stroke-width="0.0160943"/>
<path d="M11.5675 7.24199C11.0747 7.05504 10.7386 7.09673 10.2406 6.82936C9.74256 6.56199 9.89663 6.41169 9.38791 6.17138C8.87919 5.93106 8.76845 6.1416 8.19566 5.86128C7.67633 5.6071 8.18856 5.67275 7.43061 5.23433C6.67266 4.79591 6.38927 5.03557 5.82335 4.71057C5.32954 4.42698 5.48634 4.29667 4.71699 3.89319C3.94764 3.4897 4.19013 3.85143 3.64742 3.59506C3.10472 3.33869 3.2176 3.15298 2.70873 2.92337C2.19986 2.69375 2.13206 2.75903 1.6883 2.58465C1.24454 2.41027 0.908747 2.10044 0.36006 1.82464" stroke="#DDE700" stroke-width="0.0160943"/>
<path d="M11.4098 7.45569C10.9266 7.24926 10.5894 7.27811 10.1047 6.99084C9.61994 6.70357 9.78043 6.55881 9.28378 6.29825C8.78713 6.0377 8.66713 6.24454 8.10838 5.94139C7.60176 5.66654 8.10981 5.75209 7.37347 5.2833C6.63714 4.81451 6.34358 5.0439 5.79369 4.69622C5.31387 4.39285 5.47619 4.26824 4.7269 3.83404C3.97761 3.39984 4.20317 3.77187 3.67334 3.49391C3.14351 3.21595 3.26451 3.03409 2.76723 2.78426C2.26994 2.53443 2.19935 2.59727 1.76452 2.40533C1.3297 2.21339 1.00871 1.88979 0.473786 1.59212" stroke="#DFE500" stroke-width="0.0160943"/>
<path d="M11.2535 7.66779C10.7807 7.44234 10.4429 7.45834 9.97222 7.15181C9.50152 6.84528 9.66825 6.70633 9.18447 6.42612C8.70069 6.14592 8.57155 6.34864 8.02772 6.02337C7.53464 5.72844 8.03775 5.83367 7.32423 5.33555C6.61071 4.83743 6.30736 5.0561 5.7744 4.68653C5.30936 4.36405 5.477 4.24537 4.74898 3.78142C4.02097 3.31748 4.22917 3.69903 3.71307 3.4001C3.19697 3.10117 3.32597 2.92353 2.84107 2.65405C2.35616 2.38456 2.28287 2.44485 1.85767 2.23579C1.43246 2.02672 1.12683 1.69006 0.606544 1.37118" stroke="#E0E300" stroke-width="0.0160943"/>
<path d="M11.0973 7.88218C10.6357 7.63823 10.2978 7.64137 9.84188 7.31625C9.38599 6.99114 9.55876 6.85827 9.08861 6.55903C8.61847 6.25979 8.48033 6.458 7.9523 6.1113C7.47355 5.79696 7.97095 5.9216 7.28142 5.39524C6.59188 4.86888 6.27911 5.07641 5.76395 4.68575C5.31444 4.34487 5.48719 4.23234 4.78162 3.73966C4.07606 3.24699 4.2665 3.63726 3.76495 3.31803C3.2634 2.9988 3.40026 2.82572 2.92851 2.53718C2.45676 2.24864 2.38085 2.30626 1.96594 2.08054C1.55103 1.85482 1.26129 1.50581 0.756467 1.16642" stroke="#E1E100" stroke-width="0.0160943"/>
<path d="M10.9391 8.09496C10.4893 7.83305 10.1517 7.82334 9.7114 7.48033C9.27106 7.13733 9.44963 7.01081 8.99387 6.69318C8.53811 6.37556 8.39112 6.56885 7.87973 6.20149C7.41606 5.86841 7.90702 6.01218 7.24258 5.4587C6.57813 4.90523 6.25635 5.10122 5.75982 4.69031C5.32656 4.33175 5.50419 4.2256 4.8222 3.70526C4.14021 3.18492 4.31254 3.5831 3.82633 3.24426C3.34012 2.90541 3.48468 2.73724 3.02683 2.43028C2.56897 2.12331 2.49055 2.17813 2.08657 1.93626C1.6826 1.69438 1.40924 1.33376 0.920691 0.974601" stroke="#E2E000" stroke-width="0.0160943"/>
<path d="M10.7827 8.31003C10.3454 8.03071 10.0087 8.00819 9.58462 7.64803C9.16051 7.28787 9.34467 7.16795 8.904 6.83261C8.46334 6.49728 8.30767 6.68526 7.81372 6.29802C7.36586 5.94691 7.84965 6.10949 7.21135 5.53007C6.57306 4.95066 6.24268 5.13472 5.76557 4.70443C5.34925 4.32897 5.53153 4.22941 4.87419 3.68251C4.21685 3.13562 4.37073 3.54086 3.90063 3.18313C3.43052 2.82539 3.58261 2.66248 3.13937 2.33774C2.69612 2.013 2.61528 2.06493 2.22287 1.80741C1.83046 1.54989 1.57395 1.17842 1.10243 0.800252" stroke="#E4DE00" stroke-width="0.0160943"/>
<path d="M10.6261 8.52348C10.202 8.22734 9.86671 8.19206 9.4595 7.81551C9.05229 7.43895 9.24179 7.32587 8.8169 6.97353C8.39201 6.6212 8.22785 6.80348 7.75211 6.39716C7.32076 6.02876 7.79666 6.2098 7.18551 5.60567C6.57436 5.00154 6.23583 5.17329 5.77888 4.72451C5.38017 4.33293 5.56685 4.24017 4.93519 3.66786C4.30353 3.09556 4.43867 3.50703 3.9854 3.13116C3.53212 2.75528 3.69156 2.59796 3.2636 2.25613C2.83565 1.9143 2.75249 1.96322 2.37224 1.6906C1.99199 1.41799 1.75276 1.03645 1.29901 0.640067" stroke="#E5DC00" stroke-width="0.0160943"/>
<path d="M10.4692 8.73726C10.0589 8.42491 9.7254 8.37695 9.33572 7.98477C8.94604 7.59259 9.14063 7.4866 8.73216 7.11799C8.3237 6.74939 8.15125 6.92558 7.69444 6.50104C7.28026 6.11612 7.74758 6.31525 7.16453 5.68765C6.58148 5.06005 6.23524 5.21912 5.79917 4.7528C5.41866 4.34591 5.6095 4.26014 5.00449 3.66362C4.39947 3.06709 4.51564 3.48393 4.07988 3.0907C3.64413 2.69747 3.81071 2.54606 3.39869 2.18785C2.98668 1.82964 2.90132 1.87545 2.53381 1.5883C2.1663 1.30115 1.94473 0.91033 1.50944 0.496562" stroke="#E6DA00" stroke-width="0.0160943"/>
<path d="M10.3106 8.95331C9.91479 8.6254 9.58353 8.56483 9.21198 8.15784C8.84042 7.75085 9.03983 7.65217 8.64841 7.26805C8.25698 6.88393 8.07647 7.05366 7.63929 6.61177C7.24289 6.2111 7.70095 6.42792 7.14689 5.77815C6.59282 5.12837 6.23935 5.27442 5.82482 4.79152C5.4631 4.37016 5.65785 4.29157 5.08039 3.67204C4.50294 3.05252 4.59991 3.47386 4.18234 3.06407C3.76476 2.65429 3.93826 2.50913 3.54281 2.13528C3.14736 1.76142 3.05992 1.80402 2.70569 1.50292C2.35147 1.20182 2.14791 0.802532 1.73175 0.372223" stroke="#E7D900" stroke-width="0.0160943"/>
<path d="M10.1532 9.16772C9.7725 8.82491 9.444 8.75185 9.09111 8.33087C8.73823 7.90989 8.9422 7.81875 8.5684 7.41989C8.19459 7.02102 8.00626 7.18393 7.58935 6.72558C7.21133 6.30999 7.65947 6.54408 7.13522 5.87345C6.61098 5.20282 6.25076 5.33552 5.85838 4.83702C5.516 4.40204 5.71438 4.3308 5.16535 3.68955C4.61632 3.04829 4.69393 3.47324 4.29515 3.04774C3.89638 2.62223 4.07657 2.48363 3.69827 2.09489C3.31997 1.70614 3.23055 1.74544 2.89013 1.43099C2.54972 1.11655 2.3645 0.709616 1.96808 0.263639" stroke="#E9D700" stroke-width="0.0160943"/>
<path d="M9.99596 9.3844C9.63081 9.02736 9.30552 8.94192 8.97183 8.50781C8.63813 8.07369 8.84638 7.99029 8.49074 7.57749C8.1351 7.16469 7.93921 7.32041 7.54317 6.84652C7.18409 6.41684 7.62166 6.66775 7.12801 5.97762C6.63435 5.2875 6.26788 5.40653 5.89824 4.89343C5.5757 4.44572 5.77743 4.38201 5.25763 3.7203C4.73783 3.0586 4.79595 3.48629 4.41655 3.04592C4.03716 2.60554 4.22379 2.47381 3.86319 2.07095C3.50259 1.66809 3.41133 1.70399 3.08522 1.37683C2.7591 1.04967 2.5925 0.635928 2.2164 0.175179" stroke="#EAD500" stroke-width="0.0160943"/>
<path d="M9.83846 9.59943C9.48942 9.22886 9.16781 9.13119 8.85379 8.6848C8.53976 8.23841 8.75199 8.16296 8.41503 7.73704C8.07806 7.31112 7.87488 7.45931 7.50029 6.97081C7.16066 6.5279 7.58705 6.79516 7.12469 6.08691C6.66233 5.37867 6.29012 5.48374 5.94375 4.95708C5.64151 4.49753 5.84632 4.4415 5.35649 3.76066C4.86667 3.07983 4.90521 3.50938 4.54573 3.05501C4.18626 2.60063 4.37908 2.47607 4.03669 2.0599C3.69431 1.64372 3.60134 1.67614 3.28999 1.33691C2.97864 0.99768 2.8309 0.577966 2.47566 0.103363" stroke="#EBD300" stroke-width="0.0160943"/>
<path d="M9.67877 9.81475C9.34633 9.43138 9.02886 9.32163 8.73494 8.86385C8.44103 8.40607 8.65694 8.33875 8.33913 7.90055C8.02131 7.46235 7.81113 7.60266 7.45852 7.10053C7.13881 6.64525 7.5534 6.92837 7.12299 6.20341C6.69258 5.47846 6.31516 5.5693 5.99254 5.03011C5.71104 4.55964 5.91862 4.51143 5.45946 3.81282C5.0003 3.1142 5.01921 3.54472 4.68016 3.07724C4.34111 2.60976 4.53984 2.49266 4.21615 2.06398C3.89246 1.63531 3.79791 1.66417 3.50177 1.31352C3.20562 0.962883 3.07695 0.538053 2.74307 0.0505309" stroke="#ECD200" stroke-width="0.0160943"/>
<path d="M9.52079 10.0323C9.20541 9.63687 8.89252 9.51521 8.61912 9.04694C8.34572 8.57867 8.565 8.51966 8.26677 8.07003C7.96854 7.6204 7.75165 7.75251 7.4215 7.23773C7.12215 6.77098 7.52438 7.06943 7.1265 6.3292C6.72862 5.58897 6.34654 5.66532 6.04811 5.11467C5.78771 4.63419 5.99779 4.59396 5.56991 3.87893C5.14204 3.1639 5.1413 3.59449 4.82315 3.11482C4.505 2.63515 4.70935 2.52577 4.4048 2.08543C4.10025 1.64509 4.00425 1.67031 3.72372 1.30894C3.4432 0.94756 3.33375 0.518473 3.02169 0.0189855" stroke="#EED000" stroke-width="0.0160943"/>
<path d="M9.36231 10.2482C9.06442 9.84143 8.75654 9.70806 8.50402 9.23021C8.25149 8.75236 8.47382 8.70183 8.19557 8.24164C7.91732 7.78145 7.69407 7.90504 7.38681 7.3786C7.10823 6.90128 7.49753 7.21453 7.1327 6.46047C6.76787 5.70641 6.38168 5.76804 6.10784 5.20701C5.86889 4.71747 6.08114 4.68533 5.68512 3.95527C5.28911 3.22522 5.26876 3.655 4.97192 3.16406C4.67509 2.67313 4.88476 2.57175 4.59976 2.1206C4.31477 1.66944 4.21745 1.69095 3.95292 1.31953C3.68839 0.948104 3.5983 0.515625 3.30847 0.00514113" stroke="#EFCE00" stroke-width="0.0160943"/>
<path d="M9.20209 10.4663C8.92208 10.049 8.61966 9.90409 8.38832 9.41759C8.15699 8.93109 8.38205 8.88919 8.12414 8.41932C7.86624 7.94945 7.63694 8.06422 7.35298 7.52713C7.09551 7.04016 7.47136 7.36766 7.14004 6.60123C6.80872 5.8348 6.41898 5.8815 6.17006 5.31118C5.95287 4.81354 6.16699 4.78959 5.80333 4.04593C5.43967 3.30226 5.39979 3.73034 5.12465 3.22908C4.84952 2.72782 5.0642 2.6347 4.79912 2.17359C4.53404 1.71247 4.43557 1.73021 4.18737 1.34944C3.93918 0.968679 3.86855 0.533673 3.60132 0.0131753" stroke="#F0CC00" stroke-width="0.0160943"/>
<path d="M9.04305 10.6827C8.78128 10.2556 8.48474 10.0994 8.27488 9.60521C8.06502 9.11099 8.29247 9.07786 8.05523 8.59921C7.81799 8.12055 7.58299 8.22621 7.32267 7.6795C7.08665 7.1838 7.44852 7.52498 7.15111 6.74766C6.85369 5.97035 6.46098 6.00192 6.23729 5.42341C6.0421 4.91861 6.25778 4.90298 5.92693 4.14713C5.59607 3.39127 5.53675 3.81676 5.28366 3.30614C5.03057 2.79551 5.24993 2.71088 5.00511 2.24068C4.76028 1.77049 4.66079 1.78439 4.42925 1.395C4.19772 1.0056 4.14659 0.568941 3.90229 0.0394246" stroke="#F1CB00" stroke-width="0.0160943"/>
<path d="M8.88396 10.9013C8.64075 10.4652 8.35051 10.298 8.16236 9.797C7.97422 9.296 8.20372 9.27176 7.98742 8.78523C7.77113 8.2987 7.5308 8.39497 7.29443 7.83967C7.08012 7.33618 7.42754 7.69044 7.16436 6.90373C6.90118 6.11702 6.50608 6.1333 6.30786 5.5477C6.1349 5.03673 6.35181 5.02949 6.05414 4.26288C5.75647 3.49628 5.67786 3.91832 5.44712 3.39928C5.21637 2.88025 5.44008 2.80434 5.2158 2.32595C4.99153 1.84756 4.89116 1.85757 4.67657 1.46027C4.46198 1.06297 4.43037 0.625523 4.20929 0.0879916" stroke="#F3C900" stroke-width="0.0160943"/>
<path d="M8.72456 11.1181C8.50021 10.6739 8.21667 10.4959 8.05044 9.98907C7.8842 9.48224 8.1154 9.46701 7.9203 8.97351C7.72519 8.48001 7.47991 8.56663 7.26776 8.00378C7.0754 7.49346 7.4079 7.86019 7.17921 7.06558C6.95052 6.27097 6.55364 6.27182 6.38108 5.68025C6.23052 5.16407 6.44834 5.1653 6.18417 4.3894C5.92 3.61349 5.8223 4.0312 5.61416 3.50473C5.40602 2.97826 5.63373 2.9113 5.43025 2.4256C5.22678 1.93991 5.1257 1.94598 4.92831 1.54151C4.73092 1.13705 4.71879 0.699673 4.52117 0.155139" stroke="#F4C700" stroke-width="0.0160943"/>
<path d="M8.5646 11.3352C8.35936 10.8837 8.08292 10.6951 7.93876 10.1834C7.79459 9.67168 8.02714 9.66557 7.85343 9.16602C7.67971 8.66647 7.42987 8.74319 7.24214 8.17385C7.07193 7.65763 7.38908 8.03622 7.19509 7.23522C7.00109 6.43422 6.60301 6.4195 6.45628 5.82308C6.32825 5.30267 6.54665 5.31243 6.31624 4.52869C6.08583 3.74494 5.96925 4.15747 5.78394 3.62454C5.59862 3.09162 5.82996 3.0338 5.64751 2.5417C5.46506 2.0496 5.36341 2.05169 5.18345 1.64079C5.00348 1.2299 5.01078 0.79347 4.83682 0.242952" stroke="#F5C600" stroke-width="0.0160943"/>
<path d="M8.40456 11.5545C8.21865 11.0964 7.9497 10.8975 7.82772 10.3819C7.70574 9.86629 7.93927 9.86938 7.78712 9.3647C7.63496 8.86002 7.38095 8.92662 7.21782 8.35183C7.06991 7.83068 7.3713 8.22048 7.21213 7.41459C7.05296 6.60871 6.6543 6.57833 6.5335 5.97818C6.42808 5.45452 6.64673 5.47287 6.45026 4.68274C6.2538 3.89261 6.11862 4.29911 5.9563 3.76072C5.79398 3.22232 6.0286 3.17383 5.86734 2.67623C5.70609 2.17864 5.60404 2.1767 5.44169 1.76013C5.27934 1.34355 5.30596 0.908921 5.1558 0.353442" stroke="#F6C400" stroke-width="0.0160943"/>
<path d="M8.24222 11.772C8.07584 11.3081 7.81474 11.0993 7.71502 10.5808C7.6153 10.0622 7.84946 10.0745 7.71899 9.56565C7.58851 9.05677 7.33074 9.11302 7.19234 8.53386C7.06685 8.00874 7.35209 8.40909 7.22781 7.59982C7.10353 6.79056 6.70491 6.74444 6.61008 6.14169C6.52734 5.61575 6.74589 5.64273 6.5835 4.84768C6.42112 4.05263 6.26764 4.45227 6.12844 3.90939C5.98925 3.36651 6.22676 3.32753 6.08685 2.82534C5.94693 2.32315 5.84463 2.31717 5.70006 1.89567C5.55548 1.47416 5.60129 1.04218 5.47505 0.482763" stroke="#F8C200" stroke-width="0.0160943"/>
<path d="M8.08148 11.9916C7.93478 11.5229 7.68191 11.3044 7.60448 10.7838C7.52705 10.2632 7.76147 10.2849 7.65276 9.77277C7.54404 9.26061 7.28295 9.30633 7.16935 8.72384C7.06635 8.1957 7.33509 8.60594 7.2457 7.7948C7.15632 6.98367 6.75836 6.92176 6.68951 6.31752C6.62943 5.79028 6.84755 5.82591 6.71931 5.02741C6.59107 4.22891 6.41963 4.62086 6.30365 4.07449C6.18767 3.52812 6.42769 3.4988 6.30922 2.99293C6.19075 2.48707 6.08836 2.47701 5.96169 2.05133C5.83502 1.62565 5.89983 1.19716 5.79758 0.634832" stroke="#F9C000" stroke-width="0.0160943"/>
<path d="M7.92039 12.2094C7.79348 11.7366 7.54919 11.5088 7.49404 10.9872C7.4389 10.4656 7.6732 10.4966 7.5863 9.98213C7.49939 9.46762 7.2354 9.50262 7.14664 8.91786C7.06616 8.38768 7.31807 8.80713 7.26352 7.99561C7.20897 7.1841 6.81229 7.10637 6.76938 6.50176C6.73193 5.9742 6.94927 6.01849 6.85518 5.21799C6.76109 4.4175 6.57206 4.80097 6.47935 4.25209C6.38664 3.70322 6.62878 3.6837 6.5318 3.17507C6.43483 2.66644 6.33252 2.65229 6.22385 2.22319C6.11518 1.79409 6.19879 1.36992 6.12054 0.805709" stroke="#FABF00" stroke-width="0.0160943"/>
<path d="M7.75869 12.4274C7.65166 11.9514 7.41628 11.7146 7.38337 11.1928C7.35046 10.6711 7.58427 10.7116 7.51918 10.1957C7.45409 9.67973 7.18765 9.70384 7.12371 9.11787C7.06575 8.58659 7.30053 9.01457 7.28068 8.20417C7.26083 7.39376 6.86607 7.30022 6.84901 6.69634C6.83412 6.16943 7.05033 6.22238 6.99033 5.42134C6.93032 4.6203 6.72413 4.99451 6.65469 4.44411C6.58525 3.89372 6.8291 3.88414 6.75365 3.37365C6.6782 2.86315 6.57613 2.8449 6.48553 2.41314C6.39492 1.98139 6.49707 1.56236 6.44281 0.997282" stroke="#FBBD00" stroke-width="0.0160943"/>
<path d="M7.59686 12.6474C7.50975 12.1691 7.28361 11.9236 7.27285 11.4027C7.26209 10.8818 7.49503 10.9317 7.45173 10.4153C7.40842 9.89884 7.13996 9.91192 7.10081 9.3258C7.06531 8.79437 7.28268 9.23018 7.29734 8.42237C7.31201 7.61456 6.91979 7.50521 6.92844 6.90318C6.93599 6.37786 7.15074 6.43946 7.1247 5.63932C7.09867 4.83919 6.87574 5.20337 6.82954 4.65244C6.78334 4.10151 7.02849 4.10197 6.97455 3.59053C6.92062 3.07909 6.81895 3.05673 6.74644 2.62307C6.67393 2.18941 6.79434 1.77634 6.76399 1.2114" stroke="#FDBB00" stroke-width="0.0160943"/>
<path d="M7.4327 12.8657C7.36552 12.3857 7.14894 12.132 7.1602 11.6129C7.17146 11.0937 7.40315 11.153 7.38155 10.637C7.35995 10.121 7.08995 10.1229 7.07547 9.5377C7.06234 9.00707 7.26206 9.45 7.31099 8.64625C7.35992 7.84249 6.97089 7.7174 7.00506 7.11829C7.03488 6.59553 7.24782 6.66574 7.25557 5.86795C7.26332 5.07016 7.02415 5.42356 7.00111 4.87308C6.97806 4.32259 7.2241 4.33318 7.19163 3.82169C7.15915 3.31021 7.05805 3.28374 7.00364 2.84893C6.94922 2.41413 7.08757 2.00779 7.08104 1.44402" stroke="#FEB900" stroke-width="0.0160943"/>
</mask>
<g mask="url(#mask0_342_647)">
<rect x="14.5701" y="-1.17578" width="17.7842" height="17.4301" transform="rotate(90 14.5701 -1.17578)" fill="#0F9D58"/>
</g>
</svg>
