<svg width="19" height="20" viewBox="0 0 19 20" fill="none" xmlns="http://www.w3.org/2000/svg">
<mask id="mask0_342_559" style="mask-type:alpha" maskUnits="userSpaceOnUse" x="2" y="4" width="12" height="14">
<path d="M2.80639 7.1122C3.29322 7.36806 3.63565 7.38224 4.12284 7.71513C4.61003 8.04803 4.44497 8.16583 4.94464 8.4748C5.44431 8.78376 5.56926 8.60195 6.13125 8.95907C6.64081 9.28286 6.12683 9.13884 6.86636 9.67533C7.60588 10.2118 7.90722 10.03 8.45952 10.4283C8.94145 10.7759 8.77486 10.8744 9.52806 11.3796C10.2813 11.8848 10.0583 11.5033 10.5913 11.8329C11.1244 12.1625 10.9988 12.3204 11.4993 12.6193C11.9998 12.9181 12.0724 12.8671 12.5104 13.1032C12.9484 13.3393 13.2689 13.6866 13.8069 14.0355" stroke="#CCFF00" stroke-width="0.0160943"/>
<path d="M3.06113 7.05617C3.53558 7.33105 3.8769 7.35825 4.34818 7.71035C4.81946 8.06246 4.64923 8.17426 5.13407 8.50285C5.61891 8.83145 5.75203 8.65398 6.2969 9.0332C6.79094 9.37703 6.28425 9.2132 6.9982 9.77891C7.71215 10.3446 8.02142 10.1738 8.55473 10.594C9.02008 10.9606 8.8492 11.053 9.57825 11.5878C10.3073 12.1227 10.1021 11.732 10.6193 12.0825C11.1366 12.433 11.0039 12.5866 11.49 12.9051C11.9762 13.2236 12.051 13.1752 12.4776 13.4284C12.9042 13.6817 13.2084 14.0418 13.7296 14.4119" stroke="#CDFD00" stroke-width="0.0160943"/>
<path d="M3.31476 6.99591C3.7761 7.28924 4.11582 7.32939 4.57044 7.69996C5.02506 8.07052 4.84987 8.17609 5.31911 8.52362C5.78836 8.87115 5.92949 8.69839 6.45639 9.0989C6.93412 9.46203 6.43548 9.27875 7.12271 9.87249C7.80994 10.4662 8.12673 10.3068 8.64019 10.7479C9.08822 11.1328 8.91328 11.2189 9.61701 11.7823C10.3207 12.3457 10.1337 11.9465 10.6343 12.3172C11.1349 12.6879 10.9953 12.8367 11.4663 13.1742C11.9373 13.5116 12.0143 13.466 12.4288 13.7358C12.8434 14.0057 13.1307 14.378 13.6344 14.7685" stroke="#CEFC00" stroke-width="0.0160943"/>
<path d="M3.56827 6.9373C4.01578 7.24845 4.35341 7.30148 4.79066 7.68973C5.2279 8.07798 5.04797 8.1771 5.5009 8.54283C5.95382 8.90856 6.1028 8.74087 6.61089 9.16184C7.07158 9.54352 6.58172 9.34116 7.24114 9.96169C7.90056 10.5822 8.22447 10.4345 8.71726 10.8956C9.14726 11.298 8.96849 11.3775 9.64578 11.9683C10.3231 12.5591 10.1546 12.1522 10.6377 12.5424C11.1209 12.9326 10.9746 13.0763 11.4297 13.432C11.8849 13.7877 11.9639 13.7449 12.3657 14.0308C12.7676 14.3167 13.0375 14.7003 13.5229 15.1104" stroke="#D0FA00" stroke-width="0.0160943"/>
<path d="M3.82215 6.87838C4.25516 7.20672 4.59022 7.27252 5.00941 7.67765C5.4286 8.08278 5.24417 8.17523 5.68007 8.55842C6.11597 8.9416 6.27262 8.77934 6.76113 9.21989C7.20405 9.61933 6.7237 9.39831 7.35427 10.0443C7.98484 10.6904 8.31544 10.5547 8.78681 11.0349C9.1981 11.4539 9.01572 11.5268 9.66554 12.1437C10.3153 12.7606 10.1657 12.347 10.6307 12.7557C11.0957 13.1645 10.9428 13.3029 11.3814 13.6761C11.8199 14.0494 11.9009 14.0095 12.2894 14.3108C12.6779 14.6121 12.9301 15.0064 13.3964 15.4352" stroke="#D1F800" stroke-width="0.0160943"/>
<path d="M4.07741 6.81916C4.49526 7.16402 4.82728 7.24246 5.22777 7.66365C5.62825 8.08484 5.43956 8.17042 5.85777 8.57027C6.27598 8.97012 6.44012 8.81363 6.90828 9.27287C7.33276 9.68926 6.86263 9.45001 7.46338 10.1202C8.06413 10.7904 8.40098 10.6671 8.85018 11.1653C9.24213 11.6001 9.0564 11.6662 9.67773 12.308C10.2991 12.9498 10.1685 12.5302 10.6146 12.9568C11.0607 13.3833 10.9015 13.5161 11.3228 13.9061C11.7441 14.2961 11.8269 14.2592 12.2016 14.5753C12.5762 14.8915 12.8102 15.2955 13.2566 15.7421" stroke="#D2F600" stroke-width="0.0160943"/>
<path d="M4.33162 6.75965C4.73368 7.12033 5.06218 7.21129 5.44336 7.64768C5.82454 8.08407 5.63185 8.16258 6.03174 8.57829C6.43163 8.994 6.60303 8.84363 7.05016 9.32063C7.45556 9.75312 6.99632 9.49611 7.56633 10.1891C8.13635 10.8822 8.47899 10.7715 8.90534 11.2868C9.27736 11.7364 9.08851 11.7955 9.68043 12.4609C10.2723 13.1263 10.1611 12.7017 10.5877 13.1451C11.0143 13.5886 10.8488 13.7154 11.2523 14.1214C11.6558 14.5273 11.7403 14.4936 12.1004 14.8239C12.4606 15.1542 12.676 15.5672 13.102 16.0308" stroke="#D3F500" stroke-width="0.0160943"/>
<path d="M4.586 6.69789C4.97169 7.07369 5.29621 7.177 5.65751 7.62771C6.01882 8.07843 5.82238 8.14969 6.20335 8.58043C6.58433 9.01117 6.76279 8.86726 7.1882 9.36106C7.57392 9.80879 7.12624 9.53451 7.66466 10.2489C8.20309 10.9634 8.55106 10.8656 8.95392 11.3969C9.30545 11.8605 9.11375 11.9126 9.67537 12.6002C10.237 13.2878 10.1452 12.859 10.5516 13.3185C10.9581 13.778 10.7867 13.8986 11.1717 14.3197C11.5567 14.7409 11.6428 14.7103 11.988 15.0541C12.3331 15.398 12.5296 15.8191 12.9345 16.2987" stroke="#D5F300" stroke-width="0.0160943"/>
<path d="M4.84033 6.6378C5.20909 7.02797 5.52917 7.14347 5.87007 7.60762C6.21096 8.07176 6.01105 8.13558 6.37256 8.5805C6.73407 9.02542 6.91933 8.88829 7.32242 9.39792C7.68789 9.86 7.2524 9.56897 7.75845 10.3034C8.2645 11.0378 8.61731 10.9532 8.99609 11.4995C9.32661 11.9761 9.13233 12.0209 9.66283 12.7294C10.1933 13.438 10.1212 13.0059 10.5069 13.4805C10.8925 13.9551 10.7154 14.0692 11.0814 14.5047C11.4474 14.9401 11.535 14.9128 11.8647 15.2695C12.1943 15.6263 12.3716 16.0545 12.7548 16.5492" stroke="#D6F100" stroke-width="0.0160943"/>
<path d="M5.09511 6.57743C5.44641 6.98123 5.7616 7.10872 6.0816 7.58538C6.4016 8.06204 6.19849 8.11826 6.54002 8.57649C6.88155 9.03471 7.07335 8.90469 7.45353 9.42914C7.79824 9.90466 7.37556 9.59741 7.84851 10.3504C8.32145 11.1034 8.67861 11.0321 9.03278 11.5923C9.34181 12.081 9.14522 12.1185 9.64383 12.8464C10.1424 13.5744 10.0901 13.14 10.4544 13.6288C10.8188 14.1176 10.6362 14.2249 10.9826 14.6738C11.3291 15.1228 11.4181 15.0988 11.7318 15.4677C12.0454 15.8366 12.2033 16.2712 12.5642 16.78" stroke="#D7EF00" stroke-width="0.0160943"/>
<path d="M5.35132 6.51679C5.68468 6.93344 5.99453 7.07273 6.29319 7.56096C6.59185 8.0492 6.38583 8.09767 6.7069 8.56831C7.02796 9.03895 7.22604 8.91633 7.58278 9.45459C7.90624 9.94263 7.49697 9.61972 7.93614 10.3897C8.37532 11.1598 8.73633 11.1021 9.06538 11.6751C9.35249 12.175 9.15387 12.2049 9.6199 12.951C10.0859 13.697 10.0534 13.2611 10.3959 13.7631C10.7385 14.2652 10.5507 14.3655 10.8771 14.827C11.2035 15.2886 11.2937 15.268 11.591 15.6483C11.8882 16.0287 12.0264 16.4688 12.3646 16.9907" stroke="#D8EE00" stroke-width="0.0160943"/>
<path d="M5.60655 6.45394C5.92149 6.88264 6.22557 7.0335 6.50248 7.53237C6.77939 8.03123 6.57076 8.0718 6.87093 8.55395C7.17109 9.0361 7.37516 8.92119 7.70798 9.47222C8.00974 9.97182 7.61445 9.63384 8.01926 10.4194C8.42407 11.205 8.78841 11.1612 9.0919 11.7458C9.35671 12.2559 9.15633 12.2782 9.58915 13.0409C10.022 13.8035 10.0093 13.367 10.3295 13.8813C10.6498 14.3957 10.457 14.4886 10.763 14.9619C11.0689 15.4352 11.1603 15.4181 11.4407 15.8092C11.7211 16.2003 11.8395 16.645 12.1545 17.1789" stroke="#DAEC00" stroke-width="0.0160943"/>
<path d="M5.86178 6.39279C6.15789 6.83274 6.45576 6.99493 6.71056 7.50347C6.96536 8.012 6.75442 8.04453 7.03328 8.53727C7.31215 9.03 7.5219 8.92309 7.83035 9.48583C8.11003 9.99605 7.72925 9.64358 8.09917 10.4432C8.46909 11.2428 8.83624 11.213 9.11376 11.8081C9.35592 12.3274 9.15408 12.342 9.55311 13.1198C9.95214 13.8976 9.95937 13.4614 10.2569 13.987C10.5544 14.5127 10.357 14.5981 10.642 15.0822C10.9271 15.5663 11.0194 15.5527 11.2826 15.9538C11.5459 16.3549 11.6442 16.8033 11.9356 17.3483" stroke="#DBEA00" stroke-width="0.0160943"/>
<path d="M6.1175 6.3314C6.39439 6.78177 6.68565 6.95505 6.91801 7.47228C7.15037 7.9895 6.93743 8.01388 7.19464 8.51626C7.45184 9.01865 7.66696 8.92001 7.95066 9.49338C8.20788 10.0132 7.84215 9.64692 8.17671 10.459C8.51128 11.2711 8.8807 11.2554 9.13191 11.8599C9.35111 12.3874 9.14811 12.3943 9.51285 13.1858C9.87758 13.9772 9.90462 13.5422 10.179 14.0781C10.4534 14.6141 10.2516 14.6917 10.5154 15.1857C10.7792 15.6798 10.8724 15.6697 11.1181 16.0801C11.3638 16.4904 11.4421 16.9417 11.7094 17.4967" stroke="#DCE800" stroke-width="0.0160943"/>
<path d="M6.37324 6.26782C6.63056 6.72778 6.9148 6.91187 7.12445 7.43681C7.33409 7.96175 7.11946 7.97785 7.35469 8.48894C7.58992 9.00003 7.81009 8.90993 8.06867 9.49285C8.30313 10.0214 7.95293 9.64184 8.25174 10.4649C8.55056 11.2879 8.9217 11.2865 9.14632 11.8992C9.3423 12.4339 9.13843 12.4329 9.46843 13.2365C9.79843 14.0402 9.84519 13.6072 10.0961 14.1524C10.3471 14.6977 10.1412 14.7674 10.3835 15.2704C10.6257 15.7734 10.7196 15.7669 10.9474 16.1857C11.1753 16.6046 11.2334 17.0578 11.4764 17.6217" stroke="#DDE700" stroke-width="0.0160943"/>
<path d="M6.63097 6.20793C6.8684 6.67663 7.14522 6.87126 7.33192 7.40291C7.51861 7.93457 7.30261 7.9423 7.51558 8.46113C7.72856 8.97997 7.95344 8.89866 8.18661 9.49004C8.39803 10.0262 8.06383 9.63414 8.32657 10.4666C8.5893 11.299 8.96163 11.312 9.15939 11.9318C9.33194 12.4726 9.1275 12.4637 9.42239 13.2779C9.71728 14.0922 9.78363 13.6622 10.0108 14.2157C10.238 14.7692 10.0285 14.8307 10.2488 15.3418C10.4692 15.8528 10.5636 15.85 10.7733 16.2766C10.9831 16.7031 11.021 17.1573 11.2394 17.7292" stroke="#DFE500" stroke-width="0.0160943"/>
<path d="M6.88728 6.14392C7.10454 6.62051 7.37356 6.82537 7.53711 7.36275C7.70065 7.90012 7.48361 7.89939 7.6741 8.42501C7.86458 8.95063 8.09382 8.87834 8.30133 9.47708C8.48948 10.02 8.17172 9.61596 8.39812 10.4562C8.62452 11.2964 8.99746 11.3239 9.16817 11.9496C9.31713 12.4955 9.11242 12.4787 9.37189 13.302C9.63137 14.1254 9.71713 13.6993 9.92034 14.26C10.1236 14.8208 9.91055 14.8739 10.1088 15.392C10.307 15.9102 10.4019 15.9111 10.5933 16.3446C10.7846 16.778 10.8023 17.2324 10.9959 17.8111" stroke="#E0E300" stroke-width="0.0160943"/>
<path d="M7.14414 6.08166C7.34097 6.56528 7.60182 6.78006 7.74207 7.32216C7.88232 7.86425 7.66457 7.85498 7.83238 8.38642C8.00018 8.91785 8.23341 8.85481 8.41505 9.4598C8.57974 10.0083 8.27882 9.59313 8.4687 10.4396C8.65857 11.286 9.03157 11.3281 9.17509 11.9585C9.30032 12.5086 9.09566 12.4837 9.31947 13.3147C9.54328 14.1456 9.64825 13.7242 9.82726 14.2911C10.0063 14.8581 9.79018 14.9027 9.96609 15.427C10.142 15.9512 10.2372 15.9559 10.4099 16.3955C10.5827 16.8351 10.5803 17.2887 10.7489 17.8732" stroke="#E1E100" stroke-width="0.0160943"/>
<path d="M7.40252 6.01922C7.57873 6.50899 7.83105 6.73338 7.94789 7.27918C8.06474 7.82498 7.84661 7.80712 7.99158 8.3434C8.13655 8.87967 8.3734 8.82608 8.52901 9.43621C8.6701 9.98941 8.38642 9.56369 8.53964 10.4148C8.69287 11.2659 9.06535 11.3226 9.18159 11.9565C9.283 12.5097 9.07871 12.4768 9.26667 13.3138C9.45464 14.1507 9.57857 13.735 9.73322 14.3071C9.88788 14.8792 9.66904 14.9151 9.82246 15.4445C9.97588 15.974 10.0712 15.9824 10.2252 16.4273C10.3792 16.8723 10.3568 17.3243 10.5002 17.9134" stroke="#E2E000" stroke-width="0.0160943"/>
<path d="M7.65999 5.9566C7.81542 6.45164 8.05885 6.6853 8.15223 7.23381C8.2456 7.78232 8.02745 7.75581 8.14947 8.29595C8.27149 8.83608 8.51157 8.79214 8.64104 9.40629C8.75843 9.96314 8.49233 9.52762 8.60886 10.3818C8.72538 11.2359 9.09678 11.3073 9.18568 11.9436C9.26325 12.4988 9.05963 12.4579 9.21164 13.2994C9.36365 14.1409 9.50626 13.7315 9.63643 14.3077C9.76661 14.8839 9.54538 14.911 9.67618 15.4447C9.80699 15.9783 9.9023 15.9905 10.0374 16.44C10.1724 16.8895 10.1302 17.339 10.2483 17.9318" stroke="#E4DE00" stroke-width="0.0160943"/>
<path d="M7.91755 5.89382C8.05205 6.39326 8.28626 6.63584 8.35615 7.18605C8.42604 7.73626 8.20819 7.70107 8.3072 8.24409C8.40621 8.78711 8.64913 8.753 8.7524 9.37005C8.84603 9.92953 8.59784 9.48494 8.67767 10.3406C8.75751 11.1962 9.12724 11.2822 9.18882 11.9197C9.24255 12.476 9.03991 12.4271 9.15592 13.2715C9.27193 14.1159 9.4329 13.7139 9.53852 14.2932C9.64414 14.8724 9.42088 14.8905 9.52899 15.4274C9.6371 15.9644 9.73224 15.9803 9.8483 16.4336C9.96435 16.8869 9.90236 17.3329 9.99517 17.9282" stroke="#E5DC00" stroke-width="0.0160943"/>
<path d="M8.17568 5.82894C8.28917 6.3319 8.51384 6.58303 8.56026 7.13394C8.60669 7.68485 8.38949 7.64096 8.46546 8.18589C8.54143 8.73082 8.78678 8.70669 8.86383 9.32554C8.93369 9.88664 8.7037 9.43371 8.74693 10.2893C8.79016 11.1448 9.15764 11.2455 9.19195 11.883C9.22189 12.4393 9.02056 12.3823 9.10059 13.2282C9.18062 14.0741 9.35957 13.6801 9.44062 14.2614C9.52166 14.8427 9.29673 14.8516 9.3821 15.3909C9.46747 15.9301 9.5623 15.9499 9.65925 16.4061C9.75621 16.8623 9.67473 17.3041 9.74221 17.9009" stroke="#E6DA00" stroke-width="0.0160943"/>
<path d="M8.43538 5.76588C8.52779 6.27147 8.74261 6.53079 8.76563 7.0814C8.78865 7.63201 8.57246 7.57942 8.6254 8.12528C8.67835 8.67114 8.92572 8.65714 8.97658 9.27667C9.0227 9.83839 8.81118 9.37787 8.81795 10.2318C8.82471 11.0857 9.18937 11.201 9.19652 11.8374C9.20276 12.3927 9.00306 12.3277 9.04719 13.1735C9.09133 14.0192 9.28787 13.6341 9.34435 14.2164C9.40083 14.7988 9.17461 14.7984 9.23723 15.339C9.29985 15.8796 9.39422 15.9032 9.47203 16.3615C9.54984 16.8199 9.44912 17.2566 9.49132 17.8537" stroke="#E7D900" stroke-width="0.0160943"/>
<path d="M8.69421 5.7027C8.76551 6.21005 8.9702 6.47717 8.96992 7.02649C8.96965 7.57581 8.75481 7.51452 8.78478 8.06034C8.81475 8.60617 9.06373 8.60242 9.08848 9.22153C9.11092 9.78287 8.9181 9.3155 8.88863 10.1662C8.85915 11.0169 9.22039 11.1468 9.20054 11.7809C9.18322 12.3342 8.98546 12.2612 8.99385 13.1054C9.00224 13.9495 9.21594 13.5741 9.24791 14.1564C9.27988 14.7387 9.05276 14.729 9.09267 15.27C9.13259 15.811 9.22634 15.8383 9.285 16.298C9.34365 16.7577 9.22396 17.1885 9.24097 17.7849" stroke="#E9D700" stroke-width="0.0160943"/>
<path d="M8.95339 5.63941C9.00361 6.14764 9.19787 6.42218 9.17445 6.96922C9.15103 7.51627 8.9379 7.4463 8.94499 7.99112C8.95209 8.53595 9.20224 8.54257 9.20101 9.16017C9.19989 9.72013 9.02597 9.24666 8.96053 10.0926C8.89509 10.9386 9.25233 11.083 9.20568 11.7137C9.16498 12.264 8.96949 12.1831 8.94234 13.0241C8.9152 13.8651 9.14559 13.5001 9.15316 14.0813C9.16073 14.6626 8.93308 14.6435 8.95037 15.1839C8.96765 15.7243 9.06063 15.7555 9.10016 16.2157C9.13968 16.6759 9.00136 17.1 8.9933 17.6947" stroke="#EAD500" stroke-width="0.0160943"/>
<path d="M9.21269 5.57408C9.24187 6.08231 9.42546 6.36386 9.37908 6.90766C9.3327 7.45147 9.12162 7.37285 9.10598 7.91572C9.09033 8.45859 9.34123 8.47568 9.31418 9.09066C9.28966 9.64827 9.13482 9.16946 9.03376 10.0092C8.93269 10.8489 9.28536 11.0077 9.21216 11.6338C9.14829 12.1801 8.95539 12.0914 8.89299 12.9278C8.83058 13.7642 9.07717 13.4104 9.06048 13.9895C9.04378 14.5686 8.81601 14.5401 8.81078 15.079C8.80555 15.6179 8.89761 15.6528 8.91806 16.1128C8.93852 16.5728 8.7819 16.9893 8.74896 17.5812" stroke="#EBD300" stroke-width="0.0160943"/>
<path d="M9.47406 5.51259C9.4823 6.01995 9.65495 6.3081 9.58585 6.8477C9.51674 7.3873 9.30808 7.30008 9.26987 7.84006C9.23166 8.38003 9.48286 8.40764 9.43021 9.01895C9.38247 9.57322 9.24686 9.08984 9.11058 9.92185C8.97431 10.7539 9.32181 10.9269 9.22237 11.5473C9.1356 12.0886 8.9456 11.9921 8.84827 12.8225C8.75095 13.6528 9.0132 13.3108 8.97243 13.8869C8.93167 14.4629 8.70416 14.4249 8.67657 14.9613C8.64899 15.4978 8.73997 15.5364 8.74144 15.9954C8.74291 16.4544 8.5684 16.8625 8.5108 17.4506" stroke="#ECD200" stroke-width="0.0160943"/>
<path d="M9.7341 5.44712C9.72151 5.95277 9.883 6.24709 9.79144 6.78154C9.69988 7.31599 9.49397 7.22024 9.43341 7.75638C9.37285 8.29252 9.62391 8.33072 9.54593 8.93729C9.47522 9.48726 9.35893 9.00008 9.18792 9.82289C9.0169 10.6457 9.35867 10.8328 9.23333 11.4464C9.12396 11.9819 8.93717 11.8777 8.80533 12.7005C8.67349 13.5232 8.95083 13.1939 8.88622 13.7658C8.82162 14.3378 8.59477 14.2902 8.54502 14.8233C8.49527 15.3564 8.58503 15.3987 8.56763 15.8559C8.55024 16.313 8.35827 16.7121 8.27626 17.2953" stroke="#EED000" stroke-width="0.0160943"/>
<path d="M9.99475 5.38357C9.9615 5.88664 10.1116 6.18671 9.9979 6.71508C9.8842 7.24345 9.6814 7.13925 9.59874 7.67063C9.51609 8.20201 9.76656 8.25084 9.66354 8.85162C9.57013 9.39634 9.47326 8.90613 9.26804 9.71829C9.06281 10.5304 9.39826 10.7315 9.24742 11.3373C9.11579 11.8659 8.93253 11.7541 8.76663 12.5679C8.60073 13.3817 8.89257 13.0655 8.8044 13.6324C8.71622 14.1993 8.49044 14.1422 8.41876 14.671C8.34708 15.1998 8.43545 15.2458 8.39935 15.7004C8.36325 16.155 8.15427 16.5442 8.04816 17.1215" stroke="#EFCE00" stroke-width="0.0160943"/>
<path d="M10.257 5.31998C10.2033 5.81964 10.3418 6.12502 10.2063 6.6464C10.0708 7.16778 9.87146 7.05522 9.767 7.58093C9.66254 8.10665 9.91197 8.16612 9.78426 8.76009C9.66847 9.29863 9.59107 8.80615 9.35223 9.60624C9.11338 10.4063 9.44195 10.6211 9.26604 11.218C9.11254 11.7388 8.93312 11.6195 8.73368 12.4229C8.53424 13.2264 8.83996 12.9241 8.72852 13.4849C8.61709 14.0458 8.39277 13.9791 8.29944 14.5027C8.2061 15.0264 8.29293 15.0761 8.23831 15.5273C8.18369 15.9785 7.95818 16.3571 7.82832 16.9276" stroke="#F0CC00" stroke-width="0.0160943"/>
<path d="M10.5184 5.25639C10.4444 5.7518 10.5712 6.06205 10.4143 6.57554C10.2574 7.08903 10.0618 6.96821 9.93591 7.48738C9.80997 8.00654 10.0579 8.07665 9.9059 8.66279C9.76808 9.19424 9.71017 8.70027 9.43835 9.4869C9.16654 10.2735 9.48767 10.5018 9.28716 11.0887C9.11221 11.6009 8.93694 11.4742 8.70454 12.2659C8.47213 13.0576 8.79108 12.7698 8.65673 13.3236C8.52238 13.8775 8.29994 13.8013 8.18525 14.3189C8.07056 14.8364 8.15572 14.8897 8.08279 15.3369C8.00986 15.784 7.76834 16.1513 7.61512 16.714" stroke="#F1CB00" stroke-width="0.0160943"/>
<path d="M10.78 5.19084C10.686 5.68119 10.8008 5.99587 10.6229 6.5006C10.445 7.00532 10.2536 6.87637 10.1066 7.38811C9.95955 7.89984 10.2055 7.98057 10.0297 8.55789C9.8702 9.08135 9.83177 8.58665 9.5277 9.35847C9.22362 10.1303 9.53674 10.3718 9.31218 10.9478C9.11623 11.4504 8.9454 11.3165 8.68067 12.0951C8.41594 12.8737 8.74743 12.6009 8.59056 13.1469C8.43369 13.6928 8.21353 13.6071 8.07783 14.1178C7.94214 14.6284 8.02545 14.6852 7.93446 15.1275C7.84347 15.5698 7.5865 15.9252 7.41034 16.4791" stroke="#F3C900" stroke-width="0.0160943"/>
<path d="M11.0422 5.12728C10.9285 5.61176 11.0313 5.93041 10.8328 6.42551C10.6344 6.92062 10.4475 6.78367 10.2797 7.28713C10.112 7.79058 10.3555 7.88189 10.1563 8.44943C9.97559 8.96401 9.95661 8.46934 9.62103 9.22504C9.28545 9.98075 9.59002 10.2352 9.34196 10.7993C9.1255 11.2915 8.95943 11.1505 8.66305 11.9147C8.36668 12.6789 8.71002 12.4217 8.53106 12.9588C8.35209 13.4959 8.13462 13.4008 7.97829 13.9037C7.82196 14.4065 7.90329 14.4669 7.79452 14.9036C7.68574 15.3403 7.41389 15.6831 7.21526 16.2273" stroke="#F4C700" stroke-width="0.0160943"/>
<path d="M11.3045 5.06374C11.1714 5.54158 11.262 5.86374 11.0435 6.34839C10.825 6.83305 10.643 6.68825 10.4549 7.18259C10.2669 7.67693 10.5076 7.77875 10.2854 8.33556C10.084 8.84041 10.0844 8.34654 9.71815 9.08484C9.35188 9.82314 9.64737 10.0903 9.3764 10.6415C9.13997 11.1224 8.97894 10.9746 8.65166 11.7231C8.32439 12.4716 8.67885 12.2305 8.47826 12.7578C8.27766 13.2852 8.06327 13.1808 7.88673 13.675C7.71018 14.1693 7.78938 14.233 7.66313 14.6635C7.53687 15.0939 7.25075 15.4235 7.03015 15.9571" stroke="#F5C600" stroke-width="0.0160943"/>
<path d="M11.5674 4.99831C11.4154 5.46873 11.4936 5.79394 11.2556 6.26733C11.0176 6.74073 10.8407 6.58825 10.6328 7.07266C10.425 7.55707 10.6624 7.66933 10.4179 8.21449C10.1962 8.70879 10.2159 8.21646 9.81981 8.93612C9.42373 9.65578 9.70959 9.9353 9.41637 10.4727C9.16051 10.9416 9.00482 10.787 8.64743 11.5186C8.29005 12.2501 8.65489 12.0256 8.43316 12.5424C8.21144 13.0592 8.00054 12.9455 7.80422 13.4303C7.6079 13.9152 7.68483 13.9822 7.54143 14.4057C7.39803 14.8292 7.09825 15.145 6.85623 15.6671" stroke="#F6C400" stroke-width="0.0160943"/>
<path d="M11.832 4.93686C11.6613 5.39911 11.7271 5.72689 11.4701 6.18825C11.2132 6.64961 11.0418 6.48962 10.8146 6.96332C10.5875 7.43701 10.8211 7.55961 10.5548 8.09224C10.3134 8.57516 10.3522 8.08513 9.92726 8.78495C9.50228 9.48476 9.77799 9.77632 9.4632 10.299C9.18852 10.7551 9.03844 10.5939 8.65179 11.3074C8.26514 12.0208 8.63959 11.8133 8.39726 12.3186C8.15494 12.824 7.94793 12.7012 7.73231 13.1758C7.51669 13.6504 7.59121 13.7208 7.43103 14.1366C7.27084 14.5524 6.95807 14.8539 6.69519 15.3636" stroke="#F8C200" stroke-width="0.0160943"/>
<path d="M12.0957 4.87159C11.9068 5.32493 11.9601 5.65483 11.6848 6.10339C11.4095 6.55196 11.2438 6.38466 10.9979 6.84687C10.752 7.30909 10.9814 7.4419 10.694 7.96113C10.4334 8.43191 10.4912 7.9449 10.0383 8.62373C9.58539 9.30255 9.85045 9.60578 9.51479 10.1129C9.22191 10.5554 9.07773 10.3879 8.6627 11.082C8.24767 11.7762 8.63094 11.5861 8.36859 12.0792C8.10623 12.5723 7.90352 12.4405 7.66911 12.9041C7.4347 13.3678 7.50667 13.4413 7.33008 13.8488C7.1535 14.2563 6.82841 14.5429 6.54529 15.0394" stroke="#F9C000" stroke-width="0.0160943"/>
<path d="M12.3598 4.80838C12.1531 5.2521 12.1938 5.58364 11.9008 6.01868C11.6077 6.45373 11.4482 6.27932 11.1841 6.72932C10.9199 7.17931 11.1446 7.3222 10.8368 7.82719C10.5576 8.28507 10.6342 7.80183 10.1544 8.45855C9.67457 9.11528 9.92848 9.4298 9.57271 9.92054C9.26228 10.3487 9.12426 10.1751 8.68179 10.8488C8.23932 11.5225 8.63062 11.3503 8.34883 11.8303C8.06703 12.3104 7.86901 12.1697 7.61635 12.6216C7.36369 13.0736 7.43297 13.1502 7.2404 13.5488C7.04783 13.9473 6.71113 14.2185 6.4084 14.701" stroke="#FABF00" stroke-width="0.0160943"/>
<path d="M12.624 4.74529C12.4 5.1787 12.4281 5.5114 12.118 5.93223C11.8078 6.35307 11.6547 6.17177 11.373 6.60883C11.0912 7.04589 11.3108 7.19869 10.9831 7.68866C10.686 8.13291 10.7813 7.65415 10.2756 8.28771C9.76985 8.92127 10.0121 9.24668 9.63703 9.72024C9.30974 10.1335 9.17814 9.95391 8.70921 10.6061C8.24028 11.2583 8.63877 11.1042 8.33818 11.5705C8.03759 12.0367 7.84463 11.8873 7.57429 12.3269C7.30394 12.7664 7.3704 12.846 7.16228 13.235C6.95417 13.624 6.60657 13.8793 6.28491 14.3471" stroke="#FBBD00" stroke-width="0.0160943"/>
<path d="M12.8888 4.68038C12.6481 5.10282 12.6635 5.43621 12.337 5.84216C12.0104 6.24811 11.864 6.06016 11.5652 6.4836C11.2664 6.90705 11.4805 7.06959 11.1337 7.54375C10.8193 7.97367 10.933 7.5001 10.4025 8.10949C9.87198 8.71888 10.1022 9.05476 9.70855 9.51038C9.3651 9.90794 9.24018 9.72272 8.74581 10.3524C8.25144 10.9821 8.6563 10.8464 8.33756 11.2981C8.01882 11.7499 7.83132 11.5919 7.54389 12.0184C7.25646 12.4448 7.31997 12.5273 7.09677 12.9061C6.87356 13.2849 6.5158 13.524 6.17592 13.9762" stroke="#FDBB00" stroke-width="0.0160943"/>
<path d="M13.1553 4.61953C12.8982 5.03035 12.901 5.36396 12.5587 5.75439C12.2164 6.14483 12.0771 5.95046 11.7619 6.35964C11.4468 6.76881 11.6548 6.94089 11.2898 7.39852C10.9587 7.81344 11.0904 7.34576 10.5363 7.93002C9.98219 8.51428 10.1998 8.86017 9.78852 9.29715C9.42966 9.67844 9.31167 9.48778 8.79292 10.0939C8.27417 10.7001 8.68455 10.5831 8.34836 11.0196C8.01216 11.4561 7.83049 11.2899 7.52659 11.7026C7.22269 12.1153 7.28312 12.2005 7.04532 12.5686C6.80752 12.9366 6.44035 13.159 6.08297 13.5951" stroke="#FEB900" stroke-width="0.0160943"/>
</mask>
<g mask="url(#mask0_342_559)">
<rect x="-1.33765" y="10.7871" width="17.7842" height="17.4301" transform="rotate(-50 -1.33765 10.7871)" fill="#00B6DC"/>
</g>
</svg>
