<svg width="13" height="14" viewBox="0 0 13 14" fill="none" xmlns="http://www.w3.org/2000/svg">
<mask id="mask0_342_603" style="mask-type:alpha" maskUnits="userSpaceOnUse" x="0" y="0" width="13" height="14">
<path d="M8.57214 13.757C8.45522 13.2196 8.24597 12.9481 8.18782 12.361C8.12967 11.7738 8.32601 11.8245 8.24151 11.2431C8.15702 10.6617 7.93742 10.6829 7.84975 10.0228C7.77025 9.42436 7.9903 9.91066 7.92592 8.99931C7.86154 8.08795 7.52855 7.97399 7.47869 7.29484C7.43519 6.70224 7.61767 6.76658 7.52053 5.86486C7.42339 4.96313 7.27448 5.37914 7.18434 4.75894C7.09419 4.13873 7.2959 4.13341 7.20313 3.55792C7.11036 2.98243 7.02462 2.95963 6.92393 2.4723C6.82324 1.98498 6.8832 1.51626 6.80477 0.879887" stroke="#CCFF00" stroke-width="0.0160943"/>
<path d="M8.36439 13.5984C8.26999 13.0583 8.07143 12.7793 8.03822 12.192C8.00501 11.6046 8.20008 11.6632 8.14015 11.0805C8.08022 10.4979 7.85871 10.51 7.79896 9.84886C7.74479 9.2494 7.94498 9.74285 7.91943 8.8323C7.89387 7.92175 7.56425 7.79462 7.54331 7.116C7.52505 6.52386 7.70561 6.59541 7.64673 5.69311C7.58786 4.79082 7.4204 5.19918 7.35646 4.57763C7.29253 3.95609 7.49539 3.95901 7.4269 3.38191C7.35841 2.8048 7.27325 2.77859 7.19302 2.28898C7.11279 1.79938 7.19315 1.33488 7.14168 0.6977" stroke="#CDFD00" stroke-width="0.0160943"/>
<path d="M8.15632 13.4419C8.08448 12.9 7.89687 12.6139 7.88851 12.0275C7.88016 11.441 8.07364 11.5074 8.03823 10.9245C8.00283 10.3417 7.77977 10.3446 7.7479 9.68354C7.719 9.08416 7.89911 9.58395 7.9122 8.67585C7.92529 7.76776 7.59954 7.62755 7.6074 6.95067C7.61426 6.36006 7.79261 6.43877 7.77188 5.53752C7.75115 4.63628 7.56552 5.03618 7.52775 4.41439C7.48998 3.7926 7.69366 3.80387 7.64943 3.22616C7.60519 2.64846 7.52074 2.61884 7.46098 2.12782C7.40122 1.6368 7.50173 1.1774 7.47715 0.540548" stroke="#CEFC00" stroke-width="0.0160943"/>
<path d="M7.94793 13.2856C7.89863 12.7428 7.72223 12.45 7.73859 11.8655C7.75495 11.281 7.94653 11.3551 7.93557 10.7731C7.9246 10.191 7.70038 10.1847 7.69626 9.52488C7.69253 8.92663 7.85238 9.43195 7.90387 8.52794C7.95536 7.62394 7.63401 7.47074 7.67048 6.79684C7.7023 6.20881 7.87816 6.29462 7.89538 5.39603C7.91259 4.49744 7.70922 4.88807 7.69752 4.26714C7.68583 3.64621 7.88998 3.6659 7.86992 3.08861C7.84987 2.51132 7.76628 2.47831 7.72697 1.98672C7.68766 1.49514 7.80803 1.0417 7.81021 0.40632" stroke="#D0FA00" stroke-width="0.0160943"/>
<path d="M7.73922 13.1293C7.71241 12.5865 7.54744 12.2876 7.58834 11.706C7.62924 11.1245 7.81861 11.2064 7.83196 10.6261C7.84531 10.0459 7.62031 10.0302 7.64379 9.37282C7.66507 8.77676 7.80452 9.2868 7.89408 8.38849C7.98365 7.49019 7.66722 7.32414 7.73206 6.65441C7.78864 6.07002 7.96173 6.16286 8.01663 5.26852C8.07154 4.37418 7.85087 4.75476 7.86511 4.13577C7.87935 3.51679 8.08363 3.54495 8.08764 2.96909C8.09165 2.39322 8.00906 2.35684 7.99014 1.86554C7.97122 1.37424 8.11112 0.927622 8.13991 0.294825" stroke="#D1F800" stroke-width="0.0160943"/>
<path d="M7.52994 12.9731C7.52553 12.4313 7.37221 12.1266 7.43743 11.549C7.50265 10.9715 7.68949 11.061 7.72698 10.4837C7.76446 9.90628 7.53908 9.88113 7.58994 9.2273C7.63606 8.63448 7.75499 9.14841 7.88224 8.25741C8.00949 7.36641 7.69849 7.18764 7.79143 6.52327C7.87252 5.94357 8.04255 6.04336 8.13482 5.15484C8.22709 4.26632 7.98961 4.63609 8.0296 4.02013C8.06959 3.40417 8.27364 3.44085 8.30157 2.86742C8.32949 2.29398 8.24803 2.25425 8.24941 1.76407C8.25079 1.2739 8.40987 0.834942 8.46506 0.205841" stroke="#D2F600" stroke-width="0.0160943"/>
<path d="M7.32057 12.817C7.33843 12.2771 7.19695 11.967 7.28623 11.3945C7.3755 10.822 7.55951 10.9191 7.62092 10.3456C7.68233 9.77204 7.45696 9.73738 7.53496 9.08826C7.60567 8.49971 7.70399 9.01671 7.86848 8.13458C8.03296 7.25246 7.72791 7.06114 7.8486 6.40331C7.95391 5.82931 8.12061 5.93595 8.24985 5.05481C8.37909 4.17368 8.12533 4.53189 8.19084 3.92003C8.25635 3.30816 8.45982 3.35339 8.51146 2.78337C8.5631 2.21335 8.48291 2.17031 8.50446 1.68209C8.52601 1.19387 8.70388 0.763401 8.78519 0.139092" stroke="#D3F500" stroke-width="0.0160943"/>
<path d="M7.11062 12.6609C7.15058 12.1238 7.02113 11.8088 7.13415 11.2424C7.24718 10.6759 7.42804 10.7805 7.51311 10.2118C7.59819 9.6431 7.37324 9.5989 7.47807 8.95561C7.57311 8.37234 7.65077 8.89158 7.85197 8.01989C8.05316 7.1482 7.75457 6.94451 7.90263 6.29437C8.03182 5.72708 8.19491 5.84048 8.36066 4.96825C8.52642 4.09603 8.25693 4.44198 8.34769 3.83526C8.43845 3.22855 8.64097 3.28234 8.7161 2.71671C8.79122 2.15108 8.71243 2.10476 8.75399 1.61933C8.79556 1.1339 8.99177 0.71271 9.09891 0.0942755" stroke="#D5F300" stroke-width="0.0160943"/>
<path d="M6.90057 12.5048C6.96243 11.9715 6.84517 11.6521 6.9816 11.0926C7.11803 10.5331 7.29542 10.6452 7.40387 10.0823C7.51233 9.51938 7.2882 9.46562 7.4195 8.82925C7.53855 8.25226 7.59553 8.77294 7.83286 7.9132C8.07019 7.05346 7.77856 6.8376 7.95355 6.19629C8.10625 5.63671 8.26544 5.75674 8.4672 4.89493C8.66895 4.03313 8.38431 4.36612 8.50001 3.7656C8.6157 3.16507 8.81691 3.22743 8.91525 2.66715C9.01358 2.10688 8.93632 2.05732 8.9977 1.5755C9.05909 1.09368 9.27318 0.682543 9.4058 0.0710467" stroke="#D6F100" stroke-width="0.0160943"/>
<path d="M6.69018 12.3488C6.7737 11.8201 6.66877 11.4967 6.82821 10.9452C6.98766 10.3937 7.16129 10.5131 7.29278 9.95695C7.42427 9.40078 7.20137 9.33743 7.35875 8.70908C7.50145 8.13936 7.53777 8.66065 7.81058 7.81435C8.08339 6.96806 7.79922 6.74026 8.00067 6.10889C8.17646 5.55797 8.33149 5.68452 8.56866 4.83461C8.80584 3.98471 8.50665 4.30409 8.64693 3.71077C8.7872 3.11745 8.98674 3.18836 9.10796 2.63439C9.22919 2.08042 9.1536 2.02767 9.23457 1.55026C9.31554 1.07285 9.54702 0.67253 9.70473 0.0690181" stroke="#D7EF00" stroke-width="0.0160943"/>
<path d="M6.47944 12.1908C6.58434 11.6676 6.49187 11.3407 6.67391 10.7981C6.85594 10.2555 7.0255 10.3822 7.17965 9.83369C7.33381 9.28522 7.11256 9.2123 7.29558 8.59303C7.46152 8.03154 7.47723 8.55263 7.78481 7.72123C8.09239 6.88984 7.81617 6.65035 8.04356 6.03001C8.24197 5.48871 8.39258 5.62163 8.66453 4.78507C8.93648 3.94851 8.6234 4.25366 8.78785 3.66855C8.9523 3.08343 9.1498 3.16286 9.29356 2.61613C9.43732 2.0694 9.36353 2.01351 9.46383 1.5413C9.56414 1.06909 9.81246 0.680323 9.99482 0.0858212" stroke="#D8EE00" stroke-width="0.0160943"/>
<path d="M6.26811 12.0348C6.39408 11.518 6.31418 11.188 6.51834 10.6553C6.7225 10.1225 6.88768 10.2562 7.06409 9.71634C7.24049 9.17649 7.0213 9.09403 7.22948 8.48488C7.41823 7.93257 7.4134 8.45264 7.75499 7.63757C8.09657 6.8225 7.82879 6.57159 8.08154 5.96333C8.30209 5.43258 8.448 5.57172 8.75403 4.74993C9.06005 3.92814 8.73375 4.21844 8.92194 3.64252C9.11012 3.0666 9.30522 3.15449 9.47113 2.61591C9.63703 2.07733 9.56517 2.01836 9.68451 1.55214C9.80385 1.08591 10.0685 0.709397 10.275 0.124907" stroke="#DAEC00" stroke-width="0.0160943"/>
<path d="M6.05668 11.8787C6.20336 11.3691 6.13614 11.0366 6.36192 10.5146C6.5877 9.99251 6.74821 10.1332 6.94641 9.60285C7.14462 9.0725 6.9279 8.98054 7.1607 8.38254C7.37179 7.84033 7.34654 8.35858 7.7213 7.56122C8.09607 6.76386 7.83719 6.50181 8.1147 5.90667C8.35684 5.38737 8.4978 5.53257 8.83715 4.72693C9.17649 3.92129 8.83765 4.19618 9.0491 3.6304C9.26054 3.06463 9.45288 3.16093 9.64049 2.63139C9.82811 2.10185 9.75832 2.03987 9.89637 1.58039C10.0344 1.12091 10.3147 0.757331 10.5449 0.183832" stroke="#DBEA00" stroke-width="0.0160943"/>
<path d="M5.8449 11.7226C6.01192 11.221 5.95744 10.8865 6.2043 10.3761C6.45116 9.86558 6.60671 10.013 6.82623 9.49309C7.04575 8.97313 6.83191 8.87174 7.08878 8.28586C7.32168 7.75465 7.27615 8.27029 7.68321 7.49198C8.09027 6.71368 7.84077 6.44079 8.14238 5.85977C8.40555 5.3528 8.5413 5.50389 8.91315 4.71574C9.285 3.92759 8.93435 4.18653 9.16853 3.63184C9.40272 3.07715 9.59192 3.18178 9.80078 2.66215C10.0097 2.14252 9.94205 2.0776 10.0985 1.62561C10.2549 1.17363 10.5503 0.823631 10.8036 0.262075" stroke="#DCE800" stroke-width="0.0160943"/>
<path d="M5.63276 11.5665C5.81972 11.0737 5.77803 10.7376 6.0454 10.2396C6.31277 9.74158 6.46306 9.89565 6.70338 9.38694C6.9437 8.87822 6.73315 8.76747 7.01348 8.19469C7.26765 7.67535 7.20201 8.18759 7.64043 7.42964C8.07884 6.67169 7.83918 6.38829 8.16419 5.82237C8.44778 5.32856 8.57809 5.48537 8.98157 4.71601C9.38505 3.94666 9.02333 4.18915 9.2797 3.64645C9.53607 3.10375 9.72177 3.21662 9.95139 2.70775C10.181 2.19888 10.1157 2.13108 10.2901 1.68732C10.4645 1.24356 10.7743 0.90777 11.0501 0.359083" stroke="#DDE700" stroke-width="0.0160943"/>
<path d="M5.42004 11.4103C5.62647 10.9271 5.59763 10.5899 5.88489 10.1052C6.17216 9.62042 6.31692 9.78092 6.57748 9.28427C6.83803 8.78762 6.63119 8.66762 6.93434 8.10886C7.2092 7.60225 7.12364 8.1103 7.59243 7.37396C8.06122 6.63762 7.83183 6.34407 8.17951 5.79418C8.48288 5.31436 8.6075 5.47668 9.04169 4.72739C9.47589 3.9781 9.10386 4.20366 9.38183 3.67383C9.65979 3.144 9.84164 3.265 10.0915 2.76772C10.3413 2.27043 10.2785 2.19984 10.4704 1.76501C10.6623 1.33019 10.9859 1.0092 11.2836 0.474275" stroke="#DFE500" stroke-width="0.0160943"/>
<path d="M5.20721 11.254C5.43266 10.7812 5.41666 10.4434 5.72319 9.97271C6.02972 9.50201 6.16867 9.66874 6.44888 9.18496C6.72908 8.70117 6.52636 8.57204 6.85163 8.02821C7.14656 7.53513 7.04133 8.03824 7.53945 7.32472C8.03757 6.6112 7.8189 6.30785 8.18847 5.77489C8.51095 5.30985 8.62963 5.47749 9.09358 4.74947C9.55752 4.02146 9.17597 4.22966 9.4749 3.71356C9.77383 3.19746 9.95147 3.32646 10.221 2.84156C10.4904 2.35665 10.4301 2.28336 10.6392 1.85815C10.8483 1.43295 11.1849 1.12732 11.5038 0.607032" stroke="#E0E300" stroke-width="0.0160943"/>
<path d="M4.99404 11.0975C5.23799 10.6359 5.23485 10.298 5.55997 9.84213C5.88508 9.38624 6.01795 9.559 6.31719 9.08886C6.61644 8.61871 6.41823 8.48057 6.76492 7.95255C7.07926 7.47379 6.95462 7.9712 7.48098 7.28166C8.00735 6.59213 7.79981 6.27936 8.19047 5.7642C8.53135 5.31469 8.64388 5.48743 9.13656 4.78187C9.62923 4.0763 9.23896 4.26675 9.55819 3.7652C9.87742 3.26365 10.0505 3.40051 10.339 2.92876C10.6276 2.45701 10.57 2.3811 10.7957 1.96618C11.0214 1.55127 11.3704 1.26153 11.7098 0.756711" stroke="#E1E100" stroke-width="0.0160943"/>
<path d="M4.78029 10.9391C5.0422 10.4893 5.05191 10.1517 5.39491 9.7114C5.73791 9.27106 5.86444 9.44963 6.18206 8.99387C6.49969 8.53811 6.3064 8.39112 6.67376 7.87973C7.00684 7.41606 6.86307 7.90702 7.41654 7.24258C7.97002 6.57813 7.77402 6.25635 8.18494 5.75982C8.54349 5.32656 8.64964 5.50419 9.16998 4.8222C9.69032 4.14021 9.29214 4.31254 9.63099 3.82633C9.96983 3.34012 10.138 3.48468 10.445 3.02683C10.7519 2.56897 10.6971 2.49055 10.939 2.08657C11.1809 1.6826 11.5415 1.40924 11.9006 0.920691" stroke="#E2E000" stroke-width="0.0160943"/>
<path d="M4.56644 10.7824C4.84576 10.3452 4.86827 10.0085 5.22843 9.58438C5.58859 9.16027 5.70852 9.34443 6.04385 8.90376C6.37918 8.46309 6.1912 8.30742 6.57845 7.81347C6.92956 7.36562 6.76698 7.8494 7.34639 7.21111C7.9258 6.57281 7.74174 6.24244 8.17204 5.76532C8.5475 5.34901 8.64706 5.53128 9.19395 4.87395C9.74085 4.21661 9.3356 4.37049 9.69334 3.90038C10.0511 3.43028 10.214 3.58237 10.5387 3.13912C10.8635 2.69588 10.8115 2.61503 11.0691 2.22262C11.3266 1.83021 11.698 1.5737 12.0762 1.10219" stroke="#E4DE00" stroke-width="0.0160943"/>
<path d="M4.35225 10.6256C4.64839 10.2016 4.68367 9.86622 5.06023 9.45901C5.43679 9.05181 5.54986 9.2413 5.9022 8.81641C6.25454 8.39152 6.07226 8.22736 6.47857 7.75162C6.84697 7.32027 6.66593 7.79617 7.27006 7.18502C7.8742 6.57388 7.70245 6.23534 8.15122 5.7784C8.5428 5.37968 8.63557 5.56636 9.20787 4.9347C9.78017 4.30304 9.3687 4.43818 9.74457 3.98491C10.1204 3.53163 10.2778 3.69107 10.6196 3.26311C10.9614 2.83516 10.9125 2.752 11.1851 2.37175C11.4577 1.99151 11.8393 1.75227 12.2357 1.29852" stroke="#E5DC00" stroke-width="0.0160943"/>
<path d="M4.1375 10.4687C4.44984 10.0584 4.49781 9.72491 4.88998 9.33523C5.28216 8.94555 5.38816 9.14014 5.75676 8.73167C6.12537 8.32321 5.94918 8.15076 6.37371 7.69395C6.75864 7.27977 6.55951 7.74709 7.18711 7.16404C7.81471 6.58099 7.65564 6.23475 8.12195 5.79868C8.52884 5.41817 8.61462 5.60901 9.21114 5.004C9.80766 4.39898 9.39083 4.51515 9.78406 4.07939C10.1773 3.64364 10.3287 3.81022 10.6869 3.39821C11.0451 2.98619 10.9993 2.90084 11.2865 2.53332C11.5736 2.16581 11.9644 1.94424 12.3782 1.50896" stroke="#E6DA00" stroke-width="0.0160943"/>
<path d="M3.92267 10.3096C4.25058 9.91381 4.31114 9.58256 4.71813 9.211C5.12513 8.83944 5.2238 9.03886 5.60793 8.64743C5.99205 8.256 5.82232 8.0755 6.26421 7.63831C6.66487 7.24191 6.44805 7.69997 7.09783 7.14591C7.7476 6.59185 7.60156 6.23838 8.08446 5.82384C8.50582 5.46213 8.58441 5.65687 9.20393 5.07942C9.82345 4.50196 9.40212 4.59894 9.8119 4.18136C10.2217 3.76378 10.3668 3.93729 10.7407 3.54184C11.1146 3.14639 11.072 3.05894 11.3731 2.70472C11.6742 2.35049 12.0734 2.14694 12.5038 1.73077" stroke="#E7D900" stroke-width="0.0160943"/>
<path d="M3.70752 10.1523C4.05034 9.77153 4.1234 9.44302 4.54438 9.09014C4.96535 8.73725 5.0565 8.94123 5.45536 8.56742C5.85422 8.19361 5.69131 8.00529 6.14967 7.58837C6.56525 7.21036 6.33117 7.65849 7.00179 7.13425C7.67242 6.61 7.53973 6.24978 8.03823 5.8574C8.4732 5.51503 8.54444 5.7134 9.1857 5.16437C9.82696 4.61534 9.402 4.69296 9.82751 4.29418C10.253 3.8954 10.3916 4.07559 10.7804 3.69729C11.1691 3.31899 11.1298 3.22958 11.4443 2.88916C11.7587 2.54874 12.1656 2.36352 12.6116 1.9671" stroke="#E9D700" stroke-width="0.0160943"/>
<path d="M3.49182 9.99669C3.84886 9.63154 3.9343 9.30625 4.36841 8.97256C4.80253 8.63887 4.88593 8.84711 5.29873 8.49147C5.71153 8.13583 5.55581 7.93994 6.0297 7.54391C6.45938 7.18483 6.20847 7.6224 6.8986 7.12874C7.58872 6.63508 7.46969 6.26861 7.98279 5.89897C8.4305 5.57643 8.49421 5.77816 9.15592 5.25836C9.81763 4.73856 9.38993 4.79669 9.83031 4.41729C10.2707 4.03789 10.4024 4.22452 10.8053 3.86392C11.2081 3.50332 11.1722 3.41207 11.4994 3.08595C11.8265 2.75983 12.2403 2.59323 12.701 2.21713" stroke="#EAD500" stroke-width="0.0160943"/>
<path d="M3.27606 9.83895C3.64663 9.48991 3.7443 9.1683 4.19069 8.85427C4.63708 8.54025 4.71253 8.75248 5.13845 8.41552C5.56437 8.07855 5.41618 7.87537 5.90468 7.50078C6.34759 7.16115 6.08033 7.58753 6.78857 7.12518C7.49682 6.66282 7.39175 6.29061 7.91841 5.94424C8.37796 5.642 8.43399 5.84681 9.11482 5.35698C9.79566 4.86716 9.36611 4.9057 9.82048 4.54622C10.2749 4.18675 10.3994 4.37956 10.8156 4.03718C11.2318 3.69479 11.1993 3.60182 11.5386 3.29048C11.8778 2.97913 12.2975 2.83139 12.7721 2.47615" stroke="#EBD300" stroke-width="0.0160943"/>
<path d="M3.06001 9.67901C3.44338 9.34658 3.55313 9.0291 4.01091 8.73519C4.46869 8.44128 4.536 8.65719 4.97421 8.33937C5.41241 8.02155 5.2721 7.81137 5.77423 7.45876C6.2295 7.13905 5.94639 7.55365 6.67134 7.12323C7.39629 6.69282 7.30546 6.31541 7.84464 5.99279C8.31512 5.71128 8.36332 5.91887 9.06194 5.4597C9.76055 5.00054 9.33004 5.01945 9.79752 4.6804C10.265 4.34136 10.3821 4.54008 10.8108 4.2164C11.2394 3.89271 11.2106 3.79815 11.5612 3.50201C11.9119 3.20587 12.3367 3.07719 12.8242 2.74331" stroke="#ECD200" stroke-width="0.0160943"/>
<path d="M2.84367 9.52079C3.23911 9.20541 3.36077 8.89252 3.82904 8.61912C4.2973 8.34572 4.35631 8.565 4.80594 8.26677C5.25557 7.96854 5.12346 7.75165 5.63825 7.4215C6.105 7.12215 5.80655 7.52438 6.54678 7.1265C7.28701 6.72862 7.21066 6.34654 7.76131 6.04811C8.24178 5.78771 8.28202 5.99779 8.99705 5.56991C9.71208 5.14204 9.28149 5.1413 9.76116 4.82315C10.2408 4.505 10.3502 4.70935 10.7905 4.4048C11.2309 4.10025 11.2057 4.00425 11.567 3.72372C11.9284 3.4432 12.3575 3.33375 12.857 3.02169" stroke="#EED000" stroke-width="0.0160943"/>
<path d="M2.62682 9.36231C3.03357 9.06442 3.16694 8.75654 3.64479 8.50402C4.12264 8.25149 4.17317 8.47382 4.63336 8.19557C5.09355 7.91732 4.96996 7.69407 5.4964 7.38681C5.97372 7.10823 5.66047 7.49753 6.41453 7.1327C7.16859 6.76787 7.10696 6.38168 7.66799 6.10784C8.15753 5.86889 8.18967 6.08114 8.91973 5.68512C9.64978 5.28911 9.22 5.26876 9.71094 4.97192C10.2019 4.67509 10.3032 4.88476 10.7544 4.59976C11.2056 4.31477 11.1841 4.21745 11.5555 3.95292C11.9269 3.68839 12.3594 3.5983 12.8699 3.30847" stroke="#EFCE00" stroke-width="0.0160943"/>
<path d="M2.4097 9.2016C2.82699 8.92159 2.97188 8.61917 3.45838 8.38784C3.94488 8.1565 3.98679 8.38156 4.45666 8.12366C4.92652 7.86575 4.81175 7.63645 5.34884 7.35249C5.83582 7.09502 5.50831 7.47087 6.27474 7.13955C7.04117 6.80823 6.99447 6.41849 7.5648 6.16958C8.06244 5.95238 8.08638 6.16651 8.83005 5.80285C9.57371 5.43919 9.14564 5.3993 9.6469 5.12416C10.1482 4.84903 10.2413 5.06371 10.7024 4.79863C11.1635 4.53356 11.1458 4.43508 11.5265 4.18689C11.9073 3.93869 12.3423 3.86806 12.8628 3.60083" stroke="#F0CC00" stroke-width="0.0160943"/>
<path d="M2.19257 9.04256C2.61963 8.78079 2.77581 8.48425 3.27003 8.27439C3.76425 8.06453 3.79739 8.29198 4.27604 8.05474C4.75469 7.8175 4.64903 7.5825 5.19575 7.32219C5.69145 7.08616 5.35026 7.44803 6.12758 7.15062C6.9049 6.85321 6.87332 6.4605 7.45184 6.2368C7.95663 6.04161 7.97227 6.2573 8.72812 5.92644C9.48397 5.59558 9.05848 5.53626 9.56911 5.28317C10.0797 5.03008 10.1644 5.24944 10.6346 5.00462C11.1048 4.7598 11.0909 4.6603 11.4802 4.42877C11.8696 4.19723 12.3063 4.1461 12.8358 3.90181" stroke="#F1CB00" stroke-width="0.0160943"/>
<path d="M1.9752 8.88323C2.41123 8.64002 2.57847 8.34978 3.07947 8.16163C3.58046 7.97348 3.6047 8.20298 4.09123 7.98669C4.57777 7.77039 4.48149 7.53007 5.0368 7.2937C5.54029 7.07939 5.18602 7.42681 5.97273 7.16363C6.75945 6.90044 6.74316 6.50535 7.32876 6.30713C7.83974 6.13416 7.84698 6.35108 8.61358 6.05341C9.38018 5.75574 8.95815 5.67713 9.47718 5.44638C9.99622 5.21564 10.0721 5.43935 10.5505 5.21507C11.0289 4.99079 11.0189 4.89043 11.4162 4.67584C11.8135 4.46125 12.2509 4.42964 12.7885 4.20856" stroke="#F3C900" stroke-width="0.0160943"/>
<path d="M1.7576 8.72359C2.2018 8.49924 2.37984 8.21569 2.88667 8.04946C3.39349 7.88323 3.40872 8.11443 3.90222 7.91932C4.39572 7.72421 4.3091 7.47894 4.87195 7.26678C5.38228 7.07442 5.01554 7.40692 5.81015 7.17824C6.60476 6.94955 6.60391 6.55266 7.19548 6.38011C7.71166 6.22954 7.71043 6.44737 8.48634 6.1832C9.26224 5.91903 8.84453 5.82132 9.371 5.61319C9.89747 5.40505 9.96443 5.63275 10.4501 5.42928C10.9358 5.2258 10.9298 5.12472 11.3342 4.92733C11.7387 4.72994 12.1761 4.71782 12.7206 4.5202" stroke="#F4C700" stroke-width="0.0160943"/>
<path d="M1.53978 8.56363C1.99133 8.35839 2.17992 8.08194 2.69162 7.93778C3.20332 7.79362 3.20943 8.02616 3.70898 7.85245C4.20853 7.67874 4.13181 7.42889 4.70115 7.24117C5.21737 7.07096 4.83878 7.3881 5.63978 7.19411C6.44078 7.00011 6.4555 6.60204 7.05192 6.45531C7.57233 6.32727 7.56257 6.54567 8.34631 6.31526C9.13006 6.08485 8.71753 5.96828 9.25046 5.78296C9.78338 5.59764 9.8412 5.82899 10.3333 5.64653C10.8254 5.46408 10.8233 5.36243 11.2342 5.18247C11.6451 5.0025 12.0815 5.00981 12.632 4.83584" stroke="#F5C600" stroke-width="0.0160943"/>
<path d="M1.32151 8.40529C1.7796 8.21939 1.97844 7.95043 2.49407 7.82845C3.00969 7.70647 3.0066 7.94001 3.51128 7.78785C4.01596 7.63569 3.94936 7.38168 4.52414 7.21855C5.04529 7.07065 4.6555 7.37203 5.46138 7.21286C6.26727 7.05369 6.29765 6.65504 6.89779 6.53423C7.42146 6.42881 7.40311 6.64746 8.19323 6.451C8.98336 6.25453 8.57687 6.11936 9.11526 5.95703C9.65366 5.79471 9.70214 6.02933 10.1997 5.86807C10.6973 5.70682 10.6993 5.60477 11.1158 5.44242C11.5324 5.28007 11.9671 5.30669 12.5225 5.15654" stroke="#F6C400" stroke-width="0.0160943"/>
<path d="M1.10329 8.24271C1.5671 8.07633 1.77591 7.81523 2.29449 7.71551C2.81308 7.61579 2.80071 7.84995 3.30959 7.71947C3.81848 7.589 3.76222 7.33123 4.34138 7.19283C4.86651 7.06734 4.46616 7.35258 5.27542 7.2283C6.08469 7.10402 6.13081 6.7054 6.73355 6.61057C7.25949 6.52782 7.23252 6.74637 8.02756 6.58399C8.82261 6.4216 8.42298 6.26813 8.96585 6.12893C9.50873 5.98974 9.54771 6.22725 10.0499 6.08733C10.5521 5.94742 10.5581 5.84512 10.9796 5.70054C11.4011 5.55597 11.8331 5.60178 12.3925 5.47554" stroke="#F8C200" stroke-width="0.0160943"/>
<path d="M0.884895 8.08173C1.35359 7.93503 1.57206 7.68215 2.09265 7.60472C2.61324 7.5273 2.59154 7.76171 3.1037 7.653C3.61585 7.54429 3.57014 7.28319 4.15263 7.16959C4.68076 7.06659 4.27052 7.33533 5.08166 7.24595C5.8928 7.15656 5.95471 6.7586 6.55894 6.68975C7.08618 6.62968 7.05055 6.84779 7.84906 6.71955C8.64756 6.59131 8.2556 6.41987 8.80197 6.30389C9.34835 6.18792 9.37766 6.42794 9.88353 6.30946C10.3894 6.19099 10.3995 6.0886 10.8251 5.96193C11.2508 5.83526 11.6793 5.90008 12.2416 5.79782" stroke="#F9C000" stroke-width="0.0160943"/>
<path d="M0.666093 7.92039C1.13884 7.79348 1.36664 7.54919 1.88829 7.49404C2.40993 7.4389 2.37886 7.6732 2.89336 7.5863C3.40786 7.49939 3.37287 7.2354 3.95762 7.14664C4.48781 7.06616 4.06836 7.31807 4.87988 7.26352C5.69139 7.20897 5.76912 6.81229 6.37373 6.76938C6.90129 6.73193 6.857 6.94927 7.65749 6.85518C8.45799 6.76109 8.07452 6.57206 8.6234 6.47935C9.17227 6.38664 9.19178 6.62878 9.70042 6.5318C10.2091 6.43483 10.2232 6.33252 10.6523 6.22385C11.0814 6.11518 11.5056 6.19879 12.0698 6.12054" stroke="#FABF00" stroke-width="0.0160943"/>
<path d="M0.447386 7.75869C0.923357 7.65166 1.16016 7.41628 1.68191 7.38337C2.20365 7.35046 2.16317 7.58427 2.6791 7.51918C3.19503 7.45409 3.17092 7.18765 3.75688 7.12371C4.28817 7.06575 3.86019 7.30053 4.67059 7.28068C5.48099 7.26083 5.57454 6.86607 6.17841 6.84901C6.70533 6.83412 6.65238 7.05033 7.45342 6.99033C8.25446 6.93032 7.88025 6.72413 8.43064 6.65469C8.98104 6.58525 8.99062 6.8291 9.50111 6.75365C10.0116 6.6782 10.0299 6.57613 10.4616 6.48553C10.8934 6.39492 11.3124 6.49707 11.8775 6.44281" stroke="#FBBD00" stroke-width="0.0160943"/>
<path d="M0.228302 7.59662C0.706663 7.5095 0.952126 7.28337 1.47303 7.27261C1.99393 7.26185 1.94403 7.49479 2.46046 7.45148C2.97689 7.40817 2.96381 7.13972 3.54993 7.10056C4.08136 7.06506 3.64555 7.28243 4.45337 7.2971C5.26118 7.31177 5.37052 6.91955 5.97255 6.9282C6.49787 6.93575 6.43627 7.15049 7.23641 7.12446C8.03654 7.09842 7.67236 6.8755 8.22329 6.8293C8.77422 6.7831 8.77376 7.02824 9.2852 6.97431C9.79664 6.92038 9.81901 6.81871 10.2527 6.7462C10.6863 6.67368 11.0994 6.7941 11.6643 6.76375" stroke="#FDBB00" stroke-width="0.0160943"/>
<path d="M0.00934345 7.43221C0.489264 7.36503 0.743028 7.14846 1.26215 7.15971C1.78127 7.17097 1.72196 7.40266 2.23797 7.38106C2.75399 7.35946 2.75206 7.08946 3.3373 7.07498C3.86793 7.06185 3.425 7.26157 4.22875 7.3105C5.03251 7.35944 5.1576 6.9704 5.75671 7.00457C6.27947 7.03439 6.20926 7.24733 7.00705 7.25508C7.80484 7.26283 7.45144 7.02366 8.00192 7.00062C8.55241 6.97758 8.54182 7.22361 9.05331 7.19114C9.56479 7.15866 9.59126 7.05757 10.0261 7.00315C10.4609 6.94873 10.8672 7.08708 11.431 7.08055" stroke="#FEB900" stroke-width="0.0160943"/>
</mask>
<g mask="url(#mask0_342_603)">
<rect x="14.0503" y="14.5703" width="17.7842" height="17.4301" transform="rotate(180 14.0503 14.5703)" fill="#3773E0"/>
</g>
</svg>
