<svg width="41" height="27" viewBox="0 0 41 27" fill="none" xmlns="http://www.w3.org/2000/svg">
<rect x="0.54375" y="0.16875" width="40.1625" height="26.6625" rx="2.53125" fill="white"/>
<path d="M34.125 13.4061C34.125 18.0181 30.3937 21.7494 25.7817 21.7494C23.8349 21.7494 22.0503 21.0773 20.6366 19.9649C22.5834 18.4353 23.8117 16.0713 23.8117 13.4061C23.8117 10.7409 22.5602 8.37691 20.6366 6.8473C22.0503 5.73485 23.8349 5.06274 25.7817 5.06274C30.3937 5.06274 34.125 8.81725 34.125 13.4061Z" fill="#F79E1B"/>
<path d="M20.6366 6.8473C20.6366 6.84729 20.6366 6.8473 20.6366 6.8473C22.5602 8.37691 23.8117 10.7409 23.8117 13.4061C23.8117 16.0713 22.5834 18.4353 20.6366 19.9649L20.6133 19.9649C18.6898 18.4584 17.4383 16.0713 17.4383 13.4061C17.4383 10.7409 18.6898 8.37696 20.6134 6.84734C20.6134 6.84733 20.6134 6.84736 20.6134 6.84734L20.6366 6.8473Z" fill="#FF5F00"/>
<path d="M17.4383 13.4061C17.4383 10.7409 18.6898 8.37696 20.6134 6.84734C19.1997 5.7349 17.4151 5.06278 15.4683 5.06278C10.8563 5.06278 7.125 8.79411 7.125 13.4061C7.125 18.0181 10.8563 21.7495 15.4683 21.7495C17.4151 21.7495 19.1996 21.0773 20.6133 19.9649C18.6898 18.4584 17.4383 16.0713 17.4383 13.4061Z" fill="#EB001B"/>
<rect x="0.54375" y="0.16875" width="40.1625" height="26.6625" rx="2.53125" stroke="#CCCCCC" stroke-width="0.3375"/>
</svg>
