<svg xmlns="http://www.w3.org/2000/svg" enable-background="new 0 0 100 100" viewBox="0 0 100 100" id="okcupid"><path fill="#f1f1f1" d="M89.462,52.991c3.79,0.788,5.693-3.165,6.45-6.207c1.228-5.456-1.582-9.911-7.014-11.187
				c-5.697-1.232-12.032-0.81-15.988,4.031c-0.177,0.209-0.741-0.287-0.691-0.665c0.655-4.985,1.305-9.971,1.996-14.951
				c0.428-3.087-0.211-4.506-2.989-5.933c-6.319-3.336-17.256-2.787-18.931,5.582c-1.141,5.532-1.859,11.55-2.627,17.052
				C28.041,25.159-1.383,41.394,4.585,68.767c1.244,6.276,4.889,10.665,10.835,13.08c9.949,3.739,22.059,2.117,30.543-4.246
				c2.565,7.009,11.952,6.837,17.952,5.018c3.267-0.967,2.906-4.411,3.462-7.284c1.865,3.642,3.748,7.307,8.071,7.96
				c7.816,1.279,20.261-0.764,19.606-10.972c-0.198-3.686-2.838-8.031-7.534-6.582c-0.058,0.018-0.143-0.054-0.282-0.112
				c-1.188-2.151-2.294-4.42-3.656-6.523c-0.904-1.395-0.678-2.287,0.247-3.586C85.283,53.481,86.964,52.532,89.462,52.991z"></path><path fill="#4c7bd9" d="M31.379 79.203C14.221 81.457 5.286 73.295 9.138 55.885c1.483-8.693 8.103-14.692 17.013-16.319 9.369-1.938 22.191.725 23.694 11.884C52.285 64.662 45.454 77.661 31.379 79.203zM77.957 57.547c2.032 3.739 4.106 7.455 6.168 11.178.803 1.709 2.493 1.351 4.062 1.221 1.703-.195 2.2.165 2.522 1.859 1.328 7.51-9.128 7.851-14.249 7.36-1.794-.181-2.995-1.389-3.776-2.949-2.14-4.274-4.24-8.569-6.356-12.856-.434-.526-.739-2.297-1.386-2.21-.669 4.931-1.365 9.858-1.998 14.793-.381 2.97-.396 3.071-3.405 3.242-4.207.258-10.162.733-9.779-5.161 1.778-16.18 3.975-32.361 6.368-48.462.655-3.504 2.459-4.858 6.01-5.022 1.751-.145 8.336.214 7.848 2.865-1.306 10.791-3.137 21.486-4.115 32.304 3.17-4.539 6.39-8.433 9.716-12.759 3.593-4.642 9.446-4.229 13.575-2.819 2.992 1.021 3.799 6.291 1.451 8.384-.207.185-.574.25-.871.262-.606.026-1.225.036-1.823-.05-2.562-.367-4.501.671-6.031 2.63-1.323 1.693-2.636 3.395-3.9 5.132C77.812 56.731 77.808 57.272 77.957 57.547z"></path><path fill="#f1f1f1" d="M31.775,48.304c-8.674-0.793-10.996,10.454-9.676,17.197c0.332,2.567,1.836,4.516,4.575,4.769
				c4.121,0.492,7.394-1.365,9.145-5.486c1.679-3.952,1.953-8.095,1.03-12.274C36.247,49.784,34.551,48.471,31.775,48.304z"></path></svg>