<?xml version="1.0" ?><svg height="512" id="Layer_1" version="1.1" viewBox="0 0 512 512" width="512" xml:space="preserve" xmlns="http://www.w3.org/2000/svg" xmlns:cc="http://creativecommons.org/ns#" xmlns:dc="http://purl.org/dc/elements/1.1/" xmlns:inkscape="http://www.inkscape.org/namespaces/inkscape" xmlns:rdf="http://www.w3.org/1999/02/22-rdf-syntax-ns#" xmlns:sodipodi="http://sodipodi.sourceforge.net/DTD/sodipodi-0.dtd" xmlns:svg="http://www.w3.org/2000/svg"><defs id="defs12"/><g id="g3271"><rect height="512" id="rect2987" rx="64" ry="64" style="fill:#336799;fill-opacity:1;fill-rule:nonzero;stroke:none" width="512" x="0" y="0"/><path d="M 368.6164,96.404558 C 345.149,76.133448 312.4517,66.000002 271.1115,66.000002 H 108.2206 v 13.304366 c 51.8241,0 58.6135,8.86677 58.6135,73.463262 v 205.83562 c 0,64.60072 -6.7852,74.09238 -58.6135,74.09238 V 446 h 166.6023 v -13.30437 c -51.8368,0 -58.6262,-9.49166 -58.6262,-74.09238 v -79.17599 h 54.9148 c 41.3402,0 74.0375,-10.12078 97.5049,-29.767 23.442,-20.25844 35.163,-45.59628 35.163,-76.63418 0,-31.02101 -11.721,-56.35885 -35.163,-76.621522 z M 270.5035,256.63123 H 216.1967 V 89.437818 h 54.3026 c 51.2119,0 78.3653,34.821052 78.3653,83.588262 0,48.77143 -27.1534,83.60515 -78.3611,83.60515 z" id="Pandora" style="fill:#ffffff;fill-opacity:1"/></g></svg>