<svg width="41" height="28" viewBox="0 0 41 28" fill="none" xmlns="http://www.w3.org/2000/svg">
<rect x="0.170833" y="0.170833" width="40.6583" height="26.9917" rx="2.5625" fill="white"/>
<path fill-rule="evenodd" clip-rule="evenodd" d="M10.6152 10.2507H8.60686C8.46943 10.2507 8.35254 10.3506 8.33111 10.4862L7.51883 15.6356C7.50269 15.7373 7.58139 15.8289 7.68446 15.8289H8.64327C8.78071 15.8289 8.89759 15.729 8.91902 15.5931L9.13811 14.2042C9.15924 14.0682 9.27641 13.9685 9.41356 13.9685H10.0493C11.3723 13.9685 12.1358 13.3283 12.3353 12.0599C12.4251 11.5049 12.3391 11.0689 12.0791 10.7634C11.7937 10.4282 11.2874 10.2507 10.6152 10.2507ZM10.8469 12.1315C10.7371 12.8521 10.1865 12.8521 9.65407 12.8521H9.35101L9.56362 11.5063C9.57624 11.425 9.64672 11.3651 9.72895 11.3651H9.86786C10.2305 11.3651 10.5727 11.3651 10.7495 11.5718C10.8548 11.6952 10.8872 11.8783 10.8469 12.1315ZM16.6187 12.1084H15.6569C15.575 12.1084 15.5042 12.1683 15.4915 12.2497L15.449 12.5186L15.3817 12.4212C15.1735 12.119 14.7093 12.018 14.2459 12.018C13.183 12.018 12.2754 12.8228 12.0986 13.9519C12.0067 14.515 12.1373 15.0535 12.4568 15.4291C12.7499 15.7744 13.1693 15.9183 13.6682 15.9183C14.5245 15.9183 14.9994 15.3677 14.9994 15.3677L14.9565 15.6349C14.9403 15.7371 15.019 15.8287 15.1215 15.8287H15.9878C16.1256 15.8287 16.2418 15.7288 16.2636 15.593L16.7834 12.3016C16.7998 12.2004 16.7214 12.1084 16.6187 12.1084ZM15.278 13.98C15.1852 14.5294 14.7491 14.8982 14.193 14.8982C13.9138 14.8982 13.6905 14.8086 13.5472 14.6389C13.4051 14.4704 13.351 14.2305 13.3963 13.9633C13.483 13.4186 13.9264 13.0378 14.4741 13.0378C14.7471 13.0378 14.9691 13.1284 15.1154 13.2997C15.2619 13.4726 15.32 13.714 15.278 13.98ZM20.7743 12.1082H21.7408C21.8762 12.1082 21.9552 12.26 21.8782 12.371L18.6638 17.0104C18.6118 17.0855 18.526 17.1302 18.4344 17.1302H17.4691C17.3332 17.1302 17.2539 16.9772 17.3326 16.8659L18.3335 15.4533L17.269 12.3296C17.2321 12.221 17.3123 12.1082 17.4278 12.1082H18.3775C18.5009 12.1082 18.6097 12.1892 18.6453 12.3073L19.2103 14.1939L20.5433 12.2307C20.5955 12.154 20.6822 12.1082 20.7743 12.1082Z" fill="#253B80"/>
<path fill-rule="evenodd" clip-rule="evenodd" d="M31.2535 15.6352L32.0777 10.3916C32.0904 10.3102 32.1609 10.2503 32.2428 10.25H33.1707C33.2732 10.25 33.3519 10.3419 33.3357 10.4435L32.5229 15.5927C32.5017 15.7285 32.3848 15.8284 32.2472 15.8284H31.4185C31.316 15.8284 31.2373 15.7368 31.2535 15.6352ZM24.9411 10.2503H22.9324C22.7953 10.2503 22.6784 10.3501 22.6569 10.4858L21.8447 15.6352C21.8285 15.7368 21.9072 15.8284 22.0098 15.8284H23.0404C23.1363 15.8284 23.2182 15.7586 23.2331 15.6634L23.4636 14.2038C23.4848 14.0678 23.602 13.968 23.7391 13.968H24.3746C25.6978 13.968 26.4612 13.3279 26.6608 12.0594C26.7509 11.5045 26.6643 11.0684 26.4045 10.763C26.1192 10.4277 25.6133 10.2503 24.9411 10.2503ZM25.1728 12.131C25.0633 12.8516 24.5126 12.8516 23.9799 12.8516H23.6771L23.8901 11.5058C23.9027 11.4246 23.9726 11.3646 24.0551 11.3646H24.194C24.5564 11.3646 24.8989 11.3646 25.0755 11.5713C25.181 11.6947 25.2131 11.8779 25.1728 12.131ZM30.944 12.1079H29.983C29.9003 12.1079 29.8302 12.1679 29.8179 12.2492L29.7753 12.5182L29.7078 12.4207C29.4996 12.1185 29.0356 12.0176 28.5722 12.0176C27.5093 12.0176 26.6019 12.8224 26.4251 13.9515C26.3335 14.5146 26.4636 15.0531 26.7831 15.4286C27.0768 15.7739 27.4956 15.9178 27.9945 15.9178C28.8508 15.9178 29.3256 15.3672 29.3256 15.3672L29.2828 15.6345C29.2666 15.7367 29.3453 15.8283 29.4485 15.8283H30.3144C30.4515 15.8283 30.5684 15.7284 30.5899 15.5925L31.11 12.3012C31.1259 12.1999 31.0472 12.1079 30.944 12.1079ZM29.6035 13.9796C29.5113 14.529 29.0746 14.8977 28.5184 14.8977C28.2397 14.8977 28.016 14.8082 27.8726 14.6385C27.7304 14.47 27.677 14.23 27.7217 13.9629C27.8089 13.4181 28.2518 13.0374 28.7994 13.0374C29.0726 13.0374 29.2945 13.128 29.4409 13.2992C29.5879 13.4722 29.6461 13.7135 29.6035 13.9796Z" fill="#179BD7"/>
<rect x="0.170833" y="0.170833" width="40.6583" height="26.9917" rx="2.5625" stroke="#CCCCCC" stroke-width="0.341667"/>
</svg>
