<?xml version="1.0" encoding="iso-8859-1"?>
<!-- Uploaded to: SVG Repo, www.svgrepo.com, Generator: SVG Repo Mixer Tools -->
<svg height="800px" width="800px" version="1.1" id="Layer_1" xmlns="http://www.w3.org/2000/svg" xmlns:xlink="http://www.w3.org/1999/xlink" 
	 viewBox="0 0 495.999 495.999" xml:space="preserve">
<g transform="translate(0 -1020.36)" shape-rendering="auto" image-rendering="auto" color-rendering="auto" color-interpolation="sRGB">
	<path style="fill:#484666;" d="M439.875,1028.366c-2.05,0.065-3.997,0.916-5.437,2.376l-40.031,40.031
		c-1.511,1.494-2.366,3.529-2.375,5.654v44.563l-37.531,37.529c-16.688-11.375-36.826-18.063-58.5-18.063
		c-51.904,0-87.874,37.078-95.688,45.467c-7.733-8.23-44.206-45.467-96.25-45.467C46.713,1140.457,0,1187.048,0,1244.39
		c0.032,30.154,15.159,56.117,34.5,77.248c20.067,21.924,47.087,52.918,73.469,83.436L67,1446.009
		c-0.659-3.279-2.167-6.414-5.344-9.594c-10.168-10.172-26.729-10.836-36.844-0.721h-0.125c-4.573,4.59-6.918,10.719-7.219,16.906
		c-0.791,16.002-1.406,47.592-1.406,47.592c-0.088,4.584,3.699,8.311,8.281,8.156c0,0,30.329-1.168,45.125-1.408
		c6.37-0.16,13.771-1.656,19.344-7.217c10.117-10.117,9.48-26.795-0.687-36.969c-3.391-3.393-6.58-4.844-9.938-5.248l40.281-40.313
		c40.009,46.434,75.469,88.311,75.469,88.311c2.87,3.369,7.927,3.775,11.297,0.906c0.271-0.232,0.527-0.48,0.765-0.746
		c0,0,113.268-128.605,167.719-192.15c16.461-19.209,26.305-43.486,26.344-69.092c0-29.881-12.769-56.748-33.031-75.717l36.25-36.25
		h44.75c2.126-0.01,4.162-0.865,5.656-2.377l40.031-40.031c3.09-3.158,3.033-8.225-0.126-11.314
		c-1.479-1.445-3.461-2.262-5.53-2.279h-40.031v-40.03c0.017-4.419-3.551-8.015-7.97-8.031c-0.062-0.001-0.124,0-0.186,0.001
		L439.875,1028.366z"/>
	<path style="fill:#D87070;" d="M104.062,1156.392c48.184,0,90.25,45.342,90.25,45.342c2.963,3.287,8.03,3.551,11.318,0.588
		c0.206-0.186,0.402-0.381,0.588-0.588c0,0,41.598-45.342,89.781-45.342c48.689,0,88,39.314,88,87.998
		c-0.034,21.508-8.243,42.119-22.438,58.686c-52.323,61.063-153.865,176.535-161.469,185.182
		c-4.115-4.873-34.953-41.359-70.281-82.436l69.844-69.904c4.937,2.916,10.564,4.553,16.375,4.469
		c4.435-0.094,7.954-3.766,7.86-8.201c-0.094-4.4-3.709-7.904-8.11-7.861c-4.124,0-8.124-1.535-11.094-4.498
		c-2.969-2.969-4.719-7.07-4.719-11.344c0.062-4.426-3.476-8.063-7.901-8.125c-0.043,0-0.087,0-0.13,0
		c-4.425,0.059-7.965,3.693-7.906,8.119c0,0.002,0,0.004,0,0.006c0,5.738,1.635,11.281,4.469,16.154l-69.156,69.094
		c-25.715-29.793-52.46-60.49-73.031-82.967c-17.752-19.396-30.223-41.588-30.25-66.375
		C16.063,1195.707,55.374,1156.392,104.062,1156.392L104.062,1156.392z"/>
	<g>
		<path style="fill:#FABD6B;" d="M432.074,1055.652v28.699c-0.017,4.418,3.551,8.014,7.97,8.031c0.021,0,0.041,0,0.062,0h28.703
			l-24.096,23.977h-36.616v-36.613L432.074,1055.652z"/>
		<path style="fill:#FABD6B;" d="M36.026,1446.933c3.651-3.652,10.025-3.678,14.41,0.703c4.386,4.391,4.361,10.756,0.709,14.41
			c-6.44,7.465,3.689,17.697,11.221,11.338c0.032,0-0.032,0,0-0.16c3.651-3.652,10.025-3.563,14.41,0.832
			c4.387,4.391,4.362,10.639,0.709,14.291c-1.563,1.568-4.282,2.42-8.268,2.48c-12.463,0.176-29.073,0.992-36.971,1.297
			c0.184-8.037,0.555-26.189,1.181-38.855c0.109-2.6,1.074-4.938,2.599-6.334L36.026,1446.933z"/>
	</g>
	<path style="fill:#BD5858;" d="M104.062,1156.392c-1.395,0-2.746,0.16-4.125,0.225c46.536,2.318,86.375,45.123,86.375,45.123
		c2.531,2.795,6.669,3.449,9.938,1.568c-0.724-0.418-1.377-0.947-1.938-1.568c0,0-42.066-45.342-90.25-45.342L104.062,1156.392z
		 M296,1156.392c-1.295,0-2.559,0.16-3.844,0.225c46.733,2.182,83.844,40.502,83.844,87.779
		c-0.034,21.508-8.243,42.119-22.438,58.686c-50.663,59.125-144.412,165.779-157.406,180.557c0.395,0.465,3.707,4.352,3.937,4.625
		c7.604-8.646,109.146-124.119,161.469-185.182c14.195-16.566,22.405-37.18,22.438-58.686c0-48.684-39.312-87.998-88-87.998
		V1156.392z M183.937,1300.357c-4.425,0.059-7.965,3.693-7.906,8.119c0,0.002,0,0.004,0,0.006c0,5.738,1.635,11.281,4.469,16.156
		l-64.875,64.811c1.248,1.439,2.474,2.838,3.719,4.279l69.156-69.092c-2.834-4.875-4.469-10.418-4.469-16.156
		c-0.047-2.881,1.456-5.566,3.938-7.031c-1.224-0.713-2.615-1.088-4.031-1.088V1300.357z M199.656,1335.919l-2.375,2.377
		c3.451,1.248,7.012,2.146,10.75,2.094c1.033-0.023,2.052-0.246,3-0.656c-3.995-0.623-7.89-1.756-11.375-3.813V1335.919z"/>
	<g>
		<path style="fill:#E0A45C;" d="M42.969,1444.259c-1.031,0-2.035,0.225-3,0.496c1.89,0.465,3.753,1.279,5.344,2.875
			c4.386,4.391,4.371,10.752,0.719,14.404c-5.739,6.652,1.673,15.438,8.688,12.783c-4.754-1.703-7.855-7.807-3.563-12.783
			c3.652-3.652,3.667-10.014-0.719-14.404c-2.192-2.191-4.871-3.289-7.469-3.377L42.969,1444.259z M69.281,1470.666
			c-1.093,0-2.14,0.16-3.156,0.465c1.95,0.465,3.891,1.328,5.531,2.969c4.387,4.391,4.34,10.629,0.688,14.281
			c-1.563,1.568-4.264,2.408-8.25,2.469c-10.735,0.16-23.173,0.752-31.844,1.119c-0.001,0,0.001,0.16,0,0.191
			c7.898-0.32,24.506-1.137,36.969-1.313c3.986,0,6.718-0.912,8.281-2.469c3.653-3.652,3.668-9.891-0.719-14.281
			c-2.193-2.195-4.902-3.322-7.5-3.438L69.281,1470.666z"/>
		<path style="fill:#E0A45C;" d="M432.062,1055.645l-8.125,8.157v20.563c-0.017,4.418,3.551,8.014,7.97,8.031
			c0.02,0,0.041,0,0.061,0h8.125c-4.419,0.016-8.015-3.553-8.031-7.971c0-0.02,0-0.041,0-0.061V1055.645z M460.687,1092.394
			l-24.094,23.969h8.125l24.094-23.969H460.687z"/>
	</g>
</g>
</svg>