<svg width="119" height="27" viewBox="0 0 119 27" fill="none" xmlns="http://www.w3.org/2000/svg">
<mask id="mask0_25_6451" style="mask-type:alpha" maskUnits="userSpaceOnUse" x="0" y="0" width="119" height="27">
<path d="M0.480347 10.1451C0.983565 8.94385 7.6602 1.0944 15.1687 1.0944C22.6772 1.0944 26.1012 10.2222 33.287 12.6531C55.8678 20.2921 57.7296 0.999973 70.6119 1C83.4941 1.00003 78.5716 15.084 88.0215 15.084C97.4715 15.084 94.4609 8.7608 100.492 9.05306C106.523 9.34532 108.508 17.7975 118 14.0279" stroke="#FF00F5" stroke-width="0.146899" stroke-linecap="round"/>
<path d="M0.480347 26.023C0.480348 25.0138 2.02736 21.5868 9.44221 21.5527C17.2122 21.5169 16.6899 24.2546 21.5404 25.7368C24.282 26.5745 25.4567 24.1622 27.8895 24.7447C31.5344 25.6174 34.4947 27.4996 39.3004 26.3049C44.1075 25.1098 39.4828 21.7831 46.4635 21.5185C54.3361 21.22 53.2106 25.5126 58.0885 26.6167C61.0842 27.2948 60.8752 25.0425 64.9024 25.1483C68.9296 25.2541 71.7684 27.599 78.1061 26.2344" stroke="#FF0000" stroke-width="0.146899" stroke-linecap="round"/>
<path d="M0.480347 10.4153C0.725819 9.80476 2.51473 7.5137 5.30107 5.45187C8.09606 3.39001 11.5431 1.54228 15.3241 1.57843C22.7163 1.59887 26.0855 10.4452 33.1553 12.831C55.2743 20.305 57.1629 1.5293 69.8482 1.50019C76.2495 1.47105 78.078 4.82504 79.7711 8.2537C81.4859 11.6815 82.5627 15.2214 87.2914 15.2483C96.584 15.2648 93.6417 9.04091 99.624 9.32862C105.606 9.61633 107.612 17.9196 117.027 14.2086" stroke="#FF00EF" stroke-width="0.146899"/>
<path d="M0.480347 10.6858C0.719682 10.0652 2.50255 7.74577 5.4046 5.73463C8.32397 3.72342 11.6718 1.99033 15.4795 2.06263C22.7554 2.10349 26.0698 10.6683 33.0237 13.0091C54.6808 20.318 56.5962 2.0588 69.0845 2.00054C75.4459 1.94226 77.1131 5.12923 78.9384 8.46556C80.8072 11.8002 81.8289 15.3589 86.5613 15.4127C95.6965 15.4458 92.8226 9.32119 98.756 9.60435C104.689 9.88751 106.716 18.0418 116.054 14.3895" stroke="#FF00E9" stroke-width="0.146899"/>
<path d="M0.480347 10.9572C0.713546 10.3266 2.49037 7.97879 5.50813 6.01834C8.55187 4.05778 11.8005 2.43933 15.6349 2.54778C22.7946 2.60908 26.054 10.8924 32.892 13.1881C54.0873 20.332 56.0295 2.58925 68.3208 2.50185C74.6424 2.41442 76.1483 5.43437 78.1057 8.67837C80.1285 11.9199 81.0951 15.4973 85.8313 15.5781C94.809 15.6277 92.0034 9.60242 97.8879 9.88104C103.772 10.1597 105.82 18.165 115.081 14.5713" stroke="#FF00E3" stroke-width="0.146899"/>
<path d="M0.480347 11.2291C0.707409 10.5886 2.47818 8.21234 5.61165 6.30259C8.77977 4.39268 11.9291 2.88887 15.7903 3.03346C22.8337 3.11519 26.0383 11.1171 32.7604 13.3677C53.4938 20.3466 55.4628 3.12023 67.5571 3.0037C73.8388 2.88712 75.1834 5.74005 77.273 8.89172C79.4497 12.0401 80.3613 15.6364 85.1012 15.7441C93.9215 15.8102 91.1843 9.88419 97.0199 10.1583C102.856 10.4323 104.924 18.2887 114.108 14.7537" stroke="#FF00DD" stroke-width="0.146899"/>
<path d="M0.480347 11.5014C0.701272 10.8509 2.466 8.44627 5.71518 6.58721C9.00768 4.72795 12.0578 3.33877 15.9457 3.51952C22.8729 3.62168 26.0226 11.3421 32.6287 13.5476C52.9003 20.3615 54.8961 3.65158 66.7934 3.50591C73.0353 3.36018 74.2185 6.0461 76.4403 9.10543C78.7709 12.1606 79.6275 15.7757 84.3711 15.9104C93.034 15.9931 90.3651 10.1663 96.1518 10.4358C101.939 10.7054 104.028 18.4128 113.135 14.9364" stroke="#FF00D7" stroke-width="0.146899"/>
<path d="M0.480347 11.7929C0.695135 11.1324 2.45381 8.69939 5.81871 6.89102C9.23558 5.08241 12.1865 3.80788 16.1011 4.02477C22.912 4.14736 26.0069 11.5863 32.4971 13.7467C52.3068 20.3956 54.3294 4.20214 66.0297 4.02732C72.2317 3.85245 73.2536 6.37135 75.6077 9.33835C78.0922 12.3004 78.8937 15.9343 83.6411 16.0959C92.1465 16.1951 89.5459 10.4677 95.2838 10.7326C101.022 10.9976 103.132 18.5561 112.162 15.1383" stroke="#FF00D1" stroke-width="0.146899"/>
<path d="M0.480347 12.0894C0.688999 11.419 2.44163 8.95757 5.92224 7.1999C9.46349 5.44194 12.3151 4.28204 16.2565 4.53509C22.9512 4.67811 25.9912 11.8356 32.3655 13.9509C51.7133 20.4347 53.7627 4.75775 65.266 4.5538C71.4282 4.34977 72.2888 6.70166 74.775 9.57632C77.4135 12.4452 78.1599 16.0979 82.911 16.2864C91.259 16.4022 88.7268 10.7741 94.4158 11.0345C100.105 11.2949 102.236 18.7044 111.189 15.3453" stroke="#FF00CB" stroke-width="0.146899"/>
<path d="M0.480347 12.3892C0.682862 11.7088 2.42944 9.21899 6.02577 7.512C9.69139 5.8047 12.4438 4.75943 16.4119 5.04863C22.9903 5.21209 25.9754 12.0881 32.2338 14.1584C51.1198 20.4771 53.196 5.31659 64.5023 5.0835C70.6246 4.85032 71.3239 7.0352 73.9423 9.81753C76.7347 12.5933 77.4261 16.2648 82.1809 16.4802C90.3715 16.6126 87.9076 11.0837 93.5477 11.3396C99.1878 11.5954 101.34 18.856 110.216 15.5556" stroke="#FF00C5" stroke-width="0.146899"/>
<path d="M0.480347 12.6922C0.676725 12.0019 2.41726 9.48361 6.1293 7.82732C9.91929 6.17067 12.5725 5.24004 16.5674 5.56539C23.0294 5.74927 25.9597 12.3438 32.1022 14.369C50.5263 20.5228 52.6293 5.87865 63.7386 5.61642C69.8211 5.35409 70.359 7.37195 73.1096 10.0619C76.056 12.7445 76.6923 16.4349 81.4509 16.6773C89.484 16.8261 87.0884 11.3965 92.6797 11.6479C98.2709 11.8992 100.444 19.0108 109.243 15.769" stroke="#FF00BF" stroke-width="0.146899"/>
<path d="M0.480347 12.9984C0.670588 12.2982 2.40508 9.75152 6.23283 8.14592C10.1472 6.53992 12.7011 5.72393 16.7228 6.08543C23.0686 6.28975 25.944 12.6028 31.9705 14.5829C49.9328 20.5716 52.0626 6.44399 62.9749 6.15261C69.0175 5.86114 69.3941 7.71198 72.2769 10.3096C75.3772 12.8991 75.9585 16.6083 80.7208 16.8775C88.5965 17.0429 86.2693 11.7126 91.8117 11.9594C97.354 12.2062 99.5475 19.1688 108.27 15.9857" stroke="#FF00B9" stroke-width="0.146899"/>
<path d="M0.480347 13.3096C0.664451 12.5994 2.39289 10.0244 6.33635 8.46944C10.3751 6.91409 12.8298 6.21274 16.8782 6.61038C23.1077 6.83513 25.9283 12.8668 31.8389 14.8018C49.3393 20.6255 51.4959 7.01424 62.2112 6.69373C68.214 6.37311 68.4292 8.05693 71.4442 10.5623C74.6985 13.0585 75.2247 16.7865 79.9907 17.0828C87.709 17.2647 85.4501 12.0337 90.9436 12.2759C96.4371 12.5181 98.6514 19.3318 107.297 16.2074" stroke="#FF00B3" stroke-width="0.146899"/>
<path d="M0.480347 13.6258C0.658315 12.9055 2.38071 10.3021 6.43988 8.79789C10.603 7.29319 12.9585 6.70648 17.0336 7.14027C23.1469 7.38546 25.9126 13.1356 31.7072 15.0256C48.7458 20.6842 50.9292 7.58943 61.4475 7.23978C67.4104 6.89001 67.4643 8.40682 70.6115 10.8198C74.0197 13.2229 74.4909 16.9698 79.2606 17.2929C86.8215 17.4914 84.6309 12.3597 90.0756 12.5973C95.5202 12.835 97.7553 19.4997 106.324 16.434" stroke="#FF00AD" stroke-width="0.146899"/>
<path d="M0.480347 13.9484C0.652178 13.2182 2.36852 10.5864 6.54341 9.13286C10.8309 7.67881 13.0872 7.20674 17.189 7.67668C23.186 7.9423 25.8969 13.411 31.5756 15.2558C48.1523 20.7495 50.3625 8.17114 60.6839 7.79235C66.6069 7.41343 66.4995 8.76322 69.7789 11.0839C73.341 13.3938 73.7571 17.1595 78.5306 17.5096C85.9341 17.7246 83.8118 12.6921 89.2075 12.9253C94.6033 13.1584 96.8592 19.6742 105.351 16.6671" stroke="#FF00A7" stroke-width="0.146899"/>
<path d="M0.480347 14.277C0.646041 13.5368 2.35634 10.8766 6.64694 9.47378C11.0588 8.07039 13.2158 7.71295 17.3444 8.21904C23.2252 8.50509 25.8811 13.6923 31.4439 15.4921C47.5588 20.8207 49.7958 8.7588 59.9202 8.35087C65.8033 7.9428 65.5346 9.12558 68.9462 11.3539C72.6623 13.5707 73.0233 17.3552 77.8005 17.7322C85.0466 17.9637 82.9926 13.0306 88.3395 13.2592C93.6864 13.4878 95.9631 19.8546 104.378 16.9061" stroke="#FF00A1" stroke-width="0.146899"/>
<path d="M0.480347 14.6142C0.639904 13.8641 2.34415 11.1754 6.75047 9.8233C11.2867 8.47056 13.3445 8.22776 17.4998 8.77C23.2643 9.07648 25.8654 13.9823 31.3123 15.7369C46.9653 20.9005 49.2291 9.35506 59.1565 8.91798C64.9998 8.48077 64.5697 9.49653 68.1135 11.6325C71.9835 13.7562 72.2895 17.5595 77.0704 17.9634C84.1591 18.2115 82.1735 13.3776 87.4715 13.6017C92.7694 13.8257 95.067 20.0435 103.405 17.1538" stroke="#FF009B" stroke-width="0.146899"/>
<path d="M0.480347 14.9601C0.633768 14.2 2.33197 11.483 6.85399 10.1815C11.5146 8.87946 13.4732 8.75129 17.6552 9.32968C23.3034 9.6566 25.8497 14.2809 31.1806 15.9905C46.3718 20.989 48.6623 9.96004 58.3928 9.49383C64.1962 9.02747 63.6048 9.87621 67.2808 11.9199C71.3047 13.9504 71.5556 17.7725 76.3403 18.2033C83.2716 18.4679 81.3543 13.7334 86.6034 13.9529C91.8525 14.1724 94.1708 20.2412 102.432 17.4101" stroke="#FF0095" stroke-width="0.146899"/>
<path d="M0.480347 15.3153C0.627631 14.5452 2.31979 11.7998 6.95753 10.549C11.7425 9.29758 13.6018 9.28405 17.8106 9.89859C23.3426 10.2459 25.834 14.5888 31.049 16.2533C45.7783 21.0868 48.0957 10.5742 57.6291 10.0789C63.3927 9.58338 62.6399 10.2651 66.4481 12.2164C70.626 14.1538 70.8219 17.9947 75.6103 18.4525C82.3841 18.7336 80.5352 14.0984 85.7354 14.3133C90.9356 14.5283 93.2748 20.4482 101.459 17.6757" stroke="#FF008F" stroke-width="0.146899"/>
<path d="M0.480347 15.6804C0.621494 14.9004 2.3076 12.1265 7.06105 10.9265C11.9704 9.72568 13.7305 9.8268 17.966 10.4775C23.3817 10.8453 25.8183 14.9066 30.9173 16.5261C45.1848 21.1945 47.5289 11.1984 56.8654 10.6739C62.5891 10.1493 61.6751 10.664 65.6154 12.523C69.9473 14.3672 70.0881 18.2269 74.8802 18.7116C81.4966 19.0093 79.716 14.4734 84.8673 14.6838C90.0187 14.8942 92.3787 20.6651 100.486 17.9513" stroke="#FF0089" stroke-width="0.146899"/>
<path d="M0.480347 16.0557C0.615357 15.2657 2.29542 12.4635 7.16458 11.3142C12.1983 10.164 13.8592 10.3798 18.1214 11.0666C23.4209 11.4548 25.8026 15.2347 30.7857 16.8091C44.5913 21.3125 46.9622 11.8329 56.1017 11.2792C61.7856 10.7254 60.7102 11.0731 64.7827 12.8398C69.2685 14.5908 69.3543 18.4694 74.1501 18.981C80.6091 19.2952 78.8968 14.8586 83.9993 15.0644C89.1018 15.2703 91.4826 20.8923 99.5125 18.2371" stroke="#FF0083" stroke-width="0.146899"/>
<path d="M0.480347 16.4418C0.60922 15.6418 2.28323 12.8112 7.26811 11.7125C12.4262 10.613 13.9878 10.9434 18.2768 11.6664C23.46 12.0751 25.7868 15.5735 30.6541 17.1028C43.9978 21.4412 46.3955 12.478 55.338 11.8952C60.9821 11.3122 59.7453 11.4929 63.95 13.1673C68.5898 14.8251 68.6205 18.7225 73.4201 19.2611C79.7216 19.5918 78.0777 15.2545 83.1313 15.4558C88.1849 15.6571 90.5865 21.1301 98.5395 18.5336" stroke="#FF007D" stroke-width="0.146899"/>
<path d="M0.480347 16.837C0.603084 16.0271 2.27105 13.1681 7.37164 12.1201C12.6541 11.0713 14.1165 11.5163 18.4323 12.2754C23.4991 12.7045 25.7711 15.9215 30.5224 17.4057C43.4043 21.579 45.8288 13.1323 54.5743 12.5204C60.1785 11.9083 58.7804 11.9219 63.1173 13.5039C67.911 15.0686 67.8866 18.9848 72.69 19.5503C78.8341 19.8976 77.2585 15.6596 82.2632 15.8563C87.2679 16.0531 89.6904 21.3771 97.5665 18.8393" stroke="#FF0077" stroke-width="0.146899"/>
<path d="M0.480347 17.2419C0.596947 16.4221 2.25886 13.5347 7.47517 12.5374C12.882 11.5392 14.2452 12.0988 18.5877 12.8941C23.5383 13.3436 25.7554 16.2791 30.3908 17.7182C42.8108 21.7266 45.2621 13.7963 53.8106 13.1552C59.3749 12.514 57.8155 12.3606 62.2846 13.8503C67.2323 15.3218 67.1528 19.2568 71.9599 19.8493C77.9466 20.2131 76.4393 16.0743 81.3952 16.2665C86.351 16.4587 88.7943 21.6338 96.5935 19.1547" stroke="#FF0071" stroke-width="0.146899"/>
<path d="M0.480347 17.6557C0.59081 16.8259 2.24668 13.9101 7.57869 12.9634C13.1099 12.0159 14.3739 12.6902 18.7431 13.5216C23.5774 13.9916 25.7397 16.6456 30.2591 18.0396C42.2173 21.8829 44.6954 14.4691 53.0469 13.7989C58.5714 13.1285 56.8506 12.8081 61.4519 14.2055C66.5535 15.5838 66.419 19.5377 71.2298 20.1571C77.0591 20.5374 75.6201 16.4979 80.5271 16.6856C85.4341 16.8733 87.8981 21.8994 95.6204 19.4789" stroke="#FF006B" stroke-width="0.146899"/>
<path d="M0.480347 18.0779C0.584673 17.2381 2.2345 14.2939 7.68223 13.3979C13.3378 12.5011 14.5025 13.29 18.8985 14.1576C23.6166 14.6479 25.724 17.0205 30.1275 18.3695C41.6238 22.0477 44.1287 15.1503 52.2832 14.451C57.7679 13.7514 55.8858 13.2641 60.6193 14.5691C65.8748 15.8543 65.6852 19.8269 70.4998 20.4732C76.1716 20.8701 74.801 16.93 79.6591 17.1131C84.5172 17.2962 87.0021 22.1734 94.6474 19.8115" stroke="#FF0066" stroke-width="0.146899"/>
<path d="M0.480347 18.5078C0.578537 17.658 2.22231 14.6854 7.78575 13.8401C13.5658 12.9939 14.6312 13.8975 19.0539 14.8012C23.6557 15.312 25.7082 17.4031 29.9958 18.707C41.0303 22.2202 43.562 15.8393 51.5195 15.1108C56.9643 14.3821 54.9209 13.7277 59.7866 14.9404C65.1961 16.1324 64.9514 20.1239 69.7697 20.7971C75.2841 21.2106 73.9818 17.3697 78.7911 17.5482C83.6003 17.7268 86.106 22.455 93.6744 20.1519" stroke="#FF0060" stroke-width="0.146899"/>
<path d="M0.480347 18.9437C0.5724 18.0839 2.21013 15.0829 7.88928 14.2884C13.7937 13.4928 14.7599 14.511 19.2093 15.4509C23.6949 15.9821 25.6925 17.7918 29.8642 19.0506C40.4368 22.3988 42.9953 16.5343 50.7558 15.7766C56.1608 15.0188 53.956 14.1974 58.9539 15.3177C64.5173 16.4166 64.2176 20.4269 69.0396 21.1271C74.3966 21.5571 73.1627 17.8154 77.923 17.9895C82.6834 18.1635 85.2099 22.7427 92.7014 20.4982" stroke="#FF005A" stroke-width="0.146899"/>
<path d="M0.480347 19.3862C0.566263 18.5165 2.19794 15.4871 7.99281 14.7433C14.0216 13.9983 14.8885 15.1312 19.3647 16.1072C23.734 16.6589 25.6768 18.1871 29.7325 19.4007C39.8433 22.5839 42.4286 17.2359 49.9921 16.4491C55.3572 15.6621 52.9911 14.6737 58.1212 15.7017C63.8386 16.7074 63.4838 20.7366 68.3096 21.4636C73.5091 21.9102 72.3435 18.2678 77.055 18.4373C81.7664 18.6068 84.3138 23.0371 91.7284 20.8512" stroke="#FF0054" stroke-width="0.146899"/>
<path d="M0.480347 19.8343C0.560126 18.9546 2.18576 15.8968 8.09634 15.2037C14.2495 14.5094 15.0172 15.7569 19.5201 16.7691C23.7731 17.3412 25.6611 18.5879 29.6009 19.7565C39.2498 22.7746 41.8619 17.943 49.2284 17.1271C54.5537 16.311 52.0262 15.1555 57.2885 16.0912C63.1598 17.0038 62.75 21.0517 67.5795 21.8057C72.6216 22.2688 71.5243 18.7258 76.1869 18.8907C80.8495 19.0556 83.4177 23.3369 90.7553 21.2098" stroke="#FF004E" stroke-width="0.146899"/>
<path d="M0.480347 20.2869C0.55399 19.3972 2.17357 16.311 8.19987 15.6686C14.4774 15.0249 15.1459 16.3871 19.6755 17.4354C23.8123 18.0279 25.6454 18.9932 29.4692 20.1167C38.6564 22.9698 41.2952 18.6547 48.4647 17.8096C53.7501 16.9643 51.0614 15.6419 56.4558 16.4852C62.4811 17.3046 62.0162 21.3714 66.8494 22.1523C71.7342 22.6319 70.7052 19.1882 75.3189 19.3486C79.9326 19.5089 82.5216 23.6413 89.7824 21.5728" stroke="#FF0048" stroke-width="0.146899"/>
<path d="M0.480347 20.7442C0.547853 19.8446 2.16139 16.73 8.3034 16.1382C14.7053 15.5452 15.2745 17.022 19.8309 18.1065C23.8514 18.7194 25.6296 19.4032 29.3376 20.4817C38.0628 23.1698 40.7285 19.371 47.701 18.4969C52.9466 17.6224 50.0965 16.1329 55.6231 16.8839C61.8023 17.6102 61.2824 21.6958 66.1193 22.5037C70.8467 22.9998 69.886 19.6554 74.4508 19.8112C79.0157 19.967 81.6255 23.9504 88.8093 21.9406" stroke="#FF0042" stroke-width="0.146899"/>
<path d="M0.480347 21.2056C0.541716 20.296 2.14921 17.153 8.40692 16.6119C14.9332 16.0696 15.4032 17.661 19.9863 18.7816C23.8906 19.415 25.6139 19.8173 29.206 20.8507C37.4694 23.3737 40.1618 20.0915 46.9373 19.1882C52.143 18.2846 49.1316 16.6281 54.7904 17.2867C61.1236 17.9198 60.5486 22.0242 65.3893 22.859C69.9592 23.3717 69.0669 20.1266 73.5828 20.2778C78.0988 20.4291 80.7294 24.2636 87.8363 22.3124" stroke="#FF003C" stroke-width="0.146899"/>
<path d="M0.480347 21.6708C0.535579 20.7513 2.13702 17.5799 8.51045 17.0895C15.1611 16.5978 15.5319 18.3039 20.1417 19.4606C23.9297 20.1145 25.5982 20.2353 29.0743 21.2236C36.8758 23.5816 39.5951 20.8158 46.1736 19.8833C51.3395 18.9506 48.1667 17.1271 53.9577 17.6934C60.4448 18.2334 59.8148 22.3566 64.6592 23.2183C69.0717 23.7475 68.2477 20.6017 72.7148 20.7484C77.1818 20.8951 79.8333 24.5806 86.8633 22.6881" stroke="#FF0036" stroke-width="0.146899"/>
<path d="M0.480347 22.1391C0.529442 21.2096 2.12484 18.0099 8.61398 17.5701C15.389 17.1291 15.6606 18.9498 20.2971 20.1427C23.9688 20.817 25.5825 20.6564 28.9427 21.5996C36.2824 23.7926 39.0284 21.5432 45.41 20.5816C50.5359 19.6197 47.2018 17.6292 53.1251 18.1032C59.7661 18.55 59.081 22.692 63.9291 23.5807C68.1842 24.1264 67.4285 21.0799 71.8467 21.222C76.2649 21.3642 78.9372 24.9007 85.8903 23.0669" stroke="#FF0030" stroke-width="0.146899"/>
<path d="M0.480347 22.6105C0.523306 21.671 2.11265 18.4428 8.71751 18.0538C15.6169 17.6634 15.7892 19.5987 20.4526 20.8278C24.008 21.5225 25.5668 21.0804 28.811 21.9785C35.6889 24.0065 38.4617 22.2736 44.6463 21.2828C49.7324 20.2918 46.237 18.1342 52.2924 18.5159C59.0873 18.8695 58.3472 23.0304 63.199 23.946C67.2967 24.5083 66.6094 21.561 70.9787 21.6986C75.348 21.8363 78.0411 25.2239 84.9172 23.4486" stroke="#FF002A" stroke-width="0.146899"/>
<path d="M0.480347 23.0845C0.517169 22.135 2.10047 18.8785 8.82104 18.5401C15.8448 18.2004 15.9179 20.2504 20.608 21.5156C24.0471 22.2307 25.5511 21.5072 28.6794 22.3602C35.0954 24.2231 37.8949 23.0066 43.8826 21.9868C48.9288 20.9666 45.2721 18.642 51.4597 18.9314C58.4086 19.1918 57.6134 23.3715 62.469 24.314C66.4092 24.8929 65.7902 22.0449 70.1106 22.178C74.4311 22.311 77.145 25.5497 83.9442 23.8331" stroke="#FF0024" stroke-width="0.146899"/>
<path d="M0.480347 23.5617C0.511032 22.6023 2.08828 19.3173 8.92457 19.0297C16.0727 18.7406 16.0466 20.9052 20.7634 22.2066C24.0863 22.9421 25.5353 21.9371 28.5477 22.7451C34.5019 24.443 37.3282 23.7429 43.1189 22.6939C48.1253 21.6446 44.3072 19.153 50.627 19.35C57.7298 19.5173 56.8796 23.7158 61.7389 24.6853C65.5217 25.2806 64.971 22.5319 69.2426 22.6605C73.5142 22.789 76.2489 25.8787 82.9712 24.2208" stroke="#FF001E" stroke-width="0.146899"/>
<path d="M0.480347 24.0402C0.504895 23.0708 2.0761 19.7574 9.0281 19.5205C16.3006 19.2821 16.1752 21.5613 20.9188 22.8988C24.1254 23.6548 25.5196 22.3684 28.4161 23.1312C33.9084 24.6641 36.7615 24.4805 42.3552 23.4023C47.3217 22.3238 43.3423 19.6652 49.7943 19.7699C57.0511 19.8441 56.1458 24.0614 61.0088 25.0578C64.6342 25.6697 64.1519 23.0203 68.3746 23.1443C72.5973 23.2683 75.3528 26.209 81.9982 24.6097" stroke="#FF0018" stroke-width="0.146899"/>
<path d="M0.480347 24.5214C0.498759 23.5421 2.06392 20.2003 9.13162 20.0141C16.5285 19.8263 16.3039 22.2202 21.0742 23.5939C24.1646 24.3703 25.5039 22.8024 28.2844 23.5201C33.3149 24.888 36.1948 25.2208 41.5915 24.1135C46.5182 23.0059 42.3774 20.1803 48.9616 20.1926C56.3724 20.1736 55.412 24.4098 60.2788 25.4331C63.7467 26.0615 63.3327 23.5114 67.5065 23.6308C71.6804 23.7503 74.4567 26.542 81.0252 25.0014" stroke="#FF0012" stroke-width="0.146899"/>
<path d="M0.480347 25.0036C0.492622 24.0143 2.05173 20.6441 9.23515 20.5086C16.7564 20.3715 16.4326 22.88 21.2296 24.2898C24.2037 25.0866 25.4882 23.2372 28.1528 23.9099C32.7214 25.1127 35.6281 25.962 40.8278 24.8256C45.7146 23.6888 41.4126 20.6962 48.1289 20.6162C55.6936 20.504 54.6782 24.759 59.5487 25.8092C62.8592 26.4542 62.5136 24.0034 66.6385 24.1183C70.7634 24.2332 73.5606 26.876 80.0522 25.3941" stroke="#FF000C" stroke-width="0.146899"/>
<path d="M0.480347 25.4882C0.486485 24.4889 2.03955 21.0904 9.33868 21.0055C16.9843 20.919 16.5613 23.5422 21.385 24.9882C24.2428 25.8054 25.4725 23.6746 28.0211 24.3022C32.1279 25.34 35.0614 26.7057 40.0641 25.5401C44.9111 24.3742 40.4477 21.2146 47.2962 21.0422C55.0149 20.8369 53.9444 25.1107 58.8186 26.1879C61.9717 26.8494 61.6944 24.4979 65.7705 24.6082C69.8465 24.7185 72.6645 27.2124 79.0791 25.7891" stroke="#FF0006" stroke-width="0.146899"/>
</mask>
<g mask="url(#mask0_25_6451)">
<ellipse cx="66.7949" cy="12.064" rx="88.1396" ry="35.2559" fill="url(#paint0_radial_25_6451)"/>
</g>
<defs>
<radialGradient id="paint0_radial_25_6451" cx="0" cy="0" r="1" gradientUnits="userSpaceOnUse" gradientTransform="translate(56.7218 12.064) rotate(92.4896) scale(19.325 48.3125)">
<stop stop-color="#FF000C"/>
<stop offset="1" stop-color="#F5C600"/>
</radialGradient>
</defs>
</svg>
