<svg width="63" height="15" viewBox="0 0 63 15" fill="none" xmlns="http://www.w3.org/2000/svg">
<mask id="mask0_25_6361" style="mask-type:alpha" maskUnits="userSpaceOnUse" x="0" y="0" width="63" height="15">
<path d="M1 5.71845C1.2612 5.09493 4.72679 1.02057 8.62417 1.02057C12.5215 1.02057 14.2988 5.75845 18.0287 7.02025C29.7496 10.9854 30.716 0.971559 37.4027 0.971573C44.0894 0.971587 41.5342 8.28205 46.4393 8.28205C51.3445 8.28205 49.7818 4.99991 52.9123 5.15161C56.0429 5.30332 57.0734 9.69055 62 7.73384" stroke="#FF00F5" stroke-width="0.07625" stroke-linecap="round"/>
<path d="M1 13.9601C1 13.4362 1.803 11.6574 5.65177 11.6397C9.68488 11.6211 9.41379 13.0422 11.9315 13.8115C13.3545 14.2463 13.9643 12.9942 15.2271 13.2965C17.119 13.7496 18.6556 14.7265 21.15 14.1064C23.6452 13.4861 21.2447 11.7593 24.8682 11.622C28.9545 11.467 28.3703 13.6952 30.9023 14.2683C32.4572 14.6202 32.3487 13.4512 34.4391 13.5061C36.5295 13.561 38.003 14.7781 41.2926 14.0698" stroke="#FF0000" stroke-width="0.07625" stroke-linecap="round"/>
<path d="M1 5.85878C1.12742 5.54185 2.05597 4.35264 3.50226 3.28243C4.95303 2.21219 6.74227 1.2531 8.70483 1.27187C12.5419 1.28247 14.2907 5.87425 17.9604 7.11265C29.4415 10.9921 30.4218 1.24636 37.0063 1.23125C40.3289 1.21613 41.2781 2.95706 42.1569 4.73675C43.047 6.51601 43.6059 8.3534 46.0604 8.36738C50.8838 8.37596 49.3566 5.14536 52.4618 5.2947C55.5669 5.44404 56.6082 9.75396 61.4949 7.8277" stroke="#FF00EF" stroke-width="0.07625"/>
<path d="M1 5.99931C1.12423 5.67721 2.04965 4.47326 3.55599 3.42936C5.07133 2.38541 6.80906 1.48583 8.7855 1.52336C12.5622 1.54457 14.2825 5.99025 17.892 7.20525C29.1334 10.9991 30.1277 1.52137 36.6099 1.49113C39.9118 1.46088 40.7772 3.11511 41.7247 4.84688C42.6947 6.57779 43.225 8.42494 45.6814 8.4529C50.4231 8.47007 48.9314 5.291 52.0112 5.43798C55.091 5.58496 56.1431 9.81756 60.9899 7.92175" stroke="#FF00E9" stroke-width="0.07625"/>
<path d="M1 6.1401C1.12104 5.81283 2.04333 4.59414 3.60973 3.57655C5.18963 2.55889 6.87584 1.71881 8.86617 1.77511C12.5825 1.80692 14.2743 6.1065 17.8237 7.2981C28.8254 11.0062 29.8335 1.79663 36.2135 1.75127C39.4947 1.70588 40.2764 3.27343 41.2924 4.95727C42.3424 6.63982 42.8441 8.49674 45.3025 8.53868C49.9625 8.56443 48.5062 5.43691 51.5606 5.58153C54.6151 5.72614 55.678 9.88142 60.4848 8.01606" stroke="#FF00E3" stroke-width="0.07625"/>
<path d="M1 6.28116C1.11786 5.9487 2.037 4.71528 3.66347 3.724C5.30792 2.73263 6.94263 1.95206 8.94683 2.02712C12.6028 2.06954 14.2662 6.22302 17.7554 7.39122C28.5173 11.0137 29.5393 2.07215 35.817 2.01166C39.0776 1.95115 39.7756 3.432 40.8602 5.06792C41.99 6.70212 42.4632 8.56881 44.9235 8.62472C49.5018 8.65905 48.081 5.58307 51.1101 5.72533C54.1391 5.86759 55.2128 9.94555 59.9798 8.11063" stroke="#FF00DD" stroke-width="0.07625"/>
<path d="M1 6.42254C1.11467 6.08492 2.03068 4.83675 3.71721 3.87178C5.42622 2.90671 7.00942 2.18564 9.0275 2.27946C12.6231 2.33249 14.258 6.33987 17.687 7.48467C28.2092 11.0215 29.2452 2.34801 35.4206 2.2724C38.6605 2.19675 39.2747 3.59091 40.428 5.1789C41.6377 6.76474 42.0823 8.6412 44.5446 8.71109C49.0411 8.75401 47.6558 5.72957 50.6595 5.86947C53.6632 6.00936 54.7477 10.01 59.4747 8.20554" stroke="#FF00D7" stroke-width="0.07625"/>
<path d="M1 6.57364C1.11149 6.23084 2.02435 4.96793 3.77095 4.02928C5.54452 3.0905 7.07621 2.42893 9.10816 2.54152C12.6434 2.60515 14.2499 6.46644 17.6187 7.58783C27.9012 11.039 28.951 2.63358 35.0242 2.54284C38.2435 2.45207 38.7739 3.75954 39.9958 5.29959C41.2854 6.83708 41.7014 8.72331 44.1656 8.80718C48.5805 8.85868 47.2306 5.88578 50.2089 6.02332C53.1873 6.16085 54.2826 10.0842 58.9696 8.31016" stroke="#FF00D1" stroke-width="0.07625"/>
<path d="M1 6.72773C1.1083 6.37976 2.01803 5.10211 3.82468 4.18977C5.66281 3.27728 7.14299 2.67522 9.18883 2.80656C12.6638 2.8808 14.2417 6.59599 17.5504 7.69398C27.5931 11.0595 28.6569 2.92214 34.6278 2.81628C37.8264 2.71037 38.2731 3.93115 39.5636 5.42328C40.9331 6.91242 41.3206 8.80841 43.7867 8.90626C48.1198 8.96635 46.8054 6.04498 49.7584 6.18016C52.7113 6.31533 53.8174 10.1613 58.4646 8.41776" stroke="#FF00CB" stroke-width="0.07625"/>
<path d="M1 6.88326C1.10512 6.53011 2.0117 5.23773 3.87842 4.35169C5.78111 3.4655 7.20978 2.92294 9.2695 3.07305C12.6841 3.15789 14.2336 6.72698 17.482 7.80158C27.2851 11.0814 28.3627 3.21214 34.2314 3.09115C37.4093 2.97012 37.7722 4.1042 39.1314 5.54841C40.5808 6.98919 40.9397 8.89495 43.4077 9.00678C47.6591 9.07545 46.3802 6.20562 49.3078 6.33844C52.2354 6.47125 53.3523 10.2399 57.9595 8.52681" stroke="#FF00C5" stroke-width="0.07625"/>
<path d="M1 7.04045C1.10193 6.68213 2.00538 5.37501 3.93216 4.51529C5.8994 3.65538 7.27657 3.17233 9.35016 3.3412C12.7044 3.43665 14.2254 6.85965 17.4137 7.91084C26.977 11.105 28.0686 3.50381 33.835 3.36769C36.9922 3.23153 37.2714 4.27892 38.6991 5.6752C40.2285 7.06763 40.5588 8.98316 43.0288 9.10896C47.1985 9.18622 45.955 6.36793 48.8572 6.49838C51.7594 6.62884 52.8872 10.3202 57.4545 8.63753" stroke="#FF00BF" stroke-width="0.07625"/>
<path d="M1 7.19961C1.09875 6.83611 1.99906 5.51425 3.9859 4.68084C6.0177 3.84722 7.34336 3.42368 9.43083 3.61131C12.7247 3.71737 14.2172 6.99426 17.3454 8.02205C26.6689 11.1306 27.7744 3.79743 33.4386 3.64619C36.5751 3.4949 36.7706 4.4556 38.2669 5.80395C39.8762 7.14802 40.1779 9.07332 42.6498 9.2131C46.7378 9.29894 45.5298 6.53219 48.4067 6.66029C51.2835 6.78838 52.422 10.4024 56.9494 8.7502" stroke="#FF00B9" stroke-width="0.07625"/>
<path d="M1 7.36106C1.09556 6.99239 1.99273 5.65579 4.03963 4.84869C6.136 4.04137 7.41015 3.67732 9.5115 3.88372C12.745 4.00038 14.2091 7.13118 17.277 8.13557C26.3609 11.1584 27.4803 4.09335 33.0422 3.92699C36.158 3.76056 36.2697 4.63457 37.8347 5.935C39.5239 7.23072 39.797 9.16579 42.2709 9.31954C46.2772 9.41397 45.1046 6.69876 47.9561 6.82449C50.8076 6.95022 51.9569 10.4869 56.4444 8.86517" stroke="#FF00B3" stroke-width="0.07625"/>
<path d="M1 7.5252C1.09238 7.15136 1.98641 5.80001 4.09337 5.01923C6.25429 4.2382 7.47693 3.93366 9.59216 4.15882C12.7653 4.28609 14.2009 7.27079 17.2087 8.25177C26.0528 11.189 27.1861 4.39196 32.6458 4.21047C35.7409 4.02892 35.7689 4.81624 37.4025 6.06874C39.1716 7.3161 39.4161 9.26094 41.8919 9.42867C45.8165 9.53168 44.6794 6.86801 47.5055 6.99138C50.3316 7.11475 51.4918 10.5742 55.9393 8.98283" stroke="#FF00AD" stroke-width="0.07625"/>
<path d="M1 7.69245C1.08919 7.31344 1.98008 5.94735 4.14711 5.19288C6.37259 4.43814 7.54372 4.1931 9.67283 4.43703C12.7857 4.5749 14.1928 7.4135 17.1404 8.37109C25.7447 11.2226 26.8919 4.69369 32.2494 4.49707C35.3238 4.30039 35.2681 5.00101 36.9703 6.20559C38.8192 7.40459 39.0352 9.3592 41.513 9.54091C45.3558 9.65251 44.2542 7.04037 47.055 7.16139C49.8557 7.2824 51.0266 10.6645 55.4342 9.10361" stroke="#FF00A7" stroke-width="0.07625"/>
<path d="M1 7.86332C1.08601 7.47913 1.97376 6.09831 4.20085 5.37015C6.49089 4.6417 7.61051 4.45616 9.7535 4.71886C12.806 4.86733 14.1846 7.55984 17.072 8.49402C25.4367 11.2599 26.5978 4.99903 31.853 4.78728C34.9067 4.57547 34.7672 5.18941 36.538 6.34605C38.4669 7.4967 38.6543 9.46108 41.134 9.65677C44.8952 9.77695 43.8291 7.21635 46.6044 7.335C49.3798 7.45366 50.5615 10.7584 54.9292 9.22799" stroke="#FF00A1" stroke-width="0.07625"/>
<path d="M1 8.03825C1.08282 7.64889 1.96743 6.25333 4.25459 5.55148C6.60918 4.84932 7.6773 4.72329 9.83417 5.00475C12.8263 5.16383 14.1764 7.71023 17.0037 8.62102C25.1286 11.3012 26.3036 5.30843 31.4566 5.08156C34.4896 4.85462 34.2664 5.38186 36.1058 6.49058C38.1146 7.59288 38.2734 9.56702 40.7551 9.77669C44.4345 9.90545 43.4039 7.3964 46.1538 7.51269C48.9038 7.62898 50.0964 10.8564 54.4241 9.35644" stroke="#FF009B" stroke-width="0.07625"/>
<path d="M1 8.21773C1.07964 7.82319 1.96111 6.41289 4.30832 5.73735C6.72748 5.06149 7.74409 4.99496 9.91483 5.29518C12.8466 5.46487 14.1683 7.86518 16.9354 8.75256C24.8206 11.3471 26.0095 5.62238 31.0602 5.38038C34.0725 5.13831 33.7656 5.57886 35.6736 6.63966C37.7623 7.6936 37.8925 9.67751 40.3761 9.90116C43.9738 10.0385 42.9787 7.58099 45.7033 7.69492C48.4279 7.80885 49.6313 10.959 53.9191 9.48944" stroke="#FF0095" stroke-width="0.07625"/>
<path d="M1 8.40212C1.07645 8.00241 1.95478 6.57737 4.36206 5.92815C6.84578 5.27857 7.81088 5.27155 9.9955 5.59053C12.8669 5.77083 14.1601 8.02504 16.867 8.88902C24.5125 11.3979 25.7153 5.94124 30.6638 5.68412C33.6555 5.42692 33.2647 5.78078 35.2414 6.79365C37.41 7.79923 37.5117 9.79292 39.9971 10.0305C43.5132 10.1765 42.5535 7.77049 45.2527 7.88206C47.952 7.99363 49.1661 11.0664 53.414 9.62736" stroke="#FF008F" stroke-width="0.07625"/>
<path d="M1 8.59168C1.07326 8.1868 1.94846 6.74702 4.4158 6.1241C6.96407 5.50082 7.87766 5.5533 10.0762 5.89105C12.8872 6.08195 14.152 8.19006 16.7987 9.03064C24.2044 11.4539 25.4212 6.26527 30.2674 5.99303C33.2384 5.7207 32.7639 5.98786 34.8092 6.9528C37.0577 7.91004 37.1308 9.91349 39.6182 10.1651C43.0525 10.3196 42.1283 7.96516 44.8021 8.07437C47.476 8.18358 48.701 11.1791 52.909 9.77043" stroke="#FF0089" stroke-width="0.07625"/>
<path d="M1 8.78657C1.07008 8.37651 1.94214 6.92199 4.46954 6.32539C7.08237 5.72839 7.94445 5.84038 10.1568 6.19689C12.9076 6.3984 14.1438 8.36041 16.7304 9.17759C23.8964 11.5152 25.127 6.59463 29.871 6.30726C32.8213 6.0198 32.2631 6.20027 34.377 7.11728C36.7054 8.02616 36.7499 10.0394 39.2392 10.305C42.5918 10.4681 41.7031 8.16516 44.3516 8.27201C47.0001 8.37886 48.2359 11.297 52.4039 9.91884" stroke="#FF0083" stroke-width="0.07625"/>
<path d="M1 8.98675C1.06689 8.57152 1.93581 7.10226 4.52327 6.53197C7.20066 5.96126 8.01124 6.13276 10.2375 6.50803C12.9279 6.72014 14.1357 8.53606 16.662 9.32984C23.5883 11.5817 24.8329 6.92928 29.4746 6.62679C32.4042 6.32419 31.7622 6.41798 33.9447 7.28706C36.3531 8.14759 36.369 10.1706 38.8603 10.4501C42.1312 10.6218 41.2779 8.37045 43.901 8.47494C46.5241 8.57943 47.7707 11.4203 51.8988 10.0725" stroke="#FF007D" stroke-width="0.07625"/>
<path d="M1 9.19206C1.06371 8.77166 1.92949 7.28766 4.57701 6.74368C7.31896 6.19927 8.07803 6.43027 10.3182 6.82431C12.9482 7.04702 14.1275 8.71684 16.5937 9.48722C23.2802 11.6535 24.5387 7.26907 29.0782 6.95145C31.9871 6.63373 31.2614 6.64082 33.5125 7.46198C36.0008 8.27415 35.9881 10.3069 38.4813 10.6004C41.6705 10.7807 40.8527 8.58088 43.4504 8.68301C46.0482 8.78514 47.3056 11.5487 51.3938 10.2314" stroke="#FF0077" stroke-width="0.07625"/>
<path d="M1 9.40229C1.06052 8.97672 1.92316 7.47798 4.63075 6.96031C7.43726 6.44219 8.14482 6.73269 10.3988 7.1455C12.9685 7.37882 14.1193 8.90254 16.5254 9.64951C22.9722 11.7301 24.2445 7.61377 28.6817 7.28102C31.57 6.94817 30.7606 6.86857 33.0803 7.64181C35.6484 8.40562 35.6072 10.4481 38.1024 10.7557C41.2099 10.9445 40.4275 8.79623 42.9999 8.89599C45.5723 8.99576 46.8405 11.682 50.8887 10.3951" stroke="#FF0071" stroke-width="0.07625"/>
<path d="M1 9.61711C1.05734 9.18637 1.91684 7.67289 4.68449 7.18153C7.55555 6.6897 8.2116 7.03971 10.4795 7.47127C12.9888 7.7152 14.1112 9.09282 16.457 9.8164C22.6641 11.8113 23.9504 7.96306 28.2853 7.61519C31.1529 7.26721 30.2597 7.10092 32.6481 7.82622C35.2961 8.54168 35.2263 10.594 37.7234 10.9155C40.7492 11.1129 40.0023 9.01616 42.5493 9.11356C45.0963 9.21097 46.3753 11.8199 50.3837 10.5635" stroke="#FF006B" stroke-width="0.07625"/>
<path d="M1 9.83617C1.05415 9.40025 1.91051 7.87203 4.73823 7.40699C7.67385 6.94145 8.27839 7.35096 10.5602 7.80129C13.0092 8.05582 14.103 9.28734 16.3887 9.98752C22.3561 11.8968 23.6562 8.31659 27.8889 7.95359C30.7358 7.59048 29.7589 7.33749 32.2159 8.01487C34.9438 8.68198 34.8454 10.744 37.3445 11.0795C40.2885 11.2855 39.5771 9.24032 42.0987 9.33537C44.6204 9.43041 45.9102 11.962 49.8786 10.736" stroke="#FF0066" stroke-width="0.07625"/>
<path d="M1 10.0591C1.05097 9.61799 1.90419 8.07503 4.79196 7.6363C7.79214 7.19705 8.34518 7.66606 10.6408 8.13516C13.0295 8.4003 14.0949 9.48572 16.3204 10.1625C22.048 11.9861 23.3621 8.67397 27.4925 8.29585C30.3187 7.91761 29.2581 7.57793 31.7836 8.20739C34.5915 8.82614 34.4645 10.898 36.9655 11.2474C39.8279 11.462 39.1519 9.46835 41.6482 9.56103C44.1445 9.65372 45.4451 12.108 49.3736 10.9125" stroke="#FF0060" stroke-width="0.07625"/>
<path d="M1 10.2855C1.04778 9.83926 1.89786 8.28156 4.8457 7.86915C7.91044 7.45619 8.41197 7.98471 10.7215 8.47257C13.0498 8.74831 14.0867 9.68764 16.2521 10.341C21.7399 12.0789 23.0679 9.03489 27.0961 8.64164C29.9016 8.24827 28.7572 7.82191 31.3514 8.40343C34.2392 8.97383 34.0836 11.0554 36.5866 11.4189C39.3672 11.642 38.7267 9.69991 41.1976 9.79024C43.6685 9.88056 44.9799 12.2575 48.8685 11.0924" stroke="#FF005A" stroke-width="0.07625"/>
<path d="M1 10.5152C1.0446 10.0637 1.89154 8.49128 4.89944 8.10518C8.02874 7.71851 8.47876 8.30654 10.8022 8.81316C13.0701 9.09951 14.0785 9.89273 16.1837 10.5227C21.4319 12.175 22.7738 9.399 26.6997 8.99062C29.4845 8.58212 28.2564 8.06906 30.9192 8.60266C33.8869 9.1247 33.7028 11.2161 36.2076 11.5935C38.9065 11.8252 38.3015 9.93466 40.747 10.0226C43.1926 10.1106 44.5148 12.4102 48.3634 11.2756" stroke="#FF0054" stroke-width="0.07625"/>
<path d="M1 10.7477C1.04141 10.291 1.88522 8.70386 4.95318 8.34407C8.14703 7.98369 8.54554 8.63122 10.8828 9.1566C13.0904 9.45356 14.0704 10.1007 16.1154 10.7073C21.1238 12.2739 22.4796 9.76596 26.3033 9.34246C29.0674 8.91883 27.7556 8.31908 30.487 8.80475C33.5346 9.27844 33.3219 11.3796 35.8287 11.771C38.4459 12.0113 37.8763 10.1723 40.2965 10.2579C42.7166 10.3435 44.0497 12.5657 47.8584 11.4616" stroke="#FF004E" stroke-width="0.07625"/>
<path d="M1 10.9828C1.03823 10.521 1.87889 8.91904 5.00692 8.58556C8.26533 8.25148 8.61233 8.95851 10.9635 9.50266C13.1107 9.81022 14.0622 10.3112 16.0471 10.8944C20.8157 12.3754 22.1855 10.1355 25.9069 9.6969C28.6503 9.25814 27.2547 8.5717 30.0548 9.00944C33.1823 9.43477 32.941 11.5457 35.4497 11.951C37.9852 12.2 37.4511 10.4125 39.8459 10.4957C42.2407 10.5789 43.5845 12.7239 47.3533 11.6502" stroke="#FF0048" stroke-width="0.07625"/>
<path d="M1 11.2202C1.03504 10.7532 1.87257 9.13656 5.06065 8.82939C8.38363 8.5216 8.67912 9.28813 11.0442 9.85104C13.1311 10.1692 14.0541 10.5241 15.9787 11.0839C20.5077 12.4792 21.8913 10.5074 25.5105 10.0537C28.2333 9.59978 26.7539 8.82665 29.6226 9.21647C32.83 9.59344 32.5601 11.7141 35.0708 12.1335C37.5245 12.391 37.0259 10.655 39.3953 10.7359C41.7648 10.8168 43.1194 12.8844 46.8483 11.8412" stroke="#FF0042" stroke-width="0.07625"/>
<path d="M1 11.4597C1.03185 10.9876 1.86624 9.35616 5.11439 9.0753C8.50192 8.7938 8.74591 9.61984 11.1248 10.2015C13.1514 10.5303 14.0459 10.7391 15.9104 11.2755C20.1996 12.5851 21.5971 10.8814 25.1141 10.4125C27.8162 9.94351 26.2531 9.08368 29.1903 9.42558C32.4776 9.7542 32.1792 11.8846 34.6918 12.318C37.0639 12.5841 36.6007 10.8996 38.9448 10.9781C41.2888 11.0567 42.6543 13.047 46.3432 12.0342" stroke="#FF003C" stroke-width="0.07625"/>
<path d="M1 11.7011C1.02867 11.2238 1.85992 9.57765 5.16813 9.32311C8.62022 9.0679 8.81269 9.95344 11.2055 10.5539C13.1717 10.8933 14.0377 10.956 15.8421 11.469C19.8915 12.6929 21.303 11.2573 24.7177 10.7733C27.3991 10.2891 25.7522 9.34262 28.7581 9.63658C32.1253 9.91685 31.7983 12.0571 34.3128 12.5044C36.6032 12.779 36.1755 11.1462 38.4942 11.2223C40.8129 11.2985 42.1891 13.2115 45.8382 12.2291" stroke="#FF0036" stroke-width="0.07625"/>
<path d="M1 11.9442C1.02548 11.4618 1.85359 9.80088 5.22187 9.57265C8.73851 9.34373 8.87948 10.2888 11.2862 10.908C13.192 11.258 14.0296 11.1746 15.7737 11.6642C19.5835 12.8025 21.0088 11.6349 24.3213 11.1358C26.982 10.6365 25.2514 9.60328 28.3259 9.84932C31.773 10.0812 31.4174 12.2312 33.9339 12.6925C36.1425 12.9758 35.7503 11.3944 38.0436 11.4682C40.3369 11.542 41.724 13.3777 45.3331 12.4258" stroke="#FF0030" stroke-width="0.07625"/>
<path d="M1 12.1889C1.0223 11.7013 1.84727 10.0257 5.2756 9.82374C8.85681 9.62111 8.94627 10.6257 11.3668 11.2636C13.2123 11.6242 14.0214 11.3948 15.7054 11.8609C19.2754 12.9136 20.7147 12.0141 23.9249 11.4998C26.5649 10.9854 24.7505 9.86549 27.8937 10.0636C31.4207 10.2472 31.0365 12.4069 33.5549 12.8822C35.6819 13.174 35.3251 11.6442 37.5931 11.7156C39.861 11.7871 41.2589 13.5454 44.828 12.624" stroke="#FF002A" stroke-width="0.07625"/>
<path d="M1 12.435C1.01911 11.9422 1.84094 10.2518 5.32934 10.0762C8.97511 9.8999 9.01306 10.964 11.4475 11.6207C13.2326 11.9919 14.0133 11.6163 15.6371 12.0591C18.9674 13.0261 20.4205 12.3946 23.5285 11.8653C26.1478 11.3357 24.2497 10.1291 27.4615 10.2793C31.0684 10.4145 30.6556 12.584 33.176 13.0732C35.2212 13.3737 34.8999 11.8954 37.1425 11.9645C39.3851 12.0336 40.7937 13.7146 44.323 12.8236" stroke="#FF0024" stroke-width="0.07625"/>
<path d="M1 12.6824C1.01593 12.1844 1.83462 10.4793 5.38308 10.33C9.0934 10.1799 9.07985 11.3035 11.5282 11.979C13.253 12.3608 14.0051 11.8391 15.5687 12.2585C18.6593 13.1398 20.1264 12.7765 23.1321 12.232C25.7307 11.6873 23.7489 10.394 27.0292 10.4963C30.7161 10.5831 30.2747 12.7624 32.797 13.2656C34.7605 13.5746 34.4747 12.1479 36.6919 12.2146C38.9091 12.2813 40.3286 13.8851 43.8179 13.0245" stroke="#FF001E" stroke-width="0.07625"/>
<path d="M1 12.9309C1.01274 12.4278 1.8283 10.7079 5.43682 10.5849C9.2117 10.4612 9.14663 11.6442 11.6088 12.3385C13.2733 12.7309 13.997 12.0632 15.5004 12.4591C18.3512 13.2548 19.8322 13.1595 22.7357 12.5998C25.3136 12.04 23.248 10.6601 26.597 10.7144C30.3638 10.7529 29.8938 12.942 32.4181 13.4591C34.2999 13.7767 34.0495 12.4015 36.2414 12.4659C38.4332 12.5303 39.8635 14.0567 43.3129 13.2266" stroke="#FF0018" stroke-width="0.07625"/>
<path d="M1 13.1805C1.00956 12.6722 1.82197 10.9376 5.49055 10.8409C9.33 10.7435 9.21342 11.986 11.6895 12.6991C13.2936 13.1021 13.9888 12.2882 15.4321 12.6608C18.0432 13.3708 19.5381 13.5435 22.3393 12.9688C24.8965 12.3939 22.7472 10.9272 26.1648 10.9336C30.0115 10.9237 29.513 13.1226 32.0391 13.6537C33.8392 13.9799 33.6243 12.6563 35.7908 12.7183C37.9573 12.7803 39.3983 14.2293 42.8078 13.4297" stroke="#FF0012" stroke-width="0.07625"/>
<path d="M1 13.4311C1.00637 12.9176 1.81565 11.1683 5.54429 11.0979C9.44829 11.0267 9.28021 12.3288 11.7702 13.0606C13.3139 13.4742 13.9806 12.5142 15.3637 12.8634C17.7351 13.4877 19.2439 13.9286 21.9429 13.3387C24.4794 12.7486 22.2464 11.1953 25.7326 11.1538C29.6592 11.0955 29.1321 13.3041 31.6602 13.8493C33.3786 14.1841 33.1991 12.9119 35.3402 12.9716C37.4813 13.0312 38.9332 14.403 42.3028 13.6338" stroke="#FF000C" stroke-width="0.07625"/>
<path d="M1 13.6826C1.00319 13.1639 1.80932 11.3998 5.59803 11.3558C9.56659 11.3109 9.347 12.6725 11.8508 13.423C13.3342 13.8472 13.9725 12.7412 15.2954 13.0669C17.427 13.6056 18.9497 14.3145 21.5464 13.7095C24.0623 13.1043 21.7455 11.4643 25.3004 11.3748C29.3068 11.2683 28.7512 13.4866 31.2812 14.0457C32.9179 14.3891 32.7739 13.1685 34.8897 13.2258C37.0054 13.2831 38.4681 14.5775 41.7977 13.8388" stroke="#FF0006" stroke-width="0.07625"/>
</mask>
<g mask="url(#mask0_25_6361)">
<ellipse cx="35.4214" cy="6.71454" rx="45.75" ry="18.3" fill="url(#paint0_radial_25_6361)"/>
</g>
<defs>
<radialGradient id="paint0_radial_25_6361" cx="0" cy="0" r="1" gradientUnits="userSpaceOnUse" gradientTransform="translate(30.1929 6.71454) rotate(92.4896) scale(10.0309 25.0772)">
<stop stop-color="#FF000C"/>
<stop offset="1" stop-color="#F5C600"/>
</radialGradient>
</defs>
</svg>
