<svg width="39" height="23" viewBox="0 0 39 23" fill="none" xmlns="http://www.w3.org/2000/svg">
<mask id="mask0_22_3664" style="mask-type:alpha" maskUnits="userSpaceOnUse" x="0" y="0" width="39" height="23">
<path d="M1 1.6936V20.9821" stroke="#00494E" stroke-width="0.0463529"/>
<path d="M31.0378 20.968L32.0859 1.70802" stroke="#00D1FF" stroke-width="0.0463529"/>
<path d="M1.37085 1.93164L2.10583 21.2061" stroke="#004B50" stroke-width="0.0463529"/>
<path d="M1.74164 2.16968L3.21053 21.4022" stroke="#004C52" stroke-width="0.0463529"/>
<path d="M2.11243 2.40747L4.3131 21.57" stroke="#004E54" stroke-width="0.0463529"/>
<path d="M2.48328 2.64551L5.41254 21.7103" stroke="#005056" stroke-width="0.0463529"/>
<path d="M2.85425 2.8833L6.50784 21.8226" stroke="#005159" stroke-width="0.0463529"/>
<path d="M3.22491 3.12158L7.59753 21.9079" stroke="#00535B" stroke-width="0.0463529"/>
<path d="M3.59595 3.35938L8.68123 21.9654" stroke="#00555D" stroke-width="0.0463529"/>
<path d="M3.9668 3.59741L9.75737 21.9962" stroke="#00565F" stroke-width="0.0463529"/>
<path d="M4.3374 3.83521L10.8248 22" stroke="#005861" stroke-width="0.0463529"/>
<path d="M4.70844 4.07324L11.8833 21.9776" stroke="#005A63" stroke-width="0.0463529"/>
<path d="M5.07928 4.31104L12.9312 21.929" stroke="#005B66" stroke-width="0.0463529"/>
<path d="M5.45001 4.54907L13.9676 21.8551" stroke="#005D68" stroke-width="0.0463529"/>
<path d="M5.82092 4.78711L14.9917 21.756" stroke="#005F6A" stroke-width="0.0463529"/>
<path d="M6.19171 5.0249L16.0025 21.632" stroke="#00606C" stroke-width="0.0463529"/>
<path d="M6.5625 5.26318L16.9989 21.4844" stroke="#00626E" stroke-width="0.0463529"/>
<path d="M6.93335 5.50098L17.9803 21.3127" stroke="#006471" stroke-width="0.0463529"/>
<path d="M7.3042 5.73877L18.9456 21.1181" stroke="#006573" stroke-width="0.0463529"/>
<path d="M7.67517 5.97681L19.8942 20.9014" stroke="#006775" stroke-width="0.0463529"/>
<path d="M8.04578 6.21484L20.8246 20.663" stroke="#006977" stroke-width="0.0463529"/>
<path d="M8.41663 6.45264L21.7367 20.4033" stroke="#006B79" stroke-width="0.0463529"/>
<path d="M8.78766 6.69067L22.6296 20.1237" stroke="#006C7C" stroke-width="0.0463529"/>
<path d="M9.15833 6.92871L23.5021 19.8245" stroke="#006E7E" stroke-width="0.0463529"/>
<path d="M9.5293 7.1665L24.3541 19.5064" stroke="#007080" stroke-width="0.0463529"/>
<path d="M9.90015 7.40479L25.1844 19.1708" stroke="#007182" stroke-width="0.0463529"/>
<path d="M10.2709 7.64258L25.9923 18.8176" stroke="#007384" stroke-width="0.0463529"/>
<path d="M10.6417 7.88062L26.7776 18.4485" stroke="#007587" stroke-width="0.0463529"/>
<path d="M11.0126 8.11841L27.5394 18.0638" stroke="#007689" stroke-width="0.0463529"/>
<path d="M11.3834 8.35645L28.2772 17.6648" stroke="#00788B" stroke-width="0.0463529"/>
<path d="M11.7542 8.59424L28.9904 17.2521" stroke="#007A8D" stroke-width="0.0463529"/>
<path d="M12.125 8.83228L29.6786 16.8271" stroke="#007B8F" stroke-width="0.0463529"/>
<path d="M12.4959 9.07031L30.3414 16.3905" stroke="#007D91" stroke-width="0.0463529"/>
<path d="M12.8669 9.30811L30.9783 15.9429" stroke="#007F94" stroke-width="0.0463529"/>
<path d="M13.2375 9.54639L31.5886 15.4863" stroke="#008096" stroke-width="0.0463529"/>
<path d="M13.6085 9.78418L32.1727 15.0205" stroke="#008298" stroke-width="0.0463529"/>
<path d="M13.9794 10.0222L32.7296 14.5473" stroke="#00849A" stroke-width="0.0463529"/>
<path d="M14.35 10.26L33.259 14.0674" stroke="#00859C" stroke-width="0.0463529"/>
<path d="M14.721 10.498L33.7613 13.5821" stroke="#00879F" stroke-width="0.0463529"/>
<path d="M15.0918 10.7358L34.2358 13.0922" stroke="#0089A1" stroke-width="0.0463529"/>
<path d="M15.4626 10.9739L34.6826 12.599" stroke="#008AA3" stroke-width="0.0463529"/>
<path d="M15.8335 11.2119L35.1014 12.1035" stroke="#008CA5" stroke-width="0.0463529"/>
<path d="M16.2043 11.4497L35.4921 11.6064" stroke="#008EA7" stroke-width="0.0463529"/>
<path d="M16.5751 11.688L35.8549 11.1097" stroke="#0090AA" stroke-width="0.0463529"/>
<path d="M16.9459 11.9258L36.1897 10.6132" stroke="#0091AC" stroke-width="0.0463529"/>
<path d="M17.3168 12.1636L36.4966 10.1187" stroke="#0093AE" stroke-width="0.0463529"/>
<path d="M17.6877 12.4016L36.7757 9.62737" stroke="#0095B0" stroke-width="0.0463529"/>
<path d="M18.0583 12.6396L37.0267 9.14008" stroke="#0096B2" stroke-width="0.0463529"/>
<path d="M18.4292 12.8774L37.2504 8.65763" stroke="#0098B5" stroke-width="0.0463529"/>
<path d="M18.8002 13.1152L37.447 8.18131" stroke="#009AB7" stroke-width="0.0463529"/>
<path d="M19.1709 13.3535L37.6161 7.71264" stroke="#009BB9" stroke-width="0.0463529"/>
<path d="M19.5419 13.5913L37.7588 7.25168" stroke="#009DBB" stroke-width="0.0463529"/>
<path d="M19.9127 13.8293L37.8748 6.80018" stroke="#009FBD" stroke-width="0.0463529"/>
<path d="M20.2834 14.0674L37.9647 6.35888" stroke="#00A0BF" stroke-width="0.0463529"/>
<path d="M20.6544 14.3054L38.029 5.92878" stroke="#00A2C2" stroke-width="0.0463529"/>
<path d="M21.0252 14.5432L38.068 5.5106" stroke="#00A4C4" stroke-width="0.0463529"/>
<path d="M21.396 14.781L38.0823 5.10554" stroke="#00A5C6" stroke-width="0.0463529"/>
<path d="M21.7668 15.019L38.0723 4.71478" stroke="#00A7C8" stroke-width="0.0463529"/>
<path d="M22.1376 15.2571L38.0386 4.33898" stroke="#00A9CA" stroke-width="0.0463529"/>
<path d="M22.5085 15.4951L37.9819 3.97905" stroke="#00AACD" stroke-width="0.0463529"/>
<path d="M22.8795 15.7329L37.9028 3.6356" stroke="#00ACCF" stroke-width="0.0463529"/>
<path d="M23.2501 15.9709L37.8016 3.30996" stroke="#00AED1" stroke-width="0.0463529"/>
<path d="M23.6211 16.209L37.6796 3.00271" stroke="#00AFD3" stroke-width="0.0463529"/>
<path d="M23.9919 16.4468L37.537 2.7144" stroke="#00B1D5" stroke-width="0.0463529"/>
<path d="M24.3625 16.6848L37.3745 2.44628" stroke="#00B3D8" stroke-width="0.0463529"/>
<path d="M24.7336 16.9229L37.1935 2.19884" stroke="#00B5DA" stroke-width="0.0463529"/>
<path d="M25.1045 17.1606L36.9943 1.97255" stroke="#00B6DC" stroke-width="0.0463529"/>
<path d="M25.4752 17.3984L36.7777 1.76831" stroke="#00B8DE" stroke-width="0.0463529"/>
<path d="M25.8461 17.6367L36.5447 1.58727" stroke="#00BAE0" stroke-width="0.0463529"/>
<path d="M26.2169 17.8745L36.2963 1.42905" stroke="#00BBE3" stroke-width="0.0463529"/>
<path d="M26.5876 18.1125L36.033 1.29496" stroke="#00BDE5" stroke-width="0.0463529"/>
<path d="M26.9585 18.3506L35.7562 1.1853" stroke="#00BFE7" stroke-width="0.0463529"/>
<path d="M27.3293 18.5884L35.4666 1.10033" stroke="#00C0E9" stroke-width="0.0463529"/>
<path d="M27.7003 18.8264L35.1652 1.041" stroke="#00C2EB" stroke-width="0.0463529"/>
<path d="M28.0709 19.0642L34.8527 1.00726" stroke="#00C4ED" stroke-width="0.0463529"/>
<path d="M28.4418 19.3022L34.5306 0.999992" stroke="#00C5F0" stroke-width="0.0463529"/>
<path d="M28.8128 19.54L34.1998 1.01906" stroke="#00C7F2" stroke-width="0.0463529"/>
<path d="M29.1834 19.7783L33.8608 1.06553" stroke="#00C9F4" stroke-width="0.0463529"/>
<path d="M29.5544 20.0161L33.5153 1.13868" stroke="#00CAF6" stroke-width="0.0463529"/>
<path d="M29.9253 20.2542L33.164 1.2395" stroke="#00CCF8" stroke-width="0.0463529"/>
<path d="M30.2961 20.4922L32.8079 1.36794" stroke="#00CEFB" stroke-width="0.0463529"/>
<path d="M30.6669 20.73L32.4482 1.5239" stroke="#00CFFD" stroke-width="0.0463529"/>
</mask>
<g mask="url(#mask0_22_3664)">
<ellipse cx="20.5" cy="11" rx="22.5" ry="17" fill="#D9D9D9"/>
</g>
</svg>
