<svg width="27" height="25" viewBox="0 0 27 25" fill="none" xmlns="http://www.w3.org/2000/svg">
<path fill-rule="evenodd" clip-rule="evenodd" d="M20.1863 9.64798C20.1707 9.82026 20.1631 9.9485 20.1495 10.2316L20.1424 10.3791L20.2654 10.4609C20.4045 10.5532 20.6009 10.6097 20.8428 10.6193L20.8549 10.6197L20.8671 10.6191C21.2408 10.5989 21.6652 10.4787 22.1095 10.2658C22.2232 10.209 22.3589 10.185 22.5026 10.185C22.6597 10.185 22.8197 10.2154 22.9516 10.271L22.9595 10.2743L22.9676 10.2771C23.36 10.4127 23.5933 10.6794 23.5994 10.9593C23.6059 11.3261 23.2327 11.6864 22.4246 12.0064C22.3336 12.0445 22.2204 12.0835 22.0614 12.1333C21.6481 12.2636 21.4166 12.3478 21.1675 12.4743C20.7992 12.6613 20.5412 12.8844 20.419 13.1738C20.2733 13.5018 20.319 13.892 20.5306 14.3311L20.5503 14.3788C20.5686 14.4232 20.6064 14.5063 20.6545 14.6044C20.7264 14.7509 20.812 14.9124 20.9112 15.0849C21.1859 15.5628 21.5181 16.046 21.9095 16.5077C23.0186 17.8159 24.3919 18.7168 26.0435 18.9887C26.1879 19.012 26.2938 19.1413 26.2877 19.2865C26.2799 19.3522 26.2663 19.4083 26.2472 19.4512C26.0206 19.9703 24.9304 20.4142 22.9508 20.7186L22.8435 20.7351L22.7797 20.8231C22.7777 20.8259 22.7777 20.8259 22.7757 20.8287C22.7091 20.9238 22.6622 21.0692 22.6065 21.3C22.5887 21.3735 22.576 21.4304 22.55 21.5503C22.4646 21.9256 22.4513 21.9814 22.4037 22.1449C22.3478 22.3349 22.2365 22.4186 22.0414 22.4186H22.006C21.8525 22.4186 21.6657 22.3981 21.4575 22.3534C20.9274 22.2475 20.5045 22.1969 19.9926 22.1969C19.6734 22.1969 19.3351 22.228 18.942 22.2886C18.5935 22.349 18.2634 22.4771 17.9051 22.6781C17.6356 22.8294 17.4207 22.9734 16.9333 23.3178C16.2221 23.8228 15.8776 24.0432 15.4075 24.261C14.7873 24.5483 14.1527 24.6981 13.4383 24.6981C13.4158 24.6981 13.3931 24.697 13.3514 24.6942C13.2893 24.6901 13.2732 24.6892 13.243 24.6892H13.217L13.1915 24.6943C13.1821 24.6962 13.1689 24.6974 13.1485 24.6979C13.1387 24.6981 13.1302 24.6981 13.11 24.6981C12.4713 24.6981 11.8946 24.5765 11.3351 24.3434C10.8867 24.1566 10.4834 23.9193 9.94056 23.5451C9.85238 23.4843 9.82998 23.4686 9.61407 23.3173C8.66846 22.6398 8.23382 22.396 7.61049 22.2893C7.27443 22.2274 6.91521 22.1969 6.55562 22.1969C6.04733 22.1969 5.62935 22.2518 5.09302 22.3619L5.08696 22.3632C4.84627 22.4186 4.67317 22.4453 4.54219 22.4453C4.30565 22.4453 4.19892 22.3491 4.14453 22.1625C4.11788 22.0711 4.09312 21.9745 4.06609 21.859C4.04999 21.7902 3.99643 21.5512 3.99773 21.5569C3.9722 21.4394 3.95947 21.3824 3.94173 21.3089C3.88485 21.0733 3.83736 20.927 3.76812 20.8317L3.70431 20.744L3.59706 20.7276C1.61356 20.4236 0.528371 19.9809 0.301607 19.4616C0.281969 19.4172 0.268354 19.361 0.260505 19.2954C0.254402 19.1502 0.360312 19.0209 0.503691 18.9978C2.05905 18.7411 3.37071 17.9239 4.45144 16.7265C4.89637 16.2335 5.27357 15.7064 5.58645 15.1759C5.69879 14.9854 5.79579 14.8062 5.87823 14.6412C5.90846 14.5807 5.93506 14.5254 5.95843 14.4751C5.97369 14.4423 5.98058 14.427 5.99519 14.3942L6.01763 14.3437V14.3385C6.22004 13.8998 6.26554 13.5121 6.1309 13.1867C6.00886 12.8949 5.75026 12.6709 5.38068 12.4832C5.13169 12.3568 4.90128 12.2729 4.48754 12.1422C4.29583 12.0783 4.21222 12.0495 4.12113 12.0144C3.59306 11.8055 3.25573 11.5778 3.08141 11.3467C2.95829 11.1835 2.92458 11.0308 2.95322 10.877C3.01917 10.5175 3.50949 10.2027 3.9834 10.2027C4.08728 10.2027 4.19266 10.2258 4.29389 10.2686C4.78871 10.5015 5.23286 10.6195 5.62437 10.6195C5.89193 10.6195 6.11489 10.5616 6.27228 10.4674L6.40497 10.3879L6.39862 10.2334C6.39169 10.0648 6.3889 10.0004 6.38435 9.91075C6.3781 9.78765 6.37122 9.67981 6.36281 9.57819C6.36125 9.5519 6.35911 9.5157 6.3555 9.45455C6.35251 9.40403 6.3502 9.36482 6.34795 9.3266C6.30722 8.63327 6.28615 8.20031 6.27461 7.74347C6.23541 6.19189 6.34783 5.08177 6.6782 4.33606C7.43185 2.64118 8.60594 1.52538 10.0687 0.879931C11.0797 0.433797 12.1042 0.260193 12.9946 0.260193H13.518C14.4135 0.260193 15.4405 0.433634 16.4567 0.880097C17.9258 1.52556 19.1103 2.64191 19.8799 4.33818C20.1356 4.90686 20.2648 5.70766 20.2913 6.74058C20.3111 7.51678 20.2831 8.18978 20.1944 9.5741L20.1863 9.64798Z" fill="#FFFC00"/>
<path fill-rule="evenodd" clip-rule="evenodd" d="M13.518 0.549841C14.5202 0.549841 17.9615 0.815912 19.5845 4.45241C20.1169 5.64973 19.9838 7.82265 19.8685 9.56106C19.8508 9.83608 19.8329 10.1021 19.8242 10.3593L19.8152 10.4659L19.8862 10.5456C19.9128 10.581 20.1966 10.865 20.8087 10.8914H20.8174H20.8264C21.2343 10.8737 21.6956 10.7496 22.1921 10.519C22.2631 10.4836 22.3608 10.4659 22.4672 10.4659C22.5825 10.4659 22.7066 10.4923 22.813 10.5279L22.8309 10.5366C23.0969 10.6253 23.2743 10.8027 23.2831 10.9624C23.2831 11.0511 23.221 11.3705 22.2898 11.7342C22.2011 11.7696 22.077 11.805 21.944 11.8493C21.3408 12.0446 20.4273 12.3284 20.1169 13.0556C19.9395 13.4636 19.9926 13.9425 20.2587 14.4836C20.365 14.7409 22.0947 18.6256 25.9706 19.2641C25.9706 19.282 25.9617 19.2997 25.9527 19.3263C25.8907 19.4771 25.4649 20.0182 22.8663 20.4173C22.4582 20.4793 22.3608 20.9405 22.2454 21.4639C22.2011 21.65 22.1657 21.8451 22.1035 22.0403C22.0858 22.1024 22.0858 22.1024 22.0148 22.1024H21.9883C21.873 22.1024 21.6956 22.0757 21.4916 22.0403C21.1191 21.9693 20.6134 21.8807 19.9749 21.8807C19.6112 21.8807 19.2387 21.9161 18.875 21.9693C18.0768 22.1024 17.4293 22.5635 16.7464 23.0426C15.8239 23.6901 14.875 24.364 13.4204 24.364C13.3583 24.364 13.2963 24.364 13.2342 24.3552H13.2165H13.1986H13.0922C11.6376 24.3552 10.6887 23.6811 9.76635 23.0336C9.08328 22.5458 8.4358 22.0934 7.63759 21.9604C7.26513 21.8984 6.89267 21.8717 6.53791 21.8717C5.89043 21.8717 5.38473 21.9693 5.02122 22.0403C4.81719 22.0847 4.63981 22.1111 4.52448 22.1111C4.42684 22.1111 4.42684 22.1024 4.40914 22.0403C4.3471 21.8451 4.3117 21.6412 4.26735 21.4549C4.15202 20.9228 4.05438 20.4616 3.64632 20.3994C1.04766 20.0003 0.630852 19.4594 0.55986 19.3084C0.550911 19.282 0.542161 19.2641 0.542161 19.2464C4.42684 18.6079 6.14755 14.723 6.25394 14.4659C6.52001 13.9248 6.56435 13.4459 6.39592 13.0379C6.08551 12.3107 5.17196 12.0267 4.56882 11.8316C4.42684 11.7873 4.3117 11.7519 4.22301 11.7163C3.44249 11.4059 3.19412 11.0954 3.22952 10.9093C3.27386 10.6876 3.64632 10.4659 3.97464 10.4659C4.04543 10.4659 4.11642 10.4746 4.16077 10.5013C4.69291 10.7496 5.18965 10.8827 5.61541 10.8827C6.28953 10.8827 6.591 10.5722 6.6266 10.5366L6.69739 10.4569L6.68864 10.3505C6.67094 10.0932 6.66199 9.82713 6.64429 9.55231C6.53791 7.80495 6.39592 5.64078 6.92806 4.44347C8.54219 0.815912 11.9747 0.540892 12.9859 0.540892H13.447C13.4826 0.549841 13.5003 0.549841 13.518 0.549841ZM13.518 0H13.4559H12.9946C11.9039 0 8.18743 0.301467 6.44027 4.23069C5.85483 5.55209 5.99681 7.796 6.1032 9.59665C6.1209 9.80943 6.12985 10.0312 6.1386 10.2441C6.04991 10.2972 5.88148 10.3593 5.62435 10.3593C5.27834 10.3593 4.87029 10.2529 4.40039 10.0312C4.2761 9.97786 4.13412 9.94246 3.98338 9.94246C3.44249 9.94246 2.79501 10.2972 2.69737 10.8294C2.62638 11.2108 2.79501 11.7696 4.02773 12.2574C4.14307 12.3017 4.2761 12.3461 4.40914 12.3904C4.91463 12.5501 5.6864 12.7985 5.89043 13.2862C5.99681 13.5434 5.95247 13.8717 5.76614 14.2618C5.76614 14.2708 5.75739 14.2795 5.75739 14.2885C5.6864 14.4482 4.06332 18.1467 0.462219 18.7409C0.187399 18.7852 -0.016629 19.0336 0.00106931 19.3174C0.0100179 19.3971 0.0277162 19.4858 0.0631128 19.5658C0.338132 20.1955 1.47341 20.6654 3.55763 20.9848C3.62862 21.0824 3.69962 21.4106 3.74396 21.6146C3.78831 21.8097 3.83265 22.0224 3.89469 22.2354C3.95674 22.4482 4.11642 22.7055 4.54217 22.7055C4.7108 22.7055 4.91463 22.6699 5.14531 22.6168C5.49132 22.5458 5.97017 22.4571 6.5556 22.4571C6.88372 22.4571 7.22953 22.4838 7.56659 22.5458C8.24072 22.6612 8.80846 23.0603 9.46469 23.5304C10.4136 24.1956 11.4781 24.9584 13.1099 24.9584C13.1543 24.9584 13.1986 24.9584 13.243 24.9494C13.2963 24.9494 13.3673 24.9584 13.4382 24.9584C15.0701 24.9584 16.1344 24.2043 17.0835 23.5304C17.7487 23.0603 18.3162 22.6612 18.9816 22.5458C19.3274 22.4925 19.6645 22.4571 19.9926 22.4571C20.5603 22.4571 21.0038 22.5281 21.4029 22.6079C21.6513 22.6612 21.8553 22.6789 22.006 22.6789H22.0237H22.0414C22.3518 22.6789 22.5648 22.5192 22.6535 22.2177C22.7155 22.0047 22.7599 21.8007 22.8042 21.6056C22.8486 21.4016 22.9196 21.0735 22.9904 20.9759C25.0658 20.6567 26.2101 20.1866 26.4851 19.5568C26.5205 19.4771 26.5382 19.3884 26.5471 19.3084C26.5648 19.0247 26.3608 18.7763 26.0858 18.732C22.4761 18.1378 20.853 14.4303 20.7908 14.2795C20.7908 14.2708 20.782 14.2618 20.782 14.2529C20.5868 13.8627 20.5424 13.5346 20.6578 13.2773C20.8618 12.7895 21.6334 12.5411 22.139 12.3816C22.2808 12.3373 22.4139 12.293 22.5205 12.2484C23.4161 11.8937 23.8685 11.4591 23.8596 10.9537C23.8508 10.5545 23.5404 10.1998 23.0526 10.0312C22.884 9.96016 22.6889 9.92477 22.5026 9.92477C22.3695 9.92477 22.1744 9.94246 21.9971 10.0312C21.5713 10.2352 21.1812 10.3416 20.853 10.3593C20.6311 10.3505 20.4893 10.2972 20.4094 10.2441C20.4183 10.0578 20.4273 9.87147 20.445 9.67639L20.4537 9.59665C20.5691 7.796 20.7111 5.55209 20.1169 4.23069C18.3341 0.301467 14.6179 0 13.518 0Z" fill="black"/>
</svg>
