<svg width="23" height="25" viewBox="0 0 23 25" fill="none" xmlns="http://www.w3.org/2000/svg">
<g clip-path="url(#clip0_15_677)">
<path d="M16.3552 9.00181C17.9653 10.1522 19.9379 10.8291 22.0683 10.8291V6.73162C21.6651 6.73171 21.2629 6.68969 20.8685 6.60616V9.83146C18.7382 9.83146 16.766 9.15458 15.1554 8.00425V16.366C15.1554 20.549 11.7627 23.9397 7.57779 23.9397C6.01632 23.9397 4.56499 23.4679 3.35938 22.6587C4.73539 24.0649 6.65434 24.9373 8.77733 24.9373C12.9625 24.9373 16.3553 21.5466 16.3553 17.3634V9.00181H16.3552ZM17.8352 4.86795C17.0124 3.96941 16.4721 2.80821 16.3552 1.52446V0.997437H15.2182C15.5044 2.62909 16.4805 4.02307 17.8352 4.86795ZM6.0063 19.4488C5.54655 18.8463 5.2981 18.1093 5.29921 17.3514C5.29921 15.4383 6.85101 13.8871 8.76552 13.8871C9.12232 13.887 9.47697 13.9416 9.817 14.0494V9.86039C9.41963 9.80595 9.01859 9.78285 8.61772 9.79132V13.0519C8.27744 12.944 7.92261 12.8893 7.56572 12.8896C5.65122 12.8896 4.0995 14.4406 4.0995 16.354C4.0995 17.7069 4.87515 18.8782 6.0063 19.4488Z" fill="#EE1D52"/>
<path d="M15.1554 8.00416C16.766 9.15449 18.7383 9.83137 20.8685 9.83137V6.60607C19.6794 6.35291 18.6267 5.73183 17.8353 4.86795C16.4805 4.02299 15.5044 2.629 15.2182 0.997437H12.2317V17.3632C12.2249 19.2712 10.6758 20.816 8.76538 20.816C7.63961 20.816 6.63948 20.2797 6.00608 19.4488C4.87501 18.8782 4.09936 17.7069 4.09936 16.3541C4.09936 14.4409 5.65108 12.8897 7.56559 12.8897C7.9324 12.8897 8.28594 12.9468 8.61758 13.052V9.79141C4.50623 9.8763 1.19971 13.2339 1.19971 17.3633C1.19971 19.4247 2.02311 21.2934 3.35949 22.6588C4.56511 23.4679 6.01644 23.9398 7.57791 23.9398C11.7629 23.9398 15.1555 20.5489 15.1555 16.366V8.00416H15.1554Z" fill="#010101"/>
<path d="M20.8685 6.60611V5.73401C19.7962 5.73564 18.745 5.4355 17.8353 4.86791C18.6406 5.74916 19.7011 6.35681 20.8685 6.60611ZM15.2182 0.997477C15.1909 0.841543 15.1699 0.684583 15.1554 0.527024V0H11.0318V16.366C11.0252 18.2736 9.47616 19.8185 7.56559 19.8185C7.00467 19.8185 6.47508 19.6854 6.00608 19.449C6.63949 20.2797 7.63962 20.816 8.76538 20.816C10.6756 20.816 12.225 19.2713 12.2317 17.3634V0.997477H15.2182ZM8.61775 9.79145V8.86304C8.27319 8.81596 7.92581 8.79234 7.578 8.79251C3.3927 8.79251 0 12.1833 0 16.366C0 18.9883 1.33339 21.2993 3.35958 22.6587C2.0232 21.2934 1.1998 19.4246 1.1998 17.3633C1.1998 13.234 4.50623 9.87635 8.61775 9.79145Z" fill="#69C9D0"/>
</g>
<defs>
<clipPath id="clip0_15_677">
<rect width="22.069" height="25" fill="white"/>
</clipPath>
</defs>
</svg>
