<svg width="12" height="23" viewBox="0 0 12 23" fill="none" xmlns="http://www.w3.org/2000/svg">
<path fill-rule="evenodd" clip-rule="evenodd" d="M6.34242 5.43913H6.67437H10.3515C10.903 5.43913 11.3524 5.61788 11.6384 6.11326C12.1134 6.94571 11.6282 7.9518 10.6783 8.0948C10.5302 8.11523 10.3719 8.12033 10.2187 8.12033H6.66927H6.34242V8.40633V17.5224C6.34242 18.1353 6.43945 18.7226 6.85312 19.2231C7.19019 19.6316 7.64472 19.8053 8.1401 19.8819C8.88062 19.9993 9.61604 19.9381 10.3361 19.7134C11.0205 19.4937 11.6946 19.8002 11.9244 20.4386C12.1594 21.0872 11.8274 21.7255 11.1941 22.032C10.3361 22.4507 9.43729 22.6346 8.48738 22.6857C6.02578 22.8082 3.81442 21.0208 3.44161 18.5796C3.39054 18.2629 3.37522 17.9361 3.37522 17.6144C3.37011 14.5757 3.37011 11.537 3.37011 8.49826V8.14587C3.25775 8.14076 3.16583 8.13055 3.07901 8.13055C2.51723 8.13055 1.95545 8.14076 1.39368 8.12544C0.474408 8.09991 -0.118011 7.41045 0.0198799 6.54225C0.116914 5.92941 0.673583 5.46977 1.37325 5.44934C1.92481 5.43402 2.48148 5.44424 3.03304 5.44424C3.37011 5.44424 3.37011 5.44424 3.37011 5.09185V1.54245C3.37011 0.674247 3.99828 0.0103295 4.83583 0.000115397C5.67339 -0.0100987 6.3322 0.658926 6.33731 1.53734C6.34242 2.72728 6.33731 3.92233 6.33731 5.11228C6.34242 5.20931 6.34242 5.31145 6.34242 5.43913Z" fill="#3177D9"/>
</svg>
