<svg width="26" height="22" viewBox="0 0 26 22" fill="none" xmlns="http://www.w3.org/2000/svg">
<path d="M23.3382 5.39379C23.3541 5.62886 23.3541 5.86393 23.3541 6.10116C23.3541 13.3297 17.9882 21.6664 8.17656 21.6664V21.6621C5.27816 21.6664 2.43998 20.815 0 19.2096C0.42145 19.2616 0.845013 19.2876 1.26963 19.2887C3.67158 19.2908 6.00487 18.4643 7.89454 16.9423C5.61194 16.8979 3.61032 15.3716 2.91107 13.1434C3.71066 13.3015 4.53455 13.269 5.31936 13.0491C2.83079 12.5335 1.04042 10.2912 1.04042 7.68704C1.04042 7.66321 1.04042 7.64046 1.04042 7.61771C1.78192 8.04126 2.61215 8.27633 3.46139 8.30233C1.11753 6.69586 0.395044 3.4981 1.81044 0.997959C4.51871 4.41562 8.51456 6.4933 12.8041 6.7132C12.3742 4.81317 12.9614 2.82215 14.3473 1.48651C16.4957 -0.584672 19.8747 -0.478513 21.8943 1.72374C23.0889 1.48217 24.2339 1.03262 25.2817 0.395671C24.8835 1.66199 24.0501 2.73766 22.9368 3.42119C23.9942 3.29337 25.0272 3.00306 26 2.56001C25.2838 3.66059 24.3818 4.61927 23.3382 5.39379Z" fill="#1D9BF0"/>
</svg>
