<svg xmlns="http://www.w3.org/2000/svg" enable-background="new 0 0 25 25" viewBox="0 0 25 25" id="udacity"><path fill="#583689" d="M8.5,25C3.813,25,0,21.187,0,16.5V5c0-0.379,0.214-0.725,0.553-0.895l8-4c0.31-0.154,0.678-0.14,0.973,0.044C9.82,0.332,10,0.653,10,1v11.5c0,2.927,1.944,5.408,4.61,6.22c0.252-0.693,0.39-1.44,0.39-2.22V5c0-0.379,0.214-0.725,0.553-0.895l8-4c0.31-0.154,0.678-0.14,0.973,0.044C24.82,0.332,25,0.653,25,1v11.5c0,4.687-3.813,8.5-8.5,8.5c-0.259,0-0.516-0.012-0.77-0.034C14.23,23.385,11.55,25,8.5,25z M2,5.618V16.5C2,20.084,4.916,23,8.5,23c2.078,0,3.931-0.979,5.122-2.502C10.347,19.316,8,16.177,8,12.5V2.618L2,5.618z M17,5.618V16.5c0,0.869-0.131,1.708-0.375,2.499C20.152,18.932,23,16.042,23,12.5V2.618L17,5.618z"></path><path fill="#583689" d="M12.501,23.842c-0.368,0-0.723-0.204-0.897-0.556c-0.245-0.495-0.043-1.096,0.452-1.341l7-3.468c0.495-0.245,1.095-0.042,1.34,0.452c0.245,0.495,0.043,1.096-0.452,1.341l-7,3.468C12.801,23.809,12.65,23.842,12.501,23.842z"></path></svg>