<svg width="41" height="27" viewBox="0 0 41 27" fill="none" xmlns="http://www.w3.org/2000/svg">
<rect x="0.16875" y="0.16875" width="40.1625" height="26.6625" rx="2.53125" fill="white"/>
<path d="M27.4207 8.8539C26.9219 8.656 26.1307 8.4375 25.1524 8.4375C22.655 8.4375 20.8964 9.76925 20.8856 11.6732C20.8648 13.078 22.1447 13.8583 23.102 14.3266C24.0804 14.8053 24.413 15.1177 24.413 15.5443C24.403 16.1995 23.6224 16.5016 22.8943 16.5016C21.8846 16.5016 21.3436 16.3458 20.5215 15.9813L20.1885 15.825L19.8346 18.0206C20.4277 18.2908 21.5205 18.5306 22.655 18.5411C25.3086 18.5411 27.0361 17.2299 27.0566 15.2009C27.0667 14.0875 26.3908 13.2344 24.9338 12.5373C24.0493 12.0898 23.5076 11.788 23.5076 11.3301C23.518 10.9139 23.9658 10.4875 24.9642 10.4875C25.7864 10.4667 26.3904 10.6643 26.848 10.862L27.0768 10.9659L27.4207 8.8539Z" fill="#3362AB"/>
<path d="M18.2531 18.3953H15.7241L17.3059 8.61479H19.8347L18.2531 18.3953Z" fill="#3362AB"/>
<path fill-rule="evenodd" clip-rule="evenodd" d="M33.9035 8.61479H31.9474C31.3441 8.61479 30.8858 8.79153 30.6256 9.42628L26.8692 18.3952H29.5227C29.5227 18.3952 29.9596 17.188 30.0535 16.928H33.3004C33.373 17.2714 33.6022 18.3952 33.6022 18.3952H35.9437L33.9035 8.61479ZM30.7818 14.9304C30.9901 14.3685 31.7915 12.1939 31.7915 12.1939C31.7873 12.2023 31.8199 12.1119 31.8685 11.9772L31.8691 11.9756L31.8695 11.9745C31.9421 11.7732 32.0498 11.4745 32.1242 11.2575L32.301 12.1003C32.301 12.1003 32.7799 14.4414 32.8839 14.9304H30.7818Z" fill="#3362AB"/>
<path d="M13.6119 8.61479L11.1352 15.2842L10.8646 13.9315L10.8643 13.9307L9.98005 9.43693C9.83443 8.81227 9.38692 8.63539 8.83541 8.61479H4.7666L4.72498 8.81241C5.71734 9.06618 6.60493 9.43185 7.38263 9.88653L9.63667 18.385H12.311L16.286 8.61479H13.6119Z" fill="#3362AB"/>
<rect x="0.16875" y="0.16875" width="40.1625" height="26.6625" rx="2.53125" stroke="#CCCCCC" stroke-width="0.3375"/>
</svg>
