<svg width="25" height="16" viewBox="0 0 25 16" fill="none" xmlns="http://www.w3.org/2000/svg">
<path d="M24.8889 10.6667C24.8889 4.44444 21.7778 0 17.7778 0C14.6667 0 12.4445 3.55556 12.4445 3.55556C10.6667 6.22222 10.6667 11.1111 13.3334 5.77778C13.3334 5.77778 15.5556 2.22222 17.7778 2.22222C20.8889 2.22222 22.5283 7.55556 22.5283 10.6667C22.5283 11.5556 22.2222 13.3333 20.4445 13.3333V16C22.2222 16 24.8889 14.6667 24.8889 10.6667Z" fill="url(#paint0_radial_15_699)"/>
<path d="M7.11111 0V2.66667C4.26667 3.02222 2.66667 7.55556 2.66667 10.6667C2.66667 11.5556 3.11111 13.3333 4.44444 13.3333C6.66667 13.3333 9.22198 8.42663 11.5556 4.83786C12.7944 2.93271 14.0274 4.56852 13.0872 6.22222C10.8593 10.1406 8.62846 16 4.44444 16C2.66667 16 0 14.6667 0 10.6667C0 2.66667 4.88889 0 7.11111 0Z" fill="url(#paint1_radial_15_699)"/>
<path d="M20.4444 13.3333C17.3333 13.3333 13.7778 0 7.11108 0V2.66667C12.4444 2.66667 14.6666 16 20.4444 16V13.3333Z" fill="#0768E1"/>
<defs>
<radialGradient id="paint0_radial_15_699" cx="0" cy="0" r="1" gradientUnits="userSpaceOnUse" gradientTransform="translate(20.4445 15.1111) rotate(-101.31) scale(15.8636 12.3384)">
<stop stop-color="#0768E1"/>
<stop offset="1" stop-color="#0082FB"/>
</radialGradient>
<radialGradient id="paint1_radial_15_699" cx="0" cy="0" r="1" gradientUnits="userSpaceOnUse" gradientTransform="translate(7.11111 1.77778) rotate(154.537) scale(10.3375 5.42194)">
<stop stop-color="#0768E1"/>
<stop offset="1" stop-color="#0082FB"/>
</radialGradient>
</defs>
</svg>
