<svg width="74" height="21" viewBox="0 0 74 21" fill="none" xmlns="http://www.w3.org/2000/svg">
<path d="M5.01025 1.25372C5.51837 1.19099 6.03179 1.10193 6.54363 1.07993C9.54712 0.950878 12.5722 1.01387 15.5778 1.02627C19.0641 1.04064 22.5472 1.18945 26.0328 1.24349C27.684 1.26909 29.3345 1.25554 30.9856 1.2895C31.3365 1.29671 31.7236 1.25588 32.0743 1.29972C32.1069 1.3038 32.0109 1.31743 31.9797 1.32783C31.7722 1.39701 31.5701 1.4882 31.369 1.57317C30.3605 1.99916 29.3446 2.38113 28.2715 2.61331C26.774 2.93734 25.1973 3.0011 23.6714 3.08865C23.1961 3.11593 22.7209 3.1289 22.2454 3.14999C22.1059 3.15618 21.843 3.13777 21.7061 3.20621C21.4447 3.33694 22.2904 3.23177 22.5827 3.23177C25.7597 3.23177 28.9363 3.21196 32.1126 3.13977C33.7716 3.10206 35.434 3.03643 37.0935 3.05799C38.8599 3.08093 40.6287 3.20456 42.3939 3.27777C42.5364 3.28368 43.4498 3.21748 42.951 3.46689C42.5251 3.67987 42.107 3.9029 41.6732 4.10068C41.0245 4.39647 40.3755 4.67171 39.7105 4.9287C39.2009 5.12563 38.7184 5.39335 38.2027 5.57272C38.1645 5.58602 37.7518 5.71337 37.8168 5.70817C38.4552 5.65709 39.1098 5.54262 39.7463 5.46538C41.0263 5.31006 42.2817 5.00564 43.5593 4.83159C45.6558 4.54598 47.7429 4.49109 49.8563 4.47636C51.7664 4.46305 53.676 4.46327 55.586 4.43802C56.6503 4.42396 57.805 4.26988 58.8649 4.39458C59.2074 4.43487 58.7254 4.75318 58.6247 4.83414C58.0451 5.29988 57.4023 5.61442 56.7003 5.85384C55.6238 6.22099 54.5232 6.53455 53.4342 6.86331C53.3539 6.88756 52.9791 6.9857 53.2758 7.00131C53.9088 7.03463 54.5626 6.93015 55.1925 6.89142C59.1762 6.64649 63.1684 6.64768 67.1579 6.58986" stroke="#6DDA18" stroke-width="0.09"/>
<path d="M9.47231 9.25793C8.47203 9.53742 7.5094 9.90311 6.49246 10.1268C5.24373 10.4016 4.00345 10.6889 2.74591 10.9242C2.15322 11.0351 1.61782 11.186 1.04642 11.3689C0.879609 11.4223 1.21564 11.4878 1.22021 11.489C2.14119 11.7255 3.19133 11.6541 4.13106 11.6755C11.5037 11.844 18.8789 11.4284 26.2525 11.5631C26.9589 11.576 27.6635 11.6267 28.3686 11.6679C28.6379 11.6836 28.7203 11.6881 28.9768 11.6934C29.0212 11.6944 29.3027 11.6675 29.3704 11.7062C29.4016 11.724 29.3107 11.7467 29.2784 11.7624C29.1042 11.847 28.917 11.9043 28.734 11.9669C27.2424 12.4772 25.7089 12.8665 24.1901 13.2856C21.5214 14.0221 18.8386 14.6702 16.1169 15.1819C14.4256 15.4998 12.7309 15.857 11.021 16.0636C10.5969 16.1148 10.1764 16.1816 9.75343 16.2399C9.73268 16.2428 9.42188 16.2659 9.42631 16.2859C9.43435 16.3221 9.96895 16.3382 10.009 16.3421C10.8028 16.4195 11.5993 16.4689 12.3959 16.5057C16.5138 16.6959 20.6462 16.7283 24.7677 16.8021C29.094 16.8797 33.4329 16.9149 37.758 16.7612C41.0195 16.6453 44.2752 16.4217 47.5383 16.3421C47.9032 16.3332 48.2803 16.2846 48.6449 16.3038C48.7162 16.3075 48.3572 16.4367 48.3357 16.4443C47.0774 16.8925 45.7715 17.1971 44.4997 17.6046C43.2758 17.9968 42.1171 18.5538 40.9014 18.9591C40.8991 18.9598 40.6421 19.0175 40.8043 19.0076C41.037 18.9935 41.269 18.9745 41.5019 18.9642C43.6826 18.8673 45.8615 18.7905 48.0418 18.6728C52.1547 18.4509 56.2984 18.3138 60.3803 17.7196C62.0436 17.4775 63.702 17.2422 65.3842 17.1804C65.9153 17.1609 66.4476 17.1701 66.979 17.1701C67.2443 17.1701 67.0223 17.174 66.9074 17.2519C65.2794 18.3566 63.2725 19.0224 61.4051 19.5775C60.901 19.7274 60.3994 19.8874 59.8897 20.0171C59.7137 20.0619 59.7196 20.0806 59.8897 20.0605C60.608 19.976 61.3225 19.7883 62.0364 19.6695C64.4222 19.2728 66.8204 18.9331 69.2356 18.7827C70.4917 18.7045 71.7463 18.6148 73 18.5042" stroke="#AA910E" stroke-width="0.09"/>
<path d="M4.9126 1.40387C5.13606 1.38009 5.36174 1.35199 5.58654 1.32539C5.8057 1.30004 6.02551 1.27996 6.24451 1.27497C9.1603 1.15177 12.0985 1.21691 15.0168 1.23346C18.4141 1.24878 21.8205 1.39557 25.2211 1.44832C26.8545 1.47906 28.4904 1.46409 30.1241 1.49775C30.4751 1.50537 30.835 1.48704 31.1948 1.48659C31.392 1.48318 31.5892 1.48514 31.7774 1.50753C31.8158 1.51189 31.7242 1.52531 31.7 1.53558C31.4986 1.60309 31.3083 1.69141 31.1137 1.77525C30.1306 2.19129 29.1373 2.56449 28.0896 2.79139C27.3548 2.95152 26.6005 3.0475 25.8427 3.11477C25.0531 3.19296 24.259 3.23936 23.4776 3.29229C22.9488 3.33686 22.4197 3.36533 21.8894 3.39838C21.7121 3.41217 21.4143 3.40293 21.239 3.47474C20.9736 3.60353 21.7885 3.50255 22.0633 3.50397C25.1623 3.50404 28.2538 3.48528 31.3528 3.41534C32.1623 3.39783 32.9854 3.37302 33.7965 3.35513C34.626 3.33904 35.4557 3.3295 36.2847 3.34091C38.1084 3.36793 39.9349 3.48934 41.7575 3.56256C42.002 3.57022 42.999 3.5065 42.6179 3.74607C42.2819 3.95104 41.9534 4.16317 41.6098 4.35418C41.3022 4.49825 40.9949 4.63634 40.6853 4.77136C40.3685 4.90599 40.0393 5.03896 39.7144 5.1645C39.1865 5.36756 38.6839 5.63618 38.1498 5.82111C38.0826 5.84365 37.6517 5.98148 37.6855 5.98629C38.3084 5.93648 38.9407 5.82621 39.5656 5.75061C40.8201 5.59873 42.0505 5.30127 43.3026 5.13122C44.3785 4.98953 45.452 4.90461 46.5277 4.85172C47.6504 4.7963 48.776 4.77597 49.9065 4.75429C51.8106 4.7354 53.714 4.72988 55.6185 4.70374C56.6698 4.68955 57.8093 4.53945 58.8563 4.66111C59.1969 4.70042 58.7213 5.01106 58.6202 5.09195C58.2978 5.34608 57.9507 5.55263 57.5921 5.72888C57.2667 5.89525 56.9265 6.03426 56.5716 6.15422C55.5171 6.5135 54.4435 6.81987 53.3852 7.14012C53.3243 7.16172 52.9761 7.25289 53.2829 7.26523C53.9587 7.28805 54.6551 7.17783 55.3285 7.13638C59.2457 6.89552 63.1712 6.89449 67.0939 6.83538" stroke="#6FD817" stroke-width="0.09"/>
<path d="M4.81445 1.55419C5.00732 1.53799 5.20329 1.51973 5.39705 1.49939C5.57951 1.48154 5.76282 1.46915 5.94491 1.47017C8.77298 1.35281 11.6244 1.4201 14.4554 1.44081C17.7636 1.45709 21.0932 1.60184 24.409 1.6533C26.0245 1.68918 27.6458 1.67281 29.2622 1.70616C29.7887 1.71781 30.324 1.68954 30.8591 1.69247C31.0691 1.68946 31.2789 1.69265 31.4801 1.71551C31.5242 1.72015 31.437 1.73334 31.4198 1.74349C31.2246 1.80934 31.046 1.89478 30.858 1.97749C29.9002 2.38357 28.9295 2.74801 27.9072 2.96963C27.1864 3.12787 26.4462 3.22288 25.7029 3.29004C24.8957 3.37903 24.0831 3.434 23.2833 3.49609C22.701 3.55796 22.118 3.60191 21.533 3.64693C21.3178 3.66833 20.9851 3.66825 20.7715 3.74342C20.5021 3.87027 21.286 3.77349 21.5434 3.77634C24.5644 3.77647 27.5709 3.75876 30.5925 3.69106C31.3819 3.6749 32.1978 3.65111 32.9897 3.63378C33.8183 3.62002 34.6472 3.61195 35.4753 3.62399C37.3564 3.65509 39.2405 3.77428 41.1206 3.84752C41.4672 3.85692 42.5477 3.79567 42.2843 4.02542C42.0382 4.22236 41.7993 4.4236 41.5459 4.60785C41.2551 4.74809 40.9649 4.88151 40.6722 5.01363C40.3651 5.145 40.0351 5.27786 39.7178 5.40046C39.1717 5.60965 38.649 5.87917 38.0964 6.06966C38.0003 6.10145 37.5512 6.24976 37.5538 6.26458C38.161 6.21603 38.7711 6.10995 39.3844 6.036C40.6133 5.88757 41.8188 5.59707 43.0455 5.43101C44.149 5.29044 45.2501 5.20572 46.3534 5.15122C47.5509 5.09163 48.7519 5.06838 49.9562 5.03239C51.8543 5.00792 53.7516 4.99665 55.6505 4.96962C56.6888 4.95529 57.8131 4.80918 58.8472 4.9278C59.186 4.96612 58.7167 5.2691 58.6153 5.34991C58.2602 5.62531 57.8716 5.84334 57.4753 6.02906C57.1454 6.19502 56.8011 6.33456 56.4424 6.45475C55.4098 6.80618 54.3632 7.10536 53.3356 7.4171C53.2943 7.43604 52.9726 7.52024 53.2896 7.5293C54.0082 7.54164 54.7471 7.42568 55.464 7.38151C59.3147 7.14471 63.1734 7.14146 67.0294 7.08107" stroke="#70D617" stroke-width="0.09"/>
<path d="M4.7168 1.70484C4.87907 1.69623 5.04533 1.68781 5.20805 1.67373C5.35381 1.66338 5.50062 1.65868 5.6458 1.6657C8.38616 1.5542 11.1507 1.62363 13.8945 1.6485C17.1136 1.66573 20.3664 1.80845 23.5973 1.85862C25.195 1.89965 26.8017 1.88186 28.4007 1.9149C29.1028 1.93058 29.8134 1.89238 30.5239 1.89869C30.7466 1.89609 30.9691 1.90049 31.1832 1.92382C31.2331 1.92875 31.1502 1.94172 31.1401 1.95174C30.951 2.01593 30.7842 2.09848 30.6028 2.18007C29.6704 2.57619 28.7222 2.93187 27.7253 3.14821C27.0185 3.30456 26.2925 3.39861 25.5635 3.46564C24.7388 3.56544 23.9077 3.62898 23.0894 3.70023C22.4536 3.77939 21.8168 3.83884 21.177 3.89582C20.924 3.92482 20.5563 3.9339 20.3044 4.01245C20.031 4.13736 20.7841 4.04477 21.024 4.04904C23.967 4.04925 26.8885 4.03258 29.8327 3.96713C30.6021 3.95231 31.4108 3.92955 32.1834 3.91275C33.0111 3.90134 33.8391 3.89474 34.6665 3.90742C36.6049 3.9426 38.5467 4.05955 40.4842 4.13281C40.9328 4.14396 42.0969 4.08519 41.9511 4.3051C41.7949 4.49402 41.6457 4.68437 41.4824 4.86185C41.2085 4.99827 40.9354 5.12702 40.6595 5.25625C40.3621 5.38434 40.0314 5.51711 39.7217 5.63676C39.1573 5.85208 38.6145 6.12249 38.0435 6.31856C37.9185 6.35958 37.4512 6.51837 37.4225 6.5432C38.0141 6.49592 38.602 6.39404 39.2037 6.32173C40.4071 6.17674 41.5876 5.89321 42.7888 5.73114C43.9199 5.59169 45.0487 5.50717 46.1796 5.45105C47.4519 5.38729 48.7283 5.36113 50.0064 5.31083C51.8984 5.28078 53.7896 5.26376 55.683 5.23584C56.7083 5.22138 57.8174 5.07925 58.8387 5.19483C59.1755 5.23217 58.7126 5.52748 58.6108 5.60822C58.2231 5.90487 57.793 6.13438 57.3589 6.32958C57.0246 6.49513 56.6763 6.63519 56.3137 6.75563C55.3031 7.09919 54.2835 7.39118 53.2866 7.69442C53.2647 7.7107 52.9696 7.78793 53.2968 7.79371C54.0581 7.79556 54.8396 7.67387 55.6001 7.62697C59.3842 7.39424 63.1761 7.38877 66.9654 7.32709" stroke="#72D417" stroke-width="0.09"/>
<path d="M4.6189 1.85574C4.75058 1.85471 4.88713 1.85614 5.01881 1.84832C5.12787 1.84547 5.23818 1.84845 5.34644 1.86148C7.99909 1.75583 10.6768 1.82741 13.3334 1.85643C16.4633 1.87461 19.6394 2.0153 22.7854 2.06418C24.3653 2.11035 25.9573 2.09116 27.539 2.1239C28.4166 2.14359 29.3026 2.09546 30.1885 2.10515C30.4239 2.10295 30.6591 2.10858 30.8861 2.13237C30.9418 2.13759 30.8632 2.15034 30.8601 2.16024C30.6771 2.22275 30.5222 2.30243 30.3473 2.38289C29.4403 2.76906 28.5146 3.11597 27.5431 3.32703C26.8504 3.4815 26.1385 3.57457 25.4239 3.64149C24.5816 3.75209 23.732 3.82421 22.8953 3.9046C22.206 4.00107 21.5154 4.07601 20.8208 4.14496C20.5299 4.18156 20.1273 4.1998 19.837 4.28172C19.5597 4.40469 20.2819 4.31629 20.5044 4.32198C23.3694 4.32226 26.2058 4.30664 29.0727 4.24344C29.822 4.22996 30.6235 4.20822 31.3768 4.19197C32.2036 4.18289 33.0308 4.17777 33.8573 4.19108C35.8531 4.23034 37.8525 4.34507 39.8476 4.41835C40.3982 4.43124 41.6459 4.37495 41.6177 4.58502C41.5515 4.76592 41.4919 4.94538 41.4187 5.11609C41.1616 5.24869 40.9056 5.37278 40.6466 5.4991C40.3589 5.62392 40.0275 5.7566 39.7253 5.87331C39.1427 6.09475 38.5798 6.36606 37.9903 6.56769C37.8364 6.61795 37.351 6.78723 37.291 6.82207C37.867 6.77605 38.4326 6.67837 39.0228 6.60771C40.2006 6.46616 41.3562 6.18959 42.5319 6.03151C43.6906 5.89318 44.8471 5.80887 46.0055 5.75112C47.3526 5.68321 48.7045 5.65412 50.0564 5.58951C51.9424 5.55387 53.8274 5.53111 55.7153 5.50231C56.7275 5.48771 57.8214 5.34957 58.8298 5.4621C59.1648 5.49846 58.7082 5.7861 58.6061 5.86676C58.1857 6.18468 57.7141 6.42567 57.2424 6.63035C56.9036 6.79548 56.5512 6.93606 56.1848 7.05675C55.1961 7.39245 54.2035 7.67724 53.2373 7.97197C53.2349 7.98561 52.9664 8.05586 53.3038 8.05837C54.1078 8.04972 54.9318 7.9223 55.7358 7.87268C59.4535 7.64401 63.1786 7.63633 66.9012 7.57336" stroke="#73D317" stroke-width="0.09"/>
<path d="M4.52124 2.00705C4.62233 2.01359 4.72917 2.02487 4.82981 2.02331C4.90217 2.02796 4.97598 2.03863 5.04732 2.05766C7.61226 1.95787 10.2031 2.03159 12.7725 2.06477C15.8133 2.0839 18.9127 2.22256 21.9737 2.27015C23.5358 2.32147 25.1132 2.30086 26.6775 2.3333C27.7307 2.35701 28.7921 2.29895 29.8533 2.31201C30.1014 2.31023 30.3493 2.31707 30.5892 2.34134C30.6507 2.34684 30.5765 2.35936 30.5804 2.36914C30.4036 2.42999 30.2604 2.50679 30.0921 2.58612C29.2104 2.96233 28.3073 3.30048 27.3612 3.50627C26.6825 3.65884 25.9848 3.75095 25.2845 3.81775C24.4247 3.93915 23.5566 4.01984 22.7015 4.10939C21.9587 4.22316 21.2143 4.31359 20.4648 4.3945C20.1361 4.4387 19.6986 4.46611 19.3699 4.55139C19.0886 4.67242 19.7799 4.58822 19.985 4.59533C22.772 4.59568 25.5233 4.58111 28.3128 4.52016C29.0421 4.50802 29.8364 4.48731 30.5704 4.4716C31.3964 4.46486 32.2227 4.46121 33.0485 4.47516C35.1016 4.5185 37.1587 4.631 39.2112 4.70429C39.8639 4.71893 41.1951 4.66511 41.2846 4.86536C41.3083 5.03824 41.3383 5.2068 41.3553 5.37075C41.115 5.49952 40.8761 5.61894 40.6339 5.74237C40.356 5.86392 40.0238 5.9965 39.7292 6.11026C39.1283 6.33783 38.5453 6.61004 37.9375 6.81723C37.7546 6.87674 37.2509 7.05649 37.1598 7.10134C37.7201 7.05659 38.2635 6.9631 38.8421 6.89409C39.9944 6.75598 41.125 6.48637 42.2752 6.33229C43.4616 6.19508 44.6456 6.11097 45.8317 6.05161C47.2535 5.97953 48.6809 5.94753 50.1066 5.8686C51.9866 5.82738 53.8655 5.79888 55.7478 5.76918C56.747 5.75445 57.8258 5.62029 58.8213 5.72978C59.1543 5.76516 58.7041 6.04512 58.6016 6.12572C58.1486 6.4649 57.6355 6.71737 57.126 6.93152C56.7828 7.09624 56.4264 7.23734 56.0561 7.35828C55.0894 7.68611 54.1238 7.96371 53.1883 8.24994C53.2054 8.26092 52.9634 8.32419 53.311 8.32343C54.1578 8.3043 55.0243 8.17113 55.8719 8.11879C59.523 7.89419 63.1813 7.88429 66.8372 7.82003" stroke="#74D116" stroke-width="0.09"/>
<path d="M4.4231 2.2085C4.49359 2.22262 4.57073 2.24374 4.64032 2.24844C4.67598 2.26059 4.71329 2.27895 4.74772 2.30399C7.22495 2.21005 9.72898 2.28591 12.2111 2.32325C15.1628 2.34333 18.1854 2.47996 21.1616 2.52627C22.7058 2.58272 24.2685 2.56071 25.8155 2.59284C27.0442 2.62057 28.281 2.55258 29.5176 2.56902C29.7784 2.56764 30.039 2.5757 30.2919 2.60044C30.3591 2.60623 30.2892 2.61853 30.3002 2.62818C30.1295 2.68737 29.9981 2.76129 29.8363 2.83949C28.98 3.20575 28.0995 3.53513 27.1787 3.73564C26.5141 3.88632 25.8306 3.97746 25.1447 4.04415C24.2673 4.17635 23.3807 4.26561 22.5072 4.36432C21.7109 4.49538 20.9126 4.60131 20.1084 4.69418C19.7418 4.74599 19.2694 4.78255 18.9023 4.87121C18.6171 4.9903 19.2775 4.91029 19.4651 4.91883C22.1741 4.91925 24.8404 4.90573 27.5525 4.84702C28.2618 4.83622 29.0489 4.81653 29.7636 4.80137C30.5887 4.79696 31.4142 4.79479 32.2391 4.80937C34.3496 4.85679 36.4643 4.96707 38.5743 5.04038C39.3291 5.05677 40.7438 5.00542 40.9509 5.19583C41.0646 5.36069 41.1842 5.51835 41.2914 5.67554C41.0679 5.80049 40.8461 5.91524 40.6208 6.03577C40.3525 6.15405 40.0196 6.28654 39.7326 6.39735C39.1134 6.63105 38.5104 6.90416 37.8841 7.11691C37.6723 7.18566 37.1504 7.37589 37.028 7.43076C37.5727 7.38726 38.0939 7.29798 38.661 7.23061C39.7877 7.09595 40.8933 6.8333 42.0181 6.68321C43.232 6.54711 44.4437 6.46321 45.6575 6.40223C47.154 6.32599 48.6569 6.29107 50.1563 6.19782C52.0302 6.15103 53.9031 6.11678 55.7798 6.08619C56.766 6.07133 57.8296 5.94115 58.8122 6.0476C59.1434 6.082 58.6995 6.35429 58.5966 6.43481C58.111 6.79526 57.5564 7.05921 57.0092 7.28283C56.6615 7.44714 56.3011 7.58877 55.9269 7.70994C54.9822 8.02992 54.0435 8.30033 53.1388 8.57804C53.1753 8.58637 52.9599 8.64267 53.3177 8.63863C54.2072 8.60901 55.1163 8.47011 56.0074 8.41505C59.592 8.19451 63.1836 8.18239 66.7727 8.11685" stroke="#76CF16" stroke-width="0.09"/>
<path d="M4.32544 2.40985C4.36534 2.43156 4.41277 2.46253 4.45132 2.47348C4.45029 2.49314 4.45109 2.51917 4.44861 2.55022C6.83812 2.46213 9.25531 2.54014 11.6502 2.58164C14.5128 2.60267 17.4586 2.73727 20.3499 2.78229C21.8764 2.84389 23.4244 2.82046 24.9541 2.85229C26.3583 2.88404 27.7705 2.80612 29.1824 2.82594C29.456 2.82497 29.7292 2.83424 29.995 2.85945C30.068 2.86552 30.0025 2.8776 30.0204 2.88713C29.8559 2.94465 29.7364 3.0157 29.5811 3.09276C28.7501 3.44907 27.8922 3.76969 26.9968 3.96492C26.3461 4.11372 25.6768 4.20389 25.0053 4.27046C24.1104 4.41346 23.2053 4.51129 22.3134 4.61916C21.4636 4.76752 20.6114 4.88893 19.7524 4.99377C19.348 5.05318 18.8407 5.09891 18.4352 5.19093C18.146 5.30809 18.7755 5.23227 18.9457 5.24223C21.5767 5.24272 24.1579 5.23025 26.7927 5.17379C27.482 5.16433 28.2618 5.14567 28.9573 5.13105C29.7814 5.12898 30.6061 5.12828 31.4303 5.1435C33.5981 5.195 35.7705 5.30305 37.9379 5.37637C38.7947 5.39451 40.293 5.34563 40.6178 5.52622C40.8214 5.68305 41.0306 5.82982 41.228 5.98024C41.0213 6.10137 40.8166 6.21145 40.6081 6.32909C40.3496 6.44409 40.0159 6.57649 39.7365 6.68435C39.0991 6.92417 38.4759 7.19818 37.8312 7.4165C37.5905 7.49449 37.0504 7.69521 36.8968 7.76008C37.4259 7.71785 37.9248 7.63276 38.4803 7.56704C39.5815 7.43582 40.6622 7.18013 41.7614 7.03403C43.003 6.89906 44.2423 6.81536 45.4837 6.75276C47.055 6.67235 48.6333 6.63452 50.2065 6.52696C52.0744 6.47458 53.9411 6.43459 55.8123 6.40311C56.7855 6.38811 57.8339 6.26192 58.8036 6.36533C59.1329 6.39874 58.6953 6.66337 58.5922 6.74381C58.0739 7.12553 57.4778 7.40096 56.8929 7.63405C56.5407 7.79794 56.1763 7.9401 55.7982 8.06152C54.8754 8.37363 53.9638 8.63685 53.0897 8.90606C53.1458 8.91173 52.9569 8.96106 53.3248 8.95374C54.2571 8.91363 55.2088 8.76899 56.1434 8.71121C59.6615 8.49474 63.1863 8.4804 66.7087 8.41357" stroke="#77CD16" stroke-width="0.09"/>
<path d="M4.30607 2.6113C4.31538 2.64059 4.3331 2.6814 4.3406 2.69861C4.30288 2.72577 4.26717 2.75949 4.22778 2.79655C6.52958 2.71431 8.85993 2.79447 11.1675 2.84012C13.9411 2.86211 16.8101 2.99467 19.6165 3.0384C21.1252 3.10514 22.6586 3.08031 24.1709 3.11183C25.7507 3.1476 27.3382 3.05975 28.9255 3.08295C29.2118 3.08238 29.4977 3.09288 29.7764 3.11856C29.8552 3.12491 29.794 3.13677 29.819 3.14617C29.6606 3.20203 29.5528 3.27019 29.4042 3.34613C28.5986 3.69248 27.7632 4.00435 26.8932 4.19429C26.2565 4.3412 25.6014 4.4304 24.9442 4.49686C24.0318 4.65066 23.1082 4.75707 22.1978 4.87408C21.2945 5.03974 20.3885 5.17665 19.4748 5.29346C19.0325 5.36047 18.4902 5.41536 18.0464 5.51075C17.7532 5.62596 18.3519 5.55434 18.5046 5.56572C21.0576 5.56628 23.5538 5.55486 26.1112 5.50065C26.7804 5.49253 27.553 5.47489 28.2292 5.46082C29.0525 5.46108 29.8764 5.46185 30.6997 5.47771C32.9249 5.53329 35.1549 5.63912 37.3798 5.71245C38.3387 5.73234 39.9205 5.68594 40.3629 5.85669C40.6565 6.0055 40.9552 6.14138 41.2428 6.28504C41.0529 6.40234 40.8654 6.50775 40.6738 6.6225C40.4249 6.73423 40.0905 6.86652 39.8186 6.97144C39.163 7.21739 38.5198 7.4923 37.8565 7.71619C37.587 7.80341 37.0287 8.01461 36.8438 8.08949C37.3573 8.04853 37.834 7.96764 38.3779 7.90356C39.4535 7.77579 40.5093 7.52706 41.583 7.38495C42.8522 7.2511 44.1192 7.16761 45.3882 7.10339C47.0342 7.01881 48.688 6.97806 50.335 6.85619C52.1969 6.79823 54.0575 6.75249 55.9231 6.72012C56.8833 6.70499 57.9165 6.58278 58.8733 6.68315C59.2007 6.71558 58.7695 6.97254 58.666 7.05291C58.1151 7.45589 57.4775 7.7428 56.8549 7.98536C56.4982 8.14884 56.1297 8.29152 55.7478 8.41319C54.847 8.71743 53.9623 8.97346 53.119 9.23416C53.1945 9.23719 53.0322 9.27954 53.4103 9.26895C54.3854 9.21834 55.3795 9.06797 56.3578 9.00746C59.8093 8.79506 63.2673 8.77851 66.723 8.71039" stroke="#79CC16" stroke-width="0.09"/>
<path d="M4.40963 2.81274C4.38834 2.84962 4.37636 2.90027 4.35282 2.92374C4.27839 2.9584 4.20619 2.99981 4.12988 3.04287C6.34397 2.96649 8.58748 3.04879 10.8079 3.0986C13.4923 3.12154 16.2846 3.25208 19.006 3.29451C20.4969 3.3664 22.0157 3.34015 23.5106 3.37137C25.2659 3.41116 27.0289 3.31338 28.7915 3.33995C29.0905 3.3398 29.3891 3.35151 29.6808 3.37766C29.7653 3.3843 29.7085 3.39594 29.7405 3.40521C29.5882 3.45941 29.4923 3.52469 29.3501 3.5995C28.5699 3.9359 27.7571 4.239 26.9125 4.42366C26.2898 4.56868 25.6489 4.65692 25.0061 4.72325C24.076 4.88786 23.134 5.00284 22.2052 5.12901C21.2484 5.31197 20.2886 5.46437 19.32 5.59314C18.8399 5.66776 18.2627 5.7318 17.7805 5.83056C17.4834 5.94384 18.0511 5.87641 18.1864 5.88922C20.6615 5.88984 23.0725 5.87947 25.5526 5.82751C26.2018 5.82073 26.9672 5.80412 27.6241 5.79059C28.4465 5.79319 29.2695 5.79543 30.092 5.81192C32.3746 5.87158 34.6622 5.97518 36.9446 6.04854C38.0055 6.07017 39.6709 6.02624 40.231 6.18716C40.6145 6.32796 41.0029 6.45294 41.3806 6.58983C41.2075 6.70331 41.0371 6.80405 40.8623 6.9159C40.6232 7.02436 40.288 7.15656 40.0237 7.25853C39.3498 7.51061 38.6865 7.78642 38.0049 8.01587C37.7063 8.11234 37.1299 8.33402 36.9138 8.41891C37.4116 8.37921 37.8661 8.30252 38.3984 8.24008C39.4485 8.11575 40.4793 7.87399 41.5276 7.73587C42.8244 7.60314 44.119 7.51985 45.4156 7.45401C47.1364 7.36527 48.8656 7.3216 50.5864 7.18542C52.4423 7.12188 54.2967 7.07039 56.1568 7.03713C57.104 7.02187 58.122 6.90365 59.0659 7.00097C59.3915 7.03242 58.9666 7.2817 58.8627 7.362C58.2792 7.78625 57.6001 8.08464 56.9398 8.33667C56.5786 8.49974 56.2061 8.64294 55.8203 8.76485C54.9415 9.06124 54.0838 9.31007 53.2712 9.56227C53.3662 9.56264 53.2304 9.59802 53.6187 9.58415C54.6365 9.52306 55.6732 9.36695 56.695 9.30372C60.08 9.09538 63.4713 9.07661 66.8602 9.0072" stroke="#7ACA16" stroke-width="0.09"/>
<path d="M4.51343 3.0141C4.46155 3.05855 4.41986 3.11905 4.36527 3.14878C4.25415 3.19094 4.14544 3.24004 4.03223 3.28911C6.1586 3.21858 8.31527 3.30302 10.4484 3.35699C13.0437 3.38088 15.7593 3.50939 18.3958 3.55053C19.8689 3.62756 21.373 3.5999 22.8506 3.63081C24.7815 3.67463 26.7198 3.56691 28.6577 3.59687C28.9695 3.59713 29.2808 3.61005 29.5853 3.63667C29.6757 3.6436 29.6232 3.65501 29.6622 3.66416C29.5161 3.71669 29.4319 3.7791 29.2964 3.85278C28.5415 4.17922 27.7512 4.47356 26.932 4.65294C26.3233 4.79607 25.6966 4.88334 25.0682 4.94956C24.1206 5.12497 23.1601 5.24852 22.2128 5.38385C21.2025 5.58411 20.1888 5.75199 19.1655 5.89273C18.6475 5.97495 18.0354 6.04816 17.5149 6.15029C17.2138 6.26162 17.7506 6.19839 17.8685 6.21262C20.2655 6.21332 22.5915 6.20399 24.9943 6.15427C25.6234 6.14884 26.3816 6.13325 27.0192 6.12027C27.8407 6.1252 28.6629 6.12892 29.4846 6.14605C31.8245 6.20979 34.1698 6.31116 36.5097 6.38453C37.6726 6.40791 39.4216 6.36646 40.0993 6.51755C40.5727 6.65032 41.0507 6.76441 41.5186 6.89453C41.3624 7.00418 41.209 7.10026 41.0511 7.20922C40.8217 7.3144 40.4857 7.44651 40.2291 7.54553C39.5369 7.80374 38.8535 8.08044 38.1534 8.31546C37.826 8.42117 37.2313 8.65333 36.984 8.74823C37.4662 8.7098 37.8984 8.6373 38.4192 8.57651C39.4438 8.45563 40.4496 8.22082 41.4724 8.0867C42.7968 7.95509 44.1191 7.872 45.4432 7.80454C47.2388 7.71164 49.0435 7.66505 50.838 7.51455C52.6879 7.44543 54.5362 7.3882 56.3907 7.35405C57.3249 7.33865 58.3278 7.22442 59.2588 7.3187C59.5825 7.34917 59.1639 7.59078 59.0597 7.67101C58.4435 8.11651 57.723 8.42638 57.0249 8.68789C56.6593 8.85055 56.2827 8.99427 55.893 9.11643C55.0362 9.40495 54.2055 9.64659 53.4236 9.89028C53.5381 9.888 53.4289 9.91641 53.8274 9.89926C54.8879 9.82768 55.9672 9.66583 57.0325 9.59988C60.351 9.39561 63.6754 9.37462 66.9977 9.30392" stroke="#7CC815" stroke-width="0.09"/>
<path d="M4.61675 3.21555C4.53427 3.26758 4.46287 3.33793 4.37724 3.37391C4.22942 3.42358 4.08421 3.48036 3.93408 3.53543C5.97275 3.47075 8.04257 3.55734 10.0885 3.61547C12.5947 3.64031 15.2335 3.76679 17.7851 3.80664C19.2404 3.88882 20.7298 3.85975 22.1901 3.89035C24.2965 3.93819 26.4102 3.82054 28.5235 3.85388C28.848 3.85454 29.172 3.86869 29.4894 3.89578C29.5856 3.90298 29.5375 3.91418 29.5834 3.9232C29.4435 3.97407 29.3711 4.0336 29.2421 4.10615C28.5126 4.42263 27.7449 4.70821 26.951 4.88231C26.3564 5.02356 25.7438 5.10986 25.1298 5.17596C24.1646 5.36217 23.1857 5.49429 22.2199 5.63878C21.1561 5.85633 20.0886 6.03971 19.0105 6.19241C18.4547 6.28224 17.8076 6.3646 17.2488 6.4701C16.9437 6.5795 17.4497 6.52046 17.5501 6.53611C19.8691 6.53688 22.1101 6.5286 24.4354 6.48113C25.0445 6.47704 25.7955 6.46247 26.4139 6.45004C27.2345 6.45731 28.0558 6.4625 28.8767 6.48026C31.274 6.54808 33.6769 6.64723 36.0743 6.72061C37.3393 6.74574 39.1717 6.70676 39.9671 6.84802C40.5305 6.97277 41.0981 7.07596 41.6561 7.19933C41.5167 7.30515 41.3805 7.39656 41.2394 7.50262C41.0197 7.60454 40.683 7.73655 40.4339 7.83262C39.7235 8.09696 39.02 8.37456 38.3015 8.61514C37.9451 8.73009 37.3323 8.97273 37.0537 9.07765C37.5203 9.04048 37.9303 8.97218 38.4395 8.91303C39.4385 8.79559 40.4193 8.56775 41.4167 8.43762C42.7687 8.30712 44.1186 8.22424 45.4704 8.15516C47.3407 8.0581 49.2208 8.00859 51.0892 7.84378C52.9331 7.76908 54.7752 7.70611 56.6242 7.67106C57.5454 7.65553 58.5331 7.54528 59.4512 7.63652C59.773 7.66601 59.3608 7.89995 59.2562 7.9801C58.6074 8.44687 57.8454 8.76822 57.1095 9.0392C56.7395 9.20145 56.3589 9.3457 55.9653 9.4681C55.1304 9.74876 54.3267 9.9832 53.5755 10.2184C53.7095 10.2135 53.6269 10.2349 54.0355 10.2145C55.1388 10.1324 56.2606 9.96481 57.3695 9.89613C60.6214 9.69593 63.8791 9.67272 67.1346 9.60074" stroke="#7DC615" stroke-width="0.09"/>
<path d="M4.72055 3.41699C4.60748 3.47661 4.50637 3.5568 4.3897 3.59904C4.20518 3.65621 4.02347 3.72068 3.83643 3.78176C5.78738 3.72293 7.77036 3.81167 9.72901 3.87395C12.1461 3.89974 14.7082 4.02419 17.1749 4.06275C18.6123 4.15007 20.0872 4.11959 21.5301 4.1499C23.812 4.20175 26.1011 4.07417 28.3897 4.11089C28.727 4.11196 29.0636 4.12732 29.394 4.15488C29.4959 4.16237 29.4522 4.17334 29.5052 4.18225C29.3714 4.23144 29.3108 4.28809 29.1883 4.35952C28.4842 4.66605 27.739 4.94286 26.9705 5.11168C26.3899 5.25104 25.7915 5.33637 25.1919 5.40236C24.2092 5.59937 23.2117 5.74007 22.2276 5.8937C21.1103 6.12856 19.9889 6.32743 18.856 6.49209C18.2624 6.58952 17.5804 6.68105 16.9831 6.78992C16.6741 6.89738 17.1492 6.84253 17.2321 6.8596C19.4732 6.86044 21.6291 6.85321 23.8771 6.80799C24.4661 6.80524 25.2099 6.7917 25.809 6.77981C26.6287 6.78941 27.4492 6.79608 28.2693 6.81447C30.7239 6.88638 33.1845 6.9833 35.6393 7.0567C37.0064 7.08357 38.9224 7.04707 39.8354 7.1785C40.4887 7.29522 41.1459 7.38752 41.7942 7.50412C41.6715 7.60612 41.5524 7.69286 41.4282 7.79603C41.2182 7.89467 40.8807 8.02659 40.6393 8.11971C39.9105 8.39017 39.187 8.66868 38.45 8.91482C38.0648 9.03901 37.4337 9.29214 37.1239 9.40706C37.5748 9.37116 37.9626 9.30705 38.4603 9.24955C39.4337 9.13555 40.3896 8.91468 41.3615 8.78854C42.7411 8.65916 44.1187 8.57648 45.4981 8.50579C47.4431 8.40456 49.3987 8.35213 51.3408 8.17301C53.1787 8.09273 55.0148 8.02401 56.8581 7.98807C57.7663 7.97241 58.7388 7.86614 59.6441 7.95435C59.964 7.98284 59.5581 8.20912 59.4532 8.28919C58.7718 8.77723 57.9682 9.11006 57.1947 9.39051C56.8202 9.55235 56.4355 9.69712 56.0381 9.81976C55.2252 10.0926 54.4484 10.3198 53.7279 10.5465C53.8814 10.5389 53.8254 10.5534 54.2442 10.5297C55.3902 10.4371 56.5546 10.2638 57.707 10.1924C60.8924 9.99625 64.0833 9.97083 67.2721 9.89755" stroke="#7FC515" stroke-width="0.09"/>
<path d="M4.82423 3.61837C4.68057 3.68557 4.54975 3.77561 4.40203 3.82411C4.18082 3.88877 3.96261 3.96093 3.73865 4.02802C5.60189 3.97504 7.49803 4.06592 9.36943 4.13236C11.6975 4.15911 14.1827 4.28152 16.5646 4.3188C17.9842 4.41126 19.4444 4.37937 20.8699 4.40937C23.3274 4.46525 25.7919 4.32774 28.2559 4.36783C28.6058 4.3693 28.9552 4.38588 29.2985 4.41392C29.4062 4.42169 29.3668 4.43244 29.4268 4.44122C29.2991 4.48875 29.2503 4.54252 29.1344 4.61282C28.4556 4.90939 27.733 5.17744 26.99 5.34098C26.4234 5.47846 25.8391 5.56282 25.2538 5.62869C24.2536 5.8365 23.2377 5.98577 22.2351 6.14856C21.0643 6.40072 19.8891 6.61508 18.7014 6.79171C18.0699 6.89674 17.353 6.99743 16.7173 7.10966C16.4043 7.21518 16.8485 7.16453 16.9141 7.18303C19.0771 7.18394 21.148 7.17775 23.3186 7.13478C23.8876 7.13338 24.6242 7.12086 25.204 7.10951C26.0228 7.12145 26.8425 7.12959 27.6618 7.14862C30.1737 7.2246 32.692 7.3193 35.2043 7.39271C36.6733 7.42133 38.6729 7.38731 39.7036 7.5089C40.4469 7.61761 41.1937 7.69901 41.9321 7.80884C41.8263 7.90702 41.7242 7.9891 41.6169 8.08936C41.4166 8.18473 41.0784 8.31656 40.8445 8.40673C40.0975 8.68332 39.3539 8.96273 38.5985 9.21444C38.1843 9.34787 37.5351 9.61147 37.194 9.73641C37.6293 9.70177 37.9948 9.64186 38.4809 9.586C39.4288 9.47545 40.3598 9.26153 41.3061 9.13939C42.7134 9.01113 44.1186 8.92866 45.5256 8.85634C47.5454 8.75095 49.5765 8.6956 51.5924 8.50217C53.4242 8.4163 55.2541 8.34184 57.092 8.30501C57.9872 8.28922 58.9445 8.18694 59.8368 8.2721C60.1548 8.29961 59.7553 8.51822 59.6501 8.59822C58.936 9.10752 58.0909 9.45183 57.2797 9.74176C56.9007 9.90318 56.512 10.0485 56.1107 10.1714C55.3198 10.4363 54.57 10.6564 53.8802 10.8745C54.0532 10.8643 54.0237 10.8718 54.4527 10.8448C55.6415 10.7417 56.8484 10.5627 58.0443 10.4886C61.1632 10.2965 64.2874 10.2689 67.4094 10.1943" stroke="#80C315" stroke-width="0.09"/>
<path d="M4.92791 3.81979C4.75365 3.89457 4.59313 3.99446 4.41437 4.04921C4.15646 4.12138 3.90174 4.20122 3.64087 4.27432C5.4164 4.2272 7.2257 4.32022 9.00986 4.39082C11.2488 4.41851 13.6573 4.5389 15.9542 4.57489C17.3561 4.67249 18.8016 4.63919 20.2098 4.66888C22.8428 4.72878 25.4827 4.58134 28.122 4.62481C28.4847 4.6267 28.8467 4.64449 29.203 4.673C29.3164 4.68106 29.2813 4.69158 29.3484 4.70024C29.2269 4.74611 29.1899 4.797 29.0805 4.86617C28.4271 5.15279 27.7271 5.41207 27.0094 5.57033C26.4568 5.70592 25.8867 5.78931 25.3158 5.85506C24.298 6.07368 23.2636 6.23152 22.2426 6.40347C21.0183 6.67292 19.7892 6.90277 18.5468 7.09137C17.8774 7.204 17.1256 7.31385 16.4516 7.42946C16.1346 7.53304 16.5479 7.48658 16.596 7.5065C18.6811 7.50748 20.6669 7.50234 22.7601 7.46162C23.3091 7.46155 24.0384 7.45006 24.599 7.43926C25.4169 7.45353 26.2358 7.46315 27.0542 7.48281C29.6235 7.56287 32.1994 7.65534 34.7692 7.72877C36.3403 7.75914 38.4234 7.72759 39.5718 7.83935C40.405 7.94004 41.2414 8.01055 42.07 8.11361C41.981 8.20797 41.896 8.28538 41.8056 8.38275C41.6149 8.47485 41.276 8.60657 41.0497 8.6938C40.2845 8.97652 39.5208 9.25682 38.7469 9.5141C38.3038 9.65677 37.6364 9.93085 37.2641 10.0658C37.6838 10.0324 38.027 9.97672 38.5016 9.9225C39.4239 9.81539 40.3299 9.60844 41.2508 9.49028C42.6857 9.36315 44.1185 9.28088 45.5532 9.20694C47.6477 9.09739 49.7542 9.03912 51.8439 8.83137C53.6697 8.73993 55.4935 8.65972 57.3258 8.622C58.208 8.60607 59.1501 8.50778 60.0296 8.5899C60.3457 8.61643 59.9525 8.82736 59.8469 8.90729C59.1002 9.43785 58.2137 9.79365 57.3647 10.093C56.9812 10.2541 56.5885 10.3999 56.1834 10.523C55.4144 10.7801 54.6916 10.9929 54.0325 11.2026C54.2249 11.1897 54.2221 11.1902 54.6612 11.16C55.8928 11.0464 57.1422 10.8616 58.3817 10.7848C61.4341 10.5968 64.4915 10.5669 67.5468 10.4911" stroke="#82C114" stroke-width="0.09"/>
<path d="M5.03171 4.02115C4.82686 4.10351 4.63663 4.21324 4.42682 4.27425C4.13222 4.35393 3.841 4.44145 3.54321 4.52055C5.23103 4.47928 6.95349 4.57445 8.65041 4.64921C10.8002 4.67786 13.132 4.79621 15.344 4.83091C16.728 4.93365 18.1589 4.89894 19.5498 4.92833C22.3584 4.99225 25.1736 4.83488 27.9882 4.88173C28.3637 4.88402 28.7384 4.90304 29.1075 4.93201C29.2268 4.94035 29.1961 4.95066 29.2701 4.95919C29.1548 5.00339 29.1295 5.0514 29.0268 5.11944C28.3987 5.39611 27.7212 5.64663 27.0289 5.79961C26.4903 5.93331 25.9345 6.01574 25.3779 6.08137C24.3426 6.31079 23.2896 6.4772 22.2502 6.6583C20.9724 6.94505 19.6895 7.1904 18.3923 7.39096C17.6851 7.5112 16.8983 7.63021 16.1859 7.74918C15.865 7.85082 16.2474 7.80856 16.2781 7.8299C18.2851 7.83095 20.1859 7.82686 22.2018 7.78839C22.7307 7.78966 23.4528 7.77919 23.9941 7.76893C24.8111 7.78555 25.6292 7.79664 26.4468 7.81693C29.0735 7.90108 31.707 7.99132 34.3343 8.06477C36.0074 8.09688 38.1741 8.0678 39.4401 8.16974C40.3633 8.2624 41.2892 8.32201 42.208 8.41832C42.1358 8.50885 42.068 8.58159 41.9944 8.67606C41.8134 8.76489 41.4738 8.89652 41.2551 8.9808C40.4715 9.26965 39.6878 9.55085 38.8955 9.81369C38.4234 9.9656 37.7378 10.2502 37.3343 10.3951C37.7383 10.363 38.0594 10.3115 38.5223 10.2589C39.4192 10.1553 40.3002 9.95527 41.1956 9.84111C42.6581 9.71509 44.1186 9.63303 45.5808 9.55747C47.7501 9.44376 49.9321 9.38257 52.0956 9.16051C53.9154 9.06348 55.733 8.97753 57.5597 8.93892C58.4289 8.92286 59.3559 8.82855 60.2225 8.90762C60.5367 8.93317 60.1498 9.13644 60.0439 9.21629C59.2646 9.76812 58.3365 10.1354 57.4498 10.4443C57.0619 10.6049 56.6652 10.7512 56.2561 10.8746C55.5091 11.1238 54.8133 11.3295 54.1849 11.5306C54.3968 11.5151 54.4205 11.5086 54.8699 11.4751C56.1442 11.3511 57.4361 11.1605 58.7192 11.081C61.705 10.897 64.6957 10.865 67.6842 10.7878" stroke="#83BF14" stroke-width="0.09"/>
<path d="M5.13502 4.2226C4.89958 4.31254 4.67964 4.43211 4.43879 4.49939C4.10749 4.58656 3.77977 4.68177 3.44507 4.76688C5.04517 4.73146 6.6808 4.82878 8.29047 4.90769C10.3512 4.93729 12.6062 5.05361 14.7333 5.08702C16.0995 5.19491 17.5158 5.15879 18.8893 5.18787C21.8734 5.25581 24.864 5.08851 27.854 5.13873C28.2422 5.14144 28.6296 5.16167 29.0116 5.19111C29.1366 5.19974 29.1103 5.20982 29.1913 5.21823C29.0821 5.26077 29.0687 5.3059 28.9725 5.37281C28.3698 5.63952 27.7149 5.88128 27.0479 6.02898C26.5234 6.16079 25.9817 6.24225 25.4395 6.30777C24.3866 6.54799 23.3152 6.72297 22.2573 6.91323C20.926 7.21728 19.5893 7.47812 18.2373 7.69064C17.4922 7.81848 16.6705 7.94666 15.9198 8.06899C15.5949 8.1687 15.9465 8.13063 15.9596 8.15339C17.8887 8.15451 19.7044 8.15148 21.6429 8.11525C22.1518 8.11786 22.8667 8.10842 23.3887 8.0987C24.2049 8.11765 25.0221 8.13022 25.8389 8.15115C28.5229 8.23937 31.2141 8.32739 33.8989 8.40085C35.6741 8.43471 37.9243 8.40811 39.3079 8.50021C40.321 8.58485 41.3366 8.63357 42.3455 8.72311C42.2901 8.80981 42.2394 8.87789 42.1827 8.96947C42.0114 9.05502 41.671 9.18656 41.4599 9.26789C40.6581 9.56287 39.8543 9.84497 39.0435 10.1134C38.5426 10.2745 37.8388 10.5696 37.404 10.7245C37.7924 10.6937 38.0912 10.6464 38.5426 10.5954C39.4139 10.4952 40.27 10.3022 41.1399 10.192C42.63 10.0671 44.1181 9.98527 45.608 9.9081C47.8521 9.79022 50.1094 9.72611 52.3467 9.48973C54.1605 9.38713 55.9721 9.29543 57.7932 9.25593C58.6494 9.23974 59.5612 9.14941 60.4148 9.22545C60.7272 9.25001 60.3467 9.44561 60.2404 9.52539C59.4284 10.0985 58.4589 10.4772 57.5345 10.7956C57.1421 10.9558 56.7413 11.1026 56.3284 11.2262C55.6033 11.4676 54.9345 11.6661 54.3369 11.8587C54.5683 11.8405 54.6185 11.8271 55.078 11.7903C56.3951 11.6558 57.7296 11.4595 59.0562 11.3772C61.9755 11.1974 64.8993 11.1631 67.8212 11.0846" stroke="#85BD14" stroke-width="0.09"/>
<path d="M5.23882 4.42404C4.97279 4.52157 4.72314 4.65098 4.45125 4.72452C4.08325 4.81919 3.71902 4.92209 3.34741 5.01321C4.8598 4.98364 6.40859 5.0831 7.93102 5.16617C9.90265 5.19672 12.0809 5.31101 14.1231 5.34313C15.4715 5.45616 16.8731 5.41863 18.2292 5.44741C21.3889 5.51938 24.5549 5.34214 27.7203 5.39574C28.1211 5.39885 28.5213 5.4203 28.9162 5.45022C29.047 5.45913 29.025 5.46899 29.1131 5.47727C29.01 5.51814 29.0084 5.5604 28.9187 5.62618C28.3413 5.88294 27.709 6.11593 27.0675 6.25836C26.5569 6.38827 26.0294 6.46877 25.5016 6.53416C24.4312 6.78519 23.3413 6.96875 22.2649 7.16816C20.8802 7.48951 19.4896 7.76583 18.0828 7.99032C17.2999 8.12577 16.4433 8.2631 15.6542 8.38881C15.3253 8.48658 15.646 8.4527 15.6417 8.47689C17.4928 8.47807 19.2234 8.47609 21.0846 8.4421C21.5734 8.44606 22.2811 8.43764 22.7839 8.42847C23.5991 8.44976 24.4155 8.4638 25.2315 8.48536C27.9729 8.57767 30.7217 8.66346 33.4639 8.73694C35.3412 8.77254 37.6749 8.74841 39.1763 8.83068C40.2793 8.90731 41.3845 8.94513 42.4835 9.0279C42.445 9.11078 42.4114 9.17419 42.3715 9.26287C42.2099 9.34516 41.8688 9.47659 41.6652 9.55498C40.8452 9.85608 40.0213 10.1391 39.1921 10.4131C38.6622 10.5834 37.9402 10.889 37.4742 11.054C37.847 11.0244 38.1236 10.9813 38.5634 10.932C39.4092 10.8352 40.2402 10.6491 41.0847 10.543C42.6025 10.4192 44.1182 10.3375 45.6356 10.2587C47.9545 10.1367 50.2873 10.0696 52.5984 9.81896C54.4061 9.71078 56.2116 9.61334 58.0272 9.57294C58.8703 9.55661 59.7669 9.47027 60.6077 9.54327C60.9182 9.56685 60.544 9.75477 60.4374 9.83448C59.5928 10.4288 58.5818 10.8191 57.6196 11.1469C57.2228 11.3067 56.8179 11.454 56.4012 11.5779C55.6981 11.8114 55.0563 12.0027 54.4893 12.1868C54.7402 12.166 54.817 12.1456 55.2867 12.1055C56.6465 11.9605 58.0235 11.7585 59.3937 11.6735C62.2465 11.4977 65.1035 11.4612 67.9587 11.3814" stroke="#86BC14" stroke-width="0.09"/>
<path d="M5.3425 4.6254C5.04587 4.7305 4.76652 4.86977 4.46358 4.94956C4.05888 5.05173 3.65816 5.16232 3.24963 5.25944C4.67431 5.23573 6.13625 5.33733 7.57144 5.42456C9.45397 5.45606 11.5554 5.56832 13.5128 5.59915C14.8434 5.71733 16.2303 5.67839 17.5691 5.70686C20.9043 5.78284 24.2457 5.59568 27.5864 5.65266C28 5.65618 28.4128 5.67884 28.8207 5.70923C28.9572 5.71843 28.9396 5.72807 29.0347 5.73622C28.9378 5.77543 28.9479 5.81481 28.8648 5.87946C28.3128 6.12626 27.703 6.35049 27.0869 6.48764C26.5904 6.61567 26.077 6.69519 25.5636 6.76047C24.4756 7.0223 23.3672 7.21443 22.2724 7.42299C20.8342 7.76164 19.3898 8.05346 17.9281 8.28991C17.1074 8.43296 16.2159 8.57946 15.3884 8.70853C15.0556 8.80436 15.3453 8.77468 15.3236 8.80029C17.0967 8.80154 18.7423 8.80061 20.5261 8.76887C20.9949 8.77417 21.6954 8.76678 22.1788 8.75815C22.9932 8.78177 23.8088 8.79728 24.624 8.81949C27.4227 8.91587 30.2292 8.99943 33.0289 9.07293C35.0082 9.11028 37.4255 9.08863 39.0444 9.16107C40.2374 9.22967 41.4322 9.2566 42.6214 9.3326C42.5997 9.41166 42.5832 9.4704 42.5602 9.55619C42.4083 9.6352 42.0664 9.76654 41.8705 9.84198C41.0322 10.1492 40.1882 10.4331 39.3405 10.7126C38.7817 10.8923 38.0415 11.2083 37.5443 11.3833C37.9015 11.355 38.1558 11.316 38.5841 11.2684C39.4043 11.1751 40.2104 10.996 41.0294 10.8938C42.5747 10.7711 44.1181 10.6897 45.6632 10.6093C48.0568 10.483 50.4651 10.4131 52.8499 10.1481C54.6516 10.0343 56.451 9.93115 58.261 9.88986C59.0912 9.8734 59.9726 9.79104 60.8005 9.861C61.1091 9.8836 60.7412 10.0639 60.6343 10.1435C59.757 10.7591 58.7045 11.1608 57.7046 11.4981C57.3033 11.6575 56.8945 11.8054 56.4738 11.9295C55.7927 12.1551 55.1779 12.3392 54.6416 12.5149C54.9119 12.4914 55.0153 12.464 55.4952 12.4206C56.8978 12.2651 58.3174 12.0574 59.731 11.9696C62.5173 11.7979 65.3076 11.7592 68.096 11.6782" stroke="#88BA13" stroke-width="0.09"/>
<path d="M5.44618 4.82684C5.11896 4.93953 4.8099 5.08864 4.47592 5.17469C4.03452 5.28437 3.59729 5.40263 3.15186 5.50577C4.48882 5.48791 5.86392 5.59166 7.21187 5.68304C9.0053 5.71549 11.03 5.82572 12.9024 5.85526C14.2152 5.97858 15.5875 5.93823 16.909 5.9664C20.4197 6.04641 23.9365 5.84931 27.4525 5.90967C27.8789 5.91359 28.3043 5.93748 28.7252 5.96833C28.8675 5.97782 28.8542 5.98723 28.9563 5.99526C28.8655 6.03281 28.8875 6.0693 28.8109 6.13283C28.2843 6.36967 27.697 6.58514 27.1063 6.71701C26.6238 6.84315 26.1246 6.9217 25.6255 6.98687C24.52 7.2595 23.3931 7.4602 22.2799 7.67792C20.7882 8.03387 19.2899 8.34118 17.7735 8.58959C16.9149 8.74025 15.9885 8.8959 15.1226 9.02835C14.7858 9.12224 15.0447 9.09675 15.0056 9.12378C16.7007 9.12511 18.2612 9.12522 19.9676 9.09573C20.4164 9.10238 21.1097 9.096 21.5738 9.08792C22.3873 9.11388 23.202 9.13086 24.0165 9.1537C26.8725 9.25416 29.7367 9.3355 32.5938 9.40901C34.6751 9.44811 37.176 9.42893 38.9126 9.49154C40.1955 9.55212 41.4799 9.56816 42.7593 9.6374C42.7544 9.71263 42.755 9.7667 42.7488 9.84959C42.6067 9.92533 42.2641 10.0566 42.0757 10.1291C41.2191 10.4424 40.355 10.7272 39.489 11.0123C38.9012 11.2012 38.1429 11.5277 37.6144 11.7127C37.9559 11.6856 38.188 11.6509 38.6047 11.6049C39.3994 11.515 40.1805 11.3429 40.974 11.2447C42.547 11.1232 44.118 11.0419 45.6907 10.9599C48.1591 10.8295 50.6428 10.7566 53.1015 10.4773C54.8972 10.358 56.6903 10.249 58.4948 10.2069C59.312 10.1903 60.1782 10.1119 60.9932 10.1788C61.3 10.2004 60.9384 10.373 60.8312 10.4526C59.9212 11.0895 58.8272 11.5027 57.7897 11.8494C57.3839 12.0084 56.971 12.1568 56.5464 12.2812C55.8873 12.4989 55.2994 12.6758 54.7939 12.843C55.0837 12.8168 55.2137 12.7824 55.7037 12.7358C57.149 12.5698 58.6112 12.3563 60.0684 12.2659C62.7881 12.0982 65.5117 12.0573 68.2334 11.975" stroke="#89B813" stroke-width="0.09"/>
<path d="M5.54962 5.02829C5.1918 5.14856 4.85303 5.30751 4.48801 5.39982C4.00992 5.517 3.53618 5.64295 3.05383 5.75209C4.30309 5.74008 5.59135 5.84598 6.85205 5.94152C8.55638 5.97492 10.5043 6.08312 12.2918 6.11138C13.5868 6.23984 14.9445 6.19808 16.2486 6.22594C19.9349 6.30997 23.627 6.10294 27.3184 6.16667C27.7575 6.17101 28.1956 6.19611 28.6294 6.22744C28.7775 6.2372 28.7685 6.2464 28.8777 6.2543C28.793 6.29018 28.8268 6.3238 28.7568 6.3862C28.2555 6.61309 27.6908 6.8198 27.1254 6.94638C26.6569 7.07063 26.172 7.14822 25.6873 7.21327C24.5642 7.4967 23.4188 7.70597 22.2872 7.93285C20.7419 8.30609 19.1898 8.62889 17.6186 8.88928C16.7222 9.04754 15.7608 9.21235 14.8566 9.34817C14.5158 9.44011 14.7439 9.41882 14.6873 9.44727C16.3044 9.44867 17.7798 9.44983 19.4089 9.42259C19.8377 9.43058 20.5237 9.42523 20.9686 9.41769C21.7812 9.44598 22.5951 9.46444 23.4087 9.48791C26.3221 9.59246 29.2439 9.67157 32.1585 9.7451C34.3419 9.78594 36.9263 9.76924 38.7806 9.82202C40.1534 9.87457 41.5274 9.87971 42.897 9.94219C42.9089 10.0136 42.9266 10.063 42.9373 10.143C42.8048 10.2155 42.4614 10.3466 42.2807 10.4162C41.4058 10.7356 40.5217 11.0213 39.6371 11.312C39.0205 11.5101 38.2439 11.8471 37.6842 12.0421C38.0101 12.0163 38.22 11.9858 38.6251 11.9414C39.3942 11.855 40.1504 11.6898 40.9184 11.5956C42.5191 11.4752 44.1177 11.3942 45.718 11.3105C48.2611 11.176 50.8203 11.1002 53.3527 10.8066C55.1424 10.6816 56.9295 10.567 58.7284 10.5239C59.5326 10.5072 60.3836 10.4328 61.1857 10.4966C61.4906 10.5173 61.1354 10.6822 61.0278 10.7617C60.0852 11.4198 58.9497 11.8445 57.8744 12.2007C57.4641 12.3593 57.0472 12.5082 56.6188 12.6328C55.9816 12.8427 55.4208 13.0124 54.9459 13.1711C55.2552 13.1423 55.4118 13.1009 55.912 13.051C57.4 12.8745 58.9047 12.6553 60.4055 12.5621C63.0587 12.3985 65.7155 12.3554 68.3704 12.2718" stroke="#8BB613" stroke-width="0.09"/>
<path d="M5.6533 5.22964C5.26489 5.3575 4.89641 5.52629 4.50034 5.62486C3.98555 5.74954 3.47532 5.88318 2.95605 5.99833C4.1176 5.99217 5.31902 6.10021 6.49248 6.19991C8.1077 6.23426 9.97889 6.34043 11.6815 6.3674C12.9587 6.501 14.3017 6.45783 15.5884 6.48539C19.4503 6.57344 23.3178 6.35648 27.1845 6.42359C27.6363 6.42833 28.0872 6.45465 28.5339 6.48645C28.6877 6.4965 28.6831 6.50547 28.7993 6.51325C28.7208 6.54747 28.7663 6.57821 28.7029 6.63948C28.2269 6.85641 27.6848 7.05436 27.1448 7.17566C26.6904 7.29802 26.2196 7.37464 25.7492 7.43957C24.6086 7.73381 23.4448 7.95165 22.2947 8.18769C20.6959 8.57823 19.09 8.91652 17.464 9.18887C16.5297 9.35473 15.5334 9.52871 14.5909 9.66789C14.2461 9.7579 14.4433 9.7408 14.3692 9.77068C15.9083 9.77214 17.2987 9.77435 18.8504 9.74936C19.2591 9.75869 19.938 9.75436 20.3636 9.74737C21.1753 9.778 21.9883 9.79793 22.8012 9.82204C25.7719 9.93066 28.7514 10.0075 31.7235 10.0811C34.0089 10.1237 36.6768 10.1095 38.6488 10.1524C40.1115 10.1969 41.5751 10.1912 43.0349 10.2469C43.0636 10.3145 43.0984 10.3592 43.1259 10.4363C43.0032 10.5055 42.6591 10.6366 42.4859 10.7032C41.5928 11.0288 40.6886 11.3154 39.7856 11.6116C39.14 11.819 38.3452 12.1664 37.7543 12.3714C38.0646 12.3469 38.2522 12.3206 38.6458 12.2779C39.3893 12.1949 40.1206 12.0367 40.8631 11.9464C42.4914 11.8271 44.1176 11.7463 45.7456 11.661C48.3634 11.5223 50.9981 11.4436 53.6043 11.1357C55.3879 11.0052 57.1689 10.8848 58.9622 10.8408C59.7534 10.8239 60.5893 10.7535 61.3785 10.8144C61.6815 10.834 61.3326 10.9913 61.2246 11.0707C60.2494 11.7501 59.0724 12.1862 57.9594 12.552C57.5447 12.7101 57.1237 12.8596 56.6915 12.9844C56.0762 13.1864 55.5424 13.349 55.0982 13.4991C55.427 13.4676 55.6101 13.4193 56.1205 13.3661C57.6513 13.1792 59.1986 12.9542 60.7429 12.8583C63.3296 12.6988 65.9195 12.6534 68.5078 12.5685" stroke="#8CB513" stroke-width="0.09"/>
<path d="M5.7571 5.43109C5.3381 5.56653 4.93991 5.74517 4.5128 5.84999C3.96131 5.98218 3.41458 6.1235 2.8584 6.24465C3.93223 6.24435 5.04681 6.35453 6.13302 6.45839C7.65915 6.4937 9.45358 6.59784 11.0713 6.62351C12.3306 6.76226 13.659 6.71767 14.9284 6.74493C18.9658 6.837 23.0087 6.6101 27.0508 6.6806C27.5153 6.68575 27.9789 6.71329 28.4384 6.74555C28.5981 6.75589 28.5978 6.76464 28.721 6.77229C28.6487 6.80484 28.706 6.83271 28.6491 6.89285C28.1985 7.09982 27.679 7.28901 27.1644 7.40503C26.7239 7.52551 26.2673 7.60116 25.8113 7.66597C24.6532 7.97101 23.4708 8.19742 22.3023 8.44261C20.65 8.85045 18.9903 9.20424 17.3095 9.48855C16.3374 9.66202 15.3061 9.84515 14.3252 9.98771C13.9765 10.0758 14.1428 10.0629 14.0513 10.0942C15.5124 10.0957 16.8177 10.099 18.2921 10.0762C18.6808 10.0869 19.3524 10.0836 19.7587 10.0771C20.5695 10.1101 21.3817 10.1315 22.1937 10.1563C25.2219 10.269 28.259 10.3436 31.2885 10.4172C33.676 10.4615 36.4275 10.4498 38.5171 10.4829C40.0698 10.5194 41.623 10.5027 43.1729 10.5517C43.2184 10.6154 43.2704 10.6555 43.3147 10.7297C43.2017 10.7956 42.8568 10.9266 42.6912 10.9903C41.7799 11.322 40.8556 11.6095 39.9341 11.9113C39.2597 12.1279 38.4467 12.4858 37.8245 12.7008C38.1191 12.6776 38.2846 12.6555 38.6665 12.6144C39.3846 12.5348 40.0909 12.3836 40.8079 12.2974C42.4638 12.1792 44.1176 12.0985 45.7732 12.0117C48.4658 11.8688 51.1759 11.7872 53.8559 11.4649C55.6336 11.3288 57.4084 11.2027 59.1962 11.1578C59.9743 11.1408 60.795 11.0744 61.5714 11.1322C61.8725 11.1509 61.53 11.3004 61.4216 11.3798C60.4138 12.0804 59.1953 12.5281 58.0446 12.9033C57.6254 13.061 57.2004 13.211 56.7642 13.3361C56.171 13.5302 55.6641 13.6856 55.2507 13.8272C55.5989 13.7931 55.8086 13.7378 56.3291 13.6813C57.9027 13.4839 59.4925 13.2532 61.0804 13.1546C63.6005 12.9991 66.1237 12.9515 68.6453 12.8653" stroke="#8EB313" stroke-width="0.09"/>
<path d="M5.86078 5.63254C5.41118 5.77556 4.98329 5.96404 4.52513 6.07512C3.93695 6.21481 3.35371 6.36382 2.76062 6.49098C3.74674 6.49653 4.77448 6.60886 5.77345 6.71687C7.21047 6.75313 8.92815 6.85524 10.461 6.87962C11.7025 7.02351 13.0162 6.97752 14.2683 7.00447C18.4812 7.10056 22.6995 6.86373 26.9169 6.93761C27.3942 6.94316 27.8704 6.97192 28.3429 7.00466C28.5083 7.01528 28.5124 7.0238 28.6426 7.03134C28.5764 7.06222 28.6455 7.0872 28.5952 7.14621C28.17 7.34324 27.673 7.52366 27.1838 7.6344C26.7573 7.75299 26.3149 7.82767 25.8733 7.89237C24.6976 8.20821 23.4968 8.4432 22.3098 8.69754C20.604 9.12268 18.8904 9.49196 17.1549 9.78823C16.1449 9.9693 15.0787 10.1616 14.0595 10.3075C13.7068 10.3937 13.8422 10.3849 13.7332 10.4177C15.1163 10.4193 16.3366 10.4236 17.7336 10.4031C18.1022 10.4151 18.7667 10.4128 19.1537 10.4069C19.9636 10.4422 20.775 10.4651 21.5862 10.4905C24.6717 10.6072 27.7664 10.6797 30.8535 10.7533C33.343 10.7993 36.178 10.7901 38.3853 10.8133C40.0279 10.8418 41.6707 10.8143 43.3108 10.8565C43.3731 10.9164 43.4422 10.9518 43.5034 11.0231C43.4001 11.0858 43.0545 11.2166 42.8964 11.2773C41.9668 11.6152 41.0224 11.9036 40.0826 12.211C39.3792 12.4368 38.548 12.8052 37.8946 13.0303C38.1736 13.0083 38.3168 12.9903 38.6872 12.9509C39.3797 12.8748 40.061 12.7305 40.7526 12.6483C42.4361 12.5312 44.1176 12.4508 45.8008 12.3623C48.5681 12.2153 51.3537 12.1307 54.1075 11.7941C55.8791 11.6525 57.6478 11.5206 59.43 11.4748C60.1952 11.4577 61.0007 11.3953 61.7641 11.45C62.0633 11.4677 61.7272 11.6096 61.6185 11.6889C60.578 12.4108 59.318 12.8699 58.1296 13.2546C57.7059 13.4119 57.2769 13.5624 56.8369 13.6877C56.2656 13.874 55.7857 14.0222 55.403 14.1553C55.7707 14.1185 56.0069 14.0563 56.5377 13.9965C58.154 13.7886 59.7863 13.5522 61.4177 13.4508C63.8714 13.2994 66.3278 13.2496 68.7826 13.1622" stroke="#8FB112" stroke-width="0.09"/>
<path d="M5.96446 5.83389C5.48427 5.98449 5.02667 6.18282 4.53747 6.30016C3.91259 6.44735 3.29285 6.60405 2.66284 6.73721C3.56125 6.74861 4.50215 6.86309 5.41388 6.97526C6.7618 7.01247 8.40271 7.11255 9.85063 7.13564C11.0744 7.28468 12.3735 7.23727 13.6081 7.26392C17.9966 7.36403 22.3902 7.11727 26.783 7.19452C27.273 7.20049 27.7619 7.23046 28.2474 7.26367C28.4185 7.27457 28.427 7.28288 28.5642 7.29029C28.5042 7.31951 28.5851 7.34161 28.5413 7.39949C28.1415 7.58656 27.667 7.75822 27.2032 7.86368C26.7908 7.98038 26.3625 8.0541 25.9353 8.11868C24.742 8.44532 23.5227 8.68888 22.3173 8.95238C20.558 9.39482 18.7906 9.77958 17.0003 10.0878C15.9524 10.2765 14.8513 10.478 13.7937 10.6272C13.4371 10.7114 13.5415 10.7069 13.4152 10.7411C14.7203 10.7427 15.8555 10.7481 17.1751 10.7298C17.5237 10.7432 18.181 10.7419 18.5487 10.7366C19.3577 10.7742 20.1683 10.7986 20.9787 10.8246C24.1215 10.9455 27.2739 11.0157 30.4184 11.0893C33.01 11.1371 35.9285 11.1303 38.2534 11.1437C39.986 11.1642 41.7184 11.1258 43.4487 11.1612C43.5278 11.2173 43.614 11.248 43.6921 11.3164C43.5985 11.3758 43.2521 11.5066 43.1017 11.5643C42.1538 11.9083 41.1893 12.1976 40.231 12.5106C39.4987 12.7456 38.6493 13.1245 37.9647 13.3596C38.2281 13.3388 38.349 13.3251 38.7078 13.2873C39.3748 13.2147 40.0311 13.0773 40.6972 12.9991C42.4083 12.8832 44.1175 12.8029 45.8283 12.7128C48.6704 12.5616 51.5314 12.4742 54.359 12.1233C56.1246 11.976 57.8872 11.8384 59.6638 11.7917C60.416 11.7745 61.2063 11.716 61.9568 11.7677C62.2542 11.7844 61.9244 11.9187 61.8154 11.9979C60.7422 12.7411 59.4408 13.2117 58.2146 13.6058C57.7864 13.7627 57.3534 13.9137 56.9095 14.0393C56.3602 14.2178 55.9073 14.3587 55.5553 14.4833C55.9425 14.4439 56.2053 14.3747 56.7462 14.3116C58.4053 14.0932 60.0801 13.851 61.7551 13.747C64.1422 13.5996 66.5319 13.5476 68.9199 13.4589" stroke="#91AF12" stroke-width="0.09"/>
<path d="M6.06789 6.03534C5.55711 6.19352 5.0698 6.4017 4.54956 6.52529C3.88798 6.67998 3.23174 6.84437 2.56482 6.98354C3.37552 7.00079 4.22957 7.11741 5.05406 7.23374C6.31288 7.2719 7.87704 7.36995 9.24005 7.39175C10.446 7.54593 11.7304 7.49712 12.9478 7.52346C17.5118 7.62759 22.0808 7.3709 26.6489 7.45153C27.1516 7.4579 27.6532 7.4891 28.1516 7.52277C28.3285 7.53396 28.3413 7.54205 28.4856 7.54933C28.4317 7.57688 28.5244 7.59611 28.4872 7.65286C28.1127 7.82998 27.6608 7.99287 27.2223 8.09305C26.8239 8.20787 26.4098 8.28061 25.997 8.34507C24.7862 8.68252 23.5484 8.93465 22.3246 9.2073C20.5118 9.66704 18.6905 10.0673 16.8454 10.3875C15.7597 10.5838 14.6237 10.7944 13.5277 10.9471C13.1671 11.0293 13.2407 11.029 13.0969 11.0646C14.324 11.0663 15.3741 11.0727 16.6164 11.0567C16.945 11.0714 17.595 11.0712 17.9435 11.0664C18.7516 11.1063 19.5613 11.1322 20.3709 11.1588C23.5711 11.2837 26.7811 11.3517 29.9831 11.4253C32.6767 11.4749 35.6788 11.4706 38.1214 11.4742C39.9439 11.4867 41.7659 11.4373 43.5864 11.466C43.6823 11.5183 43.7856 11.5443 43.8805 11.6098C43.7966 11.6659 43.4495 11.7966 43.3066 11.8514C42.3405 12.2016 41.3559 12.4917 40.3792 12.8102C39.618 13.0546 38.7504 13.4439 38.0345 13.689C38.2823 13.6695 38.381 13.66 38.7283 13.6239C39.3697 13.5546 40.0011 13.4243 40.6417 13.35C42.3804 13.2352 44.1172 13.1552 45.8556 13.0634C48.7725 12.9081 51.7089 12.8177 54.6103 12.4525C56.3699 12.2997 58.1263 12.1563 59.8974 12.1087C60.6366 12.0914 61.4117 12.0369 62.1494 12.0856C62.4448 12.1013 62.1213 12.2278 62.012 12.307C60.9062 13.0714 59.5633 13.5535 58.2994 13.9571C57.8668 14.1136 57.4297 14.2652 56.9819 14.391C56.4545 14.5616 56.0286 14.6953 55.7073 14.8114C56.114 14.7693 56.4034 14.6931 56.9545 14.6268C58.6563 14.3979 60.3737 14.15 62.0922 14.0432C64.4128 13.9 66.7357 13.8457 69.057 13.7557" stroke="#92AD12" stroke-width="0.09"/>
<path d="M6.17157 6.23669C5.6302 6.40246 5.11318 6.62048 4.56189 6.75033C3.86362 6.91253 3.17087 7.08459 2.46704 7.22977C3.19002 7.25288 3.95724 7.37164 4.69448 7.49213C5.8642 7.53124 7.3516 7.62726 8.62971 7.64777C9.81782 7.80709 11.0876 7.75687 12.2876 7.78291C17.0272 7.89106 21.7716 7.62444 26.5151 7.70845C27.0305 7.71523 27.5448 7.74764 28.0561 7.78179C28.2388 7.79326 28.2559 7.80112 28.4072 7.80828C28.3594 7.83417 28.4639 7.85051 28.4333 7.90614C28.0841 8.0733 27.6548 8.22743 27.2418 8.32233C26.8573 8.43526 26.4574 8.50704 26.059 8.57138C24.8306 8.91963 23.5743 9.18033 22.3321 9.46214C20.4658 9.93918 18.5907 10.3549 16.6908 10.6871C15.5672 10.891 14.3963 11.1108 13.2619 11.2668C12.8973 11.3471 12.9401 11.351 12.7788 11.388C13.9279 11.3898 14.893 11.3972 16.0579 11.3835C16.3665 11.3995 17.0093 11.4003 17.3385 11.396C18.1457 11.4383 18.9546 11.4656 19.7634 11.4929C23.0209 11.6219 26.2886 11.6877 29.548 11.7613C32.3437 11.8127 35.4294 11.8108 37.9896 11.8046C39.9021 11.809 41.8137 11.7488 43.7243 11.7707C43.837 11.8191 43.9574 11.8405 44.0692 11.9032C43.995 11.956 43.6471 12.0866 43.5118 12.1384C42.5275 12.4947 41.5228 12.7858 40.5276 13.1098C39.7375 13.3634 38.8517 13.7632 38.1046 14.0183C38.3367 14.0001 38.4132 13.9948 38.7489 13.9603C39.3648 13.8945 39.9712 13.7711 40.5863 13.7009C42.3527 13.5872 44.1171 13.5073 45.8831 13.414C48.8747 13.2545 51.8867 13.1611 54.8618 12.7816C56.6154 12.6232 58.3657 12.4741 60.1312 12.4257C60.8574 12.4081 61.6174 12.3577 62.3421 12.4033C62.6357 12.418 62.3185 12.5369 62.2088 12.616C61.0704 13.4017 59.686 13.8953 58.3844 14.3083C57.9473 14.4644 57.5062 14.6165 57.0545 14.7426C56.5491 14.9053 56.1502 15.0318 55.8596 15.1394C56.2858 15.0947 56.6017 15.0115 57.163 14.942C58.9076 14.7025 60.6675 14.4489 62.4296 14.3394C64.6836 14.2002 66.9397 14.1437 69.1944 14.0524" stroke="#94AC12" stroke-width="0.09"/>
<path d="M6.27537 6.43815C5.7034 6.61149 5.15668 6.83936 4.57435 6.97547C3.83938 7.14517 3.11013 7.32492 2.36938 7.47611C3.00466 7.50506 3.68503 7.62597 4.33503 7.75062C5.41565 7.79068 6.82629 7.88467 8.01949 7.90389C9.1898 8.06836 10.445 8.01672 11.6276 8.04246C16.5427 8.15463 21.4625 7.87808 26.3813 7.96546C26.9095 7.97265 27.4365 8.00628 27.9606 8.0409C28.1491 8.05265 28.1707 8.06029 28.3289 8.06733C28.2873 8.09155 28.4036 8.10502 28.3795 8.15952C28.0557 8.31672 27.649 8.46209 27.2613 8.55171C26.8909 8.66275 26.5052 8.73356 26.121 8.79779C24.8751 9.15684 23.6004 9.42611 22.3397 9.71708C20.4199 10.2114 18.491 10.6427 16.5363 10.9868C15.3749 11.1983 14.169 11.4272 12.9963 11.5866C12.6277 11.665 12.6396 11.673 12.4609 11.7115C13.532 11.7133 14.412 11.7218 15.4996 11.7103C15.7881 11.7277 16.4237 11.7295 16.7336 11.7258C17.5399 11.7705 18.348 11.7992 19.156 11.8271C22.4709 11.9603 25.7962 12.0238 29.1131 12.0974C32.0108 12.1505 35.18 12.1511 37.8579 12.1351C39.8603 12.1315 41.8615 12.0604 43.8623 12.0755C43.9919 12.1201 44.1293 12.1368 44.258 12.1966C44.1935 12.2461 43.8449 12.3766 43.7172 12.4255C42.7146 12.7879 41.6898 13.0799 40.6762 13.4095C39.8571 13.6723 38.9532 14.0827 38.1748 14.3477C38.3913 14.3308 38.4456 14.3297 38.7697 14.2968C39.36 14.2345 39.9415 14.118 40.5311 14.0518C42.3251 13.9392 44.1171 13.8596 45.9108 13.7646C48.9772 13.6009 52.0645 13.5047 55.1135 13.1109C56.861 12.9469 58.6052 12.792 60.3652 12.7427C61.0783 12.725 61.8231 12.6785 62.535 12.7211C62.8267 12.7349 62.5159 12.8461 62.4058 12.9251C61.2348 13.7321 59.8088 14.2371 58.4695 14.6596C58.028 14.8153 57.5828 14.9679 57.1273 15.0942C56.6439 15.2491 56.2719 15.3685 56.012 15.4675C56.4577 15.4202 56.8002 15.33 57.3716 15.2572C59.159 15.0073 60.9615 14.7479 62.7671 14.6357C64.9546 14.5005 67.1439 14.4418 69.3318 14.3492" stroke="#95AA11" stroke-width="0.09"/>
<path d="M6.37905 6.63959C5.77649 6.82051 5.20006 7.05822 4.58668 7.2006C3.81502 7.37779 3.04927 7.56523 2.27161 7.72242C2.81917 7.75723 3.4127 7.88029 3.97546 8.00909C4.96697 8.0501 6.30086 8.14206 7.40916 8.16C8.56166 8.3296 9.80218 8.27656 10.9675 8.30199C16.0581 8.41818 21.1533 8.1317 26.2474 8.22246C26.7883 8.23006 27.328 8.2649 27.8651 8.29999C28.0594 8.31204 28.0852 8.31945 28.2505 8.32636C28.215 8.34892 28.3432 8.35951 28.3256 8.41288C28.0272 8.56013 27.643 8.69673 27.2807 8.78108C26.9243 8.89022 26.5528 8.96007 26.183 9.02418C24.9196 9.39403 23.6263 9.67188 22.3472 9.972C20.3739 10.4836 18.3911 10.9304 16.3816 11.2865C15.1824 11.5055 13.9416 11.7437 12.7305 11.9064C12.358 11.9829 12.339 11.9951 12.1428 12.0349C13.136 12.0369 13.9309 12.0464 14.9411 12.0372C15.2096 12.0559 15.8379 12.0588 16.1286 12.0556C16.934 12.1026 17.7413 12.1328 18.5484 12.1614C21.9207 12.2985 25.3036 12.3598 28.6781 12.4335C31.6778 12.4883 34.9305 12.4914 37.7261 12.4655C39.8184 12.4539 41.9093 12.3719 44.0002 12.3803C44.1466 12.4211 44.3012 12.4331 44.4467 12.49C44.3919 12.5363 44.0425 12.6667 43.9224 12.7126C42.9015 13.0811 41.8567 13.374 40.8246 13.7092C39.9766 13.9812 39.0545 14.4021 38.2449 14.6771C38.4458 14.6615 38.4778 14.6645 38.7903 14.6333C39.3551 14.5744 39.9116 14.465 40.4758 14.4027C42.2974 14.2912 44.1171 14.2118 45.9383 14.1152C49.0795 13.9474 52.2423 13.8482 55.365 13.4401C57.1065 13.2705 58.8446 13.1099 60.599 13.0597C61.2992 13.0419 62.0288 12.9994 62.7277 13.0389C63.0176 13.0517 62.7131 13.1553 62.6027 13.2342C61.399 14.0624 59.9316 14.5789 58.5545 15.0109C58.1085 15.1662 57.6593 15.3193 57.1999 15.4459C56.7385 15.5929 56.3935 15.7051 56.1643 15.7956C56.6295 15.7456 56.9986 15.6485 57.5802 15.5724C59.4102 15.312 61.2553 15.0469 63.1044 14.9319C65.2254 14.8008 67.348 14.7399 69.4692 14.646" stroke="#97A811" stroke-width="0.09"/>
<path d="M6.48273 6.84094C5.84958 7.02945 5.24344 7.27701 4.59902 7.42564C3.79065 7.61033 2.9884 7.80546 2.17383 7.96866C2.63368 8.00932 3.14037 8.13452 3.61589 8.26748C4.51829 8.30944 5.77542 8.39937 6.79882 8.41602C7.93351 8.59077 9.15939 8.53631 10.3073 8.56144C15.5735 8.68165 20.844 8.38524 26.1136 8.47938C26.6672 8.48739 27.2195 8.52345 27.7696 8.55901C27.9696 8.57133 27.9998 8.57853 28.1721 8.58531C28.1428 8.60621 28.2827 8.61392 28.2717 8.66616C27.9986 8.80345 27.637 8.93129 27.3001 9.01036C26.9577 9.11762 26.6004 9.18649 26.245 9.25048C24.964 9.63114 23.6522 9.91756 22.3547 10.2268C20.3279 10.7558 18.2913 11.218 16.227 11.586C14.9899 11.8127 13.7142 12.06 12.4648 12.2261C12.0883 12.3006 12.0383 12.3171 11.8247 12.3583C12.7399 12.3604 13.4498 12.371 14.3826 12.364C14.6311 12.384 15.2522 12.3879 15.5236 12.3853C16.3281 12.4346 17.1345 12.4663 17.9409 12.4955C21.3705 12.6367 24.8111 12.6958 28.243 12.7695C31.3448 12.8261 34.6811 12.8316 37.5943 12.7959C39.7766 12.7763 41.957 12.6834 44.1381 12.685C44.3013 12.722 44.473 12.7293 44.6354 12.7833C44.5902 12.8263 44.2401 12.9566 44.1276 12.9996C43.0885 13.3742 42.0236 13.668 40.9731 14.0088C40.0962 14.2901 39.1558 14.7214 38.315 15.0065C38.5002 14.9921 38.51 14.9993 38.811 14.9698C39.3502 14.9143 39.8818 14.8118 40.4205 14.7535C42.2697 14.6432 44.117 14.564 45.9659 14.4657C49.1818 14.2937 52.42 14.1917 55.6165 13.7692C57.352 13.5941 59.084 13.4277 60.8329 13.3766C61.52 13.3587 62.2344 13.3202 62.9205 13.3567C63.2084 13.3685 62.9103 13.4643 62.7996 13.5432C61.5633 14.3927 60.0543 14.9207 58.6396 15.3622C58.1891 15.517 57.7358 15.6707 57.2726 15.7975C56.8331 15.9366 56.5151 16.0416 56.3166 16.1237C56.8013 16.071 57.1969 15.9669 57.7887 15.8875C59.6615 15.6166 61.5491 15.3458 63.4418 15.2281C65.4963 15.1011 67.5521 15.0379 69.6065 14.9428" stroke="#98A611" stroke-width="0.09"/>
<path d="M6.58617 7.04239C5.92242 7.23848 5.28657 7.49588 4.61111 7.65077C3.76605 7.84297 2.92729 8.04578 2.07581 8.21498C2.44794 8.2615 2.86779 8.38884 3.25607 8.52596C4.06937 8.56888 5.24974 8.65677 6.18824 8.67213C7.30512 8.85202 8.51635 8.79616 9.64693 8.82098C15.0886 8.94521 20.5346 8.63887 25.9794 8.73639C26.5458 8.7448 27.1108 8.78208 27.6738 8.81811C27.8796 8.83072 27.9142 8.83769 28.0935 8.84435C28.0703 8.86358 28.222 8.86841 28.2176 8.91953C27.9699 9.04686 27.6308 9.16594 27.3193 9.23973C26.9909 9.3451 26.6477 9.41301 26.3067 9.47688C25.0081 9.86834 23.6779 10.1633 22.362 10.4818C20.2817 11.028 18.1912 11.5057 16.0721 11.8857C14.7972 12.12 13.4866 12.3765 12.1988 12.546C11.8183 12.6185 11.7375 12.6392 11.5064 12.6818C12.3436 12.6839 12.9684 12.6956 13.8239 12.6908C14.0523 12.7122 14.6662 12.7171 14.9183 12.715C15.722 12.7667 16.5276 12.7999 17.3331 12.8297C20.8201 12.975 24.3183 13.0319 27.8077 13.1056C31.0115 13.1639 34.4314 13.1719 37.4622 13.1264C39.7344 13.0987 42.0045 12.9949 44.2757 12.9898C44.4557 13.0229 44.6446 13.0256 44.8238 13.0767C44.7884 13.1164 44.4375 13.2466 44.3326 13.2867C43.2752 13.6675 42.1902 13.9622 41.1212 14.3085C40.2154 14.599 39.2569 15.0408 38.3848 15.3359C38.5544 15.3227 38.542 15.3342 38.8314 15.3063C39.3451 15.2543 39.8517 15.1587 40.3649 15.1044C42.2417 14.9952 44.1167 14.9162 45.9932 14.8164C49.2838 14.6402 52.5975 14.5352 55.8678 14.0985C57.5973 13.9177 59.3231 13.7456 61.0664 13.6936C61.7406 13.6756 62.4398 13.641 63.113 13.6745C63.3991 13.6853 63.1073 13.7735 62.9962 13.8523C61.7272 14.723 60.1768 15.2625 58.7243 15.7135C58.2693 15.8679 57.8121 16.0221 57.345 16.1491C56.9274 16.2804 56.6364 16.3782 56.4687 16.4518C56.9728 16.3964 57.395 16.2854 57.997 16.2027C59.9125 15.9213 61.8427 15.6447 63.7789 15.5243C65.7669 15.4014 67.7559 15.336 69.7436 15.2396" stroke="#9AA511" stroke-width="0.09"/>
<path d="M6.68985 7.24384C5.9955 7.44751 5.32995 7.71475 4.62344 7.8759C3.74168 8.0756 2.86643 8.2861 1.97803 8.46131C2.26245 8.51368 2.59546 8.64317 2.89649 8.78444C3.6207 8.82831 4.72431 8.91417 5.5779 8.92824C6.67698 9.11328 7.87356 9.056 8.98679 9.08052C14.604 9.20877 20.2254 8.8925 25.8456 8.99339C26.4247 9.00222 27.0024 9.04071 27.5783 9.07721C27.7898 9.09011 27.8288 9.09686 28.0151 9.10339C27.9981 9.12096 28.1615 9.12291 28.1637 9.17289C27.9413 9.29028 27.6248 9.4006 27.3387 9.4691C27.0243 9.57258 26.6953 9.63952 26.3687 9.70328C25.0526 10.1055 23.7039 10.4091 22.3695 10.7367C20.2357 11.3002 18.0914 11.7934 15.9175 12.1854C14.6047 12.4273 13.2592 12.6929 11.933 12.8658C11.5486 12.9364 11.4369 12.9612 11.1884 13.0053C11.9476 13.0075 12.4873 13.0202 13.2654 13.0177C13.4738 13.0404 14.0805 13.0463 14.3133 13.0448C15.1161 13.0988 15.9208 13.1335 16.7256 13.1639C20.2699 13.3133 23.8258 13.368 27.3726 13.4417C30.6785 13.5017 34.1819 13.5122 37.3304 13.4569C39.6926 13.4212 42.0522 13.3065 44.4137 13.2946C44.6105 13.3239 44.8164 13.3219 45.0125 13.3701C44.9867 13.4066 44.6352 13.5367 44.5378 13.5738C43.4621 13.9607 42.3571 14.2563 41.2697 14.6081C40.3349 14.9079 39.3582 15.3602 38.4549 15.6653C38.6089 15.6534 38.5742 15.6691 38.8521 15.6428C39.3402 15.5943 39.8218 15.5056 40.3096 15.4554C42.214 15.3473 44.1166 15.2685 46.0207 15.167C49.3861 14.9867 52.7753 14.8788 56.1193 14.4277C57.8428 14.2414 59.5625 14.0635 61.3003 14.0106C61.9614 13.9924 62.6455 13.9619 63.3058 13.9923C63.5899 14.0021 63.3045 14.0827 63.1931 14.1613C61.8915 15.0534 60.2995 15.6044 58.8093 16.0648C58.3499 16.2188 57.8886 16.3735 57.4176 16.5008C57.022 16.6242 56.758 16.7148 56.621 16.7799C57.1446 16.7219 57.5934 16.6038 58.2055 16.5179C60.1638 16.226 62.1365 15.9437 64.1163 15.8206C66.0377 15.7017 67.9599 15.6341 69.8809 15.5364" stroke="#9BA310" stroke-width="0.09"/>
<path d="M6.79365 7.44519C6.06871 7.65644 5.37345 7.93353 4.6359 8.10094C3.71744 8.30814 2.80568 8.52632 1.88037 8.70754C2.07708 8.76576 2.32325 8.8974 2.53704 9.04283C3.17214 9.08765 4.199 9.17148 4.96769 9.18426C6.04895 9.37444 7.23089 9.31575 8.32677 9.33997C14.1196 9.47224 19.9163 9.14604 25.7118 9.25031C26.3037 9.25954 26.8941 9.29926 27.4829 9.33623C27.7002 9.34941 27.7435 9.35593 27.9368 9.36234C27.9259 9.37824 28.1012 9.37732 28.1099 9.42617C27.9129 9.5336 27.619 9.63515 27.3582 9.69838C27.0579 9.79997 26.743 9.86595 26.4308 9.92959C25.0971 10.3426 23.7299 10.6548 22.3771 10.9915C20.1898 11.5724 17.9916 12.081 15.763 12.485C14.4124 12.7345 13.0319 13.0093 11.6673 13.1855C11.279 13.2542 11.1364 13.2832 10.8704 13.3287C11.5516 13.331 12.0063 13.3447 12.707 13.3444C12.8954 13.3685 13.4949 13.3755 13.7085 13.3745C14.5103 13.4308 15.3142 13.4669 16.1182 13.498C19.7198 13.6515 23.3334 13.7039 26.9377 13.7777C30.3456 13.8395 33.9326 13.8524 37.1987 13.7873C39.6508 13.7435 42.1001 13.618 44.5517 13.5993C44.7653 13.6248 44.9883 13.6182 45.2013 13.6634C45.1852 13.6966 44.8329 13.8266 44.7432 13.8608C43.6492 14.2538 42.5241 14.5503 41.4182 14.9077C40.4546 15.2167 39.4596 15.6795 38.5251 15.9946C38.6635 15.984 38.6066 16.0039 38.8728 15.9792C39.3354 15.9341 39.7921 15.8525 40.2544 15.8062C42.1864 15.6992 44.1166 15.6206 46.0484 15.5175C49.4885 15.333 52.9532 15.2222 56.371 14.7568C58.0885 14.5649 59.802 14.3813 61.5342 14.3275C62.1823 14.3092 62.8512 14.2827 63.4986 14.31C63.7809 14.3189 63.5018 14.3917 63.39 14.4703C62.0558 15.3837 60.4224 15.9461 58.8945 16.416C58.4306 16.5696 57.9652 16.7248 57.4904 16.8524C57.1168 16.9679 56.8797 17.0513 56.7734 17.1079C57.3165 17.0472 57.7918 16.9222 58.4141 16.833C60.4152 16.5306 62.4304 16.2426 64.4537 16.1167C66.3086 16.0019 68.1641 15.9322 70.0184 15.8331" stroke="#9DA110" stroke-width="0.09"/>
<path d="M6.89733 7.64664C6.1418 7.86547 5.41683 8.15241 4.64823 8.32607C3.69308 8.54078 2.74482 8.76664 1.78259 8.95387C1.89159 9.01794 2.05092 9.15172 2.17747 9.30131C2.72347 9.34708 3.67356 9.42888 4.35735 9.44037C5.42081 9.6357 6.58811 9.5756 7.66664 9.59951C13.635 9.7358 19.607 9.39967 25.578 9.50732C26.1825 9.51696 26.7856 9.55789 27.3873 9.59533C27.6104 9.60879 27.6581 9.6151 27.8584 9.62139C27.8537 9.63562 28.0408 9.63182 28.056 9.67954C27.8844 9.77701 27.613 9.86981 27.3776 9.92775C27.0913 10.0275 26.7906 10.0925 26.4927 10.156C25.1415 10.5798 23.7559 10.9006 22.3846 11.2465C20.1438 11.8446 17.8918 12.3688 15.6084 12.7847C14.2199 13.0418 12.8045 13.3257 11.4016 13.5053C11.0092 13.5721 10.8358 13.6053 10.5524 13.6522C11.1556 13.6545 11.5252 13.6693 12.1486 13.6713C12.3169 13.6967 12.9092 13.7047 13.1035 13.7042C13.9044 13.7629 14.7075 13.8005 15.5107 13.8322C19.1697 13.9898 22.8409 14.04 26.5026 14.1137C30.0126 14.1773 33.6831 14.1928 37.0669 14.1177C39.609 14.066 42.1478 13.9295 44.6896 13.904C44.92 13.9257 45.1601 13.9145 45.3899 13.9568C45.3836 13.9867 45.0306 14.1167 44.9484 14.1479C43.8362 14.547 42.691 14.8444 41.5667 15.2074C40.5741 15.5257 39.561 15.9989 38.5952 16.324C38.7179 16.3147 38.6388 16.3387 38.8935 16.3157C39.3305 16.2741 39.7622 16.1994 40.199 16.1571C42.1587 16.0512 44.1166 15.9728 46.0759 15.8681C49.5908 15.6795 53.1309 15.5658 56.6225 15.0861C58.334 14.8886 60.0414 14.6992 61.7681 14.6446C62.4032 14.6261 63.0569 14.6035 63.6914 14.6279C63.9718 14.6357 63.699 14.7009 63.5869 14.7794C62.22 15.714 60.5451 16.2879 58.9795 16.7673C58.5111 16.9205 58.0417 17.0763 57.563 17.204C57.2114 17.3117 57.0013 17.3879 56.9257 17.436C57.4883 17.3727 57.9902 17.2407 58.6226 17.1482C60.6665 16.8353 62.7243 16.5416 64.7911 16.413C66.5795 16.3022 68.3682 16.2303 70.1557 16.1299" stroke="#9E9F10" stroke-width="0.09"/>
<path d="M7.00077 7.848C6.21464 8.07442 5.45996 8.3712 4.66032 8.55112C3.66847 8.77333 2.68371 9.00688 1.68457 9.20011C1.70586 9.27004 1.77835 9.40596 1.81765 9.55971C2.27455 9.60643 3.14789 9.6862 3.74677 9.6964C4.79242 9.89687 5.94507 9.83536 7.00625 9.85896C13.1501 9.99928 19.2976 9.65321 25.4438 9.76424C26.0611 9.77429 26.6769 9.81644 27.2915 9.85435C27.5204 9.8681 27.5724 9.87418 27.7798 9.88034C27.7812 9.89291 27.9801 9.88623 28.0019 9.93283C27.8556 10.0203 27.6068 10.1044 27.3968 10.157C27.1245 10.2549 26.838 10.3189 26.5545 10.3823C25.1857 10.817 23.7816 11.1462 22.3919 11.5013C20.0976 12.1167 17.7917 12.6564 15.4535 13.0843C14.0272 13.349 12.5769 13.6421 11.1356 13.825C10.7393 13.8898 10.5349 13.9273 10.2341 13.9756C10.7593 13.978 11.0439 13.9938 11.5899 13.9981C11.7381 14.0248 12.3232 14.0338 12.4982 14.0339C13.2983 14.0949 14.1005 14.134 14.9029 14.1664C18.6192 14.328 22.3481 14.376 26.0673 14.4497C29.6793 14.515 33.4334 14.533 36.9348 14.4481C39.5668 14.3884 42.1953 14.241 44.8272 14.2088C45.0745 14.2266 45.3317 14.2107 45.5784 14.2501C45.5818 14.2768 45.2279 14.4066 45.1534 14.4349C44.0229 14.8402 42.8576 15.1384 41.7149 15.507C40.6934 15.8345 39.662 16.3182 38.665 16.6534C38.7721 16.6453 38.6708 16.6735 38.9139 16.6522C39.3254 16.614 39.7321 16.5462 40.1435 16.5079C42.1307 16.4032 44.1162 16.325 46.1032 16.2187C49.6929 16.0259 53.3084 15.9092 56.8738 15.4152C58.5792 15.2121 60.2805 15.017 62.0016 14.9615C62.6238 14.9429 63.2623 14.9243 63.8839 14.9456C64.1624 14.9525 63.896 15.01 63.7835 15.0885C62.384 16.0443 60.6676 16.6297 59.0643 17.1186C58.5914 17.2713 58.118 17.4276 57.6354 17.5556C57.3057 17.6554 57.1227 17.7245 57.0778 17.764C57.6598 17.6981 58.1883 17.5591 58.8309 17.4633C60.9175 17.14 63.0178 16.8405 65.1282 16.7092C66.8501 16.6025 68.572 16.5283 70.2928 16.4267" stroke="#A09D10" stroke-width="0.09"/>
<path d="M7.23304 8.04944C6.41632 8.28344 5.63193 8.59006 4.80125 8.77624C3.7727 9.00595 2.75144 9.24719 1.71539 9.44643C1.64896 9.52221 1.63461 9.66028 1.58667 9.81818C1.95447 9.86585 2.75105 9.9436 3.26503 9.95251C4.29287 10.1581 5.43088 10.0952 6.4747 10.1185C12.7941 10.2628 19.117 9.90683 25.4386 10.0212C26.0686 10.0317 26.697 10.0751 27.3246 10.1134C27.5593 10.1275 27.6156 10.1333 27.83 10.1394C27.8375 10.1503 28.0482 10.1407 28.0766 10.1862C27.9556 10.2638 27.7294 10.339 27.5448 10.3864C27.2865 10.4823 27.0142 10.5454 26.745 10.6087C25.3587 11.0542 23.9361 11.392 22.5279 11.7562C20.1802 12.3889 17.8205 12.9441 15.4275 13.384C13.9633 13.6563 12.4781 13.9585 10.9984 14.1448C10.5981 14.2077 10.3629 14.2493 10.0446 14.2991C10.4918 14.3016 10.6914 14.3185 11.16 14.3249C11.2882 14.353 11.8661 14.3631 12.0218 14.3637C12.821 14.427 13.6224 14.4676 14.4239 14.5006C18.1977 14.6663 21.9842 14.712 25.7609 14.7858C29.4749 14.8529 33.3125 14.8733 36.9316 14.7786C39.6536 14.7108 42.3716 14.5525 45.0937 14.5135C45.3578 14.5276 45.6321 14.507 45.8957 14.5435C45.9087 14.5669 45.5542 14.6966 45.4872 14.722C44.3384 15.1334 43.1531 15.4326 41.9919 15.8067C40.9415 16.1434 39.892 16.6376 38.8637 16.9828C38.9552 16.9759 38.8316 17.0084 39.0631 16.9887C39.4491 16.9539 39.8309 16.8932 40.2167 16.8589C42.2316 16.7552 44.2448 16.6772 46.2593 16.5693C49.9237 16.3723 53.6148 16.2527 57.2539 15.7444C58.9533 15.5358 60.6485 15.3349 62.3641 15.2785C62.9732 15.2598 63.5965 15.2452 64.2052 15.2634C64.4819 15.2693 64.2218 15.3192 64.109 15.3975C62.6769 16.3747 60.9189 16.9715 59.2779 17.4699C58.8006 17.6222 58.3231 17.779 57.8366 17.9073C57.5289 17.9992 57.3729 18.0611 57.3587 18.0921C57.9602 18.0235 58.5152 17.8776 59.168 17.7785C61.2974 17.4447 63.4403 17.1394 65.5942 17.0054C67.2495 16.9028 68.9047 16.8264 70.5588 16.7235" stroke="#A19C10" stroke-width="0.09"/>
<path d="M7.59864 8.25089C6.75132 8.49247 5.93723 8.80894 5.07551 9.00137C4.01026 9.23858 2.95249 9.48751 1.87953 9.69276C1.72539 9.77438 1.62419 9.9146 1.48901 10.0767C1.76771 10.1253 2.48753 10.201 2.91661 10.2086C3.92664 10.4194 5.05 10.355 6.07648 10.378C12.5714 10.5264 19.0697 10.1605 25.5666 10.2783C26.2094 10.2891 26.8505 10.3337 27.491 10.3726C27.7314 10.3869 27.7921 10.3925 28.0135 10.3984C28.0272 10.4077 28.2497 10.3952 28.2846 10.4396C28.189 10.5072 27.9853 10.5737 27.8261 10.6158C27.5818 10.7098 27.3237 10.7719 27.0689 10.8351C25.6651 11.2914 24.2239 11.6378 22.7974 12.0111C20.3961 12.6612 17.9825 13.2318 15.5348 13.6836C14.0327 13.9636 12.5126 14.2749 10.9946 14.4647C10.5903 14.5256 10.3242 14.5714 9.98846 14.6226C10.3577 14.6251 10.4722 14.6431 10.8634 14.6518C10.9716 14.6812 11.5423 14.6923 11.6787 14.6935C12.477 14.7591 13.2776 14.8012 14.0783 14.8348C17.9094 15.0046 21.7535 15.0481 25.5877 15.1219C29.4038 15.1907 33.325 15.2136 37.0617 15.1091C39.8736 15.0333 42.6813 14.8641 45.4935 14.8183C45.7744 14.8286 46.0659 14.8033 46.3462 14.8369C46.369 14.8571 46.0137 14.9867 45.9543 15.0091C44.7873 15.4266 43.5819 15.7267 42.4022 16.1064C41.3229 16.4523 40.2552 16.957 39.1957 17.3122C39.2715 17.3066 39.1257 17.3433 39.3457 17.3252C39.7061 17.2939 40.063 17.2401 40.4233 17.2098C42.4658 17.1073 44.5066 17.0295 46.5488 16.9199C50.288 16.7188 54.0544 16.5963 57.7674 16.0736C59.4608 15.8594 61.1498 15.6528 62.8598 15.5955C63.4559 15.5767 64.0641 15.566 64.6599 15.5812C64.9347 15.5861 64.6809 15.6283 64.5678 15.7066C63.103 16.705 61.3036 17.3134 59.6248 17.8212C59.143 17.9731 58.6615 18.1304 58.1712 18.259C57.8854 18.343 57.7564 18.3977 57.7729 18.4202C58.3939 18.349 58.9755 18.196 59.6385 18.0937C61.8106 17.7494 63.996 17.4384 66.1935 17.3017C67.7823 17.2031 69.3707 17.1245 70.958 17.0203" stroke="#A39A0F" stroke-width="0.09"/>
<path d="M7.96423 8.45225C7.08633 8.70141 6.24252 9.02773 5.34976 9.22642C4.24782 9.47113 3.15355 9.72774 2.04366 9.939C1.80182 10.0265 1.61378 10.1688 1.39136 10.3351C1.58095 10.3846 2.22401 10.4583 2.56819 10.4646C3.56041 10.6805 4.66913 10.6148 5.67826 10.6375C12.3488 10.7899 19.0224 10.414 25.6947 10.5352C26.3501 10.5464 27.004 10.5922 27.6574 10.6316C27.9036 10.6462 27.9686 10.6516 28.197 10.6574C28.2169 10.665 28.4511 10.6496 28.4926 10.6928C28.4224 10.7505 28.2413 10.8082 28.1074 10.8451C27.8772 10.9372 27.6332 10.9983 27.3928 11.0614C25.9714 11.5285 24.5118 11.8835 23.0668 12.266C20.612 12.9333 18.1446 13.5195 15.6421 13.9832C14.1022 14.2708 12.5471 14.5913 10.9907 14.7844C10.5825 14.8434 10.2855 14.8934 9.93231 14.946C10.2235 14.9486 10.253 14.9676 10.5669 14.9786C10.655 15.0094 11.2185 15.0214 11.3356 15.0231C12.133 15.0911 12.9328 15.1347 13.7327 15.1689C17.6211 15.3428 21.5229 15.3841 25.4146 15.4579C29.3327 15.5284 33.3374 15.5538 37.1918 15.4394C40.0937 15.3556 42.9909 15.1756 45.8934 15.123C46.191 15.1294 46.4996 15.0995 46.7968 15.1303C46.8293 15.1471 46.4733 15.2766 46.4214 15.2961C45.2362 15.7197 44.0106 16.0207 42.8126 16.406C41.7043 16.7612 40.6184 17.2763 39.5277 17.6415C39.5879 17.6372 39.4199 17.6781 39.6283 17.6617C39.9632 17.6338 40.295 17.5869 40.6299 17.5606C42.7 17.4592 44.7684 17.3816 46.8383 17.2705C50.6522 17.0652 54.4941 16.9397 58.2808 16.4028C59.9682 16.183 61.6511 15.9707 63.3556 15.9124C63.9387 15.8934 64.5316 15.8868 65.1146 15.899C65.3875 15.9029 65.14 15.9374 65.0266 16.0156C63.5291 17.0353 61.6882 17.6551 59.9717 18.1724C59.4855 18.3239 59 18.4818 58.5057 18.6105C58.242 18.6868 58.1399 18.7342 58.1871 18.7482C58.8276 18.6743 59.4357 18.5144 60.1089 18.4088C62.3238 18.054 64.5517 17.7373 66.7928 17.5978C68.315 17.5034 69.8367 17.4225 71.3573 17.317" stroke="#A4980F" stroke-width="0.09"/>
<path d="M8.32971 8.65369C7.42121 8.91043 6.5477 9.24659 5.62389 9.45154C4.48525 9.70376 3.35448 9.96805 2.20768 10.1853C1.87812 10.2786 1.60325 10.4232 1.29358 10.5935C1.39407 10.6441 1.96037 10.7157 2.21965 10.7207C3.19406 10.9418 4.28814 10.8746 5.27992 10.897C12.126 11.0534 18.9749 10.6676 25.8226 10.7922C26.4908 10.8039 27.1573 10.8509 27.8236 10.8907C28.0756 10.9056 28.145 10.9107 28.3804 10.9164C28.4064 10.9223 28.6525 10.9041 28.7005 10.9462C28.6557 10.9939 28.4971 11.0429 28.3886 11.0744C28.1724 11.1647 27.9426 11.2249 27.7166 11.2878C26.2776 11.7657 24.7995 12.1292 23.3361 12.5209C20.8278 13.2055 18.3066 13.8072 15.7492 14.2829C14.1715 14.578 12.5815 14.9078 10.9867 15.1042C10.5746 15.1613 10.2467 15.2154 9.87605 15.2695C10.0893 15.2722 10.0336 15.2922 10.2702 15.3054C10.3383 15.3376 10.8946 15.3506 10.9924 15.3529C11.7889 15.4232 12.5879 15.4682 13.387 15.5031C17.3328 15.6811 21.2922 15.7202 25.2413 15.794C29.2615 15.8663 33.3497 15.8941 37.3218 15.7699C40.3136 15.6781 43.3004 15.4871 46.2931 15.4278C46.6075 15.4304 46.9332 15.3958 47.2473 15.4237C47.2895 15.4372 46.9327 15.5667 46.8885 15.5832C45.6849 16.0129 44.4393 16.3148 43.2228 16.7056C42.0856 17.0701 40.9816 17.5957 39.8596 17.9709C39.9042 17.9679 39.7139 18.0129 39.9107 17.9982C40.2201 17.9737 40.527 17.9339 40.8364 17.9115C42.9341 17.8113 45.0302 17.7339 47.1276 17.6211C51.0163 17.4116 54.9336 17.2833 58.7942 16.732C60.4755 16.5066 62.1523 16.2885 63.8512 16.2294C64.4213 16.2103 64.9991 16.2076 65.5691 16.2168C65.8401 16.2197 65.5991 16.2466 65.4852 16.3247C63.9552 17.3656 62.0728 17.9969 60.3185 18.5237C59.8278 18.6748 59.3383 18.8332 58.8402 18.9622C58.5984 19.0306 58.5233 19.0708 58.6012 19.0763C59.2611 18.9998 59.8959 18.8329 60.5792 18.724C62.8368 18.3587 65.1073 18.0363 67.3919 17.8941C68.8477 17.8037 70.3025 17.7206 71.7564 17.6138" stroke="#A6960F" stroke-width="0.09"/>
<path d="M8.69494 8.85513C7.75585 9.11946 6.85263 9.46546 5.89777 9.67668C4.72244 9.93639 3.55516 10.2084 2.37145 10.4316C1.95418 10.5308 1.59247 10.6775 1.19556 10.852C1.20694 10.9035 1.69649 10.9731 1.87086 10.9769C2.82747 11.203 3.9069 11.1345 4.88133 11.1566C11.9029 11.317 18.9273 10.9213 25.9503 11.0492C26.6312 11.0613 27.3104 11.1095 27.9896 11.1498C28.2474 11.1649 28.3211 11.1699 28.5636 11.1755C28.5957 11.1797 28.8536 11.1586 28.9082 11.1996C28.8887 11.2373 28.7527 11.2775 28.6696 11.3038C28.4674 11.3922 28.2518 11.4514 28.0401 11.5142C26.5836 12.0029 25.087 12.375 23.6051 12.7758C21.0433 13.4778 18.4683 14.0949 15.8562 14.5826C14.2406 14.8853 12.6157 15.2242 10.9825 15.424C10.5664 15.4791 10.2076 15.5375 9.81954 15.593C9.95478 15.5957 9.81409 15.6168 9.97325 15.6323C10.0214 15.6658 10.5704 15.6799 10.649 15.6827C11.4446 15.7553 12.2427 15.8018 13.041 15.8373C17.0441 16.0194 21.0612 16.0562 25.0678 16.1301C29.19 16.2041 33.3618 16.2344 37.4516 16.1004C40.5333 16.0005 43.6097 15.7987 46.6925 15.7326C47.0238 15.7314 47.3666 15.6921 47.6975 15.7171C47.7494 15.7274 47.3919 15.8567 47.3552 15.8703C46.1335 16.3062 44.8677 16.6089 43.6328 17.0053C42.4667 17.379 41.3444 17.9151 40.1912 18.3003C40.2202 18.2986 40.0077 18.3478 40.1929 18.3347C40.4767 18.3137 40.7587 18.2808 41.0426 18.2624C43.168 18.1633 45.2916 18.0861 47.4167 17.9717C51.3801 17.7581 55.3729 17.6268 59.3072 17.0612C60.9826 16.8303 62.6533 16.6064 64.3466 16.5464C64.9036 16.5272 65.4663 16.5285 66.0234 16.5346C66.2926 16.5366 66.0578 16.5557 65.9436 16.6338C64.3809 17.696 62.457 18.3388 60.6651 18.875C60.1699 19.0257 59.6763 19.1846 59.1744 19.3139C58.9545 19.3744 58.9064 19.4074 59.015 19.4044C59.6945 19.3252 60.3558 19.1514 61.0493 19.0392C63.3497 18.6634 65.6627 18.3352 67.9908 18.1903C69.38 18.104 70.7681 18.0187 72.1553 17.9106" stroke="#A7950F" stroke-width="0.09"/>
<path d="M9.06998 9.05649C8.10029 9.3284 7.16736 9.68425 6.18147 9.90172C4.96943 10.1689 3.76566 10.4486 2.54504 10.6779C2.04005 10.7829 1.59149 10.9317 1.10734 11.1104C1.02963 11.1628 1.44242 11.2304 1.53189 11.2329C2.47068 11.4642 3.53547 11.3942 4.49255 11.416C11.6897 11.5805 18.8894 11.1748 26.0878 11.3061C26.7814 11.3186 27.4733 11.368 28.1655 11.4088C28.429 11.4242 28.5071 11.429 28.7566 11.4344C28.7948 11.437 29.0645 11.413 29.1256 11.4529C29.1315 11.4806 29.018 11.5121 28.9603 11.5331C28.7721 11.6196 28.5707 11.6778 28.3734 11.7405C26.8994 12.24 25.3843 12.6207 23.884 13.0307C21.2687 13.7499 18.6398 14.3825 15.9729 14.8822C14.3195 15.1925 12.6596 15.5406 10.9881 15.7437C10.568 15.7969 10.1783 15.8595 9.77284 15.9164C9.83008 15.9192 9.60433 15.9413 9.68613 15.959C9.7142 15.9939 10.256 16.009 10.3153 16.0124C11.11 16.0874 11.9073 16.1353 12.7048 16.1715C16.7653 16.3576 20.84 16.3922 24.9041 16.4661C29.1284 16.5418 33.3837 16.5746 37.5911 16.4308C40.7628 16.3229 43.9288 16.1102 47.1018 16.0373C47.4499 16.0323 47.8098 15.9883 48.1576 16.0104C48.2192 16.0174 47.8609 16.1467 47.8318 16.1573C46.5918 16.5993 45.306 16.903 44.0526 17.3049C42.8576 17.6879 41.7171 18.2344 40.5326 18.6297C40.546 18.6292 40.3112 18.6826 40.4849 18.6711C40.7432 18.6536 41.0002 18.6276 41.2586 18.6133C43.4116 18.5152 45.5629 18.4383 47.7156 18.3222C51.7538 18.1044 55.822 17.9703 59.8301 17.3904C61.4995 17.1538 63.164 16.9243 64.8518 16.8634C65.3958 16.844 65.9433 16.8493 66.4875 16.8523C66.7548 16.8533 66.5264 16.8648 66.4119 16.9428C64.8165 18.0263 62.8511 18.6805 61.0215 19.2262C60.5218 19.3765 60.0242 19.5359 59.5184 19.6654C59.3205 19.7181 59.2994 19.7439 59.4387 19.7324C60.1376 19.6506 60.8255 19.4698 61.5292 19.3543C63.8723 18.9681 66.2279 18.6341 68.5995 18.4865C69.9222 18.4042 71.2435 18.3167 72.564 18.2074" stroke="#A9930E" stroke-width="0.09"/>
</svg>
