<svg width="16" height="24" viewBox="0 0 16 24" fill="none" xmlns="http://www.w3.org/2000/svg">
<path d="M4 24C6.20914 24 8 22.2091 8 20V16H4C1.79086 16 0 17.7909 0 20C0 22.2091 1.79086 24 4 24Z" fill="#0ACF83"/>
<path d="M0 12C0 9.79086 1.79086 8 4 8H8V16H4C1.79086 16 0 14.2091 0 12Z" fill="#A259FF"/>
<path d="M0 4C0 1.79086 1.79086 0 4 0H8V8H4C1.79086 8 0 6.20914 0 4Z" fill="#F24E1E"/>
<path d="M8.00014 0H12.0001C14.2093 0 16.0001 1.79086 16.0001 4C16.0001 6.20914 14.2093 8 12.0001 8H8.00014V0Z" fill="#FF7262"/>
<path d="M16.0001 12C16.0001 14.2091 14.2093 16 12.0001 16C9.791 16 8.00014 14.2091 8.00014 12C8.00014 9.79086 9.791 8 12.0001 8C14.2093 8 16.0001 9.79086 16.0001 12Z" fill="#1ABCFE"/>
</svg>
