<svg width="300" height="300" viewBox="0 0 300 300" fill="none" xmlns="http://www.w3.org/2000/svg">
<mask id="mask0_887_1040" style="mask-type:alpha" maskUnits="userSpaceOnUse" x="61" y="44" width="193" height="205">
<path d="M126.161 44.3913C127.905 52.4038 131.024 56.4509 131.891 65.2059C132.758 73.9609 129.831 73.2048 131.091 81.873C132.351 90.5413 135.625 90.226 136.932 100.068C138.117 108.991 134.836 101.74 135.796 115.328C136.756 128.917 141.721 130.616 142.465 140.742C143.113 149.578 140.392 148.619 141.841 162.063C143.289 175.508 145.509 169.305 146.853 178.553C148.198 187.8 145.19 187.88 146.573 196.46C147.956 205.041 149.235 205.381 150.736 212.647C152.238 219.913 151.343 226.901 152.513 236.39" stroke="#CCFF00"/>
<path d="M129.26 46.7303C130.668 54.7839 133.628 58.9431 134.123 67.7005C134.619 76.4579 131.71 75.5851 132.604 84.2721C133.497 92.9592 136.8 92.7787 137.691 102.637C138.499 111.575 135.514 104.217 135.895 117.794C136.276 131.37 141.191 133.266 141.503 143.384C141.775 152.213 139.083 151.146 139.961 164.599C140.838 178.053 143.335 171.964 144.289 181.231C145.242 190.499 142.217 190.455 143.238 199.06C144.259 207.664 145.529 208.055 146.726 215.355C147.922 222.655 146.724 229.581 147.491 239.081" stroke="#CDFD00"/>
<path d="M132.362 49.0681C133.433 57.1487 136.23 61.4137 136.355 70.1578C136.479 78.9019 133.594 77.9127 134.122 86.6031C134.65 95.2935 137.976 95.2497 138.451 105.106C138.882 114.043 136.197 106.591 136.002 120.131C135.806 133.671 140.663 135.761 140.546 145.854C140.444 154.66 137.785 153.486 138.094 166.924C138.403 180.362 141.171 174.399 141.734 183.67C142.297 192.941 139.26 192.773 139.92 201.387C140.579 210 141.838 210.442 142.729 217.763C143.62 225.084 142.122 231.934 142.488 241.429" stroke="#CEFC00"/>
<path d="M135.47 51.4039C136.205 59.4974 138.835 63.862 138.591 72.5771C138.347 81.2923 135.491 80.1871 135.654 88.8655C135.818 97.5439 139.161 97.6384 139.222 107.476C139.278 116.396 136.894 108.862 136.127 122.341C135.359 135.82 140.15 138.104 139.607 148.152C139.132 156.919 136.51 155.64 136.253 169.038C135.997 182.436 139.029 176.612 139.203 185.87C139.378 195.128 136.334 194.834 136.633 203.442C136.932 212.049 138.178 212.541 138.764 219.871C139.351 227.201 137.556 233.961 137.523 243.435" stroke="#D0FA00"/>
<path d="M138.583 53.7388C138.983 61.8313 141.443 66.2889 140.833 74.9596C140.223 83.6304 137.399 82.4099 137.2 91.061C137.001 99.7122 140.356 99.9464 140.006 109.748C139.689 118.635 137.61 111.031 136.274 124.425C134.939 137.818 139.657 140.294 138.69 150.28C137.846 158.993 135.266 157.609 134.447 170.944C133.628 184.278 136.919 178.604 136.706 187.833C136.494 197.062 133.448 196.642 133.388 205.229C133.328 213.815 134.56 214.357 134.842 221.683C135.124 229.008 133.038 235.667 132.609 245.102" stroke="#D1F800"/>
<path d="M141.702 56.0718C141.768 64.1494 144.054 68.6935 143.082 77.3045C142.109 85.9155 139.324 84.5805 138.765 93.1894C138.206 101.798 141.566 102.173 140.808 111.922C140.12 120.761 138.347 113.098 136.45 126.383C134.552 139.668 139.189 142.333 137.804 152.239C136.595 160.883 134.059 159.395 132.684 172.643C131.308 185.891 134.849 180.377 134.252 189.561C133.656 198.745 130.614 198.198 130.197 206.748C129.781 215.299 130.996 215.891 130.975 223.199C130.955 230.508 128.583 237.053 127.76 246.433" stroke="#D2F600"/>
<path d="M144.824 58.404C144.558 66.4531 146.667 71.077 145.336 79.6131C144.005 88.1493 141.262 86.7008 140.346 95.2524C139.43 103.804 142.791 104.321 141.628 113.999C140.573 122.775 139.107 115.066 136.655 128.219C134.202 141.371 138.751 144.224 136.951 154.032C135.381 162.591 132.896 161 130.969 174.138C129.042 187.276 132.825 181.935 131.848 191.058C130.872 200.181 127.838 199.507 127.068 208.006C126.298 216.505 127.494 217.147 127.172 224.426C126.851 231.705 124.199 238.124 122.987 247.432" stroke="#D3F500"/>
<path d="M147.952 60.7348C147.356 68.7418 149.286 73.4386 147.601 81.885C145.916 90.3314 143.219 88.7706 141.951 97.2503C140.682 105.73 144.036 106.389 142.473 115.981C141.056 124.677 139.898 116.935 136.898 129.932C133.899 142.929 138.351 145.966 136.143 155.66C134.217 164.118 131.785 162.428 129.314 175.433C126.842 188.438 130.86 183.279 129.507 192.326C128.154 201.372 125.134 200.57 124.014 209.003C122.894 217.437 124.069 218.128 123.449 225.365C122.829 232.603 119.904 238.883 118.306 248.104" stroke="#D5F300"/>
<path d="M151.085 63.0663C150.163 71.0177 151.912 75.7805 149.877 84.1225C147.843 92.4646 145.198 90.7929 143.581 99.1861C141.964 107.579 145.306 108.381 143.348 117.869C141.573 126.472 140.723 118.709 137.185 131.528C133.646 144.347 137.995 147.565 135.385 157.127C133.109 165.471 130.735 163.681 127.727 176.53C124.719 189.38 128.963 184.415 127.238 193.369C125.513 202.323 122.513 201.393 121.046 209.747C119.58 218.101 120.732 218.84 119.817 226.024C118.902 233.208 115.71 239.338 113.732 248.455" stroke="#D6F100"/>
<path d="M154.223 65.3969C152.978 73.2795 154.543 78.1014 152.165 86.3247C149.788 94.548 147.199 92.767 145.239 101.06C143.278 109.352 146.601 110.297 144.255 119.665C142.127 128.16 141.586 120.387 137.518 133.006C133.45 145.624 137.688 149.021 134.684 158.435C132.063 166.649 129.751 164.762 126.215 177.434C122.679 190.106 127.14 185.344 125.048 194.191C122.957 203.037 119.981 201.98 118.174 210.24C116.367 218.499 117.494 219.286 116.286 226.404C115.079 233.522 111.628 239.491 109.276 248.49" stroke="#D7EF00"/>
<path d="M157.367 67.7273C155.803 75.5279 157.182 80.4019 154.468 88.4924C151.753 96.5829 149.225 94.6944 146.927 102.872C144.628 111.05 147.927 112.137 145.198 121.371C142.724 129.742 142.49 121.973 137.904 134.369C133.318 146.765 137.436 150.336 134.046 159.586C131.087 167.656 128.842 165.675 124.787 178.148C120.732 190.621 125.4 186.071 122.948 194.795C120.496 203.519 117.552 202.335 115.408 210.487C113.265 218.639 114.365 219.472 112.869 226.513C111.374 233.553 107.671 239.35 104.952 248.214" stroke="#D8EE00"/>
<path d="M160.515 70.058C158.637 77.7639 159.828 82.6829 156.784 90.6269C153.74 98.5708 151.277 96.5767 148.647 104.626C146.017 112.675 149.285 113.905 146.181 122.987C143.367 131.222 143.439 123.468 138.346 135.621C133.253 147.774 137.245 151.515 133.477 160.584C130.189 168.497 128.013 166.423 123.45 178.676C118.887 190.929 123.752 186.6 120.947 195.187C118.141 203.775 115.232 202.464 112.758 210.494C110.284 218.525 111.356 219.404 109.576 226.355C107.797 233.307 103.852 238.921 100.772 247.636" stroke="#DAEC00"/>
<path d="M163.668 72.3891C161.481 79.9877 162.484 84.9445 159.117 92.7285C155.751 100.513 153.358 98.415 150.402 106.323C147.447 114.23 150.678 115.601 147.207 124.518C144.06 132.602 144.436 124.875 138.849 136.763C133.261 148.652 137.121 152.559 132.983 161.433C129.373 169.176 127.271 167.011 122.211 179.023C117.152 191.035 122.204 186.937 119.051 195.372C115.898 203.808 113.031 202.372 110.233 210.268C107.436 218.163 108.477 219.087 106.418 225.938C104.36 232.789 100.18 238.21 96.7481 246.761" stroke="#DBEA00"/>
<path d="M166.827 74.7212C164.337 82.2002 165.149 87.1876 161.468 94.7987C157.788 102.41 155.468 100.211 152.195 107.964C148.922 115.716 152.111 117.228 148.281 125.964C144.808 133.884 145.487 126.196 139.418 137.801C133.348 149.405 137.068 153.474 132.571 162.137C128.648 169.696 126.623 167.443 121.079 179.195C115.535 190.946 120.763 187.085 117.271 195.356C113.78 203.626 110.959 202.066 107.844 209.814C104.73 217.562 105.738 218.53 103.406 225.269C101.074 232.008 96.6696 237.226 92.8929 245.599" stroke="#DCE800"/>
<path d="M169.992 77.0529C167.204 84.4002 167.826 89.4111 163.839 96.8367C159.853 104.262 157.612 101.965 154.029 109.55C150.445 117.135 153.585 118.786 149.405 127.327C145.615 135.07 146.594 127.433 140.057 138.734C133.52 150.035 137.094 154.26 132.248 162.698C128.019 170.061 126.077 167.723 120.061 179.194C114.045 190.665 119.438 187.05 115.615 195.141C111.793 203.233 109.024 201.55 105.6 209.137C102.177 216.725 103.15 217.736 100.55 224.352C97.9501 230.969 93.3304 235.975 89.2182 244.156" stroke="#DDE700"/>
<path d="M173.161 79.3869C170.083 86.5908 170.513 91.6179 166.23 98.8457C161.946 106.074 159.788 103.68 155.903 111.086C152.018 118.491 155.102 120.28 150.582 128.611C146.484 136.165 147.76 128.59 140.77 139.568C133.78 150.547 137.201 154.924 132.017 163.123C127.493 170.277 125.635 167.857 119.161 179.029C112.687 190.201 118.234 186.838 114.09 194.738C109.946 202.638 107.234 200.834 103.509 208.248C99.784 215.663 100.721 216.715 97.8592 223.199C94.9973 229.682 90.1725 234.468 85.7341 242.444" stroke="#DFE500"/>
<path d="M176.336 81.7217C172.974 88.7708 173.213 93.8069 168.642 100.825C164.072 107.843 162 105.357 157.822 112.571C153.644 119.784 156.667 121.709 151.817 129.818C147.42 137.17 148.989 129.668 141.562 140.307C134.135 150.946 137.395 155.469 131.885 163.415C127.076 170.349 125.307 167.849 118.389 178.704C111.472 189.559 117.161 186.455 112.704 194.15C108.247 201.845 105.598 199.921 101.58 207.151C97.562 214.381 98.4609 215.474 95.3438 221.814C92.2266 228.154 87.2069 232.711 82.4523 240.468" stroke="#E0E300"/>
<path d="M179.514 84.0577C175.877 90.9409 175.923 95.9788 171.076 102.776C166.228 109.573 164.247 106.998 159.786 114.007C155.324 121.017 158.279 123.077 153.11 130.95C148.423 138.088 150.282 130.672 142.433 140.953C134.585 151.234 137.68 155.897 131.855 163.579C126.772 170.281 125.094 167.705 117.749 178.225C110.403 188.745 116.222 185.906 111.462 193.384C106.702 200.862 104.122 198.821 99.8194 205.855C95.5172 212.889 96.3763 214.021 93.0108 220.207C89.6454 226.394 84.4416 230.714 79.3812 238.241" stroke="#E1E100"/>
<path d="M182.7 86.3961C178.795 93.1028 178.65 98.1352 173.536 104.701C168.422 111.266 166.535 108.604 161.799 115.399C157.063 122.195 159.945 124.386 154.468 132.011C149.502 138.925 151.645 131.604 143.393 141.511C135.141 151.418 138.063 156.216 131.936 163.619C126.59 170.079 125.007 167.431 117.249 177.599C109.491 187.768 115.428 185.199 110.375 192.448C105.323 199.697 102.816 197.542 98.2389 204.369C93.662 211.195 94.4794 212.365 90.873 218.388C87.2666 224.411 81.8897 228.487 76.5346 235.771" stroke="#E2E000"/>
<path d="M185.889 88.7361C181.725 95.2558 181.389 100.276 176.019 106.599C170.649 112.923 168.861 110.177 163.861 116.747C158.861 123.318 161.664 125.639 155.89 133.003C150.655 139.681 153.079 132.468 144.44 141.985C135.801 151.502 138.545 156.428 132.13 163.542C126.531 169.749 125.047 167.031 116.893 176.832C108.738 186.633 114.781 184.339 109.447 191.348C104.113 198.357 101.684 196.09 96.842 202.699C92.0001 209.307 92.7743 210.513 88.9347 216.364C85.095 222.215 79.5564 226.039 73.9179 233.069" stroke="#E4DE00"/>
<path d="M189.083 91.0781C184.668 97.4011 184.142 102.401 178.528 108.473C172.913 114.544 171.227 111.719 165.974 118.054C160.72 124.389 163.438 126.837 157.38 133.93C151.887 140.361 154.586 133.266 145.579 142.378C136.571 151.49 139.132 156.538 132.441 163.351C126.602 169.296 125.219 166.512 116.686 175.931C108.153 185.349 114.288 183.334 108.683 190.092C103.079 196.85 100.733 194.473 95.6366 200.854C90.5399 207.235 91.2693 208.475 87.2046 214.144C83.1398 219.814 77.451 223.381 71.5409 230.146" stroke="#E5DC00"/>
<path d="M192.283 93.4224C187.626 99.5389 186.911 104.512 181.063 110.322C175.216 116.132 173.635 113.231 168.14 119.321C162.644 125.412 165.271 127.983 158.941 134.794C153.201 140.969 156.17 134.002 146.813 142.695C137.455 151.388 139.827 156.551 132.874 163.053C126.807 168.726 125.529 165.88 116.634 174.901C107.74 183.922 113.955 182.19 108.092 188.687C102.229 195.184 99.9715 192.701 94.6306 198.844C89.2896 204.987 89.9727 206.26 85.6912 211.739C81.4097 217.219 75.5825 220.523 69.4132 227.013" stroke="#E6DA00"/>
<path d="M195.488 95.7695C190.598 101.671 189.695 106.61 183.627 112.15C177.559 117.69 176.087 114.716 170.36 120.552C164.633 126.389 167.164 129.08 160.575 135.599C154.601 141.509 157.834 134.679 148.146 142.94C138.457 151.201 140.635 156.472 133.435 162.653C127.152 168.046 125.98 165.142 116.743 173.752C107.506 182.362 113.788 180.916 107.678 187.142C101.568 193.368 99.4042 190.781 93.8299 196.677C88.2557 202.574 88.8909 203.877 84.4014 209.159C79.912 214.441 73.9586 217.476 67.5426 223.681" stroke="#E7D900"/>
<path d="M198.697 98.1194C193.585 103.796 192.496 108.694 186.219 113.956C179.942 119.217 178.583 116.176 172.636 121.75C166.689 127.323 169.118 130.131 162.284 136.347C156.087 141.984 159.578 135.302 149.579 143.118C139.579 150.935 141.558 156.306 134.125 162.156C127.64 167.261 126.577 164.303 117.016 172.489C107.455 180.676 113.791 179.518 107.447 185.464C101.102 191.41 99.0359 188.723 93.2397 194.364C87.4434 200.004 88.0293 201.337 83.341 206.413C78.6526 211.489 72.5851 214.25 65.9356 220.161" stroke="#E9D700"/>
<path d="M201.911 100.472C196.587 105.917 195.313 110.767 188.84 115.742C182.368 120.717 181.124 117.613 174.969 122.915C168.814 128.218 171.136 131.139 164.07 137.043C157.664 142.397 161.405 135.873 151.115 143.234C140.825 150.594 142.6 156.058 134.95 161.57C128.274 166.379 127.324 163.371 117.458 171.121C107.592 178.871 113.969 178.005 107.403 183.662C100.837 189.319 98.8728 186.536 92.8661 191.912C86.8594 197.289 87.3947 198.65 82.5168 203.512C77.6388 208.375 71.4698 210.859 64.6 216.466" stroke="#EAD500"/>
<path d="M205.129 102.829C199.603 108.033 198.147 112.828 191.491 117.51C184.836 122.193 183.711 119.028 177.36 124.052C171.01 129.077 173.219 132.106 165.936 137.691C159.332 142.755 163.317 136.398 152.757 143.292C142.197 150.185 143.763 155.735 135.911 160.899C129.059 165.406 128.223 162.352 118.072 169.655C107.921 176.959 114.325 176.384 107.55 181.744C100.776 187.104 98.9185 184.229 92.7132 189.334C86.508 194.439 86.9914 195.825 81.9335 200.467C76.8755 205.11 70.6175 207.312 63.5411 212.609" stroke="#EBD300"/>
<path d="M208.351 105.188C202.635 110.145 200.999 114.878 194.173 119.26C187.348 123.643 186.344 120.423 179.81 125.162C173.277 129.901 175.369 133.035 167.882 138.292C161.094 143.059 165.315 136.877 154.506 143.295C143.697 149.712 145.051 155.34 137.012 160.15C129.997 164.347 129.278 161.252 118.862 168.098C108.445 174.944 114.865 174.663 107.894 179.718C100.924 184.773 99.1782 181.81 92.7866 186.636C86.395 191.462 86.8253 192.872 81.5972 197.288C76.3691 201.703 70.0348 203.622 62.7658 208.6" stroke="#ECD200"/>
<path d="M211.577 107.552C205.681 112.254 203.867 116.919 196.885 120.996C189.903 125.072 189.023 121.803 182.319 126.249C175.615 130.696 177.585 133.93 169.91 138.852C162.95 143.316 167.4 137.318 156.363 143.251C145.326 149.183 146.465 154.88 138.255 159.33C131.091 163.212 130.491 160.08 119.829 166.46C109.168 172.839 115.588 172.85 108.437 177.594C101.285 182.338 99.6538 179.291 93.0883 183.832C86.5228 188.373 86.8988 189.804 81.5107 193.987C76.1225 198.169 69.7247 199.801 62.2773 204.454" stroke="#EED000"/>
<path d="M214.808 109.919C208.743 114.361 206.754 118.951 199.63 122.716C192.505 126.481 191.751 123.166 184.89 127.315C178.028 131.464 179.871 134.793 172.022 139.374C164.905 143.528 169.576 137.723 158.333 143.163C147.089 148.602 148.008 154.36 139.643 158.444C132.344 162.006 131.865 158.842 120.98 164.746C110.095 170.651 116.503 170.954 109.183 175.38C101.863 179.806 100.351 176.68 93.6245 180.929C86.8977 185.178 87.2184 186.629 81.6805 190.574C76.1425 194.518 69.6942 195.861 62.0828 200.182" stroke="#EFCE00"/>
<path d="M218.044 112.29C211.822 116.465 209.662 120.974 202.408 124.424C195.154 127.873 194.529 124.517 187.524 128.363C180.518 132.208 182.229 135.627 174.221 139.861C166.96 143.7 171.843 138.096 160.416 143.036C148.988 147.976 149.684 153.787 141.181 157.498C133.761 160.737 133.404 157.544 122.316 162.966C111.228 168.388 117.61 168.983 110.136 173.085C102.663 177.188 101.274 173.987 94.3989 177.939C87.5236 181.891 87.7881 183.36 82.1108 187.06C76.4336 190.761 69.9476 191.814 62.1869 195.798" stroke="#F0CC00"/>
<path d="M221.281 114.666C214.914 118.569 212.585 122.991 205.216 126.12C197.847 129.249 197.353 125.858 190.217 129.395C183.08 132.932 184.655 136.436 176.504 140.317C169.113 143.837 174.2 138.441 162.61 142.875C151.02 147.31 151.491 153.165 142.865 156.501C135.339 159.411 135.105 156.195 123.836 161.128C112.566 166.061 118.91 166.946 111.296 170.719C103.683 174.493 102.421 171.222 95.4103 174.872C88.3996 178.523 88.6069 180.006 82.801 183.459C76.9951 186.911 70.4845 187.673 62.5893 191.316" stroke="#F1CB00"/>
<path d="M224.524 117.046C218.023 120.672 215.529 125 208.059 127.805C200.589 130.61 200.228 127.189 192.974 130.414C185.719 133.639 187.155 137.222 178.875 140.746C171.368 143.941 176.65 138.761 164.92 142.685C153.19 146.61 153.433 152.5 144.702 155.456C137.083 158.035 136.975 154.801 125.545 159.239C114.115 163.677 120.407 164.849 112.668 168.29C104.93 171.73 103.798 168.395 96.665 171.739C89.5321 175.083 89.6813 176.579 83.7576 179.779C77.8339 182.978 71.3114 183.45 63.2968 186.746" stroke="#F3C900"/>
<path d="M227.769 119.431C221.146 122.776 218.492 127.003 210.935 129.482C203.378 131.96 203.151 128.513 195.793 131.422C188.435 134.331 189.726 137.988 181.334 141.152C173.725 144.02 179.193 139.062 167.345 142.472C155.498 145.882 155.51 151.799 146.69 154.372C138.994 156.617 139.012 153.369 127.443 157.308C115.874 161.247 122.102 162.704 114.253 165.807C106.403 168.91 105.405 165.515 98.1627 168.549C90.9209 171.583 91.0114 173.09 84.9808 176.033C78.9502 178.976 72.4289 179.157 64.3099 182.104" stroke="#F4C700"/>
<path d="M231.018 121.82C224.285 124.88 221.473 129.002 213.844 131.151C206.214 133.301 206.123 129.833 198.675 132.424C191.226 135.014 192.37 138.739 183.881 141.538C176.184 144.076 181.829 139.347 169.886 142.239C157.943 145.132 157.724 151.067 148.831 153.255C141.072 155.164 141.217 151.908 129.531 155.343C117.846 158.779 123.996 160.517 116.051 163.28C108.105 166.043 107.243 162.594 99.9052 165.314C92.568 168.034 92.5991 169.55 86.4726 172.233C80.3461 174.917 73.8389 174.808 65.6306 177.402" stroke="#F5C600"/>
<path d="M234.271 124.214C227.441 126.986 224.476 130.996 216.788 132.815C209.1 134.633 209.146 131.151 201.621 133.42C194.096 135.689 195.089 139.476 186.519 141.908C178.749 144.113 184.561 139.62 172.545 141.993C160.529 144.366 160.076 150.31 151.128 152.112C143.32 153.683 143.594 150.423 131.813 153.353C120.032 156.282 126.093 158.297 118.065 160.718C110.038 163.138 109.315 159.64 101.895 162.044C94.4762 164.448 94.4474 165.97 88.2362 168.391C82.025 170.811 75.5446 170.414 67.2623 172.653" stroke="#F6C400"/>
<path d="M237.526 126.614C230.61 129.094 227.497 132.987 219.765 134.474C212.033 135.961 212.217 132.47 204.629 134.415C197.042 136.36 197.881 140.204 189.245 142.267C181.416 144.138 187.385 139.885 175.319 141.738C163.252 143.591 162.565 149.535 153.578 150.949C145.736 152.183 146.138 148.924 134.284 151.345C122.43 153.766 128.388 156.055 120.294 158.13C112.2 160.206 111.618 156.664 104.131 158.75C96.6429 160.837 96.5537 162.362 90.269 164.517C83.9843 166.673 77.5434 165.99 69.2025 167.872" stroke="#F8C200"/>
<path d="M240.783 129.018C233.795 131.205 230.538 134.976 222.776 136.13C215.014 137.285 215.337 133.789 207.701 135.41C200.065 137.031 200.746 140.924 192.061 142.618C184.187 144.154 190.303 140.147 178.209 141.48C166.115 142.812 165.192 148.746 156.183 149.772C148.322 150.668 148.853 147.416 136.947 149.328C125.041 151.24 130.885 153.796 122.739 155.526C114.592 157.255 114.155 153.676 106.613 155.443C99.0702 157.209 98.9202 158.736 92.5733 160.624C86.2263 162.513 79.8375 161.547 71.4531 163.071" stroke="#F9C000"/>
<path d="M244.043 131.428C236.994 133.32 233.598 136.962 225.82 137.785C218.042 138.607 218.506 135.113 210.834 136.409C203.163 137.705 203.685 141.641 194.966 142.964C187.061 144.164 193.315 140.408 181.215 141.222C169.115 142.035 167.956 147.95 158.942 148.59C151.076 149.148 151.736 145.907 139.801 147.31C127.865 148.713 133.583 151.532 125.399 152.914C117.215 154.296 116.924 150.686 109.34 152.132C101.757 153.578 101.546 155.103 95.1477 156.723C88.7498 158.344 82.4254 157.097 74.0129 158.264" stroke="#FABF00"/>
<path d="M247.306 133.843C240.209 135.439 236.678 138.949 228.899 139.44C221.12 139.93 221.723 136.444 214.03 137.415C206.338 138.385 206.697 142.358 197.961 143.311C190.039 144.175 196.42 140.675 184.337 140.971C172.254 141.267 170.859 147.153 161.855 147.407C153.999 147.629 154.788 144.405 142.845 145.3C130.901 146.195 136.481 149.269 128.274 150.304C120.068 151.34 119.925 147.704 112.314 148.829C104.702 149.954 104.43 151.476 97.9924 152.827C91.5549 154.178 85.3071 152.654 76.8817 153.463" stroke="#FBBD00"/>
<path d="M250.569 136.264C243.436 137.562 239.776 140.934 232.01 141.095C224.243 141.255 224.987 137.782 217.287 138.428C209.587 139.073 209.782 143.076 201.043 143.66C193.119 144.189 199.617 140.948 187.572 140.729C175.528 140.511 173.898 146.359 164.921 146.23C157.089 146.117 158.007 142.915 146.077 143.303C134.147 143.692 139.577 147.016 131.362 147.704C123.148 148.393 123.155 144.738 115.529 145.542C107.904 146.346 107.57 147.862 101.104 148.943C94.6383 150.025 88.4793 148.229 80.0561 148.682" stroke="#FDBB00"/>
<path d="M253.834 138.691C246.679 139.692 242.895 142.921 235.155 142.753C227.415 142.586 228.299 139.131 220.605 139.453C212.911 139.775 212.94 143.801 204.214 144.017C196.302 144.213 202.907 141.235 190.922 140.505C178.938 139.776 177.073 145.576 168.14 145.067C160.346 144.622 161.393 141.447 149.498 141.332C137.603 141.216 142.872 144.782 134.664 145.126C126.456 145.469 126.614 141.801 118.988 142.285C111.361 142.769 110.967 144.276 104.484 145.088C98.0008 145.899 91.9423 143.836 83.5364 143.934" stroke="#FEB900"/>
</mask>
<g mask="url(#mask0_887_1040)">
<rect x="44.4824" y="32.2419" width="265.164" height="259.885" fill="#190202"/>
</g>
</svg>
