<svg width="224" height="248" viewBox="0 0 224 248" fill="none" xmlns="http://www.w3.org/2000/svg">
<rect x="2.5" y="2.5" width="219" height="243" fill="url(#paint0_linear_884_458)" stroke="url(#paint1_radial_884_458)" stroke-width="5"/>
<mask id="mask0_884_458" style="mask-type:alpha" maskUnits="userSpaceOnUse" x="17" y="22" width="191" height="204">
<path d="M80.6873 22.3884C82.4179 30.3418 85.5147 34.3589 86.3753 43.0493C87.2359 51.7396 84.3301 50.989 85.5807 59.5932C86.8312 68.1974 90.0812 67.8844 91.3788 77.6533C92.5553 86.5107 89.2986 79.3135 90.2514 92.8015C91.2043 106.289 96.1325 107.976 96.8704 118.027C97.5143 126.798 94.8135 125.846 96.2512 139.191C97.6888 152.537 99.8927 146.38 101.227 155.559C102.561 164.738 99.5758 164.817 100.949 173.334C102.322 181.851 103.591 182.188 105.081 189.401C106.571 196.613 105.684 203.55 106.844 212.969" stroke="#CCFF00" stroke-width="0.238194"/>
<path d="M83.7633 24.7101C85.1604 32.7042 88.0991 36.8327 88.5906 45.5254C89.082 54.2181 86.1951 53.3517 87.082 61.9746C87.969 70.5974 91.2473 70.4183 92.1316 80.2033C92.9333 89.0754 89.9705 81.7723 90.3487 95.2484C90.7269 108.724 95.6054 110.606 95.9152 120.65C96.1855 129.413 93.5133 128.354 94.3846 141.708C95.2559 155.062 97.7343 149.018 98.6805 158.217C99.6268 167.416 96.6244 167.373 97.638 175.914C98.6517 184.455 99.9121 184.843 101.1 192.089C102.287 199.335 101.098 206.21 101.859 215.64" stroke="#CDFD00" stroke-width="0.238194"/>
<path d="M86.8415 27.0301C87.9047 35.0509 90.6813 39.2845 90.805 47.964C90.9287 56.6435 88.0651 55.6616 88.5891 64.2877C89.1131 72.9139 92.4143 72.8704 92.8861 82.6542C93.3138 91.5251 90.6482 84.1282 90.4544 97.568C90.2607 111.008 95.0817 113.083 94.9654 123.101C94.8639 131.842 92.2243 130.677 92.5311 144.015C92.838 157.354 95.5853 151.435 96.1442 160.637C96.7032 169.84 93.6887 169.673 94.3435 178.223C94.9982 186.773 96.248 187.212 97.1324 194.479C98.0169 201.746 96.5294 208.545 96.8932 217.97" stroke="#CEFC00" stroke-width="0.238194"/>
<path d="M89.9268 29.3487C90.6564 37.3824 93.2672 41.7147 93.025 50.3655C92.7829 59.0163 89.9475 57.9192 90.1098 66.5335C90.272 75.1478 93.5905 75.2416 93.6515 85.0068C93.7067 93.8608 91.3409 86.3821 90.5789 99.7613C89.8169 113.141 94.5728 115.408 94.0331 125.382C93.5621 134.084 90.9593 132.814 90.7046 146.113C90.4498 159.413 93.4597 153.631 93.6328 162.821C93.8059 172.011 90.7844 171.719 91.0813 180.263C91.3781 188.807 92.6152 189.296 93.197 196.571C93.7788 203.847 91.9974 210.557 91.965 219.961" stroke="#D0FA00" stroke-width="0.238194"/>
<path d="M93.0183 31.6659C93.4151 39.6986 95.8567 44.1233 95.2513 52.73C94.646 61.3366 91.8433 60.1251 91.6458 68.7124C91.4483 77.2997 94.7783 77.5321 94.4308 87.2615C94.1157 96.0831 92.0519 88.5346 90.7264 101.829C89.4008 115.124 94.084 117.582 93.1243 127.494C92.2869 136.143 89.7252 134.769 88.9126 148.005C88.1001 161.241 91.3659 155.609 91.1552 164.77C90.9445 173.93 87.9211 173.514 87.8618 182.036C87.8024 190.559 89.0248 191.098 89.3048 198.369C89.5848 205.64 87.5142 212.25 87.0881 221.615" stroke="#D1F800" stroke-width="0.238194"/>
<path d="M96.1132 33.982C96.1785 42 98.4477 46.5105 97.4824 55.0579C96.5172 63.6053 93.7519 62.2801 93.1971 70.8254C92.6424 79.3707 95.978 79.7429 95.2252 89.4195C94.5426 98.1932 92.7825 90.5871 90.8992 103.774C89.0159 116.961 93.6187 119.606 92.2432 129.439C91.0431 138.019 88.5266 136.542 87.161 149.692C85.7955 162.842 89.3101 157.369 88.7183 166.485C88.1264 175.602 85.1065 175.059 84.6932 183.546C84.2799 192.032 85.4856 192.62 85.4651 199.875C85.4447 207.13 83.0903 213.626 82.2736 222.937" stroke="#D2F600" stroke-width="0.238194"/>
<path d="M99.2126 36.2969C98.9483 44.2866 101.042 48.8762 99.7209 57.3493C98.3996 65.8224 95.6763 64.3846 94.7675 72.8731C93.8586 81.3615 97.194 81.8744 96.0397 91.4814C94.9931 100.192 93.538 92.5404 91.1036 105.596C88.6692 118.651 93.1839 121.483 91.3977 131.218C89.8392 139.714 87.3721 138.135 85.4593 151.176C83.5466 164.217 87.3022 158.915 86.3327 167.971C85.3631 177.026 82.3518 176.357 81.5875 184.793C80.8232 193.23 82.0101 193.867 81.6911 201.092C81.3721 208.318 78.7397 214.689 77.5363 223.929" stroke="#D3F500" stroke-width="0.238194"/>
<path d="M102.317 38.6113C101.726 46.5591 103.642 51.2212 101.969 59.6052C100.296 67.9892 97.6197 66.4399 96.3605 74.857C95.1014 83.2741 98.4306 83.9282 96.8792 93.449C95.4726 102.081 94.3233 94.3965 91.3455 107.297C88.3678 120.198 92.7869 123.213 90.5957 132.835C88.6836 141.231 86.2701 139.553 83.8168 152.462C81.3636 165.371 85.3521 160.25 84.0089 169.23C82.6656 178.209 79.6683 177.413 78.5565 185.784C77.4446 194.156 78.6108 194.841 77.9956 202.026C77.3804 209.21 74.4765 215.443 72.8908 224.596" stroke="#D5F300" stroke-width="0.238194"/>
<path d="M105.427 40.9251C104.512 48.8178 106.247 53.5454 104.228 61.8258C102.209 70.1062 99.5835 68.4469 97.9785 76.7781C96.3734 85.1093 99.6904 85.9051 97.7472 95.3233C95.9853 103.863 95.1419 96.1567 91.6295 108.881C88.1171 121.605 92.4332 124.8 89.8432 134.291C87.5833 142.573 85.2273 140.796 82.2413 153.551C79.2553 166.306 83.4681 161.377 81.7558 170.265C80.0435 179.153 77.0656 178.23 75.6102 186.522C74.1549 194.814 75.2983 195.548 74.3899 202.679C73.4814 209.809 70.3129 215.894 68.35 224.944" stroke="#D6F100" stroke-width="0.238194"/>
<path d="M108.543 43.2384C107.307 51.0627 108.86 55.849 106.5 64.0116C104.14 72.1741 101.57 70.4063 99.6244 78.6375C97.6783 86.8688 100.977 87.8063 98.6479 97.1059C96.5361 105.538 95.9985 97.8227 91.9609 110.348C87.9233 122.873 92.1291 126.244 89.1475 135.589C86.5459 143.742 84.2515 141.869 80.7413 154.448C77.2311 167.026 81.659 162.299 79.583 171.081C77.5069 179.862 74.5538 178.812 72.7597 187.011C70.9656 195.21 72.0843 195.99 70.8859 203.056C69.6875 210.122 66.2617 216.046 63.9276 224.978" stroke="#D7EF00" stroke-width="0.238194"/>
<path d="M111.663 45.5519C110.11 53.2949 111.479 58.1329 108.785 66.1636C106.091 74.1943 103.581 72.3197 101.3 80.4371C99.0183 88.5545 102.293 89.6337 99.5841 98.7989C97.1282 107.109 96.8957 99.3968 92.3435 111.701C87.7913 124.006 91.8793 127.55 88.514 136.731C85.5775 144.743 83.3485 142.775 79.3237 155.156C75.2988 167.537 79.9324 163.021 77.4985 171.681C75.0646 180.341 72.1416 179.165 70.014 187.257C67.8864 195.348 68.9784 196.175 67.494 203.164C66.0095 210.153 62.3343 215.907 59.6354 224.705" stroke="#D8EE00" stroke-width="0.238194"/>
<path d="M114.788 47.8655C112.923 55.5144 114.106 60.3971 111.084 68.2824C108.063 76.1676 105.618 74.1883 103.007 82.1781C100.396 90.168 103.64 91.3884 100.559 100.404C97.766 108.578 97.8374 100.881 92.7819 112.944C87.7264 125.007 91.6896 128.72 87.9489 137.723C84.6849 145.578 82.5253 143.518 77.9962 155.681C73.467 167.843 78.2963 163.547 75.5111 172.07C72.7259 180.594 69.8385 179.293 67.3832 187.264C64.9278 195.235 65.9912 196.108 64.225 203.008C62.4589 209.908 58.5425 215.481 55.4858 224.131" stroke="#DAEC00" stroke-width="0.238194"/>
<path d="M117.918 50.1792C115.747 57.7216 116.742 62.6418 113.4 70.3684C110.058 78.0949 107.683 76.0129 104.749 83.862C101.816 91.7111 105.023 93.072 101.578 101.923C98.454 109.947 98.8276 102.277 93.2812 114.078C87.7347 125.879 91.566 129.757 87.4589 138.565C83.8752 146.251 81.789 144.102 76.7667 156.025C71.7444 167.949 76.7592 163.88 73.6298 172.254C70.5004 180.627 67.654 179.202 64.8772 187.039C62.1005 194.876 63.1334 195.794 61.0903 202.594C59.0471 209.394 54.8985 214.775 51.4916 223.263" stroke="#DBEA00" stroke-width="0.238194"/>
<path d="M121.053 52.4939C118.581 59.9176 119.387 64.8682 115.734 72.4231C112.08 79.978 109.778 77.7956 106.529 85.491C103.28 93.1863 106.445 94.6869 102.644 103.358C99.1967 111.22 99.8706 103.588 93.8461 115.107C87.8216 126.626 91.5142 130.665 87.0505 139.264C83.1556 146.767 81.1463 144.531 75.643 156.195C70.1397 167.86 75.3293 164.028 71.8634 172.237C68.3974 180.447 65.5973 178.898 62.5061 186.588C59.4149 194.279 60.4154 195.24 58.1005 201.929C55.7857 208.619 51.4138 213.799 47.6651 222.11" stroke="#DCE800" stroke-width="0.238194"/>
<path d="M124.194 54.8088C121.427 62.1018 122.044 67.0757 118.087 74.4464C114.13 81.8171 111.905 79.5368 108.349 87.0658C104.792 94.5948 107.908 96.2339 103.759 104.711C99.9975 112.397 100.969 104.816 94.4805 116.034C87.9919 127.251 91.5389 131.446 86.7288 139.821C82.5317 147.13 80.6032 144.809 74.6316 156.195C68.6601 167.582 74.0136 163.993 70.2193 172.025C66.4251 180.057 63.6766 178.386 60.2783 185.917C56.88 193.449 57.8462 194.452 55.2654 201.02C52.6845 207.587 48.099 212.557 44.0172 220.678" stroke="#DDE700" stroke-width="0.238194"/>
<path d="M127.339 57.1251C124.284 64.2758 124.711 69.2658 120.459 76.4402C116.208 83.6145 114.065 81.2392 110.209 88.5896C106.353 95.94 109.414 97.716 104.928 105.986C100.86 113.483 102.126 105.964 95.1879 116.862C88.2498 127.76 91.6447 132.104 86.4991 140.243C82.0093 147.344 80.165 144.942 73.7389 156.031C67.3127 167.121 72.8187 163.782 68.7049 171.624C64.5911 179.465 61.8997 177.675 58.2022 185.034C54.5046 192.394 55.4348 193.439 52.594 199.874C49.7533 206.31 44.9641 211.06 40.5585 218.977" stroke="#DFE500" stroke-width="0.238194"/>
<path d="M130.49 59.4427C127.154 66.4397 127.39 71.4386 122.854 78.405C118.317 85.3713 116.261 82.9037 112.114 90.0637C107.967 97.2236 110.967 99.1349 106.153 107.183C101.788 114.481 103.345 107.035 95.9732 117.595C88.6011 128.155 91.8374 132.645 86.3677 140.533C81.5951 147.415 79.8385 144.934 72.9721 155.709C66.1058 166.483 71.7527 163.402 67.3286 171.04C62.9045 178.678 60.2754 176.769 56.2871 183.946C52.2987 191.122 53.191 192.207 50.0968 198.5C47.0027 204.793 42.0201 209.316 37.3007 217.017" stroke="#E0E300" stroke-width="0.238194"/>
<path d="M133.646 61.7615C130.036 68.5939 130.082 73.5946 125.271 80.3417C120.459 87.0888 118.492 84.5319 114.064 91.49C109.635 98.4481 112.568 100.493 107.437 108.307C102.785 115.393 104.63 108.031 96.8397 118.236C89.0495 128.442 92.1211 133.071 86.3393 140.695C81.2942 147.348 79.6288 144.791 72.3373 155.233C65.0457 165.676 70.8218 162.857 66.0971 170.28C61.3725 177.703 58.8109 175.677 54.5406 182.659C50.2702 189.641 51.1229 190.765 47.7823 196.905C44.4417 203.046 39.2763 207.334 34.2534 214.805" stroke="#E1E100" stroke-width="0.238194"/>
<path d="M136.808 64.0823C132.932 70.7394 132.788 75.7347 127.712 82.2518C122.635 88.7689 120.763 86.126 116.062 92.8712C111.361 99.6165 114.222 101.792 108.785 109.36C103.855 116.223 105.983 108.957 97.7914 118.79C89.6 128.624 92.5008 133.386 86.4192 140.735C81.1126 147.147 79.5416 144.518 71.8406 154.612C64.1397 164.705 70.0327 162.155 65.0178 169.351C60.0029 176.547 57.514 174.407 52.9709 181.183C48.4278 187.959 49.2392 189.12 45.6594 195.099C42.0797 201.078 36.7425 205.123 31.427 212.354" stroke="#E2E000" stroke-width="0.238194"/>
<path d="M139.974 66.4051C135.84 72.8767 135.507 77.8594 130.177 84.1362C124.846 90.4129 123.071 87.6874 118.108 94.2093C113.145 100.731 115.928 103.035 110.196 110.345C105 116.974 107.406 109.814 98.8309 119.26C90.2556 128.707 92.9797 133.597 86.6113 140.658C81.0545 146.819 79.581 144.122 71.487 153.85C63.393 163.579 69.3906 161.301 64.0962 168.259C58.8017 175.217 56.3906 172.966 51.5844 179.526C46.7783 186.086 47.5468 187.282 43.7356 193.09C39.9243 198.897 34.4266 202.694 28.8297 209.672" stroke="#E4DE00" stroke-width="0.238194"/>
<path d="M143.145 68.7297C138.762 75.0059 138.24 79.9689 132.667 85.9956C127.094 92.0222 125.421 89.2176 120.206 95.506C114.991 101.794 117.689 104.224 111.676 111.265C106.223 117.649 108.903 110.606 99.9617 119.65C91.0206 128.695 93.5624 133.706 86.9206 140.469C81.1252 146.37 79.7523 143.607 71.2823 152.955C62.8122 162.304 68.9019 160.304 63.339 167.012C57.7761 173.721 55.4477 171.361 50.3887 177.695C45.3296 184.028 46.0537 185.259 42.0189 190.887C37.9842 196.514 32.3374 200.055 26.471 206.77" stroke="#E5DC00" stroke-width="0.238194"/>
<path d="M146.321 71.0568C141.698 77.1281 140.988 82.0644 135.184 87.8316C129.38 93.5989 127.811 90.719 122.356 96.7643C116.9 102.81 119.508 105.362 113.225 112.122C107.528 118.252 110.475 111.336 101.186 119.965C91.8981 128.594 94.2523 133.719 87.3509 140.172C81.3289 145.804 80.0595 142.979 71.2309 151.934C62.4024 160.888 68.5716 159.169 62.7518 165.618C56.9319 172.067 54.6912 169.602 49.3897 175.699C44.0882 181.797 44.7662 183.06 40.5164 188.5C36.2665 193.939 30.4824 197.218 24.3587 203.66" stroke="#E6DA00" stroke-width="0.238194"/>
<path d="M149.501 73.3868C144.648 79.2443 143.752 84.1468 137.728 89.6459C131.705 95.1449 130.245 92.1936 124.559 97.9867C118.874 103.78 121.387 106.451 114.847 112.922C108.917 118.788 112.126 112.009 102.509 120.209C92.8924 128.409 95.0539 133.641 87.907 139.776C81.6709 145.129 80.5077 142.247 71.3388 150.793C62.1699 159.339 68.4057 157.904 62.3409 164.084C56.2761 170.264 54.1278 167.697 48.5947 173.549C43.0616 179.402 43.6921 180.696 39.2359 185.939C34.7796 191.181 28.8701 194.194 22.5016 200.353" stroke="#E7D900" stroke-width="0.238194"/>
<path d="M152.687 75.7194C147.613 81.3543 146.532 86.2161 140.301 91.4388C134.071 96.6615 132.722 93.6427 126.819 99.175C120.916 104.707 123.327 107.495 116.543 113.665C110.392 119.259 113.857 112.627 103.932 120.386C94.0063 128.145 95.9701 133.476 88.5923 139.283C82.1547 144.35 81.1004 141.414 71.6098 149.54C62.1192 157.666 68.4086 156.517 62.1111 162.419C55.8136 168.321 53.7624 165.654 48.0089 171.253C42.2555 176.852 42.8371 178.175 38.1833 183.213C33.5296 188.251 27.507 190.992 20.9066 196.859" stroke="#E9D700" stroke-width="0.238194"/>
<path d="M155.877 78.0548C150.593 83.459 149.328 88.2732 142.903 93.2118C136.479 98.1505 135.244 95.0685 129.135 100.332C123.025 105.595 125.33 108.495 118.316 114.356C111.957 119.67 115.671 113.194 105.457 120.5C95.2431 127.806 97.0047 133.23 89.4109 138.701C82.7848 143.474 81.8418 140.489 72.0486 148.182C62.2554 155.875 68.5853 155.015 62.0677 160.63C55.5502 166.245 53.6006 163.483 47.6383 168.819C41.676 174.156 42.2073 175.507 37.3654 180.333C32.5235 185.16 26.4 187.626 19.581 193.192" stroke="#EAD500" stroke-width="0.238194"/>
<path d="M159.071 80.3938C153.587 85.5595 152.141 90.3193 145.535 94.9669C138.928 99.6144 137.811 96.4734 131.508 101.46C125.204 106.448 127.397 109.455 120.168 114.998C113.612 120.025 117.568 113.715 107.086 120.557C96.604 127.4 98.159 132.909 90.3644 138.035C83.5631 142.508 82.7338 139.477 72.6575 146.727C62.5812 153.976 68.9385 153.406 62.2138 158.726C55.4891 164.046 53.6456 161.192 47.4862 166.26C41.3268 171.327 41.8067 172.703 36.7861 177.311C31.7655 181.919 25.5537 184.105 18.5296 189.363" stroke="#EBD300" stroke-width="0.238194"/>
<path d="M162.269 82.7362C156.595 87.6562 154.971 92.3549 148.196 96.7047C141.421 101.055 140.425 97.8592 133.939 102.563C127.454 107.266 129.53 110.377 122.099 115.596C115.361 120.328 119.551 114.191 108.822 120.562C98.0924 126.932 99.4368 132.517 91.4568 137.292C84.4938 141.458 83.7804 138.386 73.4409 145.182C63.1014 151.977 69.473 151.698 62.5544 156.715C55.6358 161.733 53.9026 158.792 47.5582 163.583C41.2138 168.373 41.641 169.773 36.4515 174.156C31.262 178.538 24.9745 180.443 17.7592 185.384" stroke="#ECD200" stroke-width="0.238194"/>
<path d="M165.472 85.0819C159.62 89.7495 157.819 94.3803 150.889 98.4267C143.958 102.473 143.085 99.2276 136.431 103.641C129.776 108.055 131.731 111.265 124.113 116.151C117.205 120.582 121.622 114.629 110.666 120.517C99.7109 126.406 100.841 132.061 92.6914 136.477C85.5804 140.331 84.9849 137.222 74.4025 143.555C63.8201 149.887 70.1928 149.898 63.0937 154.607C55.9946 159.315 54.3759 156.291 47.8589 160.798C41.3418 165.306 41.7151 166.726 36.3667 170.878C31.0184 175.03 24.6679 176.65 17.2755 181.268" stroke="#EED000" stroke-width="0.238194"/>
<path d="M168.679 87.4318C162.659 91.8406 160.685 96.3971 153.613 100.134C146.541 103.872 145.793 100.581 138.982 104.699C132.172 108.817 134.001 112.122 126.209 116.669C119.145 120.792 123.781 115.03 112.621 120.43C101.461 125.829 102.373 131.545 94.07 135.598C86.8249 139.134 86.3492 135.993 75.5444 141.854C64.7397 147.715 71.1003 148.016 63.8345 152.409C56.5688 156.802 55.0684 153.699 48.3912 157.917C41.7141 162.135 42.0325 163.575 36.5355 167.49C31.0384 171.406 24.6377 172.739 17.0826 177.028" stroke="#EFCE00" stroke-width="0.238194"/>
<path d="M171.891 89.7856C165.715 93.9298 163.57 98.4056 156.37 101.829C149.17 105.253 148.55 101.922 141.596 105.739C134.642 109.556 136.34 112.95 128.391 117.152C121.184 120.963 126.031 115.4 114.688 120.304C103.345 125.207 104.036 130.976 95.5954 134.659C88.2302 137.874 87.8759 134.705 76.8697 140.087C65.8635 145.469 72.199 146.06 64.7804 150.132C57.3618 154.204 55.9836 151.026 49.1591 154.949C42.3346 158.873 42.5971 160.33 36.9618 164.003C31.3265 167.676 24.8885 168.722 17.1851 172.677" stroke="#F0CC00" stroke-width="0.238194"/>
<path d="M175.105 92.1437C168.785 96.0179 166.473 100.407 159.159 103.513C151.844 106.618 151.354 103.252 144.27 106.763C137.186 110.275 138.75 113.752 130.658 117.605C123.322 121.098 128.372 115.743 116.867 120.144C105.363 124.546 105.83 130.358 97.2683 133.669C89.7974 136.558 89.566 133.365 78.3794 138.262C67.1928 143.159 73.4901 144.037 65.9328 147.782C58.3755 151.528 57.123 148.282 50.1642 151.905C43.2053 155.528 43.411 157.001 37.648 160.428C31.885 163.854 25.4225 164.611 17.5856 168.227" stroke="#F1CB00" stroke-width="0.238194"/>
<path d="M178.324 94.5061C171.87 98.1056 169.395 102.401 161.98 105.186C154.566 107.97 154.207 104.574 147.006 107.775C139.806 110.976 141.23 114.533 133.012 118.031C125.56 121.203 130.803 116.061 119.16 119.956C107.517 123.851 107.758 129.699 99.091 132.632C91.5287 135.192 91.4215 131.982 80.0758 136.387C68.7301 140.793 74.9762 141.956 67.2945 145.371C59.6128 148.786 58.4894 145.475 51.4092 148.795C44.3291 152.114 44.4772 153.599 38.5972 156.775C32.7173 159.951 26.243 160.419 18.2876 163.691" stroke="#F3C900" stroke-width="0.238194"/>
<path d="M181.544 96.8729C174.97 100.193 172.335 104.39 164.834 106.85C157.333 109.31 157.108 105.888 149.804 108.776C142.5 111.664 143.782 115.294 135.452 118.434C127.899 121.281 133.327 116.359 121.567 119.744C109.806 123.129 109.819 129.003 101.064 131.556C93.4243 133.785 93.4425 130.561 81.9592 134.471C70.4758 138.38 76.6579 139.826 68.8662 142.907C61.0745 145.987 60.0834 142.617 52.8951 145.629C45.7068 148.64 45.7967 150.136 39.8106 153.057C33.8245 155.979 27.3514 156.158 19.2924 159.083" stroke="#F4C700" stroke-width="0.238194"/>
<path d="M184.769 99.2446C178.086 102.282 175.295 106.373 167.721 108.507C160.148 110.641 160.058 107.199 152.664 109.77C145.271 112.341 146.407 116.039 137.98 118.817C130.34 121.336 135.943 116.642 124.089 119.513C112.234 122.384 112.016 128.276 103.189 130.448C95.4871 132.342 95.6316 129.11 84.0322 132.52C72.4328 135.93 78.5382 137.656 70.6509 140.398C62.7637 143.141 61.908 139.717 54.6249 142.417C47.3418 145.118 47.3727 146.622 41.2915 149.286C35.2103 151.949 28.7512 151.841 20.6035 154.416" stroke="#F5C600" stroke-width="0.238194"/>
<path d="M187.998 101.621C181.218 104.372 178.275 108.353 170.644 110.158C163.013 111.963 163.059 108.507 155.59 110.759C148.12 113.011 149.106 116.77 140.599 119.185C132.886 121.374 138.655 116.913 126.728 119.269C114.801 121.624 114.351 127.525 105.469 129.313C97.719 130.873 97.9906 127.637 86.2968 130.544C74.6029 133.452 80.619 135.453 72.6508 137.855C64.6826 140.257 63.965 136.785 56.6006 139.172C49.2361 141.558 49.2075 143.068 43.0422 145.471C36.877 147.874 30.4444 147.48 22.2233 149.702" stroke="#F6C400" stroke-width="0.238194"/>
<path d="M191.229 104.003C184.364 106.465 181.274 110.329 173.599 111.805C165.924 113.281 166.107 109.816 158.576 111.747C151.044 113.678 151.877 117.493 143.305 119.541C135.533 121.398 141.459 117.177 129.481 119.016C117.504 120.855 116.822 126.755 107.901 128.158C100.117 129.383 100.517 126.148 88.7499 128.552C76.9833 130.955 82.8978 133.227 74.8633 135.287C66.8287 137.347 66.2518 133.832 58.8194 135.902C51.387 137.973 51.2985 139.487 45.0602 141.627C38.822 143.766 32.4287 143.088 24.1493 144.957" stroke="#F8C200" stroke-width="0.238194"/>
<path d="M194.462 106.39C187.526 108.561 184.292 112.303 176.588 113.449C168.883 114.595 169.204 111.126 161.624 112.735C154.044 114.344 154.721 118.208 146.1 119.889C138.284 121.413 144.355 117.436 132.35 118.759C120.346 120.082 119.429 125.972 110.487 126.991C102.684 127.88 103.211 124.652 91.393 126.55C79.5752 128.448 85.3761 130.985 77.2898 132.701C69.2036 134.418 68.7697 130.866 61.2828 132.619C53.796 134.372 53.6472 135.888 47.3471 137.762C41.0471 139.637 34.7055 138.678 26.383 140.191" stroke="#F9C000" stroke-width="0.238194"/>
<path d="M197.698 108.782C190.701 110.66 187.33 114.275 179.61 115.092C171.889 115.908 172.349 112.44 164.735 113.726C157.12 115.012 157.638 118.919 148.984 120.233C141.137 121.424 147.345 117.696 135.334 118.503C123.324 119.311 122.174 125.182 113.225 125.817C105.417 126.371 106.073 123.154 94.2257 124.547C82.3783 125.939 88.0537 128.737 79.9304 130.109C71.807 131.481 71.5182 127.898 63.9905 129.333C56.4627 130.768 56.2533 132.282 49.9027 133.89C43.552 135.499 37.2744 134.261 28.924 135.419" stroke="#FABF00" stroke-width="0.238194"/>
<path d="M200.936 111.179C193.892 112.763 190.387 116.247 182.665 116.734C174.943 117.221 175.543 113.76 167.907 114.724C160.271 115.687 160.628 119.631 151.956 120.577C144.093 121.435 150.427 117.96 138.433 118.254C126.439 118.547 125.054 124.39 116.117 124.642C108.319 124.863 109.102 121.663 97.2472 122.551C85.3918 123.439 90.9301 126.491 82.7843 127.518C74.6385 128.546 74.4967 124.937 66.9414 126.054C59.3862 127.17 59.116 128.681 52.726 130.022C46.3361 131.363 40.1345 129.851 31.7713 130.654" stroke="#FBBD00" stroke-width="0.238194"/>
<path d="M204.176 113.582C197.096 114.871 193.463 118.218 185.754 118.377C178.044 118.536 178.783 115.089 171.14 115.73C163.497 116.371 163.69 120.344 155.016 120.923C147.151 121.449 153.6 118.232 141.645 118.015C129.689 117.798 128.071 123.602 119.161 123.474C111.386 123.363 112.298 120.184 100.456 120.57C88.614 120.955 94.0039 124.254 85.8501 124.938C77.6964 125.622 77.7032 121.994 70.1339 122.792C62.5646 123.59 62.2336 125.095 55.8155 126.168C49.3974 127.241 43.2839 125.459 34.9229 125.908" stroke="#FDBB00" stroke-width="0.238194"/>
<path d="M207.417 115.99C200.315 116.985 196.559 120.19 188.876 120.023C181.193 119.857 182.071 116.428 174.434 116.747C166.797 117.067 166.825 121.063 158.164 121.277C150.31 121.472 156.866 118.516 144.97 117.792C133.075 117.068 131.223 122.825 122.357 122.319C114.62 121.878 115.659 118.727 103.852 118.612C92.0443 118.497 97.2747 122.037 89.1275 122.378C80.9804 122.719 81.1371 119.078 73.5671 119.558C65.9972 120.039 65.6054 121.535 59.1703 122.341C52.7352 123.146 46.7215 121.098 38.3777 121.195" stroke="#FEB900" stroke-width="0.238194"/>
</mask>
<g mask="url(#mask0_884_458)">
<rect x="-0.388184" y="10.3284" width="263.205" height="257.965" fill="#190202"/>
</g>
<defs>
<linearGradient id="paint0_linear_884_458" x1="98.5" y1="131" x2="315.5" y2="369.5" gradientUnits="userSpaceOnUse">
<stop stop-color="white"/>
<stop offset="1" stop-color="#190202"/>
</linearGradient>
<radialGradient id="paint1_radial_884_458" cx="0" cy="0" r="1" gradientUnits="userSpaceOnUse" gradientTransform="rotate(47.9108) scale(334.186 301.845)">
<stop stop-color="#190202"/>
<stop offset="1" stop-color="#190202"/>
</radialGradient>
</defs>
</svg>
